<?xml version="1.0" encoding="UTF-8" standalone="no"?>
<svg
   xmlns:dc="http://purl.org/dc/elements/1.1/"
   xmlns:cc="http://creativecommons.org/ns#"
   xmlns:rdf="http://www.w3.org/1999/02/22-rdf-syntax-ns#"
   xmlns:svg="http://www.w3.org/2000/svg"
   xmlns="http://www.w3.org/2000/svg"
   xmlns:sodipodi="http://sodipodi.sourceforge.net/DTD/sodipodi-0.dtd"
   xmlns:inkscape="http://www.inkscape.org/namespaces/inkscape"
   version="1.0"
   width="1024.000000pt"
   height="768.000000pt"
   viewBox="0 0 1024.000000 768.000000"
   preserveAspectRatio="xMidYMid meet"
   id="svg2"
   inkscape:version="0.48.2 r9819"
   sodipodi:docname="this-is-for-everyone.svg">
  <defs
     id="defs16" />
  <sodipodi:namedview
     pagecolor="#ffffff"
     bordercolor="#666666"
     borderopacity="1"
     objecttolerance="10"
     gridtolerance="10"
     guidetolerance="10"
     inkscape:pageopacity="0"
     inkscape:pageshadow="2"
     inkscape:window-width="640"
     inkscape:window-height="480"
     id="namedview14"
     showgrid="false"
     inkscape:zoom="0.34766083"
     inkscape:cx="385.5266"
     inkscape:cy="364.94534"
     inkscape:window-x="0"
     inkscape:window-y="0"
     inkscape:window-maximized="0"
     inkscape:current-layer="svg2" />
  <metadata
     id="metadata4">
Created by potrace 1.11, written by Peter Selinger 2001-2013
<rdf:RDF>
  <cc:Work
     rdf:about="">
    <dc:format>image/svg+xml</dc:format>
    <dc:type
       rdf:resource="http://purl.org/dc/dcmitype/StillImage" />
  </cc:Work>
</rdf:RDF>
</metadata>
  <g
     transform="translate(0.000000,768.000000) scale(0.100000,-0.100000)"
     fill="#000000"
     stroke="none"
     id="g6">
    <path
       d="M10215 6701 c-6 -4 -42 -20 -82 -35 -39 -15 -81 -36 -94 -47 -12 -10 -30 -19 -39 -19 -9 0 -25 -7 -36 -15 -10 -8 -26 -15 -36 -15 -15 0 -202 -71 -273 -104 -74 -34 -303 -140 -329 -152 -16 -8 -33 -14 -38 -14 -4 0 -27 -8 -51 -19 -23 -10 -67 -29 -97 -41 -48 -20 -94 -40 -245 -110 -56 -26 -206 -84 -295 -113 -207 -69 -323 -119 -349 -151 -8 -9 -19 -16 -26 -16 -27 0 -75 -57 -75 -89 0 -20 -5 -31 -15 -32 -8 -1 -18 -2 -22 -3 -41 -10 -228 -17 -461 -18 -155 0 -285 -5 -288 -10 -3 -4 -10 -6 -15 -2 -14 8 -157 -25 -199 -46 -34 -17 -73 -57 -115 -116 -11 -15 -28 -35 -39 -43 -23 -20 -123 -167 -156 -230 -14 -27 -37 -63 -52 -80 -16 -18 -28 -39 -28 -47 0 -8 -4 -14 -10 -14 -5 0 -16 -15 -25 -34 -9 -19 -26 -42 -37 -52 -19 -18 -20 -18 -41 7 -12 15 -30 37 -39 50 -107 151 -234 323 -298 404 -44 55 -86 109 -95 120 -81 104 -103 127 -129 140 -42 22 -52 19 -99 -24 -42 -39 -144 -116 -238 -181 -28 -19 -76 -56 -107 -82 -32 -26 -61 -48 -66 -48 -4 0 -27 -15 -50 -32 -22 -18 -48 -38 -56 -45 -8 -6 -51 -40 -95 -75 -44 -35 -100 -76 -126 -93 -51 -34 -111 -81 -178 -140 -25 -23 -73 -61 -106 -85 -33 -25 -66 -53 -72 -62 -7 -9 -30 -27 -50 -39 -46 -28 -135 -96 -184 -141 -52 -47 -99 -72 -139 -75 -19 -1 -78 -7 -130 -13 -52 -6 -160 -13 -240 -15 -80 -2 -194 -6 -255 -10 -91 -5 -237 -11 -365 -15 -14 0 -77 -5 -140 -11 -306 -27 -506 -41 -615 -44 -66 -2 -199 -6 -295 -9 -97 -3 -200 -10 -230 -16 -30 -6 -84 -13 -120 -16 -36 -3 -121 -11 -190 -19 -69 -8 -130 -15 -137 -15 -17 0 -79 -94 -142 -215 -29 -55 -77 -136 -105 -180 -29 -44 -73 -113 -97 -153 -102 -169 -225 -360 -353 -547 -68 -98 -120 -186 -150 -250 -15 -33 -34 -73 -43 -90 -9 -16 -49 -97 -90 -180 -41 -82 -87 -165 -101 -184 -14 -18 -51 -84 -82 -145 -91 -176 -130 -248 -161 -294 -24 -35 -159 -305 -159 -317 0 -2 -27 -61 -61 -132 -33 -70 -74 -164 -91 -208 -17 -44 -43 -108 -59 -143 -16 -34 -29 -69 -29 -76 0 -8 -4 -17 -9 -20 -5 -3 -12 -23 -16 -43 -4 -21 -18 -69 -31 -107 -20 -59 -24 -88 -23 -185 l0 -116 58 165 c105 296 146 403 230 605 56 134 174 373 223 450 17 28 41 76 54 107 13 31 46 94 74 140 89 148 188 302 212 333 24 31 93 149 134 228 13 27 39 72 58 100 33 50 96 169 96 182 0 4 14 26 31 51 17 25 39 64 50 88 10 24 26 49 34 56 8 7 15 18 15 24 0 6 19 38 42 71 23 33 70 120 105 194 42 88 84 159 124 208 33 42 82 119 109 172 57 114 138 248 174 291 14 18 26 35 26 38 0 4 96 6 212 4 181 -3 330 5 463 23 94 13 314 35 405 40 58 3 114 8 125 10 12 2 84 7 160 10 133 6 191 11 205 20 6 4 108 10 314 20 60 3 113 8 118 11 15 9 195 25 328 28 113 3 171 8 238 22 51 10 22 -21 -192 -202 -15 -13 -30 -24 -33 -24 -3 0 -14 -11 -24 -25 -23 -29 -194 -159 -232 -176 -15 -7 -27 -16 -27 -20 0 -5 -15 -15 -33 -23 -17 -7 -45 -26 -62 -42 -16 -15 -68 -61 -115 -102 -47 -42 -113 -102 -146 -135 -35 -33 -67 -56 -73 -53 -17 11 -35 -45 -21 -67 6 -10 8 -22 5 -27 -3 -5 18 -39 46 -77 28 -37 57 -79 64 -93 7 -14 55 -86 106 -160 51 -74 121 -178 157 -230 35 -52 74 -106 86 -120 13 -14 60 -83 106 -155 45 -71 101 -159 123 -194 23 -35 74 -102 114 -149 40 -46 73 -88 73 -92 0 -11 -118 -37 -175 -39 -27 -1 -63 -6 -80 -11 -16 -5 -64 -11 -105 -15 -41 -3 -104 -10 -140 -16 -35 -5 -91 -9 -125 -8 -77 2 -243 -10 -353 -25 -58 -7 -102 -8 -131 -2 -30 6 -58 6 -88 -2 -24 -7 -51 -12 -59 -12 -22 0 -57 -39 -74 -81 -8 -19 -26 -52 -41 -74 -57 -85 -80 -141 -70 -166 11 -31 37 -53 65 -57 12 -1 63 -7 115 -14 73 -9 117 -9 205 1 260 29 436 39 601 34 212 -6 278 -6 385 3 47 3 105 7 130 7 25 -1 53 3 62 8 10 6 19 5 23 -1 4 -6 10 -8 14 -6 4 3 38 7 76 11 39 3 82 8 98 11 15 3 118 7 230 9 111 2 252 8 312 14 61 5 130 8 155 6 25 -2 63 1 85 6 75 20 228 26 385 16 36 -3 70 -2 75 1 12 7 16 9 75 21 25 5 79 9 120 9 41 0 80 1 85 2 25 5 210 0 236 -5 25 -6 27 -4 22 16 -4 16 -2 20 8 17 8 -3 13 -13 13 -22 -3 -25 36 -29 122 -11 64 13 156 23 269 26 6 1 44 -2 85 -5 66 -6 151 -7 203 -3 9 1 17 5 17 10 0 5 10 5 23 1 23 -8 224 -7 237 1 9 5 86 11 278 21 78 3 142 10 142 14 0 5 14 13 30 19 17 5 34 20 39 33 11 28 14 309 3 324 -14 22 -80 27 -352 28 -282 1 -500 -7 -650 -24 -47 -5 -155 -12 -240 -15 l-155 -6 55 51 c30 28 106 95 168 148 63 53 146 125 185 159 40 34 110 93 155 130 46 37 121 100 165 138 81 70 253 209 308 249 15 12 93 76 172 143 146 124 166 149 151 196 -7 21 -73 114 -196 274 -35 46 -104 123 -155 173 l-92 91 42 26 c23 14 72 46 109 70 69 44 226 113 259 113 28 0 101 30 125 52 11 10 26 18 33 18 7 0 9 5 6 10 -3 6 0 11 7 12 7 0 18 2 23 2 15 2 125 77 150 104 12 12 27 22 33 22 6 0 17 9 24 19 8 11 30 27 51 37 20 10 39 26 43 36 3 10 13 18 23 18 10 0 26 8 35 19 13 14 38 20 99 25 45 4 102 12 127 17 25 6 59 12 75 14 17 1 71 12 120 23 133 29 170 32 515 37 173 3 342 10 375 15 33 6 85 10 116 10 l56 0 79 -97 c43 -53 122 -143 174 -199 l95 -102 3 52 c3 49 1 52 -38 86 -22 19 -40 40 -40 47 0 7 -6 16 -13 20 -6 4 -31 33 -54 63 -23 30 -77 92 -122 138 -82 84 -95 90 -171 84 -8 -1 -64 -4 -125 -7 -60 -4 -136 -13 -167 -20 -31 -7 -59 -11 -61 -9 -2 2 -37 -1 -78 -7 -103 -15 -127 -17 -274 -24 -136 -6 -399 -36 -538 -60 -44 -8 -83 -13 -85 -10 -2 2 5 17 17 33 12 17 21 33 21 36 0 3 11 17 25 32 24 26 28 27 59 16 31 -12 40 -8 187 66 85 42 168 83 184 89 48 20 168 64 195 72 23 8 65 26 195 86 123 57 167 75 180 75 12 0 107 40 242 101 23 10 44 19 47 19 9 0 220 90 249 106 15 9 58 26 95 38 l67 23 3 536 c1 296 -1 537 -6 537 -4 0 -12 -4 -17 -9z m-4113 -1038 c55 -61 120 -152 372 -528 44 -66 100 -145 124 -175 23 -30 46 -60 50 -65 4 -6 43 -55 88 -110 104 -130 174 -229 174 -248 0 -20 -18 -33 -57 -42 -18 -3 -35 -11 -39 -16 -3 -5 -27 -20 -54 -34 -72 -37 -114 -67 -151 -111 -19 -21 -40 -43 -47 -47 -7 -5 -38 -45 -68 -90 -31 -45 -69 -101 -86 -125 -98 -140 -88 -305 22 -358 61 -30 156 -27 225 5 28 13 69 32 92 42 39 16 99 52 258 154 28 18 112 73 188 124 75 51 143 91 150 89 18 -4 212 -211 283 -302 91 -115 134 -178 134 -196 0 -33 -273 -271 -451 -395 -82 -57 -156 -115 -284 -224 -49 -42 -107 -89 -127 -105 -21 -15 -40 -35 -43 -44 -3 -10 -27 -30 -53 -47 -83 -52 -195 -145 -257 -214 -33 -36 -110 -120 -171 -186 l-111 -120 -59 -7 c-32 -4 -228 -11 -434 -17 -206 -6 -433 -15 -505 -21 -71 -6 -195 -10 -275 -8 -80 2 -209 1 -288 -1 -161 -4 -137 -14 -229 96 -59 72 -123 165 -123 181 0 6 -8 17 -18 24 -9 7 -26 27 -36 43 -11 17 -25 34 -33 38 -7 4 -13 14 -13 21 0 7 -11 23 -25 36 -14 13 -25 27 -25 32 0 5 -22 36 -49 69 -27 33 -55 73 -62 87 -8 15 -23 34 -34 43 -11 9 -31 38 -43 63 -13 25 -30 46 -38 46 -8 0 -17 13 -21 30 -3 17 -13 36 -23 43 -9 7 -26 30 -37 52 -46 91 -54 103 -74 108 -12 3 -18 10 -14 16 3 6 -9 30 -28 54 -19 23 -58 76 -86 117 -27 41 -68 100 -90 131 -25 35 -42 72 -46 100 l-6 44 63 50 c35 27 79 65 98 83 36 35 248 206 436 352 60 47 132 105 160 130 29 25 74 62 100 83 191 149 240 188 324 258 83 68 195 156 433 342 169 132 254 195 277 207 14 7 83 58 153 114 70 56 152 119 182 141 76 57 166 123 232 173 31 23 59 42 63 42 3 0 18 -12 32 -27z m2126 -7 c31 -34 66 -103 111 -224 38 -100 89 -209 111 -237 17 -21 70 -130 70 -143 0 -30 -82 -147 -146 -207 -5 -5 -21 -26 -33 -45 -47 -70 -275 -242 -366 -275 -27 -10 -54 -22 -60 -26 -5 -3 -34 -12 -64 -18 -60 -13 -171 -54 -216 -81 -16 -10 -53 -27 -81 -38 -28 -11 -73 -35 -99 -54 -27 -18 -59 -37 -70 -43 -12 -5 -55 -34 -96 -63 -116 -83 -258 -177 -334 -223 -38 -23 -95 -58 -126 -78 -30 -21 -71 -43 -90 -50 -19 -7 -46 -19 -61 -27 -35 -19 -125 -26 -166 -13 -49 16 -54 71 -15 209 24 86 53 128 167 236 107 101 216 171 310 199 31 9 48 24 73 60 18 26 33 51 33 56 0 14 -22 10 -41 -7 -16 -15 -20 -14 -41 8 -60 60 -61 60 -38 112 11 26 20 52 20 57 0 21 -22 7 -41 -26 -25 -42 -29 -40 -83 39 l-38 55 21 34 c12 19 21 39 21 46 0 18 -30 13 -36 -6 -19 -60 -19 -60 -57 -8 -20 28 -37 58 -37 68 0 10 13 44 28 75 29 58 214 339 235 357 7 6 24 28 39 51 33 52 137 164 151 164 6 0 18 6 26 14 9 8 30 18 46 21 17 4 50 12 75 17 42 10 171 16 520 22 190 4 297 10 304 17 12 11 54 -3 74 -25z"
       id="path8" />
    <path
       d="M5353 4372 c-26 -21 -30 -62 -53 -520 -5 -106 -12 -197 -15 -202 -9 -15 -31 -12 -78 9 -23 11 -67 27 -97 36 -30 10 -59 21 -65 25 -18 13 -285 101 -337 110 -37 7 -55 7 -65 -2 -23 -19 -62 -103 -54 -116 4 -6 25 -19 46 -28 47 -20 432 -154 553 -192 l82 -26 1 -60 c2 -186 -3 -389 -12 -526 -17 -236 -20 -226 78 -257 49 -16 55 -16 70 0 17 17 19 39 11 222 -3 61 -1 144 4 185 4 41 10 118 13 170 7 165 15 210 34 210 36 0 361 -103 518 -164 197 -76 253 -88 253 -51 0 8 9 15 20 15 14 0 21 9 26 36 3 19 3 39 -2 43 -5 4 -49 18 -99 31 -49 13 -109 31 -133 41 -24 11 -53 21 -65 23 -12 3 -51 14 -86 25 -35 12 -68 21 -74 21 -5 0 -33 11 -61 24 -28 13 -96 41 -151 61 -154 56 -150 53 -147 105 2 25 7 77 12 115 11 86 18 188 26 370 3 77 10 158 14 180 11 49 -2 65 -77 89 -63 20 -63 20 -90 -2z"
       id="path10" />
  </g>
</svg>
