<?xml version="1.0" encoding="UTF-8" standalone="no"?>
<svg
   xmlns:dc="http://purl.org/dc/elements/1.1/"
   xmlns:cc="http://creativecommons.org/ns#"
   xmlns:rdf="http://www.w3.org/1999/02/22-rdf-syntax-ns#"
   xmlns:svg="http://www.w3.org/2000/svg"
   xmlns="http://www.w3.org/2000/svg"
   xmlns:sodipodi="http://sodipodi.sourceforge.net/DTD/sodipodi-0.dtd"
   xmlns:inkscape="http://www.inkscape.org/namespaces/inkscape"
   version="1.0"
   width="1024.000000pt"
   height="768.000000pt"
   viewBox="0 0 1024.000000 768.000000"
   preserveAspectRatio="xMidYMid meet"
   id="svg2"
   inkscape:version="0.48.2 r9819"
   sodipodi:docname="feedback.svg">
  <defs
     id="defs34" />
  <sodipodi:namedview
     pagecolor="#ffffff"
     bordercolor="#666666"
     borderopacity="1"
     objecttolerance="10"
     gridtolerance="10"
     guidetolerance="10"
     inkscape:pageopacity="0"
     inkscape:pageshadow="2"
     inkscape:window-width="640"
     inkscape:window-height="480"
     id="namedview32"
     showgrid="false"
     inkscape:zoom="5.5625733"
     inkscape:cx="-225.23712"
     inkscape:cy="967.25362"
     inkscape:window-x="0"
     inkscape:window-y="0"
     inkscape:window-maximized="0"
     inkscape:current-layer="svg2" />
  <metadata
     id="metadata4">
Created by potrace 1.11, written by Peter Selinger 2001-2013
<rdf:RDF>
  <cc:Work
     rdf:about="">
    <dc:format>image/svg+xml</dc:format>
    <dc:type
       rdf:resource="http://purl.org/dc/dcmitype/StillImage" />
  </cc:Work>
</rdf:RDF>
</metadata>
  <g
     transform="translate(0.000000,768.000000) scale(0.100000,-0.100000)"
     fill="#000000"
     stroke="none"
     id="g6">
    <path
       d="M5375 6569 c-49 -43 -46 -67 20 -146 30 -37 55 -73 55 -81 0 -7 -4 -11 -8 -8 -4 2 -82 7 -172 11 -241 9 -311 -3 -770 -130 -271 -75 -612 -254 -801 -420 -25 -22 -90 -76 -143 -119 -123 -101 -151 -132 -369 -404 -139 -175 -154 -197 -213 -299 -104 -179 -142 -259 -197 -424 -50 -147 -82 -336 -95 -554 -10 -167 -8 -180 33 -205 56 -35 71 -22 79 63 13 140 18 183 32 282 30 204 50 287 118 473 28 76 102 226 143 292 23 36 53 83 67 105 38 61 277 358 369 459 84 92 304 275 446 370 81 55 273 152 406 206 86 35 441 132 590 161 115 22 327 28 445 11 l55 -7 -85 -50 c-47 -27 -94 -54 -105 -60 -11 -6 -26 -22 -34 -36 -21 -38 2 -83 46 -87 26 -3 41 5 75 36 53 48 206 140 248 149 30 6 69 47 56 60 -3 3 -1 12 5 19 15 18 1 59 -29 81 -15 11 -45 47 -67 79 -21 32 -52 74 -67 92 -16 19 -40 51 -53 73 -14 21 -30 39 -35 39 -5 0 -25 -14 -45 -31z"
       id="path8" />
    <path
       d="M6117 6162 c-50 -52 -32 -91 56 -116 28 -8 95 -41 147 -72 52 -31 131 -78 175 -104 44 -26 118 -69 165 -95 47 -27 106 -64 131 -84 54 -42 317 -271 403 -351 81 -75 289 -316 415 -478 38 -49 171 -306 171 -330 0 -9 9 -25 19 -36 20 -22 89 -185 122 -291 39 -121 71 -320 95 -584 14 -154 15 -206 5 -319 -11 -126 -54 -324 -97 -451 -9 -25 -27 -83 -40 -129 -21 -73 -110 -261 -135 -287 -14 -14 -11 92 3 115 17 26 -8 97 -42 121 -45 31 -67 33 -94 6 -23 -23 -24 -30 -18 -88 4 -35 7 -122 6 -194 -1 -115 -4 -135 -24 -173 -20 -38 -21 -46 -9 -68 15 -29 68 -64 96 -64 11 0 31 8 44 18 23 18 297 142 347 157 30 9 28 40 -4 82 -32 42 -55 42 -145 -2 -40 -19 -74 -35 -75 -35 -2 0 18 33 44 73 64 99 162 320 162 366 0 10 16 70 35 132 86 276 106 505 71 819 -8 80 -18 172 -22 205 -11 110 -53 299 -84 385 -17 47 -45 123 -61 170 -34 98 -91 212 -125 253 -13 16 -24 36 -24 44 0 33 -109 185 -270 378 -151 180 -301 333 -431 442 -25 21 -93 79 -150 129 -57 49 -120 102 -139 116 -29 21 -205 125 -339 200 -94 52 -131 74 -187 109 -57 35 -119 59 -155 59 -8 0 -27 -13 -42 -28z"
       id="path10" />
    <path
       d="M2849 2978 c-16 -18 -29 -42 -29 -53 -2 -59 3 -328 6 -375 2 -30 6 -75 7 -100 2 -25 4 -52 5 -61 3 -24 47 -29 78 -8 38 25 54 57 43 87 -13 33 -11 66 5 97 l14 27 13 -23 c7 -13 29 -55 48 -94 65 -126 257 -366 453 -566 338 -345 576 -527 808 -619 121 -48 410 -119 480 -117 35 0 387 -39 425 -48 100 -23 434 -24 557 -1 361 65 561 123 728 211 152 80 300 150 345 165 54 17 213 109 305 175 41 30 99 71 128 91 49 33 53 39 49 68 -8 58 -32 86 -74 86 -8 0 -60 -35 -116 -78 -128 -99 -213 -150 -330 -199 -50 -21 -166 -75 -256 -121 -197 -99 -273 -131 -411 -171 -318 -92 -623 -121 -910 -86 -69 9 -179 22 -245 30 -267 33 -422 65 -594 122 -102 34 -250 112 -302 160 -14 12 -29 23 -33 23 -20 0 -352 291 -456 400 -155 163 -328 372 -390 470 -62 100 -124 240 -106 240 3 0 31 -17 62 -37 100 -67 102 -67 140 -47 41 22 61 65 46 98 -6 13 -34 34 -66 49 -92 44 -238 138 -292 189 -62 59 -92 62 -135 16z"
       id="path12" />
  </g>
</svg>
