<?xml version="1.0" standalone="no"?>
<!DOCTYPE svg PUBLIC "-//W3C//DTD SVG 20010904//EN"
 "http://www.w3.org/TR/2001/REC-SVG-20010904/DTD/svg10.dtd">
<svg version="1.0" xmlns="http://www.w3.org/2000/svg"
 width="362.000000pt" height="458.000000pt" viewBox="0 0 362.000000 458.000000"
 preserveAspectRatio="xMidYMid meet">
<metadata>
Created by potrace 1.11, written by Peter Selinger 2001-2013
</metadata>
<g transform="translate(0.000000,458.000000) scale(0.100000,-0.100000)"
fill="#000000" stroke="none">
<path d="M1955 4292 c-340 -17 -654 -51 -778 -82 -43 -11 -90 -20 -105 -20
-61 2 -142 -22 -153 -44 -6 -11 -26 -35 -44 -52 l-34 -32 0 -263 c-1 -145 -5
-265 -10 -267 -4 -1 -4 -24 1 -50 5 -26 5 -92 2 -147 -8 -114 -8 -118 0 -200
3 -33 8 -141 11 -240 6 -213 11 -299 19 -340 5 -29 18 -391 22 -645 4 -234 12
-395 28 -515 8 -66 15 -151 14 -190 -2 -76 12 -306 18 -317 3 -4 7 -51 9 -105
2 -54 7 -124 11 -155 3 -32 6 -61 6 -65 1 -20 87 -108 123 -125 22 -11 53 -26
68 -35 45 -24 229 -43 407 -42 231 0 374 -2 381 -7 8 -4 182 22 229 36 19 5
67 17 105 26 88 21 123 35 260 105 l110 56 7 126 c3 69 9 143 12 164 3 21 8
175 11 343 3 168 9 364 14 435 6 72 13 254 16 405 3 151 8 300 10 330 3 30 7
177 9 325 3 149 8 311 12 360 12 167 22 970 13 1007 -4 15 -12 33 -18 40 -80
100 -130 132 -222 144 -30 4 -72 14 -94 22 -39 15 -305 23 -470 14z m461 -92
c166 -31 254 -73 254 -120 0 -26 -34 -46 -90 -55 -25 -4 -76 -17 -115 -30 -44
-14 -128 -29 -225 -39 -85 -9 -175 -19 -200 -22 -94 -12 -685 -15 -770 -4
-240 30 -355 73 -329 122 21 39 178 84 379 108 47 6 137 17 200 25 360 44 706
50 896 15z m270 -457 c-5 -232 -8 -299 -25 -433 -5 -36 -7 -108 -5 -160 5
-136 -12 -299 -32 -322 -45 -49 -199 -97 -413 -128 -179 -26 -471 -43 -488
-28 -9 7 -13 7 -13 -2 0 -8 -8 -10 -22 -7 -13 4 -75 7 -138 8 -210 3 -365 35
-556 114 l-31 13 -7 213 c-3 118 -9 306 -11 419 -3 113 -9 272 -14 355 -5 82
-7 153 -4 158 3 4 21 -2 41 -13 65 -39 257 -71 456 -77 311 -9 813 24 997 66
46 10 113 22 149 26 36 3 76 13 90 20 14 8 26 14 27 15 2 0 1 -107 -1 -237z
m-1639 -1054 c212 -96 309 -113 673 -113 238 1 309 4 433 22 82 12 151 21 155
20 24 -6 231 51 284 78 l30 15 -7 -66 c-8 -70 -9 -104 -4 -120 1 -5 -1 -59 -4
-120 -4 -60 -10 -169 -12 -241 -2 -72 -6 -137 -9 -145 -3 -8 -7 -48 -11 -89
-3 -41 -10 -104 -15 -140 -15 -99 -19 -150 -25 -273 -9 -205 -16 -292 -26
-329 -25 -103 -33 -124 -50 -147 -10 -13 -19 -35 -19 -48 0 -53 -94 -133 -155
-133 -14 0 -36 -7 -48 -15 -13 -8 -58 -16 -112 -19 -104 -6 -312 -22 -435 -35
-47 -5 -89 -7 -93 -4 -5 3 -52 6 -105 8 -53 1 -111 3 -127 4 -47 2 -131 81
-164 155 -32 69 -97 281 -152 496 -12 45 -17 104 -29 335 -9 167 -20 318 -34
450 -3 22 -7 87 -10 145 -3 58 -8 158 -12 223 -4 76 -2 117 4 117 6 0 41 -14
79 -31z m1403 -1944 c0 -3 -15 -12 -32 -20 -18 -9 -59 -29 -91 -45 -69 -36
-260 -77 -410 -88 -56 -5 -174 -8 -262 -7 -193 1 -270 16 -327 64 -22 18 -38
35 -36 37 2 2 41 -10 86 -26 92 -33 183 -44 352 -42 237 2 470 41 585 97 60
29 135 46 135 30z"/>
<path d="M2090 3005 c-8 -10 -45 -15 -128 -18 -144 -5 -302 -23 -339 -39 -15
-6 -73 -12 -128 -14 -149 -5 -209 -25 -142 -48 26 -10 309 21 416 45 45 10
378 13 566 5 120 -6 178 0 172 17 -2 6 -19 12 -38 12 -19 1 -47 9 -64 17 -21
11 -52 15 -104 13 -40 -2 -88 1 -105 6 -57 17 -94 18 -106 4z"/>
<path d="M2572 2938 c7 -20 48 -23 48 -4 0 11 -9 16 -26 16 -16 0 -24 -5 -22
-12z"/>
<path d="M1102 2886 c-35 -8 -42 -14 -40 -31 2 -13 10 -19 23 -18 35 3 186 33
196 39 39 23 -93 32 -179 10z"/>
<path d="M987 2843 c-11 -11 -8 -20 9 -27 19 -7 57 11 49 25 -7 10 -48 12 -58
2z"/>
</g>
</svg>
