<?xml version="1.0" standalone="no"?>
<!DOCTYPE svg PUBLIC "-//W3C//DTD SVG 20010904//EN"
 "http://www.w3.org/TR/2001/REC-SVG-20010904/DTD/svg10.dtd">
<svg version="1.0" xmlns="http://www.w3.org/2000/svg"
 width="1596.000000pt" height="568.000000pt" viewBox="0 0 1596.000000 568.000000"
 preserveAspectRatio="xMidYMid meet">
<metadata>
Created by potrace 1.11, written by Peter Selinger 2001-2013
</metadata>
<g transform="translate(0.000000,568.000000) scale(0.100000,-0.100000)"
fill="#000000" stroke="none">
<path d="M13268 5014 c-12 -12 -14 -24 -8 -44 4 -15 4 -34 -1 -41 -15 -24 -10
-73 11 -107 34 -56 46 -179 55 -582 2 -102 7 -212 10 -245 11 -103 16 -292 20
-840 4 -493 9 -711 19 -788 4 -31 9 -131 22 -507 4 -96 6 -258 4 -360 -5 -309
-4 -340 8 -352 7 -7 12 -19 12 -28 1 -21 71 -67 113 -75 24 -5 59 0 104 14 83
25 305 40 823 57 96 3 216 8 265 10 50 3 144 7 210 9 136 4 420 14 605 20 150
5 296 13 368 21 l52 5 0 86 0 85 -37 -6 c-21 -4 -117 -9 -213 -12 -96 -2 -194
-9 -217 -14 -42 -10 -146 -14 -608 -25 -137 -4 -266 -8 -285 -10 -32 -3 -254
-11 -565 -21 -71 -2 -191 -6 -266 -10 -79 -4 -139 -3 -142 2 -5 9 -17 74 -22
124 -2 14 -11 59 -21 100 -15 66 -18 143 -21 645 -6 829 -5 1098 2 1118 4 9 3
17 -1 17 -5 0 -9 30 -8 68 0 37 -3 126 -8 197 -4 72 -10 191 -12 265 -4 157
-24 464 -32 500 -18 78 -22 357 -5 388 11 20 17 20 253 17 312 -4 708 15 858
41 14 2 122 7 240 10 118 2 247 9 285 13 39 5 95 9 125 10 70 2 281 27 436 52
67 10 153 19 193 19 l71 0 0 76 0 75 -112 -6 c-160 -9 -630 -45 -648 -50 -8
-2 -58 -6 -110 -10 -52 -3 -180 -13 -285 -22 -104 -10 -228 -17 -275 -18 -161
0 -522 15 -539 24 -9 5 -56 11 -106 14 -49 3 -135 9 -190 12 -55 4 -107 6
-115 6 -58 -5 -170 7 -169 17 3 22 -4 34 -33 52 -40 24 -88 26 -110 4z"/>
<path d="M12260 4963 c-49 -4 -267 -37 -340 -53 -25 -5 -94 -12 -155 -15 -162
-9 -259 -21 -365 -44 -52 -11 -135 -23 -185 -26 -49 -3 -121 -10 -160 -14 -38
-5 -182 -6 -320 -3 -137 3 -396 6 -575 7 -303 1 -329 2 -385 22 -58 20 -124
37 -192 48 -18 3 -44 10 -58 15 -15 6 -30 8 -34 6 -4 -3 -32 1 -62 9 -71 19
-149 19 -176 0 -21 -15 -22 -21 -19 -179 2 -90 6 -167 9 -172 3 -5 3 -22 1
-39 -2 -16 -4 -129 -3 -250 4 -949 0 -1292 -15 -1365 -3 -14 -7 -63 -10 -110
-4 -71 -42 -406 -62 -545 -3 -22 -7 -67 -9 -100 -2 -33 -6 -73 -8 -90 -3 -16
-8 -64 -11 -105 -3 -41 -8 -98 -11 -126 -3 -27 -7 -111 -10 -185 -3 -73 -8
-144 -10 -156 -3 -12 -9 -66 -15 -120 -5 -54 -18 -131 -27 -171 -16 -71 -16
-73 5 -117 16 -32 31 -49 58 -60 49 -20 63 -19 179 10 96 25 112 26 395 26
162 0 329 -3 370 -6 215 -14 468 -25 662 -29 120 -3 222 -8 228 -11 16 -10
130 -7 143 4 7 5 109 12 227 15 259 8 416 15 490 21 59 6 145 11 305 20 55 3
176 10 268 16 112 6 174 6 187 -1 29 -15 82 -12 107 8 19 14 48 68 52 95 1 4
-6 21 -15 38 -8 17 -16 47 -16 67 -1 81 15 288 24 299 12 15 28 144 27 213 -1
30 -1 65 0 78 6 72 3 134 -16 352 -4 41 -6 95 -5 120 0 25 -4 74 -9 110 -5 36
-11 124 -14 195 -2 72 -9 198 -15 280 -12 166 -18 302 -24 505 -2 74 -9 171
-15 215 -6 44 -13 141 -15 215 -3 74 -10 160 -16 190 -5 30 -10 75 -9 100 0
41 -2 81 -15 257 -3 34 -9 70 -14 79 -6 10 -6 32 0 57 5 22 6 54 2 71 -8 34
-7 117 1 156 4 17 -1 32 -17 48 -44 44 -83 72 -100 72 -9 0 -21 6 -25 13 -9
15 -98 48 -122 45 -9 -1 -36 -3 -61 -5z m29 -210 c6 -21 11 -56 11 -78 0 -22
5 -58 10 -80 5 -22 11 -71 14 -110 2 -38 9 -90 14 -115 6 -25 10 -84 11 -132
0 -49 3 -93 6 -98 4 -6 8 -54 10 -108 4 -120 23 -398 30 -432 3 -14 7 -149 11
-300 3 -151 7 -300 9 -330 2 -30 6 -102 9 -160 4 -58 11 -145 17 -195 12 -98
12 -102 24 -190 10 -74 10 -106 1 -217 -8 -92 -16 -109 -38 -83 -7 8 -29 32
-48 53 -19 21 -56 63 -82 93 -25 30 -79 92 -120 139 -40 47 -140 154 -223 237
-82 84 -169 176 -193 205 -55 68 -102 129 -112 147 -4 8 -27 17 -51 22 -24 4
-62 13 -84 20 -43 13 -38 14 -190 -56 -27 -13 -63 -27 -80 -31 -16 -4 -63 -22
-104 -41 -41 -19 -84 -33 -95 -31 -20 3 -21 9 -19 93 5 168 11 274 19 307 8
35 6 76 -4 93 -3 5 -7 16 -7 25 -4 39 -39 138 -59 165 -13 17 -31 46 -41 65
-39 77 -176 189 -270 220 -121 40 -327 29 -460 -25 -22 -8 -48 -18 -57 -22
-10 -3 -18 -9 -18 -14 0 -5 -6 -9 -13 -9 -7 0 -26 -13 -42 -30 -16 -16 -34
-30 -40 -30 -13 0 -114 -98 -187 -181 -55 -63 -111 -139 -102 -139 4 0 -1 -11
-10 -24 -17 -26 -34 -107 -42 -196 -5 -51 -2 -60 39 -130 56 -94 215 -255 327
-330 45 -30 90 -62 100 -70 11 -8 40 -30 65 -49 24 -18 54 -48 66 -67 l20 -34
-35 -53 c-37 -56 -148 -151 -206 -178 -47 -21 -68 -60 -50 -94 7 -13 21 -27
31 -30 25 -8 84 -76 110 -126 24 -48 90 -139 100 -139 4 0 20 -19 36 -42 54
-82 108 -143 191 -218 75 -69 172 -184 172 -207 0 -5 13 -24 30 -43 16 -19 29
-39 30 -43 0 -5 20 -37 45 -71 25 -35 45 -67 45 -71 0 -10 -516 1 -755 15 -99
6 -319 12 -490 14 l-310 4 -7 38 c-4 22 -4 68 -1 104 3 36 5 101 4 145 -1 73
9 260 25 470 4 44 8 98 9 120 6 85 25 271 31 295 3 14 7 43 9 65 10 127 17
214 21 240 3 17 7 71 9 120 2 50 7 135 11 190 7 95 7 216 4 1195 -2 421 1 505
20 524 27 27 231 5 337 -35 37 -14 161 -19 388 -18 116 1 244 0 285 -1 236
-11 947 1 971 16 4 2 27 6 50 9 42 5 95 13 149 22 14 2 46 5 72 7 26 2 52 7
58 11 6 4 68 8 138 10 70 2 143 8 162 14 19 6 57 12 85 12 27 1 64 5 80 9 17
4 49 8 72 9 40 1 42 0 52 -36z m-1655 -1043 c6 -6 18 -10 28 -10 18 0 137
-111 139 -130 3 -22 16 -57 34 -91 16 -29 18 -95 12 -474 -2 -191 0 -256 10
-277 30 -63 167 -106 217 -67 12 8 28 19 36 22 8 4 43 27 77 51 35 24 84 52
110 61 27 10 64 25 83 33 19 9 65 18 101 20 l65 4 83 -80 c45 -44 92 -89 104
-100 12 -11 45 -48 72 -83 48 -60 91 -111 182 -216 24 -26 61 -73 83 -103 22
-30 62 -81 87 -113 58 -73 270 -391 278 -417 4 -11 11 -20 16 -20 6 0 7 -14 3
-35 -4 -22 -2 -35 4 -35 11 0 12 -15 15 -260 l2 -115 -105 -11 c-58 -6 -166
-11 -240 -13 -74 -1 -151 -6 -170 -11 -19 -5 -76 -12 -125 -15 -50 -3 -121 -7
-160 -10 -38 -3 -144 -7 -234 -10 -90 -3 -168 -8 -172 -11 -5 -3 -48 -5 -96
-5 l-87 0 -53 53 c-30 29 -66 74 -80 101 -14 26 -30 47 -34 47 -4 0 -33 39
-65 88 -32 48 -73 103 -90 122 -18 19 -53 62 -79 95 -121 157 -158 200 -250
284 -44 41 -87 84 -95 97 -8 13 -18 24 -22 24 -12 0 -68 52 -68 63 0 7 12 24
28 39 113 112 152 152 152 159 0 4 24 19 54 34 29 14 63 35 75 46 51 47 3 159
-74 173 -31 6 -169 72 -189 91 -6 6 -40 33 -76 60 -36 27 -81 62 -101 79 -175
149 -214 187 -236 230 -21 40 -25 117 -8 149 7 14 11 28 8 31 -10 9 19 70 47
101 15 17 41 50 58 75 66 97 238 240 289 240 7 0 29 10 50 22 21 12 61 25 88
29 64 9 206 2 219 -11z"/>
<path d="M10307 3270 c-31 -24 -34 -45 -12 -86 15 -30 80 -62 126 -63 32 -1
69 37 69 70 0 38 -55 89 -95 89 -19 0 -40 2 -47 5 -8 3 -26 -4 -41 -15z"/>
<path d="M10088 3102 c-35 -21 -38 -69 -7 -119 71 -115 231 -53 171 67 -28 57
-113 84 -164 52z"/>
<path d="M7986 4818 c-10 -6 -53 -15 -95 -20 -79 -10 -125 -12 -555 -23 -144
-3 -289 -8 -323 -10 -185 -11 -362 -17 -668 -20 -187 -1 -387 -8 -444 -14 -57
-7 -141 -14 -185 -15 -45 -2 -162 -9 -261 -15 -165 -10 -640 -18 -709 -12 -51
4 -79 -41 -64 -104 14 -57 18 -114 25 -380 15 -542 2 -1215 -27 -1425 -14
-103 -19 -164 -26 -335 -4 -88 -9 -182 -11 -210 -12 -182 -24 -450 -27 -631
-2 -72 -5 -135 -9 -140 -5 -9 -25 -137 -32 -211 -2 -19 2 -37 11 -44 8 -6 14
-17 14 -23 1 -18 44 -45 93 -58 42 -11 47 -10 79 14 46 35 63 40 178 52 25 3
70 11 100 18 64 14 369 17 715 5 356 -11 432 -16 575 -38 36 -5 144 -14 240
-19 96 -6 200 -14 230 -19 64 -11 393 -30 825 -47 77 -3 154 -7 170 -9 98 -12
259 -27 315 -29 36 -2 94 -6 130 -10 88 -9 111 11 135 115 4 18 -10 93 -24
124 -22 51 -31 137 -37 345 -3 124 -8 228 -10 231 -3 5 -6 331 -3 389 1 18
-10 213 -16 295 -2 33 -7 116 -9 185 -11 249 -17 376 -22 435 -4 63 -12 306
-19 615 -3 102 -7 214 -10 250 -3 36 -8 108 -10 160 -4 79 -25 212 -73 465 -8
40 -40 107 -54 113 -5 2 -8 9 -8 16 0 37 -64 58 -104 34z m15 -209 c10 -10 19
-27 19 -38 0 -10 6 -34 14 -52 37 -91 60 -288 70 -614 22 -709 26 -811 31
-896 4 -68 10 -215 21 -539 4 -124 6 -346 4 -510 0 -47 0 -94 0 -105 1 -11 1
-29 1 -40 0 -11 1 -121 2 -244 2 -147 -1 -240 -9 -270 -10 -43 -14 -46 -50
-52 -21 -4 -59 -5 -84 -4 -70 5 -338 15 -530 20 -196 6 -330 12 -405 20 -27 3
-90 8 -140 11 -49 3 -106 7 -125 9 -197 18 -382 35 -415 40 -22 2 -73 7 -114
10 -41 3 -77 8 -81 10 -4 2 -81 7 -171 9 -262 9 -370 15 -439 28 -57 11 -446
17 -615 9 -73 -3 -183 10 -194 23 -6 7 -6 30 0 60 5 26 7 52 4 56 -11 18 7
822 20 870 2 8 7 67 10 130 3 63 8 134 11 158 22 170 26 300 27 782 0 261 -2
534 -6 605 -13 276 -16 391 -9 401 16 23 73 35 153 34 121 -3 408 9 619 26 37
2 116 8 340 24 74 5 272 9 440 10 168 0 368 3 445 6 77 3 316 7 530 9 215 3
408 8 430 13 22 5 71 9 108 10 55 1 72 -3 88 -19z"/>
<path d="M2840 4679 c-74 -4 -211 -10 -305 -13 -93 -4 -273 -18 -400 -32 -163
-17 -287 -24 -430 -24 -219 -1 -835 -17 -875 -24 -137 -23 -543 -11 -652 19
-95 26 -103 28 -116 42 -7 7 -24 13 -38 13 -24 0 -24 -1 -24 -99 0 -93 1 -99
19 -94 11 3 54 -2 97 -11 43 -9 150 -23 239 -32 133 -13 193 -13 360 -4 423
23 508 26 848 29 193 1 354 4 357 6 3 2 78 9 166 16 87 6 173 13 189 14 392
38 1017 52 1052 23 15 -12 14 -185 -2 -588 -3 -63 -5 -152 -5 -198 1 -45 -2
-87 -6 -93 -11 -18 -1 -380 20 -779 1 -19 5 -41 10 -48 4 -6 3 -12 -2 -12 -4
0 -7 -51 -5 -112 7 -243 7 -1050 0 -1180 -4 -76 -12 -149 -19 -163 -6 -14 -25
-32 -42 -41 -58 -31 -333 -78 -395 -68 -20 3 -144 8 -276 10 -239 4 -241 4
-449 -31 -115 -20 -212 -38 -216 -40 -12 -7 -246 -43 -390 -59 -90 -10 -275
-17 -555 -20 -231 -3 -469 -10 -530 -16 -60 -6 -190 -11 -287 -13 l-178 -2 0
-100 0 -100 72 7 c40 3 109 11 153 17 44 5 110 10 147 10 37 1 79 6 94 11 27
11 266 18 749 24 127 2 241 8 255 13 14 6 48 11 75 12 86 2 274 29 435 61 336
66 671 89 868 59 47 -7 94 -5 185 7 147 19 157 21 227 34 30 6 91 14 135 19
48 4 94 15 112 26 29 17 32 25 38 81 4 34 3 68 -1 76 -7 10 -12 295 -13 643 0
405 -2 561 -8 610 -4 33 -5 65 -4 70 5 16 4 73 -3 175 -3 52 -9 140 -12 195
-3 54 -7 103 -10 106 -7 11 -7 512 0 604 3 44 8 199 10 345 3 146 7 328 8 405
4 173 3 176 -57 205 -33 16 -364 20 -615 9z"/>
<path d="M2 3965 c0 -16 2 -22 5 -12 2 9 2 23 0 30 -3 6 -5 -1 -5 -18z"/>
<path d="M0 2955 c0 -522 3 -945 7 -941 4 3 8 345 10 759 1 414 3 763 3 777 2
43 -12 345 -16 349 -2 2 -4 -422 -4 -944z"/>
<path d="M1 1984 c0 -11 3 -14 6 -6 3 7 2 16 -1 19 -3 4 -6 -2 -5 -13z"/>
<path d="M1 1744 c0 -11 3 -14 6 -6 3 7 2 16 -1 19 -3 4 -6 -2 -5 -13z"/>
</g>
</svg>
