<?xml version="1.0" encoding="UTF-8" standalone="no"?>
<svg
   xmlns:dc="http://purl.org/dc/elements/1.1/"
   xmlns:cc="http://creativecommons.org/ns#"
   xmlns:rdf="http://www.w3.org/1999/02/22-rdf-syntax-ns#"
   xmlns:svg="http://www.w3.org/2000/svg"
   xmlns="http://www.w3.org/2000/svg"
   xmlns:sodipodi="http://sodipodi.sourceforge.net/DTD/sodipodi-0.dtd"
   xmlns:inkscape="http://www.inkscape.org/namespaces/inkscape"
   version="1.0"
   width="1308.000000pt"
   height="1600.000000pt"
   viewBox="0 0 1308.000000 1600.000000"
   preserveAspectRatio="xMidYMid meet"
   id="svg2"
   inkscape:version="0.48.2 r9819"
   sodipodi:docname="iterate.svg"
   inkscape:export-filename="/Users/pauldowney/Desktop/iterate.png"
   inkscape:export-xdpi="90"
   inkscape:export-ydpi="90">
  <defs
     id="defs46" />
  <sodipodi:namedview
     pagecolor="#ffffff"
     bordercolor="#666666"
     borderopacity="1"
     objecttolerance="10"
     gridtolerance="10"
     guidetolerance="10"
     inkscape:pageopacity="0"
     inkscape:pageshadow="2"
     inkscape:window-width="949"
     inkscape:window-height="641"
     id="namedview44"
     showgrid="false"
     showguides="true"
     inkscape:guide-bbox="true"
     inkscape:zoom="0.1668772"
     inkscape:cx="180.40111"
     inkscape:cy="1739.2261"
     inkscape:window-x="0"
     inkscape:window-y="0"
     inkscape:window-maximized="0"
     inkscape:current-layer="svg2" />
  <metadata
     id="metadata4">
Created by potrace 1.11, written by Peter Selinger 2001-2013
<rdf:RDF>
  <cc:Work
     rdf:about="">
    <dc:format>image/svg+xml</dc:format>
    <dc:type
       rdf:resource="http://purl.org/dc/dcmitype/StillImage" />
    <dc:title />
  </cc:Work>
</rdf:RDF>
</metadata>
  <g
     transform="translate(0.000000,1600.000000) scale(0.100000,-0.100000)"
     id="g6"
     stroke="none"
     fill="#000000">
    <path
       d="M13056 15948 c13 -98 22 -108 23 -25 1 63 -2 77 -14 77 -13 0 -15 -9 -9 -52z"
       id="path8" />
    <path
       d="M13074 15720 c0 -52 1 -74 3 -47 2 26 2 68 0 95 -2 26 -3 4 -3 -48z"
       id="path10" />
    <path
       d="m 12131,15083 c -49.651,-60.91 -105.867,-118.63 -136.188,-192.094 -67.094,-100.103 -97.42,-219.004 -144.672,-328.871 -45.87,-120.402 -103.669,-235.8 -147.54,-356.955 -33.179,-63.25 -66.134,-126.513 -94.912,-191.924 -36.804,-63.943 -87.236,-175.763 -18.352,-232.763 115.909,-61.631 236.377,-115.185 356.992,-167.136 61.586,-30.654 128.304,-43.746 189.086,-13.441 23.278,3.771 58.291,-12.068 63.041,21.274 56.161,115.557 114.841,230.036 185.217,337.691 50.906,91.739 106.368,180.864 149.48,276.866 56.158,116.775 108.169,235.44 160.598,353.744 25.028,66.857 81.922,132.028 71.797,205.89 -36.349,57.197 -114.091,73.33 -158.632,129.667 -62.664,46.452 -134.46,79.466 -205.056,111.771 -57.84,22.568 -119.955,37.046 -177.484,67.156 -38.588,24.877 -67.828,15.802 -93.375,-20.875 z m 134,-204 c 100.919,-47.98 205.624,-90.317 302.877,-144.67 32.542,-74.661 -46.791,-137.623 -65.002,-207.955 -29.033,-67.112 -78.096,-125.805 -90.797,-198.974 -62.579,-146.295 -131.981,-289.807 -203.613,-431.859 -43.809,-69.911 -132.332,6.298 -189.184,22.505 -42.822,30.132 -102.072,53.46 -158.077,66.963 -46.283,28.355 -164.467,45.304 -114.007,121.572 81.775,191.219 188.676,370.59 272.051,561.014 36.027,51.829 51.425,113.548 92.127,162.654 15.8,53.044 52.012,125.372 111.771,67.875 13.904,-6.479 27.853,-12.859 41.854,-19.125 z m -394.121,-1039.947 c 68.872,-34.226 20.005,-127.409 -42.924,-69.176 -64.682,25.129 -13.922,126.383 42.924,69.176 z"
       id="path12"
       inkscape:connector-curvature="0"
       sodipodi:nodetypes="cccccccccccccccccccccccccccccccc" />
    <path
       d="m 11040,13226 c -19.989,-73.385 -9.401,-152.569 -24.808,-227.628 -33.255,-191.238 -45.662,-385.501 -77.76,-576.813 -46.504,-68.112 -42.794,-149.89 -77.674,-222.793 -106.827,-209.236 -220.354,-415.442 -314.93,-630.641 -45.893,-82.036 74.832,-123.454 125.172,-162.125 64.448,-28.704 137.345,-41.606 209.5,-49.775 86.508,-16.104 177.24,-24.14 264.143,-8.344 71.785,41.146 114.604,108.753 132.169,188.885 37.703,79.57 67.196,162.903 114.221,237.838 54.139,105.639 102.29,214.49 147.643,323.824 47.194,67.853 72.085,145.675 61.465,228.431 7.157,209.928 43.113,418.085 40.637,628.551 0.488,62.194 0.1,124.394 0.222,186.59 -44.312,40.854 -88.181,95.764 -155.382,87.675 -145.511,5.81 -291.747,10.009 -437.036,-1.248 z m 383,-221 c 84.803,11.954 39.534,-71.547 47,-121.142 -111.106,-4.342 -226.899,-10.979 -339.314,-5.362 -37.801,27.047 -13.887,161.427 56.463,139.435 78.724,-1.372 157.374,-6.756 235.851,-12.931 z m -283,-875 c -36.485,-39.647 -39.554,40.542 0,0 z m 200,0 c -27.576,-32.787 -78.271,18.452 -15.188,9.281 5.211,-1.341 14.173,-2.241 15.188,-9.281 z m -233,-362 c -18.415,-13.635 8.036,48.867 0,0 z"
       id="path16"
       inkscape:connector-curvature="0"
       sodipodi:nodetypes="ccccccccccccccccccccccccccccc" />
    <path
       d="m 10386.356,10626.424 c -88.456,-48.08 -60.086,-168.954 -75,-253.625 0.645,-109.609 -29.223,-215.521 -25,-325.375 0.928,-257.0213 -55.694,-508.9983 -85,-763.0003 -28.778,-80.2736 -97.517,-152.1056 -133.252,-235.7773 -26.022,-87.6289 -51.768,-177.4032 -67.505,-268.3338 -2.1302,-105.8903 120.156,-160.3492 183.351,-230.6701 59.561,-65.5215 124.727,-129.7905 205.281,-168.3438 92.122,-8.7893 186.401,5.1846 251.426,76.1223 59.371,30.6699 177.714,88.207 214.949,40.6277 -106.596,-34.3215 82.241,-24.5603 97.109,26.1719 80.023,59.3243 63.107,151.6092 149.016,199.3281 14.503,55.4488 40.396,103.868 99.375,55.625 83.57,-0.2507 37.334,145.3288 139.625,102.0625 74.146,2.3536 145.34,-161.5032 197.619,-43.9902 36.546,86.5362 51.623,227.3582 -79.377,232.3906 -92.393,32.7298 -192.536,7.4873 -257.369,-66.3594 -85.597,-55.03 -184.378,-92.4641 -196.404,-208.7441 -27.203,-37.4762 -66.668,-145.7906 -112.998,-127.8496 -26.867,90.241 22.665,175.8048 7.256,266.6992 -18.983,22.8888 -41.163,122.7594 9.523,64.166 -28.072,65.6726 -28.675,136.5617 -1.364,215.8302 58.418,259.7595 83.911,526.2498 156.989,782.8568 21.241,89.9173 19.264,207.6603 -69.703,260.3913 -66.513,66.217 -117.327,146.379 -181.047,215.297 -19.348,89.198 -119.405,67.814 -150.734,148.969 -88.579,20.844 -186.18,11.631 -276.766,5.531 z m 203,-117 c -17.05,-28.932 -172.908,20.544 -161.797,3.859 45.64,5.442 130.842,44.516 161.797,-3.859 z m -103,-84 c 98.945,11.027 70.615,-138.978 15.057,-164.984 -61.585,-26.721 -149.432,57.295 -50.057,64.984 -100.675,23.868 -41.24,135.168 35,100 z m 70,-220 c 2.528,-89.967 -152.285,-83.011 -178.922,-53.078 67.02,-0.464 125.911,54.159 178.922,53.078 z m 92,-786.0003 c -45.241,-85.932 4.338,141.632 2.935,11.8691 l -2.935,-11.8691 z m -206,-129 c -62.007,-55.7881 -40.676,45.0737 0,0 z m -91,-5 c -47.13,-37.9642 -34.289,35.0531 0,0 z m 23,-200 c 52.377,-88.6208 -32.686,-198.8664 -130,-190 -105.242,12.0966 -11.363,179.729 45.062,208.0625 28.757,-1.7168 58.712,-5.3922 84.938,-18.0625 z m 207,-491 c -46.865,-37.7527 -45.794,55.3709 0,0 z"
       id="path18"
       inkscape:connector-curvature="0" />
    <path
       d="m 9591.9608,8161.3316 c -134.3868,-39.3124 -249.5577,-131.1411 -273.2872,-261.8871 -68.8246,-215.9699 -140.2252,-432.2925 -189.2285,-652.704 2.9464,-95.6948 -22.5149,-204.2382 -152.2662,-182.2507 -118.763,-13.7173 -215.8184,-79.8082 -292.336,-161.4229 -61.9689,-82.5348 -112.1831,-167.1362 -175.9149,-248.264 -70.9879,-101.525 -139.2753,-208.8509 -206.1841,-318.2247 -69.9985,-96.7361 -123.3052,-208.2033 -166.5864,-319.0269 -13.0743,-51.4644 -14.221,-105.9885 43.0127,-133.396 89.4399,-80.4467 191.1199,-154.3165 319.9904,-171.8378 333.7705,-74.4812 680.9878,-53.1451 1019.1631,-100.8911 143.9447,-10.3979 291.9366,-25.1391 434.6186,-2.0859 158.3497,65.1104 162.7677,242.5148 226.9827,368.7054 89.73,188.1417 120.872,394.1005 211.141,581.8929 44.062,97.79 64.302,200.2887 38.065,305.9808 0.542,127.5558 -128.845,198.2549 -249.697,222.9482 -96.131,7.7994 -281.8953,-36.1454 -194.8798,106.9334 64.9138,236.6976 145.5078,481.9846 104.9948,727.6562 -44.072,98.5231 -108.5395,220.4309 -232.498,248.5942 -87.305,13.044 -180.1012,13.6861 -265.0902,-10.72 z m 240.1705,-473.4218 c -24.4209,-65.7813 -4.836,-192.7814 -51.4458,-225.6984 -140.2167,-6.2355 -280.6159,-7.25 -420.965,-5.3643 11.2346,80.3563 2.0271,211.8761 111.5887,232.218 119.6125,2.2549 247.5015,52.1977 361.2293,13.3022 l -0.4072,-14.4575 z m 504.1317,-843.1221 c 28.321,-110.2865 -18.525,-219.0141 -58.91,-320.4069 -5.662,-58.6427 -70.85,-224.1577 -70.493,-82.7764 -15.215,96.0733 45.731,171.7948 58.138,261.8982 14.586,42.7269 2.316,186.6219 57.068,168.4832 l 7.191,-11.7156 7.006,-15.4825 z m -155.205,-527.8499 c -28.443,-53.4061 -22.925,51.4699 0,0 z m -996.9338,-56.4819 c -30.5615,-41.0313 -26.2177,40.0547 0,0 z m 872.3168,-403.5895 c -53.989,-139.9667 -33.597,48.8933 0,0 z"
       id="path20"
       inkscape:connector-curvature="0" />
    <path
       d="m 7116.7861,6124.2141 c -181.0266,-45.2898 -333.0979,-175.5634 -510.2953,-242.2772 -331.8772,-149.6802 -661.976,-306.2178 -994.9231,-451.7076 -202.8987,-102.5671 -417.9661,-189.1285 -597.9079,-330.0266 -134.46,-64.207 -239.2535,-122.6951 -297.3327,-256.1421 -219.6225,-143.9186 -407.1909,-335.0124 -548.9554,-551.2294 -202.72,-50.8473 -245.8112,-343.1685 -1.2713,-354.9763 170.1579,-33.4852 -156.8229,-311.5438 96.142,-335.3237 172.7556,-94.5534 311.6818,-177.97 477.1274,-273.7135 226.5483,-148.243 673.6721,-288.837 892.3301,-453.2625 152.4425,-56.0485 345.2056,-18.103 499.2879,33.2167 156.3607,62.2457 287.0098,167.1967 408.053,283.276 183.4578,94.7748 331.0578,244.8357 520.5369,333.1009 171.2587,85.8944 321.6162,201.6898 464.9802,322.4027 163.2487,91.2544 333.9471,170.5096 462.1148,305.7533 238.8546,84.0272 111.289,312.6861 78.7585,481.6056 -72.6223,248.0256 -75.742,511.4577 -162.5252,755.4666 -43.0898,158.2056 -282.1799,106.3745 -327.2205,246.1477 -32.3381,159.2764 -29.1656,388.1212 -237.512,426.1213 -72.7426,11.8231 -149.8357,90.9842 -221.3874,61.5681 z m 163.9976,-141.2535 c 61.1856,-58.8423 -320.2024,-191.232 -263.5164,-148.393 -161.2706,-73.5748 -316.9258,-169.6357 -481.4749,-243.456 -463.2554,-217.0528 -929.1063,-433.8797 -1415.2305,-598.69 -227.9001,-23.5384 159.7427,164.629 146.0995,153.5002 572.9932,286.1276 1150.7813,564.239 1734.1187,829.9761 86.9148,38.7935 191.3999,42.7323 280.0036,7.0627 z M 6341.2935,4867.6717 c -27.9919,-130.8066 -257.5767,-30.7905 -67.3788,2.4566 14.7436,14.3723 64.0477,32.6165 67.3788,-2.4566 z m 99.1614,-175.6457 c 73.9318,-90.3492 -243.5137,-13.6769 -45.449,18.2708 l 21.8903,-5.3929 z m 461.4816,-1.2283 c -91.3553,-88.0736 -402.2682,-286.1754 -320.0496,-280.0505 92.5781,74.9989 240.0905,289.925 320.0496,280.0505 z m -1328.5078,-46.6751 c 26.7264,-238.2913 316.9397,-83.4682 444.9548,-151.0799 -129.9312,-114.1834 -328.0612,-130.2959 -492.3107,-82.6026 -135.3556,25.6013 -85.7279,336.3738 47.3559,233.6825 z m -847.9566,-45.4468 c -33.4047,-164.5645 -254.7961,-384.5355 -398.8454,-361.4057 76.1193,177.2322 240.2802,301.7675 395.0315,411.7657 21.9038,-4.8795 -6.8372,-48.2658 3.8139,-50.36 z m 1638.7048,-89.6653 c 159.4207,-145.0788 -279.3672,-50.4386 -48.3094,12.2829 l 21.7711,-5.2202 z m 372.4907,-113.0028 c -43.5926,-72.0871 -192.8931,-174.5652 -66.4254,-44.6791 5.2721,3.8243 96.6249,106.2983 66.4254,44.6791 z m -549.2013,-8.5981 c 81.4754,-134.3736 -216.0508,-158.031 -86.4483,-39.3053 50.369,-13.9633 42.7054,95.7735 86.4483,39.3053 z m -333.0804,-63.8711 c -42.2275,-13.3562 -32.1969,21.9526 0,0 z m 39.4103,-71.241 c -7.0641,-118.4514 -227.5756,-78.9391 -128.0834,3.1667 19.9925,-83.3473 165.8457,121.6861 128.0834,-3.1667 z m -416.9862,6.1415 c 5.2661,-67.3073 135.5444,20.9034 54.8769,-83.6198 -113.3962,-105.5248 -133.8681,162.3673 -54.8769,83.6198 z m -915.3355,-67.556 c -30.9099,-48.087 -35.5674,23.8924 0,0 z m 1880.2517,-89.6653 c -141.8151,-151.9299 -277.7648,-317.7859 -447.7755,-438.8649 34.4153,93.1038 183.7501,192.8235 268.5223,293.9264 31.1893,28.4718 182.8817,196.4411 179.2532,144.9385 z m -579.7125,-30.7073 c -107.1278,-63.2822 54.399,85.2185 0,0 z"
       id="path22"
       inkscape:connector-curvature="0"
       sodipodi:nodetypes="ccccccccccccccccccccccccccccccccccccccccccccccccccccccccccccccccccccccc" />
    <g
       id="g3029">
      <path
         inkscape:connector-curvature="0"
         id="path24"
         d="M 1860.4656,3974.3154 C 1650.8419,3958.9389 1443.0345,3848.2001 1280.4801,3733.8737 1116.2443,3546.6757 1118.5268,3302.9519 1139.035,3080.5193 1056.8862,2883.3962 851.84034,2747.8871 807.20125,2526.3114 700.89212,2292.5945 541.13875,2084.2896 444.5047,1844.7632 359.55196,1654.9203 264.99564,1478.9581 291.89835,1262.3296 258.77046,1019.3935 558.56758,1006.6514 722.55153,942.81175 888.04214,870.88486 1059.9359,819.13767 1230.4497,756.37778 c 151.7932,-67.39954 308.551,-110.62467 462.6246,-180.32132 546.0171,-208.51899 708.4879,-119.12456 1101.3133,234.65549 207.1111,148.76957 -123.7323,-291.13181 88.8128,-365.39691 99.8492,-177.50453 309.3256,-219.00519 493.1539,-255.20054 136.808,-42.62198 298.4732,1.31109 381.0972,35.14737 212.1699,-41.38492 394.5119,129.77323 568.7834,227.35427 162.7389,128.19782 179.1479,339.84265 195.579,527.52908 59.6595,168.14138 189.8741,313.15638 324.982,428.24198 196.9578,96.1897 315.5108,274.9971 399.3107,466.2546 -43.3585,212.5318 -274.0785,362.8763 -385.4338,555.2265 -187.1931,121.7588 -119.3503,371.8213 -236.0823,539.7118 -111.4254,213.8761 -382.7519,240.6266 -542.3739,406.8479 -199.0418,109.3473 -385.8176,233.3235 -599.3129,314.4162 -398.3738,192.5961 -848.524,195.881 -1274.8844,287.6736 -115.3795,15.6028 -232.0358,2.6203 -347.5537,-4.2024 z m 280.3154,-156.2105 c 191.6608,-21.7794 419.6556,-11.7746 582.8339,-101.8765 182.47,-16.619 216.277,-96.6019 262.6223,-54.6738 306.9821,-178.942 508.583,-184.4167 803.0446,-388.5525 120.2179,-58.8884 551.5653,-263.6522 289.0969,-381.1241 -69.0782,-26.2834 -106.7581,191.542 -119.7107,28.3556 19.6746,-60.5203 -290.563,-359.88 -119.4074,-165.1673 -191.8506,55.2096 171.2489,288.5196 -48.1575,180.7885 -208.2761,-75.8888 10.4697,140.2358 128.7092,123.4403 217.072,52.7809 -299.961,270.1762 -239.5516,210.205 -450.1092,226.2663 -948.8737,337.8624 -1440.1724,440.8041 -89.3395,7.4252 -936.1834,100.3459 -538.9915,71.6822 141.9273,39.2654 293.5868,65.4159 439.6842,36.1185 z m -585.6095,-150.7772 c 139.6497,-139.6695 -125.8736,-114.0802 -161.32,-245.3525 -226.5522,-35.5455 105.5555,394.1284 161.32,245.3525 z m 1688.8309,-85.5763 c -48.7733,-93.6883 -36.577,91.1924 0,0 z M 1807.7329,3401.0905 c 41.8379,-109.4849 396.1873,-232.0014 107.7555,-214.9806 -184.8248,11.3631 -391.5972,-18.203 -551.8195,-39.0313 115.2298,142.7064 366.326,86.6675 415.4509,296.3463 l 9.2069,-5.7649 z m 499.5721,-36.6755 c 185.7311,-50.6786 344.1609,-113.8178 528.5402,-153.6636 -182.8093,-10.3156 -458.1825,-4.038 -574.7029,108.9017 -192.6319,-58.0197 -56.5464,138.018 46.1627,44.7619 z m -124.8931,-332.7963 c 213.2168,-48.3143 324.2223,-244.9157 422.9829,-417.9191 81.2758,-132.3545 -62.9956,-164.5452 9.3968,-277.6107 -5.6038,-261.7008 -197.4045,-475.2347 -398.7768,-628.0497 -292.7389,-211.7227 -669.7873,-355.5267 -1036.0427,-282.1633 -208.12216,111.7475 -348.1709,329.7216 -344.14955,564.9049 -51.62536,226.2563 105.03283,415.0084 202.60415,604.6367 72.687,207.9602 260.8301,298.9823 446.5165,391.5628 218.0364,107.6115 465.2678,84.8839 697.4687,44.6384 z m 582.834,4.0749 c 202.4491,-14.9339 279.1201,-234.9127 332.5277,-386.4513 -104.5158,-209.7352 -199.5638,-429.559 -346.4047,-614.6546 -12.6654,204.8558 72.8833,433.5577 -1.3444,641.8216 -43.275,141.4265 -125.7172,307.1658 -215.6354,385.2628 77.7045,2.5444 154.318,-15.4409 230.8568,-25.9785 z m 1952.494,-704.985 c 162.308,-98.7967 306.5239,-266.0329 370.4075,-438.1536 -210.6443,97.8016 -267.7685,-255.8309 -463.5569,-289.0745 -136.4856,-161.4154 -294.7023,153.4781 -438.1663,-47.8819 -85.0799,-159.4585 -426.0007,128.6576 -385.9107,72.8628 119.6762,129.4067 246.045,252.6229 370.4725,377.6009 177.8832,-26.9116 303.6776,134.3164 384.3929,268.9538 44.4473,79.8622 72.373,126.3289 162.361,55.6925 z m -1998.288,-372.1887 c -110.1906,-152.3418 44.3852,155.3258 0,0 z M 711.44994,1898.7525 c 18.70077,-178.1462 150.23234,-324.7548 247.87791,-458.1044 -148.00576,67.4644 -546.65835,69.7785 -385.47737,310.8829 34.77714,51.448 143.86062,366.9919 137.59946,147.2215 z M 2661.1684,1862.077 c -38.8928,-67.0139 -25.3234,88.0645 0,0 z m -45.7941,-67.9177 c -57.592,-124.143 -88.3163,-178.1453 -197.4003,-323.6276 -120.8463,-151.0901 -208.1055,-406.4817 -409.7021,-449.7102 -226.8628,65.6048 -452.9659,142.2082 -658.4799,258.522 286.8963,12.3031 599.5923,-11.0576 837.7805,176.6283 167.9483,62.3232 297.5197,319.3497 427.8018,338.1875 z m 1128.2002,-263.5204 c 78.089,-38.5204 391.6382,-108.3243 167.0443,-155.7012 -189.3457,-24.82 -342.1993,-110.7711 -522.1221,-164.7002 -280.5568,-128.9609 286.9981,317.7586 211.6459,253.5662 43.7587,35.3974 80.3363,110.9397 143.4319,66.8352 z m 451.0024,-423.8061 c -11.0654,-228.22401 -53.9188,-466.49288 -319.1709,-525.68255 -186.4072,-105.75938 -434.2662,-133.6832 -617.5265,-14.9418 -225.5868,121.64269 204.9487,307.17086 327.6707,362.68017 177.4282,71.10225 364.3548,95.48718 533.0991,186.37548 20.0292,10.263 92.7052,45.5261 75.9276,-8.4313 z"
         sodipodi:nodetypes="ccccccccccccccccccccccccccccccccccccccccccccccccccccccccccccccccccccccccccccccccccccccccccccccccccc" />
      <path
         inkscape:connector-curvature="0"
         id="path32"
         d="m 1632.537,2910.6549 c -70.1651,-6.7175 -120.84,-18.809 -141.6297,-34.9308 -18.1911,-13.435 -46.7768,-33.5873 -62.3691,-44.3353 -37.6814,-26.8699 -163.719,-128.9754 -188.4067,-153.1583 -10.3949,-10.7479 -33.7832,-48.3657 -51.9743,-84.6401 -16.8916,-34.9308 -35.0826,-67.1746 -38.9806,-71.2051 -10.3949,-10.748 -36.382,-69.8617 -59.7704,-134.3494 -10.3949,-33.5873 -28.5858,-84.6402 -38.9807,-112.8534 -27.2865,-75.2357 -89.54642,-298.5636 2.5987,-454.1009 98.9758,-253.8111 610.9579,-217.8415 830.2886,-165.2497 83.1589,22.8393 244.279,114.197 318.3424,181.3717 24.6877,21.4959 55.8723,44.3352 68.8658,48.3657 11.6942,4.0305 22.0891,14.7784 22.0891,22.8393 0,9.4045 5.1974,8.0611 12.9936,-4.0304 10.3948,-16.1219 12.9935,-14.7784 12.9935,10.7479 0,37.6179 36.382,112.8535 59.7704,127.632 10.3949,5.3739 18.191,17.4654 18.191,24.1829 0,8.0609 16.8916,52.3962 37.6813,98.075 32.484,72.5486 36.382,98.075 35.0826,189.4326 -2.5986,59.1137 -12.9935,138.3798 -23.3883,174.6541 -11.6943,37.6179 -24.6879,81.9531 -28.5859,100.7621 -7.7961,36.2743 -127.3369,190.7761 -154.6234,200.1805 -9.0955,2.687 -28.5859,17.4654 -45.4774,32.2438 -20.7898,20.1524 -51.9743,29.5568 -106.5473,33.5874 -42.8787,2.6869 -81.8594,10.748 -85.7575,17.4653 -7.7962,14.7786 -240.3809,13.435 -392.4057,-2.6869 z m -75.3626,-476.9402 c 5.1975,-13.435 -1.2994,-29.5568 -14.2929,-38.9613 -35.0827,-26.87 -9.0955,-41.6484 38.9807,-22.8394 46.7768,17.4653 192.3047,6.7175 206.5976,-14.7784 11.6942,-18.809 179.3112,-30.9004 179.3112,-12.0915 0,6.7175 9.0955,17.4654 20.7897,21.4959 35.0826,13.4349 10.3949,-56.4268 -42.8788,-123.6014 -46.7768,-59.1138 -174.1136,-163.9062 -198.8015,-163.9062 -7.7961,0 -27.2864,-6.7175 -42.8787,-16.1219 -42.8788,-22.8395 -111.7447,-25.5265 -150.7253,-5.374 -31.1846,17.4654 -93.5537,122.2579 -111.7447,190.776 -3.898,16.122 1.2994,49.7093 11.6942,73.8922 10.3949,25.5264 27.2865,65.8312 36.382,90.0141 18.1909,45.6788 54.5729,57.7702 67.5665,21.4959 z m 449.5773,-306.3166 c 0,-14.7784 -24.6878,-20.1524 -32.4839,-8.0609 -3.8981,6.7174 1.2993,13.4349 11.6942,13.4349 11.6942,0 20.7897,-2.687 20.7897,-5.374 z m 71.4645,-34.9308 c 10.3949,-17.4654 -19.4903,-17.4654 -45.4774,0 -15.5923,10.748 -14.2929,13.4349 9.0956,13.4349 15.5922,0 32.4838,-5.3739 36.3818,-13.4349 z m -688.6588,-13.4349 c -3.898,-6.7175 -28.5857,-13.435 -53.2735,-13.435 -27.2865,0 -42.8788,5.374 -37.6813,13.435 3.898,8.0609 28.5857,13.4349 53.2736,13.4349 27.2864,0 42.8787,-5.374 37.6812,-13.4349 z m -110.4452,-25.5264 c 0,-6.7175 -9.0955,-16.122 -20.7897,-20.1524 -10.3948,-4.0305 -19.4904,-21.4959 -18.191,-37.6178 3.898,-49.7093 1.2994,-55.0833 -19.4903,-37.6179 -27.2865,24.1829 -24.6878,52.3963 10.3948,81.9531 31.1846,26.87 48.0762,32.2439 48.0762,13.435 z m 387.2082,-55.0832 c 98.751,0 132.5343,5.3739 145.5279,20.1523 12.9935,16.122 76.662,29.5569 77.9614,17.4655 10.3948,-103.449 18.1909,-153.1583 27.2865,-155.8452 6.4967,-2.6871 11.6941,-22.8395 11.6941,-44.3354 0,-34.9309 -5.1974,-38.9613 -38.9806,-38.9613 -38.9808,0 -54.5731,28.2134 -25.9872,47.0222 7.7961,4.0306 12.9935,25.5265 12.9935,47.0224 0,30.9003 -9.0954,44.3353 -38.9806,60.4571 -63.6685,33.5874 -109.1459,25.5265 -153.3241,-26.8698 -36.382,-41.6483 -40.28,-42.9918 -48.0761,-20.1524 -7.7962,25.5263 -72.764,67.1747 -105.2479,67.1747 -29.8852,0 -83.1588,-57.7702 -109.1459,-116.884 -24.6878,-57.7702 -32.484,-63.1441 -90.9549,-45.6787 l -31.1846,9.4044 44.1781,28.2134 c 61.0697,38.9613 89.6556,77.9226 100.0505,128.9753 10.3948,55.0832 28.5857,67.1748 64.9677,42.9918 20.7897,-14.7784 66.2672,-20.1523 157.2222,-20.1523 z m -14.2929,-181.3717 c -1.2994,-28.2134 -7.7962,-47.0222 -16.8917,-47.0222 -22.0891,0 -35.0826,22.8393 -18.191,33.5873 6.4968,4.0304 12.9936,20.1524 12.9936,34.9308 0,13.435 5.1974,25.5264 11.6942,25.5264 6.4967,0 11.6941,-21.4959 10.3949,-47.0223 z"
         sodipodi:nodetypes="cccccsccccccssscscccccccccccccsccsccccccscssccsccscscsccccsscccsscscccsccccccscscssc" />
    </g>
  </g>
</svg>
