<?xml version="1.0" standalone="no"?>
<!DOCTYPE svg PUBLIC "-//W3C//DTD SVG 20010904//EN"
 "http://www.w3.org/TR/2001/REC-SVG-20010904/DTD/svg10.dtd">
<svg version="1.0" xmlns="http://www.w3.org/2000/svg"
 width="2048.000000pt" height="733.000000pt" viewBox="0 0 2048.000000 733.000000"
 preserveAspectRatio="xMidYMid meet">
<metadata>
Created by potrace 1.11, written by Peter Selinger 2001-2013
</metadata>
<g transform="translate(0.000000,733.000000) scale(0.100000,-0.100000)"
fill="#000000" stroke="none">
<path d="M4100 6930 c-19 -5 -60 -13 -90 -18 -49 -9 -125 -40 -217 -90 -40
-22 -153 -128 -153 -145 0 -7 -27 -27 -60 -45 -33 -18 -62 -37 -65 -43 -4 -5
-15 -9 -25 -9 -10 0 -23 -6 -27 -13 -15 -24 -117 -85 -155 -92 -21 -4 -38 -11
-38 -16 0 -5 -19 -18 -42 -30 -24 -12 -65 -41 -93 -65 -44 -37 -69 -48 -135
-57 -8 -2 -20 -6 -26 -10 -7 -4 -25 0 -40 8 -23 12 -32 12 -49 2 -11 -7 -42
-21 -70 -31 -27 -10 -77 -30 -110 -43 -67 -28 -86 -36 -131 -53 -18 -6 -40
-19 -51 -28 -33 -30 -78 -59 -101 -66 -24 -8 -172 -149 -172 -165 0 -5 -13
-23 -30 -41 -16 -18 -30 -36 -30 -41 0 -8 -20 -35 -47 -64 -7 -8 -13 -18 -13
-22 0 -5 -8 -18 -17 -29 -19 -20 -62 -104 -86 -169 -8 -22 -19 -49 -23 -60
-15 -39 -32 -130 -28 -150 3 -11 9 -54 15 -95 5 -41 12 -90 14 -108 5 -31 -1
-39 -58 -95 -36 -34 -83 -78 -105 -97 -23 -19 -41 -38 -42 -42 0 -4 -13 -20
-28 -35 -16 -16 -31 -35 -34 -43 -3 -8 -33 -58 -67 -110 -33 -52 -61 -101 -61
-110 0 -9 -6 -24 -14 -35 -22 -33 -83 -258 -86 -320 -1 -22 -3 -68 -4 -103 -2
-38 -9 -69 -18 -80 -9 -9 -32 -51 -53 -92 -20 -41 -45 -91 -56 -111 -10 -20
-19 -42 -19 -48 0 -7 -9 -31 -19 -55 -21 -45 -79 -240 -103 -343 -10 -43 -11
-63 -4 -63 7 0 7 -3 -1 -8 -10 -6 -23 -70 -25 -127 -2 -44 12 -168 20 -178 5
-7 9 -27 10 -46 2 -18 8 -43 15 -55 18 -32 17 -59 -3 -73 -10 -7 -21 -28 -24
-48 -4 -19 -11 -35 -15 -35 -5 0 -14 -30 -20 -67 -7 -38 -14 -81 -17 -98 -3
-16 -7 -73 -10 -125 -3 -52 -6 -97 -6 -100 0 -3 1 -7 2 -10 4 -11 10 -47 14
-80 2 -19 13 -69 25 -110 11 -41 22 -87 24 -102 1 -15 6 -30 10 -34 4 -4 7
-22 7 -39 0 -28 16 -86 37 -135 3 -8 6 -18 5 -22 -1 -4 4 -20 10 -35 7 -15 12
-33 13 -39 0 -6 13 -23 29 -37 16 -15 26 -30 23 -33 -3 -4 5 -23 18 -43 14
-19 25 -39 25 -44 0 -4 12 -24 27 -42 15 -19 28 -40 28 -47 1 -18 27 -70 45
-88 35 -36 90 -108 90 -119 0 -6 5 -11 10 -11 6 0 21 -11 34 -25 13 -14 50
-39 81 -56 32 -17 65 -37 72 -45 8 -8 20 -14 26 -14 7 0 23 -12 36 -25 13 -14
33 -25 46 -25 13 0 25 -7 29 -15 3 -8 18 -15 34 -15 15 0 38 -9 50 -20 12 -11
29 -20 40 -20 10 0 22 -4 28 -8 5 -5 29 -14 54 -21 25 -6 54 -16 65 -20 51
-22 179 -37 229 -26 82 16 98 34 105 118 1 4 11 7 24 7 13 0 28 5 34 11 7 7
31 0 79 -23 53 -26 72 -41 83 -66 8 -17 21 -32 28 -32 7 0 13 -3 13 -7 1 -12
91 -105 133 -136 20 -15 40 -40 43 -55 10 -40 88 -108 168 -147 39 -19 78 -39
86 -44 33 -22 105 -51 126 -51 13 0 27 -6 31 -14 4 -8 44 -25 88 -39 68 -21
95 -25 170 -21 175 8 195 10 385 40 19 3 59 12 89 20 30 9 73 17 95 19 23 2
86 11 141 21 101 17 131 21 195 29 19 2 75 13 123 24 48 12 101 21 117 21 16
0 68 9 115 20 106 25 115 25 115 1 0 -11 4 -22 10 -26 5 -3 7 -12 4 -20 -7
-17 53 -94 83 -106 15 -5 37 -1 72 14 50 20 53 21 97 4 26 -9 49 -15 53 -13 4
3 23 1 43 -3 50 -12 287 13 326 33 17 9 51 23 77 32 26 8 67 31 92 50 24 19
55 37 68 40 12 3 32 17 44 30 23 27 124 94 140 94 20 0 123 53 128 67 3 7 11
13 19 13 8 0 14 4 14 8 0 5 21 32 48 60 63 68 112 128 112 137 0 4 16 41 35
81 19 40 35 81 35 91 0 10 32 51 70 90 39 40 70 76 70 80 0 5 16 24 36 43 20
19 52 51 71 70 19 19 39 35 46 35 7 0 11 7 9 16 -5 31 68 96 158 141 32 16 35
19 124 104 41 39 76 76 78 83 2 7 18 29 35 49 18 19 36 45 39 56 4 12 10 23
14 26 11 7 65 97 91 150 12 24 32 61 45 82 13 21 24 46 24 56 0 9 6 26 14 37
7 11 19 45 26 75 7 30 17 63 21 72 8 15 11 32 24 117 2 12 12 33 23 45 11 11
29 39 40 61 11 22 33 66 50 97 16 31 27 60 23 63 -3 4 2 11 12 16 9 6 17 20
17 32 0 31 12 46 35 46 11 0 54 2 95 6 116 10 192 8 200 -5 6 -9 9 -9 15 -1 5
9 10 9 20 1 9 -8 15 -8 20 0 4 7 13 6 28 -2 12 -6 58 -13 102 -14 44 -2 87 -5
95 -7 52 -14 71 -17 120 -23 98 -10 179 -12 213 -4 18 4 43 3 55 -1 12 -5 24
-4 27 1 3 5 25 7 49 4 26 -4 46 -2 50 4 4 7 23 6 59 -2 28 -7 67 -9 85 -5 18
4 35 2 38 -3 4 -6 18 -8 33 -5 14 3 60 0 101 -7 64 -11 80 -11 110 2 19 9 69
17 110 18 41 2 113 5 160 7 47 3 105 1 129 -3 25 -5 56 -4 69 1 13 5 63 11
110 13 109 6 205 14 257 22 22 3 46 5 53 5 22 -2 46 -1 122 5 101 9 326 10
373 3 20 -4 40 -2 43 3 3 5 13 3 21 -4 9 -7 39 -14 67 -15 28 -1 87 -4 131 -8
44 -3 87 -6 95 -6 8 1 33 1 55 0 127 -1 184 0 215 4 19 3 37 1 40 -4 3 -5 30
1 60 12 29 11 65 19 79 18 14 -1 44 1 66 5 112 19 282 26 715 31 207 2 392 6
410 9 55 10 368 14 382 5 7 -4 18 -3 24 2 7 6 100 9 225 9 118 -1 243 0 279 1
61 3 274 3 740 1 107 -1 265 0 350 3 303 8 576 16 665 21 50 2 160 6 245 9 85
3 177 7 203 10 79 6 349 17 522 20 153 3 299 11 358 21 16 2 27 0 27 -7 0 -8
4 -8 13 -1 6 6 23 10 37 10 26 -1 166 7 325 18 49 3 96 10 102 16 9 7 13 7 13
-1 0 -8 11 -10 33 -6 17 3 104 8 192 10 88 2 250 7 360 10 186 5 237 7 435 20
41 3 179 7 305 10 127 3 250 7 275 9 25 2 103 7 174 10 70 3 132 8 136 11 11
7 294 17 515 18 99 0 182 4 186 9 5 8 212 20 314 18 69 -1 149 -8 186 -16 27
-5 119 30 119 46 0 9 86 25 118 22 l22 -3 0 171 0 171 -22 -13 c-32 -17 -46
-19 -103 -17 -235 10 -431 -4 -745 -52 -36 -5 -209 -12 -385 -15 -176 -2 -327
-7 -335 -10 -8 -3 -64 -8 -124 -10 -60 -2 -139 -9 -175 -15 -36 -6 -149 -13
-251 -15 -321 -5 -420 -13 -502 -38 -36 -10 -73 -12 -165 -5 -140 10 -548 13
-562 5 -5 -4 -12 -3 -14 1 -3 5 -43 7 -89 6 -45 -1 -319 -5 -608 -8 -289 -3
-570 -9 -625 -15 -183 -18 -469 -39 -590 -45 -365 -16 -401 -19 -560 -47 -33
-6 -80 -12 -105 -13 -166 -9 -239 -16 -270 -25 -19 -5 -53 -10 -76 -10 -22 0
-44 -3 -48 -7 -7 -8 -6 -7 -131 -17 -49 -4 -94 -10 -99 -13 -5 -3 -30 -7 -55
-9 -25 -2 -72 -9 -103 -15 -34 -7 -96 -9 -160 -5 -57 3 -170 8 -253 10 -82 2
-229 7 -325 11 -96 4 -197 7 -225 6 -106 -2 -351 -2 -620 1 -154 2 -354 0
-445 -4 -91 -4 -241 -10 -335 -13 -394 -13 -463 -18 -550 -34 -55 -10 -185
-19 -395 -26 -47 -1 -92 -6 -101 -9 -9 -4 -34 -3 -57 2 -22 5 -43 7 -46 4 -3
-3 -63 -7 -133 -8 -71 -2 -138 -6 -150 -9 -12 -3 -25 0 -28 5 -4 6 -11 7 -18
3 -6 -3 -47 -8 -91 -9 -45 -2 -97 -6 -116 -9 -19 -4 -46 -8 -60 -10 -14 -2
-25 -4 -25 -6 0 -1 -31 -3 -70 -4 -38 -1 -99 -5 -135 -10 -36 -4 -92 -6 -125
-4 -33 1 -76 2 -95 2 -188 -5 -274 -4 -325 2 -33 3 -82 8 -110 10 -27 1 -77 6
-110 9 -119 13 -143 14 -355 21 -267 8 -304 10 -360 26 -25 7 -82 13 -127 13
-73 0 -83 2 -84 18 -2 27 -3 31 -19 58 -18 32 -39 110 -29 110 20 0 -38 318
-73 397 -10 24 -21 59 -24 79 -2 20 -11 45 -19 57 -8 12 -15 31 -15 42 0 12
-5 26 -12 33 -6 6 -22 44 -35 84 -22 66 -22 75 -9 103 33 68 45 103 56 165 7
36 19 82 26 103 8 20 14 49 14 62 0 14 4 25 9 25 9 0 7 216 -4 269 -10 51 -43
130 -75 181 -15 25 -38 65 -49 90 -12 25 -47 72 -79 106 -52 56 -65 64 -154
95 -90 31 -98 36 -98 60 0 17 -8 29 -23 36 -18 8 -26 26 -40 94 -10 46 -21 89
-25 95 -81 124 -115 172 -143 202 -8 9 -28 38 -43 65 -15 26 -30 47 -34 47 -4
0 -9 10 -9 22 -1 13 -7 24 -12 26 -6 2 -26 26 -46 53 -20 28 -43 49 -53 49
-11 0 -27 9 -36 19 -40 44 -329 118 -360 92 -23 -19 -58 12 -76 65 -43 135
-176 219 -431 273 -36 8 -109 56 -109 72 0 5 -6 9 -14 9 -8 0 -23 10 -33 23
-10 12 -34 31 -53 41 -19 11 -37 23 -40 26 -12 17 -142 66 -162 62 -11 -3 -97
-11 -219 -22 -59 -6 -134 -18 -168 -29 -59 -18 -62 -18 -84 -1 -13 11 -36 22
-50 25 -15 4 -27 11 -27 15 0 10 -82 32 -111 29 -34 -3 -119 10 -149 23 -14 6
-28 11 -33 10 -8 -2 -81 35 -136 70 -29 18 -51 22 -150 24 -64 1 -132 -2 -151
-6z m350 -315 c0 -7 7 -18 16 -23 13 -7 14 -13 6 -28 -6 -10 -12 -15 -12 -11
0 5 -6 2 -14 -5 -7 -7 -26 -23 -42 -36 -16 -12 -43 -33 -60 -47 -18 -14 -34
-25 -37 -25 -3 0 -36 -20 -73 -45 -36 -25 -74 -45 -84 -45 -9 0 -39 21 -66 46
-27 25 -70 57 -96 72 l-46 26 49 34 c40 27 62 34 112 37 34 2 83 8 108 14 43
10 70 9 129 -5 36 -8 80 11 80 36 0 11 7 20 15 20 8 0 15 -7 15 -15z m261 -66
c-2 -8 -8 -32 -14 -54 -5 -22 -13 -44 -17 -48 -10 -11 -82 -27 -92 -21 -7 5
75 121 97 136 15 11 31 3 26 -13z m-1195 -188 c-4 -5 -13 -8 -22 -4 -11 4 -12
8 -3 20 14 16 36 2 25 -16z m1934 5 c14 -1 32 -6 40 -11 8 -5 25 -8 38 -6 13
1 29 -2 36 -8 7 -6 21 -12 32 -14 10 -2 45 -16 78 -32 45 -22 62 -36 73 -63
23 -55 15 -75 -39 -92 -50 -16 -84 -42 -93 -70 -4 -14 -20 -20 -63 -24 -127
-13 -164 -10 -232 23 -36 17 -71 31 -78 31 -7 0 -40 9 -74 21 -34 11 -72 18
-85 14 -16 -4 -23 -1 -23 10 0 8 9 15 20 15 14 0 20 7 20 23 0 13 4 27 9 33
11 11 46 114 46 134 0 26 74 30 295 16z m-1513 -62 c7 -19 -15 -71 -41 -99
-13 -14 -39 -24 -67 -28 -45 -6 -47 -5 -52 22 -10 48 10 101 43 115 36 15 110
9 117 -10z m958 -12 c-8 -8 -25 10 -19 20 4 6 9 5 15 -3 4 -7 6 -15 4 -17z
m-159 -48 c7 -17 19 -34 26 -37 18 -7 -12 -29 -30 -22 -8 3 -45 5 -82 5 -58 0
-72 3 -90 22 -11 12 -19 27 -17 32 2 6 31 15 65 21 34 7 64 14 68 17 13 14 47
-8 60 -38z m-317 -38 c9 -11 7 -15 -12 -20 -28 -7 -90 9 -67 17 56 20 65 21
79 3z m-109 -15 c0 -12 -20 -25 -27 -18 -7 7 6 27 18 27 5 0 9 -4 9 -9z m-719
-32 c16 -11 29 -24 29 -28 0 -5 -30 -18 -67 -31 -36 -12 -86 -33 -111 -46 -44
-24 -62 -24 -62 0 0 11 17 25 125 103 38 28 50 28 86 2z m1364 -108 c174 -24
275 -46 275 -61 0 -21 -28 -29 -61 -19 -19 5 -45 12 -59 14 -14 2 -56 14 -95
26 -38 11 -81 22 -95 24 -28 3 -81 16 -93 22 -15 9 5 23 21 15 9 -5 58 -14
107 -21z m-2155 -52 c0 -6 -17 -35 -37 -66 -69 -103 -164 -276 -161 -291 4
-22 -58 -128 -99 -168 -53 -53 -244 -177 -255 -166 -9 10 10 174 22 186 6 6
10 18 10 28 0 45 124 258 151 258 5 0 9 6 9 13 0 7 12 21 27 32 24 18 90 70
121 96 7 5 36 22 65 36 28 15 59 32 67 39 16 13 60 23 73 16 4 -2 7 -8 7 -13z
m1643 -92 c-8 -33 -21 -70 -29 -81 -8 -11 -14 -29 -14 -39 0 -35 -45 -152 -65
-169 -30 -26 -43 -22 -91 27 -44 44 -44 45 -28 70 9 14 20 25 25 25 5 0 9 7 9
15 0 8 4 15 8 15 16 0 56 85 67 140 10 50 14 56 41 60 16 3 43 4 60 2 l31 -4
-14 -61z m301 52 c51 -6 124 -21 161 -33 l69 -22 -64 -13 c-155 -29 -182 -37
-302 -96 -60 -30 -63 -21 -34 85 22 80 38 104 64 95 8 -3 55 -10 106 -16z
m-604 3 c-1 -17 -30 -40 -91 -71 l-67 -34 -31 22 c-17 12 -42 24 -56 27 -138
25 -65 61 128 62 64 1 117 -2 117 -6z m2428 -68 c21 -3 63 -18 93 -32 53 -27
54 -28 66 -87 23 -114 24 -135 4 -135 -9 0 -51 22 -92 49 -42 28 -107 61 -145
76 -38 14 -82 32 -99 40 -38 19 -161 34 -265 31 -77 -1 -98 6 -82 31 10 14 44
21 152 29 52 3 97 8 100 11 6 5 216 -5 268 -13z m-1195 -106 c48 -21 61 -38
30 -38 -10 0 -31 -7 -47 -15 -15 -8 -31 -15 -35 -15 -13 1 -72 81 -66 91 8 13
54 4 118 -23z m-1618 12 c5 -8 -3 -10 -125 -30 -155 -26 -246 -28 -177 -5 91
32 290 55 302 35z m1380 -74 c18 -13 18 -14 -8 -38 -24 -23 -34 -25 -112 -24
-78 1 -107 12 -73 27 7 3 29 13 48 22 64 29 117 34 145 13z m1241 -30 c112
-24 226 -80 308 -150 l39 -34 -109 5 -109 5 -60 63 c-54 58 -103 90 -175 116
-18 7 -10 8 30 4 30 -2 64 -6 76 -9z m-963 -11 c4 -8 2 -17 -3 -20 -6 -4 -10
3 -10 14 0 25 6 27 13 6z m-1479 -36 c-26 -25 -89 -32 -89 -9 0 14 35 25 90
29 19 1 19 0 -1 -20z m-636 -29 c31 -23 54 -27 151 -29 l64 -1 -24 -26 c-33
-36 -97 -71 -142 -79 -20 -4 -40 -11 -43 -16 -3 -5 -10 -7 -15 -4 -5 4 -9 2
-9 -4 0 -5 -15 -13 -32 -16 -18 -4 -38 -12 -45 -17 -8 -6 -24 4 -52 34 -23 23
-41 47 -41 53 0 5 16 21 36 35 19 14 54 40 77 57 23 18 43 33 45 33 2 0 15 -9
30 -20z m856 -25 c6 -17 -22 -35 -53 -35 -25 0 -26 8 -4 32 20 22 49 24 57 3z
m1855 -25 c66 -17 83 -31 76 -60 -7 -27 -23 -50 -34 -50 -4 0 -34 30 -66 66
-37 42 -51 64 -39 61 10 -3 39 -11 63 -17z m323 -26 c55 -28 58 -45 9 -55 -17
-4 -41 -15 -51 -24 -23 -21 -29 -18 -35 18 -3 13 -12 38 -20 53 -8 16 -15 32
-15 37 0 13 60 -2 112 -29z m-518 -46 c9 -28 14 -53 12 -55 -2 -2 -20 7 -41
21 -20 14 -45 28 -56 31 -27 9 -24 22 9 39 46 26 58 20 76 -36z m-269 -30 c33
-12 62 -23 65 -23 3 0 47 -24 98 -54 106 -63 114 -82 37 -85 -43 -2 -83 -12
-175 -44 -8 -3 -21 -4 -28 -3 -8 1 -20 -3 -28 -9 -11 -10 -22 -3 -57 31 -53
52 -89 84 -140 122 -20 15 -37 32 -37 36 0 10 122 51 150 51 11 0 20 5 20 10
0 7 6 7 18 1 9 -5 44 -20 77 -33z m-2485 -74 c24 -23 -15 -53 -78 -59 l-53 -6
16 37 c8 20 15 38 15 39 0 2 8 5 18 8 25 6 65 -3 82 -19z m1510 -14 c0 -5 -7
-10 -15 -10 -8 0 -15 5 -15 10 0 6 7 10 15 10 8 0 15 -4 15 -10z m125 -10 c3
-5 -1 -10 -9 -10 -9 0 -16 5 -16 10 0 6 4 10 9 10 6 0 13 -4 16 -10z m-1009
-61 c8 -14 -8 -30 -35 -32 -11 -1 -21 -5 -21 -9 0 -4 -9 -8 -20 -8 -11 0 -20
4 -20 9 0 10 29 22 43 18 5 -1 13 6 18 16 11 19 25 22 35 6z m1650 -52 l67
-63 -33 -14 c-29 -12 -34 -12 -46 5 -8 10 -14 25 -14 33 0 7 -11 28 -25 46
-22 30 -32 56 -21 56 3 0 35 -28 72 -63z m-2522 7 c17 -7 22 -44 6 -44 -5 0
-28 -18 -52 -40 -24 -22 -46 -40 -50 -40 -4 0 -21 -15 -37 -32 -28 -30 -31
-31 -31 -11 0 12 3 23 8 25 4 2 23 23 42 48 19 25 40 49 47 53 8 5 10 14 7 20
-4 7 -4 9 1 5 4 -4 14 -1 22 7 17 17 16 17 37 9z m2314 -20 c18 -12 22 -23 22
-69 0 -34 -4 -55 -11 -55 -7 0 -9 -11 -6 -28 6 -30 -2 -37 -108 -93 l-50 -27
-49 27 c-27 14 -56 31 -65 36 -9 6 -37 23 -62 38 -26 15 -49 37 -53 49 -6 24
18 58 40 58 16 0 74 33 74 42 0 4 7 5 15 2 8 -4 15 -1 15 5 0 6 8 11 18 11 10
0 22 4 28 9 11 11 96 19 139 13 17 -2 40 -10 53 -18z m1432 -131 c0 -3 -8 -12
-17 -19 -17 -12 -17 -14 3 -41 35 -49 36 -59 1 -86 l-33 -25 -26 22 c-22 17
-27 29 -26 64 0 23 4 45 9 48 5 3 9 14 9 25 0 24 38 40 63 27 9 -5 17 -11 17
-15z m-2930 -17 c0 -8 -10 -18 -22 -22 -13 -4 -25 -9 -28 -13 -15 -18 -90 -50
-105 -45 -11 5 -18 0 -22 -15 -3 -12 -13 -21 -24 -21 -10 0 -39 -11 -65 -25
-26 -14 -57 -25 -70 -25 -12 0 -24 -4 -26 -9 -3 -11 -129 -83 -134 -78 -6 6
29 91 44 110 8 9 23 17 34 17 10 0 18 5 18 10 0 6 7 10 15 10 9 0 30 8 48 17
18 9 35 16 39 15 13 -3 122 40 140 55 9 8 22 12 27 8 6 -3 20 0 30 7 29 20
101 23 101 4z m3568 -111 c14 0 16 -8 14 -45 -1 -25 -12 -65 -23 -90 -11 -25
-28 -63 -38 -85 -23 -50 -131 -169 -168 -184 -19 -7 -53 -9 -102 -4 l-74 8 30
32 c17 18 28 35 25 38 -3 3 0 5 7 5 7 0 9 5 5 12 -4 7 -3 8 4 4 8 -4 16 3 22
19 6 15 17 33 25 41 8 9 15 24 15 35 0 10 7 19 15 19 8 0 15 6 15 14 0 8 6 16
14 19 7 3 16 16 19 29 3 13 15 66 26 118 12 52 24 105 26 118 5 21 10 18 65
-40 33 -35 68 -63 78 -63z m-1274 109 c23 -9 21 -61 -3 -74 -11 -5 -23 -19
-26 -31 -6 -18 -12 -20 -41 -15 -18 4 -42 3 -51 -2 -10 -5 -42 -12 -71 -15
-45 -5 -55 -3 -72 15 -35 37 -26 52 43 72 34 9 78 22 97 27 110 32 104 31 124
23z m996 -47 c0 -18 -4 -37 -8 -42 -5 -6 -17 -32 -27 -60 -18 -49 -71 -137
-87 -143 -4 -2 -8 -11 -8 -19 0 -30 -78 -103 -110 -103 -4 0 -17 19 -28 41
l-21 42 42 59 c23 33 76 95 117 138 41 43 83 88 92 99 25 30 38 26 38 -12z
m-659 -83 c5 -22 12 -62 15 -90 l6 -51 -41 -16 c-71 -29 -79 -24 -87 45 -2 24
-6 57 -9 73 -6 38 1 47 50 73 46 23 53 20 66 -34z m-1519 -21 c10 -9 18 -21
18 -27 0 -6 -5 -5 -12 2 -7 7 -19 12 -27 12 -9 0 -27 10 -41 21 l-25 21 34 -6
c19 -4 43 -14 53 -23z m761 -14 c-5 -34 -2 -44 22 -69 16 -17 26 -32 24 -35
-3 -2 -32 1 -63 7 -41 9 -63 20 -73 35 -18 27 -11 40 27 48 16 4 28 10 27 13
-2 8 25 41 35 42 3 0 4 -18 1 -41z m-3447 -3 c5 -14 -21 -64 -41 -78 -6 -5 -4
-8 4 -8 8 0 -17 -30 -55 -67 -38 -38 -73 -75 -79 -84 -5 -9 -28 -39 -50 -66
-22 -28 -50 -63 -61 -79 -12 -16 -25 -26 -28 -23 -8 7 20 75 34 84 6 4 8 10 5
15 -3 4 5 21 18 37 13 15 39 51 60 80 39 56 58 79 126 154 46 52 58 58 67 35z
m5314 -93 c0 -34 -18 -83 -35 -95 -5 -4 -7 -8 -2 -8 20 0 -119 -230 -140 -230
-19 0 -26 20 -9 26 9 3 16 14 16 23 0 9 17 32 37 51 50 49 82 123 99 235 3 17
7 37 10 45 8 23 24 -8 24 -47z m-4390 -6 c0 -13 -3 -27 -7 -31 -4 -4 -6 -26
-4 -51 1 -24 -3 -53 -9 -64 -6 -12 -11 -36 -12 -55 -1 -35 -17 -55 -72 -91
-24 -16 -27 -16 -56 5 -38 27 -83 102 -74 125 4 9 19 30 33 45 34 37 172 140
189 140 6 0 12 -10 12 -23z m1311 -3 c21 -7 39 -46 39 -84 0 -34 -29 -53 -97
-65 -23 -3 -47 -13 -54 -21 -15 -18 -39 -18 -39 0 0 8 5 27 11 43 6 15 12 35
14 43 8 38 11 45 22 57 6 7 26 16 42 19 17 4 28 11 24 17 -3 5 0 7 8 3 8 -3
21 -9 30 -12z m318 1 c49 -9 64 -45 19 -45 -12 0 -36 -5 -54 -12 -41 -15 -64
1 -64 45 0 32 1 32 99 12z m1246 -34 c6 -29 123 -151 158 -164 9 -3 17 -11 17
-16 0 -12 -29 -3 -51 16 -9 8 -32 22 -50 32 -117 63 -151 86 -163 109 -20 40
-10 52 39 52 40 0 44 -2 50 -29z m148 14 c4 -8 2 -17 -3 -20 -6 -4 -10 -4 -10
-1 0 2 -3 11 -6 20 -3 9 -2 16 4 16 5 0 12 -7 15 -15z m-1964 -67 c-7 -13 -16
-25 -20 -28 -8 -5 -16 -45 -18 -85 -2 -18 -2 -19 -12 -2 -7 11 -7 35 0 74 6
31 11 58 11 60 0 2 11 3 25 3 23 0 25 -2 14 -22z m-1839 -8 c13 -9 10 -15 -16
-38 -18 -15 -44 -36 -59 -47 -15 -11 -46 -37 -68 -58 -22 -21 -42 -35 -45 -32
-5 5 60 117 87 149 28 32 73 44 101 26z m3280 -27 c8 -3 22 -7 30 -8 44 -6
183 -56 218 -78 6 -5 12 -22 12 -39 0 -27 -2 -30 -26 -24 -14 4 -81 34 -148
66 -68 33 -127 60 -133 60 -13 0 -35 25 -28 32 6 5 50 0 75 -9z m-316 -39 c4
-10 1 -14 -6 -12 -15 5 -23 28 -10 28 5 0 13 -7 16 -16z m-168 -40 c29 -25 56
-55 59 -67 4 -12 10 -31 15 -42 22 -54 50 -144 50 -164 0 -27 -32 -28 -94 -1
-53 22 -69 51 -67 118 1 23 -6 75 -14 115 -22 107 -24 105 51 41z m-1172 -51
c10 -127 10 -127 -35 -156 -22 -15 -45 -25 -49 -22 -13 8 -40 96 -40 129 0 27
19 76 20 51 0 -5 8 2 18 18 10 15 22 24 25 20 4 -3 7 -1 7 5 0 7 7 12 16 12 8
0 12 5 9 10 -3 6 0 10 8 10 10 0 16 -20 21 -77z m1703 -60 c65 -31 126 -56
136 -55 9 0 17 -4 17 -9 0 -6 5 -7 10 -4 6 3 10 2 10 -2 0 -5 22 -17 48 -26
46 -17 48 -19 59 -70 12 -60 8 -189 -8 -229 -9 -22 -25 -36 -49 -43 -3 0 -19
-9 -37 -18 -44 -23 -66 -21 -101 8 -17 14 -35 25 -42 25 -7 0 -26 11 -42 26
-17 14 -36 23 -43 21 -20 -8 -44 43 -47 103 0 8 -5 20 -10 27 -17 21 -18 91
-2 104 34 28 37 49 9 85 -46 60 -62 114 -34 114 4 0 61 -26 126 -57z m-700 25
c0 -7 3 -42 8 -77 7 -59 6 -63 -11 -58 -11 3 -37 7 -59 9 -22 1 -43 7 -47 12
-10 15 53 107 82 119 23 9 27 8 27 -5z m-537 -9 c0 -5 -19 -29 -43 -54 -30
-31 -52 -45 -70 -45 -14 0 -29 -5 -32 -10 -4 -7 -12 -7 -25 0 -13 7 -19 6 -24
-6 -5 -12 -8 -12 -19 -3 -11 10 -9 16 8 34 27 28 92 65 114 65 10 0 23 6 29
13 12 14 62 19 62 6z m1694 -45 c56 -41 52 -65 -7 -41 -33 14 -57 42 -57 66 0
17 12 13 64 -25z m478 -16 c-6 -6 -16 -7 -22 -3 -9 6 -9 9 1 16 17 10 34 0 21
-13z m-3053 -55 c-13 -21 -26 -40 -29 -43 -4 -3 -15 -21 -26 -40 -10 -19 -21
-37 -24 -40 -3 -3 -15 -26 -27 -51 -31 -63 -62 -96 -103 -110 -19 -7 -46 -20
-59 -31 -16 -12 -33 -16 -54 -13 -42 8 -69 24 -63 38 3 7 9 20 12 30 4 9 13
17 20 17 8 0 13 4 12 9 -2 5 8 18 21 30 13 12 21 21 17 21 -4 0 2 10 14 22 11
12 20 25 20 30 0 4 7 8 16 8 14 0 14 3 4 15 -8 9 -8 15 -2 15 6 0 26 14 44 30
18 17 38 30 44 30 6 0 25 7 40 15 16 8 36 15 45 15 9 0 22 7 29 15 7 8 21 15
31 15 10 0 21 5 24 11 4 6 9 8 12 5 3 -3 -5 -22 -18 -43z m2892 35 c-1 -5 -1
-24 -1 -43 0 -42 -21 -47 -57 -13 -30 28 -29 44 5 56 30 12 53 11 53 0z
m-2695 -50 c3 -18 11 -40 17 -49 17 -27 1 -52 -28 -45 -15 4 -38 0 -56 -10
-38 -19 -47 -12 -25 20 9 14 16 31 16 39 0 7 13 23 30 35 20 15 27 27 23 39
-4 10 -2 14 5 10 6 -4 14 -22 18 -39z m3509 0 c2 -2 -23 -35 -57 -72 l-62 -68
-45 6 c-25 3 -66 9 -91 13 l-45 8 35 22 c19 12 48 25 63 29 16 3 31 13 34 20
3 8 10 11 15 8 6 -4 13 -2 17 3 19 30 115 52 136 31z m-570 -58 c3 -5 -1 -25
-9 -44 -12 -28 -22 -36 -51 -42 -40 -7 -45 -5 -49 23 -3 18 12 33 62 59 32 16
39 17 47 4z m-2085 -23 c0 -15 -34 -67 -44 -67 -15 0 -18 40 -4 57 9 11 48 19
48 10z m280 -17 c27 -9 31 -8 -55 -16 -46 -4 -69 2 -60 16 7 12 79 12 115 0z
m-2605 -46 c0 -10 -14 -48 -32 -83 -19 -35 -32 -68 -31 -75 3 -13 -63 -149
-74 -154 -5 -2 -6 -7 -3 -12 5 -8 -23 -36 -30 -29 -2 3 3 47 11 99 9 52 13
110 10 128 -4 29 1 39 42 81 70 71 107 87 107 45z m1220 6 c3 -5 2 -10 -4 -10
-5 0 -13 5 -16 10 -3 6 -2 10 4 10 5 0 13 -4 16 -10z m3897 -27 c9 -21 12 -39
7 -41 -5 -2 -9 -12 -9 -23 0 -10 -4 -19 -10 -19 -5 0 -10 4 -10 8 0 5 -11 14
-25 20 -14 6 -25 19 -25 29 0 16 37 63 49 63 4 0 14 -17 23 -37z m-3396 -15
c-8 -42 -12 -44 -36 -23 -33 30 -24 52 24 54 16 1 18 -4 12 -31z m-112 -92
c31 -40 25 -43 -159 -82 -16 -4 -27 -3 -23 1 4 4 0 14 -10 21 -15 12 -15 13 8
9 19 -4 33 4 62 37 20 23 34 46 31 52 -4 5 1 7 10 3 10 -4 17 -2 17 5 0 15 40
-13 64 -46z m3091 14 c3 -5 0 -10 -8 -10 -8 0 -20 -7 -28 -16 -11 -14 -13 -14
-21 0 -5 9 -6 21 -3 26 8 13 52 13 60 0z m-161 -47 c-3 -21 -10 -42 -14 -46
-12 -14 -23 13 -11 27 6 7 8 16 4 19 -5 6 14 37 24 37 2 0 1 -17 -3 -37z m469
-22 c35 -20 34 -26 -5 -62 -48 -44 -67 -53 -74 -34 -3 8 -13 15 -20 15 -8 0
-26 7 -39 16 l-25 16 38 38 c40 42 67 44 125 11z m-2390 11 c37 -3 36 -31 -8
-119 -19 -39 -35 -78 -35 -87 0 -9 -4 -16 -9 -16 -31 0 -131 81 -165 132 -16
24 -15 27 1 56 10 17 27 33 38 34 21 3 132 3 178 0z m-1353 -22 c0 -10 -31
-23 -38 -15 -8 7 19 35 29 29 5 -3 9 -9 9 -14z m1639 -30 c2 0 1 -7 -3 -15 -3
-8 0 -15 6 -15 6 0 4 -8 -5 -18 -10 -10 -17 -24 -17 -30 0 -6 -16 -26 -37 -44
-20 -18 -43 -41 -52 -50 -34 -35 -111 -56 -83 -23 4 6 14 28 21 50 13 38 24
67 56 142 l14 32 48 -14 c26 -8 50 -15 52 -15z m374 -72 c19 -19 24 -28 13
-28 -18 0 -86 63 -86 80 0 14 17 1 73 -52z m-2443 42 c13 -9 10 -14 -15 -33
-16 -12 -46 -37 -66 -54 -47 -42 -59 -42 -19 0 19 20 29 39 26 50 -3 11 -2 17
1 14 2 -3 13 3 24 14 22 22 28 23 49 9z m3975 -19 c-3 -6 -11 -11 -17 -11 -6
0 -6 6 2 15 14 17 26 13 15 -4z m-3799 -67 c-3 -9 -6 -20 -6 -25 0 -10 -82
-49 -103 -49 -6 0 0 11 13 25 13 14 27 25 32 25 4 0 17 9 28 20 24 24 45 26
36 4z m1171 -7 c6 -4 18 -39 28 -79 20 -84 65 -169 100 -192 42 -27 32 -53
-21 -61 -30 -4 -49 -3 -53 4 -5 7 -25 4 -62 -9 -65 -25 -144 -35 -153 -21 -4
6 -9 34 -12 63 -3 29 -9 55 -13 58 -11 6 -31 77 -24 83 2 3 6 11 7 19 3 12 18
83 22 101 1 4 2 15 3 25 1 15 12 17 85 16 46 -1 88 -4 93 -7z m2543 -39 c25
-24 54 -48 64 -53 17 -9 17 -12 2 -40 -9 -17 -28 -57 -43 -90 -14 -33 -39 -72
-55 -87 -15 -14 -28 -33 -28 -42 0 -24 -18 -19 -22 7 -2 12 0 45 5 72 7 47 13
218 7 240 -12 47 12 45 70 -7z m-2319 -33 c24 -25 48 -45 55 -45 6 0 17 -7 24
-15 10 -13 8 -20 -14 -41 -14 -15 -26 -31 -26 -35 0 -35 -74 24 -85 66 -14 58
-17 115 -7 115 6 0 29 -20 53 -45z m-806 3 c3 -13 2 -45 -3 -73 -11 -66 -6
-184 9 -221 7 -16 11 -33 10 -38 -1 -4 5 -18 13 -30 14 -22 13 -23 -52 -35
-64 -12 -177 -35 -232 -47 -14 -3 -77 -7 -140 -10 -63 -2 -137 -8 -165 -13
-27 -5 -52 -7 -54 -5 -2 2 2 16 9 31 8 16 14 33 15 38 0 6 13 28 28 50 15 22
27 44 27 48 0 5 10 23 22 40 13 18 23 37 23 42 0 10 4 11 41 14 8 0 13 5 10
10 -3 4 13 14 35 21 22 8 44 20 48 28 5 8 19 16 32 17 13 1 29 11 35 23 6 12
13 20 16 17 3 -3 19 0 36 6 29 10 37 20 33 42 -1 4 8 3 19 -3 16 -9 22 -8 26
5 3 8 12 15 20 15 8 0 14 5 14 11 0 8 5 8 15 -1 12 -10 16 -9 21 3 3 9 12 18
20 21 10 4 12 2 8 -6 -4 -6 3 -4 17 5 31 22 38 21 44 -5z m3593 -19 c87 2 92
1 108 -24 13 -21 15 -40 11 -108 -4 -45 -13 -103 -21 -130 -8 -26 -15 -49 -16
-52 -2 -16 -14 -45 -31 -75 -11 -19 -25 -47 -30 -62 -15 -38 -31 -35 -63 11
-51 73 -157 137 -239 144 -18 1 -32 7 -31 12 1 23 16 91 24 110 5 11 16 46 26
78 17 59 35 78 109 119 29 15 31 15 46 -4 14 -18 26 -20 107 -19z m-761 -22
c4 -12 7 -24 8 -27 0 -3 7 -22 14 -42 16 -48 22 -192 9 -254 -5 -27 -9 -62
-10 -77 -1 -15 -9 -32 -18 -37 -9 -5 -45 -37 -80 -71 -92 -89 -95 -85 -95 125
-1 92 3 170 7 172 13 8 9 26 -4 18 -7 -4 -5 2 6 14 10 12 16 28 12 37 -4 11
-2 14 6 9 7 -5 9 0 6 14 -4 12 -2 25 3 28 5 3 9 13 9 22 0 25 86 103 104 96 9
-3 19 -16 23 -27z m-1157 -52 c0 -2 -13 -17 -28 -33 -15 -16 -26 -35 -24 -43
2 -8 -4 -6 -12 5 -22 28 -20 51 7 64 23 11 57 16 57 7z m218 -88 c26 -49 28
-67 8 -67 -8 0 -21 -3 -30 -6 -12 -4 -14 2 -14 33 1 21 -1 50 -4 65 -9 40 13
26 40 -25z m-2561 13 c-2 -24 -11 -34 -47 -54 -25 -14 -58 -37 -74 -51 -16
-14 -32 -25 -36 -25 -4 0 -43 -27 -86 -60 -91 -70 -108 -75 -92 -27 6 17 18
43 27 57 9 14 23 38 31 54 16 31 67 86 78 85 26 -4 63 3 74 14 7 6 20 13 28
14 8 1 31 6 50 12 19 5 38 9 42 10 4 1 6 -12 5 -29z m298 20 c3 -5 -1 -10 -9
-10 -9 0 -16 5 -16 10 0 6 4 10 9 10 6 0 13 -4 16 -10z m1835 -40 c0 -13 -7
-20 -19 -20 -22 0 -35 15 -26 30 12 19 45 11 45 -10z m1565 -30 c3 -5 1 -10
-4 -10 -6 0 -11 5 -11 10 0 6 2 10 4 10 3 0 8 -4 11 -10z m-4969 -37 c-10 -10
-19 5 -10 18 6 11 8 11 12 0 2 -7 1 -15 -2 -18z m-205 -20 c2 -52 5 -80 23
-176 21 -108 21 -104 -14 -122 -39 -20 -39 -20 -55 19 -17 40 -14 160 5 226
17 58 17 57 19 75 2 32 21 13 22 -22z m3475 -4 c118 -46 125 -50 122 -73 -5
-35 -63 -54 -213 -71 -77 -9 -161 -19 -188 -24 -54 -9 -61 -4 -59 46 1 51 1
53 11 53 6 0 21 10 35 23 14 13 44 29 68 36 24 7 59 19 78 26 51 19 60 18 146
-16z m-2840 -34 c1 -25 5 -54 9 -64 9 -29 -7 -32 -38 -7 l-27 22 20 41 c11 23
20 48 20 54 0 32 13 -6 16 -46z m3858 30 c6 -17 -13 -65 -26 -65 -4 0 -8 -6
-8 -14 0 -8 -9 -18 -20 -21 -11 -3 -20 -13 -20 -21 0 -15 -44 -19 -74 -8 -14
5 -12 10 9 30 14 13 31 24 37 24 6 0 9 3 6 6 -6 6 71 84 83 84 4 0 9 -7 13
-15z m716 -65 c-19 -12 -35 3 -26 26 6 17 8 17 24 0 15 -15 15 -18 2 -26z
m-3810 -96 c-6 -14 -8 -30 -5 -35 7 -10 -39 -59 -55 -59 -6 0 -30 -12 -53 -27
-70 -46 -81 -53 -107 -64 -14 -6 -33 -18 -42 -26 -10 -9 -18 -12 -18 -7 0 5
16 23 36 39 52 44 104 97 104 107 0 4 9 8 21 8 15 0 19 5 15 15 -3 8 -2 14 2
13 10 -4 92 44 92 54 0 4 4 8 10 8 6 0 6 -9 0 -26z m4135 -24 c63 -24 93 -57
105 -115 11 -53 10 -58 -14 -89 -14 -19 -46 -44 -71 -56 -50 -24 -82 -21 -146
12 -48 25 -146 40 -238 36 l-76 -3 3 30 c2 17 16 54 30 83 20 41 30 52 49 52
12 0 23 3 23 8 0 7 112 47 155 55 35 7 150 -2 180 -13z m-4965 -21 c6 -11 14
-30 16 -42 9 -40 4 -175 -7 -204 -6 -15 -10 -29 -10 -30 3 -11 0 -23 -7 -23
-5 0 -16 25 -26 55 -9 30 -21 57 -26 60 -22 13 1 141 33 193 11 16 14 15 27
-9z m3647 -54 c16 -34 16 -35 -12 -57 -75 -59 -104 -77 -111 -67 -7 12 44 161
60 171 16 11 46 -11 63 -47z m-247 -31 c0 -3 -7 -21 -15 -40 -8 -19 -16 -51
-17 -71 -3 -47 -24 -53 -54 -15 -13 16 -44 42 -69 56 -25 15 -45 31 -45 36 0
10 35 18 105 25 27 3 53 9 58 14 9 9 37 4 37 -5z m-726 -2 c3 -5 -22 -14 -54
-21 -39 -9 -57 -17 -53 -25 4 -7 2 -7 -7 1 -15 14 -39 6 -62 -20 -11 -12 -18
-15 -18 -7 0 8 -8 10 -23 6 -15 -3 -31 2 -50 18 -33 28 -34 36 -4 35 44 -2
189 9 195 15 8 9 70 7 76 -2z m-414 -77 l45 -28 -60 -22 c-33 -13 -64 -31 -70
-41 -5 -11 -11 -21 -12 -23 -2 -2 -9 2 -18 9 -10 8 -15 9 -15 1 0 -6 -9 -11
-21 -11 -11 0 -18 -3 -16 -7 3 -5 -13 -9 -34 -10 -22 -1 -37 2 -34 7 3 4 1 10
-5 12 -5 1 -13 24 -16 51 -9 62 9 84 66 81 22 -1 42 2 45 6 12 19 100 4 145
-25z m1845 -2 c20 -10 35 -24 36 -35 4 -75 3 -79 -24 -93 -32 -16 -53 -11 -69
18 -8 16 -7 23 8 35 15 11 15 13 3 9 -17 -6 -17 -5 -4 56 6 32 5 32 50 10z
m-4395 -10 c0 -10 -4 -25 -10 -33 -5 -8 -5 -17 0 -20 5 -3 5 -12 0 -20 -15
-24 -34 38 -21 67 12 27 31 30 31 6z m4168 -4 c-10 -5 -18 -18 -19 -27 0 -11
-2 -12 -6 -4 -6 15 14 42 31 42 6 0 3 -5 -6 -11z m-2204 -39 c7 0 13 -16 14
-38 3 -53 29 -144 43 -152 19 -12 2 -27 -38 -33 -208 -33 -557 -67 -600 -59
-25 5 -25 5 45 76 23 24 42 49 42 55 0 16 61 71 72 65 4 -3 8 0 8 6 0 6 4 9 9
6 5 -4 22 -1 38 5 15 6 37 13 48 14 56 8 80 16 83 25 2 5 8 10 13 10 6 0 8 -4
5 -9 -3 -5 22 0 55 10 33 10 74 19 89 19 16 0 35 6 42 14 11 12 13 12 16 0 2
-8 9 -14 16 -14z m1482 -19 c28 -16 63 -45 78 -65 30 -40 59 -114 52 -132 -5
-14 -106 -81 -142 -94 -21 -9 -24 -6 -34 32 -12 43 -24 68 -53 107 -13 18 -15
26 -5 32 6 4 13 24 15 45 3 44 22 104 31 104 4 0 30 -13 58 -29z m604 -60 c6
-17 9 -35 5 -40 -14 -24 -189 -91 -202 -78 -9 9 76 86 96 87 8 0 11 6 7 16 -3
8 -2 13 3 10 4 -3 16 3 26 14 26 28 51 25 65 -9z m-3082 -22 c-8 -13 -21 -43
-28 -66 -15 -50 -30 -58 -76 -38 -44 18 -43 36 4 67 20 14 50 37 67 52 34 29
54 20 33 -15z m4706 22 c7 -11 -5 -74 -12 -66 -10 9 -12 75 -2 75 5 0 11 -4
14 -9z m-670 -40 c27 -6 57 -16 68 -22 19 -10 19 -11 0 -41 -18 -28 -31 -38
-90 -69 -20 -11 -26 -8 -59 32 -21 24 -50 57 -65 72 -16 16 -28 30 -28 32 0 5
77 11 105 9 11 -1 42 -7 69 -13z m-1920 -121 c-1 -31 -7 -66 -12 -77 -6 -11
-11 -38 -10 -60 1 -59 -6 -65 -60 -58 -25 3 -48 8 -51 10 -6 3 -68 11 -171 21
-93 9 -91 20 16 70 41 20 75 40 75 45 1 5 2 13 3 17 4 27 97 85 151 94 52 9
61 0 59 -62z m-2647 18 c1 -18 4 -45 8 -60 6 -23 0 -36 -41 -85 -74 -87 -74
-87 -87 -74 -8 8 -6 18 9 38 11 16 30 42 42 58 12 17 24 39 26 50 13 62 29
105 40 105 0 0 2 -15 3 -32z m4362 -25 c28 -33 37 -50 28 -55 -17 -11 -61 -10
-91 1 -26 10 -26 12 0 84 9 26 19 21 63 -30z m-341 20 c-1 -10 2 -55 6 -100 5
-64 4 -88 -8 -111 -8 -16 -12 -32 -9 -36 4 -3 1 -6 -5 -6 -7 0 -12 -7 -12 -15
0 -9 -7 -18 -15 -21 -8 -3 -17 -14 -20 -25 -4 -10 -12 -19 -19 -19 -14 0 -56
82 -56 109 0 10 -6 24 -14 30 -25 21 -36 115 -16 150 7 13 54 34 115 51 46 12
54 11 53 -7z m-1835 -8 c1 -6 -10 -11 -25 -13 -31 -4 -39 14 -10 21 23 6 33 4
35 -8z m1159 -95 c6 0 5 -6 -2 -15 -16 -19 -32 -15 -36 9 -2 12 2 16 13 12 8
-3 19 -6 25 -6z m333 -92 c-6 -38 -65 -158 -77 -158 -12 0 -9 45 4 58 8 8 8
15 -1 26 -10 11 -9 16 1 23 7 4 22 25 32 46 24 47 49 50 41 5z m-495 -54 c0
-38 -4 -46 -24 -54 -13 -5 -30 -17 -38 -28 -13 -19 -14 -19 -88 -1 -41 11 -78
23 -83 28 -11 11 25 32 93 55 30 11 66 27 79 36 40 28 61 15 61 -36z m1280 21
c0 -2 -9 -9 -20 -15 -22 -12 -44 -5 -35 11 6 9 55 13 55 4z m-3380 -60 c0 -17
-8 -29 -22 -36 -13 -5 -41 -21 -63 -34 -22 -13 -51 -24 -65 -24 -28 -1 -124
75 -114 90 3 5 26 9 52 10 26 0 65 4 87 8 22 5 59 9 83 10 39 1 42 -1 42 -24z
m1315 -22 c14 -8 5 -14 -47 -33 -34 -13 -69 -28 -75 -33 -7 -5 -13 -7 -13 -4
0 3 -59 -15 -132 -39 -148 -49 -168 -52 -192 -25 -16 18 -16 20 10 40 16 13
35 19 46 15 10 -3 30 3 47 15 21 16 27 26 24 45 -5 22 -1 25 33 29 69 7 281 0
299 -10z m1050 -12 c3 -10 5 -23 4 -27 -5 -20 21 -86 45 -115 30 -35 32 -51
12 -69 -12 -9 -25 -7 -63 10 -26 11 -50 24 -53 28 -3 4 -22 15 -42 24 -50 23
-54 60 -14 106 50 56 100 75 111 43z m363 -38 c9 -28 8 -34 -8 -43 -50 -27
-91 -1 -69 43 33 62 56 62 77 0z m-3201 -18 c12 -55 2 -57 -31 -8 -19 28 -22
39 -13 45 24 15 34 7 44 -37z m4417 -3 c7 -12 -43 -138 -80 -197 -16 -28 -38
-67 -48 -88 -10 -22 -24 -46 -32 -55 -31 -38 -114 -143 -121 -155 -4 -6 -18
-21 -31 -32 l-23 -19 9 24 c13 34 39 78 90 150 23 33 42 62 42 64 0 2 16 27
35 56 19 29 35 56 35 60 0 5 15 35 34 67 18 32 37 69 41 83 13 42 36 62 49 42z
m-4274 -20 c0 -5 10 -13 22 -19 l23 -10 -24 -12 c-26 -15 -26 -15 -35 22 -4
16 -2 27 4 27 5 0 10 -4 10 -8z m4054 -41 c-5 -3 -16 -19 -24 -36 -20 -40 -94
-154 -119 -182 -18 -22 -21 -22 -55 -8 -19 8 -55 15 -80 15 -50 0 -67 13 -38
29 11 6 27 26 36 46 10 21 29 41 44 47 15 5 50 21 77 33 28 13 61 29 75 35 14
6 36 17 49 25 23 13 53 10 35 -4z m-3457 -17 c4 -13 -45 -33 -64 -27 -20 7
-15 23 10 33 27 11 49 9 54 -6z m1287 -12 c3 -5 8 -31 11 -59 l7 -50 -72 -36
c-39 -21 -73 -37 -76 -37 -2 0 -4 9 -4 20 0 11 15 35 34 53 18 17 37 42 41 55
3 12 10 22 15 22 4 0 10 9 13 20 5 20 22 27 31 12z m-194 -30 c0 -4 -22 -29
-50 -54 -27 -26 -50 -51 -50 -56 0 -5 -16 -20 -35 -33 -19 -13 -35 -29 -35
-35 0 -6 -19 -24 -42 -39 -24 -16 -49 -37 -56 -47 -18 -25 -34 -12 -64 51 -12
25 -29 54 -36 63 -20 23 -8 48 22 48 14 0 27 4 31 9 3 5 28 17 56 26 28 10 63
24 78 31 14 8 35 14 46 15 11 0 36 7 55 14 40 15 80 19 80 7z m-3321 -19 c-1
-10 2 -62 6 -115 5 -82 4 -98 -9 -98 -20 0 -35 152 -16 158 8 3 9 7 2 11 -12
7 -4 61 9 61 4 0 8 -8 8 -17z m3933 -20 c-3 -16 -15 -44 -27 -63 -11 -19 -34
-60 -50 -91 -19 -37 -34 -56 -44 -54 -9 2 -41 4 -72 4 -55 1 -56 1 -67 38 -13
43 -2 62 49 83 16 7 29 17 29 22 0 5 5 6 10 3 6 -4 17 -2 25 5 10 8 145 80
151 80 1 0 -1 -12 -4 -27z m697 -14 c24 1 53 -1 62 -4 17 -6 17 -9 -7 -33 -14
-15 -34 -42 -45 -59 -11 -18 -24 -33 -27 -33 -16 0 -112 56 -117 68 -7 20 12
60 32 65 10 2 27 2 38 -1 11 -3 40 -4 64 -3z m317 -65 c4 -20 22 -56 41 -81
27 -36 32 -47 22 -59 -6 -8 -17 -14 -24 -14 -7 0 -24 -10 -39 -21 -19 -15 -31
-18 -38 -11 -12 12 -21 192 -8 192 5 0 12 9 15 20 9 28 23 16 31 -26z m-663
-8 c15 -10 27 -22 27 -27 0 -9 -97 -123 -109 -127 -9 -3 -25 56 -21 73 1 6 3
24 5 40 2 17 4 32 5 35 1 3 2 9 1 14 -1 5 0 15 3 22 6 15 39 4 89 -30z m-2388
20 c18 -13 18 -14 -1 -19 -45 -13 -84 -18 -84 -11 0 14 33 44 50 44 9 0 25 -6
35 -14z m3262 -14 c7 -5 9 -13 3 -22 -7 -11 -11 -11 -24 -1 -24 20 -6 40 21
23z m-2309 -40 c10 -15 34 -60 52 -101 39 -85 44 -76 -75 -123 -38 -15 -78
-32 -87 -38 -10 -5 -29 -10 -43 -10 -27 0 -26 19 5 55 9 11 23 41 30 68 7 26
16 50 20 52 7 4 4 27 -14 95 -6 24 -5 25 43 27 44 2 52 0 69 -25z m592 3 c-7
-9 -15 -13 -19 -10 -3 3 1 10 9 15 21 14 24 12 10 -5z m-2652 -27 c17 1 32 -3
32 -8 0 -6 9 -10 21 -10 18 0 20 -4 15 -27 -17 -75 -87 -163 -106 -134 -42 68
-51 202 -12 185 9 -4 32 -7 50 -6z m3265 -105 c-1 -65 -2 -123 -2 -130 -1 -12
-87 -79 -109 -85 -9 -2 -14 17 -16 67 -2 55 2 77 18 105 11 19 23 37 28 40 4
3 15 24 24 45 15 36 41 73 54 74 3 1 4 -52 3 -116z m-1461 101 c11 -10 -8 -59
-23 -62 -17 -3 -43 44 -34 59 7 10 48 12 57 3z m-1442 -31 c0 -12 -42 -73 -50
-73 -5 0 -12 -9 -15 -20 -4 -11 -23 -42 -42 -67 -48 -63 -109 -187 -118 -240
-4 -24 -10 -43 -14 -43 -3 0 -17 18 -31 40 -14 22 -27 40 -30 40 -3 0 -13 13
-23 29 -15 26 -15 30 -2 41 9 7 18 10 22 6 10 -10 113 74 113 93 0 5 7 14 15
21 8 7 15 23 15 36 0 12 4 25 9 28 5 3 12 27 16 53 4 27 11 50 15 53 12 7 120
9 120 3z m1000 -3 c12 -8 3 -21 -50 -70 -36 -32 -71 -59 -78 -60 -17 0 -112
50 -112 60 0 10 41 26 102 41 26 6 46 15 43 19 -11 17 71 26 95 10z m2339 -18
c53 -26 60 -46 28 -76 -15 -14 -27 -29 -27 -35 0 -5 -15 -27 -32 -49 -64 -78
-88 -107 -110 -137 -13 -17 -58 -66 -100 -110 -75 -78 -77 -79 -86 -55 -5 14
-5 40 0 63 4 21 6 42 3 47 -3 4 1 10 7 13 10 3 10 7 -1 20 -8 11 -9 17 -3 17
6 0 9 7 6 15 -4 10 11 32 42 63 27 26 69 71 93 100 24 28 47 49 52 46 5 -3 9
-2 8 3 -3 19 3 33 27 62 29 35 45 37 93 13z m-4469 -23 c0 -6 -4 -7 -10 -4 -5
3 -10 11 -10 16 0 6 5 7 10 4 6 -3 10 -11 10 -16z m2407 -6 c4 -10 23 -43 43
-73 53 -79 35 -108 -31 -52 -30 25 -40 27 -106 25 l-73 -2 47 40 c26 21 51 39
56 39 4 0 5 5 1 12 -4 6 -3 8 3 5 6 -4 16 0 23 8 16 20 29 19 37 -2z m923 -64
c0 -6 -22 -33 -50 -60 -27 -27 -50 -54 -50 -59 0 -6 -7 -10 -16 -10 -8 0 -13
-3 -11 -7 3 -5 -11 -21 -29 -38 -19 -16 -55 -49 -81 -72 -60 -55 -75 -56 -57
-5 7 20 13 56 14 79 0 42 19 73 46 73 8 0 14 5 14 10 0 6 7 10 15 10 16 0 127
57 135 70 5 7 32 17 58 19 6 0 12 -4 12 -10z m-1543 -30 c12 -12 26 -21 93
-57 l43 -24 -21 -20 -21 -21 -33 29 c-37 32 -92 104 -80 104 4 0 13 -5 19 -11z
m2907 -25 l38 -26 -82 -45 c-45 -24 -85 -42 -88 -39 -3 4 4 19 16 34 12 15 31
44 42 65 11 20 24 37 28 37 4 0 25 -12 46 -26z m-3438 -51 c2 -42 0 -65 -9
-70 -16 -11 -67 -79 -67 -91 0 -5 -11 -25 -24 -45 -14 -20 -28 -56 -31 -81 -8
-48 -15 -52 -62 -40 -17 5 -23 14 -23 33 0 15 3 31 7 35 4 3 8 14 9 23 7 44
40 136 51 140 7 3 11 9 8 13 -5 9 41 69 64 84 11 7 11 10 0 17 -11 7 -11 9 2
9 9 0 19 9 22 21 4 14 12 20 27 17 20 -3 23 -10 26 -65z m195 50 c16 -10 29
-20 29 -24 0 -4 9 -9 20 -12 12 -3 20 -14 20 -26 0 -26 -5 -26 -37 -1 -14 11
-36 20 -49 20 -24 0 -33 15 -26 43 5 21 7 21 43 0z m3588 -42 c-16 -36 -18
-36 -45 -15 -15 12 -16 16 -5 21 7 3 21 13 30 23 23 25 36 7 20 -29z m-4600
25 c13 -15 7 -35 -26 -88 -13 -21 -23 -45 -23 -53 0 -9 -7 -29 -15 -46 -9 -16
-17 -63 -19 -107 -3 -61 -7 -78 -20 -80 -9 -2 -16 1 -16 7 0 6 -5 11 -12 11
-43 0 -64 77 -28 103 14 10 18 22 15 46 -3 19 -7 36 -9 39 -3 2 6 19 19 37 14
17 25 35 25 38 0 3 11 18 25 33 13 14 22 30 19 35 -3 5 2 9 10 9 9 0 16 7 16
15 0 19 24 20 39 1z m3271 -15 c0 -12 -29 -35 -36 -28 -11 10 5 37 21 37 8 0
15 -4 15 -9z m-3088 -131 l37 -48 -16 -59 c-9 -32 -20 -59 -25 -61 -4 -2 -8
-10 -8 -17 0 -19 -69 -77 -88 -73 -13 3 -16 13 -15 38 3 61 11 124 18 155 8
38 44 115 53 114 4 0 24 -22 44 -49z m2303 23 c-4 -10 -10 -28 -12 -41 -3 -12
-9 -25 -14 -27 -11 -7 -80 37 -76 49 3 10 63 33 91 35 14 1 16 -3 11 -16z
m2005 -33 l25 -20 -22 -6 c-14 -4 -26 -19 -33 -40 -13 -39 -25 -44 -33 -12 -4
13 0 26 10 33 10 8 14 19 10 29 -7 18 -1 36 11 36 4 0 18 -9 32 -20z m-3187
-34 c32 -13 37 -18 28 -34 -5 -10 -17 -24 -25 -31 -12 -10 -18 -8 -31 12 -9
14 -18 37 -21 53 -3 15 -7 32 -10 38 -3 6 1 4 8 -5 8 -10 31 -24 51 -33z m520
31 c3 3 19 2 34 -2 25 -6 26 -8 8 -15 -24 -9 -145 -23 -145 -16 0 2 14 13 32
24 22 14 37 18 49 12 9 -5 19 -7 22 -3z m1067 -15 c0 -4 -5 -13 -11 -19 -5 -5
-11 -21 -13 -34 -2 -13 -8 -36 -14 -51 -10 -24 -17 -28 -49 -27 -21 0 -46 4
-57 8 -16 6 -14 10 15 33 19 14 51 42 72 62 37 35 57 45 57 28z m196 -48 c-6
-54 -3 -50 -39 -59 -26 -7 -36 3 -19 19 4 4 7 11 7 14 1 20 39 71 53 72 1 0 0
-21 -2 -46z m1224 38 c0 -17 -39 -142 -55 -175 -9 -20 -14 -41 -10 -46 3 -6 0
-11 -7 -11 -8 0 -31 -28 -52 -63 -33 -54 -46 -66 -90 -84 -28 -12 -50 -27 -48
-33 1 -7 -2 -8 -10 -4 -15 9 -58 6 -73 -6 -10 -8 -56 -20 -90 -25 -11 -2 -33
-8 -48 -14 -16 -6 -42 -11 -58 -11 -16 0 -46 -7 -66 -15 -20 -9 -40 -12 -44
-8 -4 5 -3 33 3 63 5 30 10 69 10 85 0 29 3 30 43 30 33 0 51 7 86 36 24 20
54 39 67 43 12 4 22 12 22 17 0 5 20 18 44 28 24 11 46 26 49 35 4 9 13 16 21
16 14 0 85 37 96 50 7 8 119 74 150 88 29 13 60 15 60 4z m-2049 -25 c50 -26
129 -89 129 -102 0 -20 -54 -70 -92 -85 -18 -8 -35 -17 -38 -20 -7 -8 -94 -50
-105 -50 -5 0 -16 -6 -24 -13 -27 -23 -97 -47 -108 -36 -13 13 7 111 25 122 8
5 13 24 12 45 -3 63 -1 71 26 88 14 10 53 27 87 40 34 12 63 22 63 23 1 1 12
-5 25 -12z m1317 -26 c3 -8 -1 -12 -9 -9 -7 2 -15 10 -17 17 -3 8 1 12 9 9 7
-2 15 -10 17 -17z m-2375 -120 c9 -7 17 -22 17 -33 0 -21 -39 -100 -52 -106
-4 -2 -4 -10 -1 -18 5 -13 -1 -14 -33 -8 -22 3 -43 10 -48 14 -4 5 0 46 10 92
9 45 18 93 18 106 1 12 4 22 9 22 4 0 7 8 7 17 0 9 13 -3 28 -28 16 -24 36
-50 45 -58z m-283 -53 c18 -32 1 -50 -39 -43 -57 11 -56 9 -37 95 2 8 9 29 16
45 l12 30 19 -55 c10 -30 23 -63 29 -72z m825 88 c42 -8 15 -37 -110 -120
-100 -66 -106 -68 -134 -47 l-23 17 33 50 c19 27 47 64 64 83 29 32 31 33 90
27 33 -3 69 -8 80 -10z m-1310 -102 c8 -18 17 -49 19 -70 5 -48 10 -63 48
-138 l31 -59 -24 -18 c-27 -21 -65 -22 -197 -10 -76 7 -85 11 -115 42 -28 30
-77 102 -77 115 0 2 8 4 19 4 10 0 24 7 31 15 7 8 21 15 32 15 27 0 95 67 108
106 7 19 16 34 22 34 6 0 8 3 5 6 -3 4 -2 15 4 25 9 18 12 18 44 -8 19 -16 42
-42 50 -59z m2201 26 c15 -6 50 -12 77 -14 27 -2 52 -9 56 -15 4 -6 16 -9 27
-7 12 2 25 1 31 -2 13 -9 34 -72 28 -82 -3 -5 -1 -11 5 -15 5 -3 10 -14 10
-24 0 -10 14 -37 30 -59 17 -23 30 -50 30 -61 0 -20 -93 -107 -194 -181 l-59
-43 -111 8 c-160 11 -160 11 -176 17 -8 4 -40 9 -70 13 -30 3 -59 10 -65 14
-5 5 -44 16 -85 26 -41 10 -106 31 -144 47 -38 15 -75 28 -82 28 -25 0 -15 20
14 26 35 7 67 23 89 43 10 9 31 18 46 19 15 1 36 6 46 11 10 6 31 12 47 15 16
3 30 10 32 15 2 6 9 8 16 5 7 -3 23 5 36 16 13 12 44 30 69 41 25 11 52 26 60
34 31 29 113 86 137 95 13 5 24 14 24 19 0 8 15 15 42 20 4 0 19 -4 34 -9z
m484 -35 c0 -7 -7 -18 -15 -25 -8 -7 -15 -19 -15 -26 0 -8 -3 -14 -8 -14 -4 0
-13 -13 -20 -30 -8 -16 -20 -30 -27 -30 -17 0 -49 82 -41 107 10 33 126 49
126 18z m301 -38 c-22 -56 -102 -196 -143 -248 -23 -28 -34 -35 -54 -31 -13 2
-27 8 -29 13 -9 13 32 92 68 131 17 19 56 63 86 97 55 63 88 81 72 38z m-1541
-28 c0 -10 -4 -19 -9 -19 -5 0 -14 -13 -19 -29 -11 -31 -32 -40 -127 -57 l-40
-7 36 29 c20 16 47 36 60 44 12 8 36 27 53 42 33 28 46 28 46 -3z m-1938 -36
c10 -9 18 -24 18 -34 0 -9 6 -19 13 -22 6 -2 9 -8 5 -12 -4 -4 -20 8 -37 27
-42 46 -42 80 1 41z m3581 -95 c2 -7 0 -20 -4 -28 -4 -8 -10 -27 -14 -42 -4
-19 -12 -28 -25 -28 -24 0 -25 8 -4 31 8 9 17 30 19 45 2 16 4 30 4 32 3 8 20
0 24 -10z m852 -15 c-4 -10 -16 -40 -26 -67 -21 -55 -20 -54 -71 -93 -143
-110 -188 -143 -197 -143 -6 0 -11 -3 -11 -7 0 -12 -60 -44 -120 -64 -30 -10
-93 -32 -140 -49 -58 -21 -117 -34 -185 -40 -55 -5 -119 -12 -142 -15 l-42 -4
42 61 c23 33 50 66 59 72 10 6 18 18 18 28 0 22 5 25 75 33 96 10 284 58 365
93 95 40 182 86 187 97 2 8 17 18 31 24 41 16 85 44 110 69 27 27 58 30 47 5z
m-3395 -43 c0 -5 18 -13 40 -16 28 -5 46 -15 60 -34 19 -27 26 -50 15 -50 -12
0 -69 33 -88 51 -11 10 -29 21 -39 25 -19 6 -23 16 -11 27 10 10 23 8 23 -3z
m433 -67 c-7 -2 -19 -2 -25 0 -7 3 -2 5 12 5 14 0 19 -2 13 -5z m307 -74 c-13
-24 -22 -35 -91 -111 -38 -43 -59 -58 -78 -58 -15 0 -31 4 -36 8 -6 5 -30 15
-54 22 -27 9 -47 22 -54 37 -6 13 -8 24 -6 26 2 2 47 15 99 30 52 15 118 36
145 46 28 11 58 20 68 21 15 0 16 -3 7 -21z m255 -40 c47 -15 85 -33 85 -41 0
-4 21 -10 47 -14 26 -4 62 -13 80 -21 18 -7 36 -12 40 -11 5 1 22 -6 40 -15
18 -9 41 -17 52 -17 11 0 22 -4 25 -8 8 -13 -199 -60 -304 -69 -119 -10 -259
-10 -283 -1 -24 10 -11 38 63 125 5 7 10 16 10 20 0 5 13 23 30 41 31 34 39
35 115 11z m-816 -95 c32 -16 49 -39 37 -51 -3 -3 -11 -1 -18 5 -7 6 -17 11
-23 13 -27 6 -55 24 -55 36 0 17 20 17 59 -3z m2191 -32 c0 -11 -23 -31 -85
-74 -66 -45 -79 -49 -115 -37 -37 13 -38 22 -4 44 14 9 34 25 44 35 10 10 40
21 67 25 26 3 55 8 63 9 27 6 30 6 30 -2z m-495 -41 c-3 -6 -16 -11 -29 -11
-12 0 -31 -7 -42 -15 -10 -8 -29 -15 -41 -15 -12 0 -25 -4 -28 -10 -3 -5 -14
-10 -23 -10 -12 1 -9 7 13 23 46 35 67 43 113 46 29 1 42 -2 37 -8z"/>
</g>
</svg>
