<?xml version="1.0" encoding="UTF-8" standalone="no"?>
<svg
   xmlns:dc="http://purl.org/dc/elements/1.1/"
   xmlns:cc="http://creativecommons.org/ns#"
   xmlns:rdf="http://www.w3.org/1999/02/22-rdf-syntax-ns#"
   xmlns:svg="http://www.w3.org/2000/svg"
   xmlns="http://www.w3.org/2000/svg"
   xmlns:sodipodi="http://sodipodi.sourceforge.net/DTD/sodipodi-0.dtd"
   xmlns:inkscape="http://www.inkscape.org/namespaces/inkscape"
   version="1.0"
   width="1024.000000pt"
   height="325.000000pt"
   viewBox="0 0 1024.000000 325.000000"
   preserveAspectRatio="xMidYMid meet"
   id="svg2"
   inkscape:version="0.48.2 r9819"
   sodipodi:docname="seats.svg">
  <defs
     id="defs40" />
  <sodipodi:namedview
     pagecolor="#ffffff"
     bordercolor="#666666"
     borderopacity="1"
     objecttolerance="10"
     gridtolerance="10"
     guidetolerance="10"
     inkscape:pageopacity="0"
     inkscape:pageshadow="2"
     inkscape:window-width="640"
     inkscape:window-height="480"
     id="namedview38"
     showgrid="false"
     inkscape:zoom="0.2515625"
     inkscape:cx="388.92967"
     inkscape:cy="175.01641"
     inkscape:window-x="0"
     inkscape:window-y="0"
     inkscape:window-maximized="0"
     inkscape:current-layer="svg2" />
  <metadata
     id="metadata4">
Created by potrace 1.11, written by Peter Selinger 2001-2013
<rdf:RDF>
  <cc:Work
     rdf:about="">
    <dc:format>image/svg+xml</dc:format>
    <dc:type
       rdf:resource="http://purl.org/dc/dcmitype/StillImage" />
  </cc:Work>
</rdf:RDF>
</metadata>
  <g
     transform="matrix(0.10132136,0,0,-0.1,-13.106596,325)"
     id="g6"
     style="fill:#000000;stroke:none">
    <path
       d="m 5122,3133 c -67,-33 -106,-109 -157,-308 -19,-71 -44,-164 -56,-205 -11,-41 -32,-113 -45,-160 -14,-47 -29,-101 -35,-120 -6,-19 -14,-57 -19,-85 -10,-55 -22,-101 -68,-250 -35,-117 -66,-229 -82,-303 -8,-33 -19,-56 -31,-63 -14,-7 -18,-16 -13,-35 4,-14 2,-42 -5,-62 -6,-21 -25,-84 -42,-142 -18,-58 -35,-112 -39,-120 -13,-27 -48,-142 -76,-245 -14,-55 -29,-102 -33,-105 -3,-3 -6,-18 -7,-35 -1,-39 -52,-195 -70,-216 -20,-22 -17,-47 6,-54 40,-13 66,26 81,117 14,87 22,98 70,98 23,0 38,-4 34,-9 -3,-6 11,-13 32,-17 21,-3 72,-15 113,-25 41,-10 82,-19 90,-19 33,0 90,-22 84,-31 -3,-6 -13,-38 -20,-72 -8,-34 -15,-67 -17,-73 -1,-6 -10,-19 -20,-28 -9,-10 -17,-21 -17,-24 0,-16 32,-52 46,-52 24,0 56,40 50,63 -3,12 8,83 25,157 16,74 30,142 30,150 0,8 6,33 14,55 7,22 15,65 18,95 13,149 50,396 73,490 25,98 64,312 65,353 0,28 18,9 29,-33 6,-21 17,-92 26,-157 13,-104 26,-175 54,-303 51,-231 69,-327 64,-342 -3,-11 0,-25 6,-33 33,-40 74,8 60,70 -7,29 -5,35 9,35 45,0 318,-34 327,-42 6,-4 14,-25 17,-46 14,-89 29,-122 56,-122 20,0 36,26 21,35 -5,3 -11,20 -15,38 -4,17 -11,46 -15,62 -5,17 -23,82 -40,145 -16,63 -41,156 -54,205 -27,99 -109,419 -135,530 -10,39 -23,82 -29,97 -6,15 -19,56 -27,90 -9,35 -36,124 -60,198 -69,215 -97,304 -99,315 -2,6 -8,29 -15,52 -10,35 -9,49 4,79 8,20 12,48 9,63 -4,17 -3,22 4,13 6,-9 14,2 25,40 41,133 43,205 6,252 -42,53 -141,72 -207,39 z m 141,-50 c 25,-28 30,-86 14,-145 -8,-29 -14,-62 -15,-73 0,-12 -10,-61 -22,-110 -55,-231 -69,-293 -74,-338 -12,-97 -49,-116 -86,-45 -12,23 -24,49 -26,58 -5,25 -73,204 -83,222 -7,11 -6,30 3,60 8,24 26,84 41,133 15,50 31,94 36,100 5,5 9,15 9,23 0,43 108,132 160,132 15,0 34,-8 43,-17 z m 59,-218 c -2,-14 -9,-28 -15,-32 -7,-4 -8,0 -4,11 4,10 7,24 7,32 0,8 4,14 9,14 4,0 6,-11 3,-25 z m -17,-444 c 13,-41 22,-77 20,-79 -3,-3 -24,-8 -47,-12 -24,-4 -50,-9 -58,-11 -28,-8 -21,67 27,251 5,22 8,19 19,-25 8,-27 25,-83 39,-124 z m -345,84 c 7,-24 15,-43 19,-41 3,2 7,-8 7,-22 1,-15 6,-45 12,-67 6,-22 10,-41 8,-42 -2,-2 -19,-4 -39,-5 -54,-2 -66,14 -61,75 5,66 24,147 34,147 4,0 13,-20 20,-45 z m 20,7 c 0,-15 -2,-15 -10,-2 -13,20 -13,33 0,25 6,-3 10,-14 10,-23 z m 39,-127 c 0,-5 -4,-3 -9,5 -5,8 -9,22 -9,30 0,16 17,-16 18,-35 z m 0,-129 c 5,-3 12,-29 16,-56 4,-28 10,-50 13,-50 4,0 7,-14 6,-31 0,-18 7,-48 16,-67 14,-28 15,-43 7,-74 l -10,-40 -56,6 c -31,3 -94,8 -139,12 -53,5 -86,12 -89,20 -2,7 12,64 32,126 59,180 47,165 126,162 38,-1 72,-5 78,-8 z m 363,-69 c 14,-45 35,-116 47,-157 12,-41 26,-88 31,-105 23,-74 74,-272 105,-400 18,-77 45,-183 59,-235 37,-133 49,-190 42,-197 -6,-6 -114,7 -241,28 -109,19 -104,16 -110,57 -3,20 -15,79 -26,130 -11,51 -27,137 -35,190 -26,181 -36,232 -45,226 -5,-3 -6,2 -3,10 6,15 -14,112 -47,233 -20,70 -20,76 -4,155 9,46 21,97 27,114 l 11,31 82,1 83,1 24,-82 z m -253,51 c -2,-24 -17,-63 -18,-48 -1,8 -4,25 -7,38 -5,16 -2,22 10,22 9,0 16,-6 15,-12 z m -145,-374 68,-6 -6,-41 c -3,-23 -11,-78 -16,-122 -6,-44 -12,-85 -14,-91 -4,-12 -146,0 -181,15 -11,5 -48,15 -83,22 -49,9 -62,15 -58,28 2,9 7,32 11,51 3,19 15,64 27,100 l 20,65 82,-7 c 44,-4 112,-11 150,-14 z m -134,-336 c 74,-12 136,-22 138,-23 1,-1 -2,-14 -8,-29 -5,-15 -15,-71 -21,-124 -6,-53 -12,-102 -14,-108 -3,-11 -140,9 -287,43 l -76,17 12,26 c 7,14 16,39 20,55 4,17 16,60 27,98 24,80 11,77 209,45 z m -178,-355 c 7,-4 40,-11 73,-15 105,-12 185,-30 185,-42 0,-20 -20,-140 -31,-188 l -11,-47 -46,5 c -118,14 -362,67 -362,78 0,19 64,222 71,227 12,7 103,-6 121,-18 z"
       id="path8"
       inkscape:connector-curvature="0" />
    <path
       d="m 978,2324 c -56,-14 -117,-53 -149,-95 -112,-149 -204,-464 -162,-555 30,-66 90,-108 194,-134 81,-21 84,-23 75,-46 -6,-15 -17,-16 -89,-11 -45,4 -156,10 -247,13 -138,6 -175,4 -223,-10 -66,-19 -99,-55 -79,-86 7,-12 8,-29 2,-50 -11,-39 -4,-59 24,-64 11,-2 55,-11 96,-20 41,-9 139,-20 219,-23 l 144,-6 -7,-81 c -4,-45 -9,-103 -11,-129 -6,-67 -24,-127 -37,-127 -7,0 -40,7 -74,16 -86,21 -119,17 -118,-16 1,-14 4,-32 8,-41 8,-18 -33,-32 -131,-45 -43,-5 -53,-10 -53,-26 0,-10 -7,-30 -16,-44 -22,-33 -8,-83 29,-104 24,-13 29,-13 54,2 18,10 33,32 43,62 15,45 15,45 70,52 30,4 96,8 145,8 l 90,1 3,-35 c 8,-118 31,-170 76,-170 24,0 56,37 56,64 0,13 -9,35 -20,49 -14,17 -20,40 -20,72 l 0,48 83,-7 c 246,-19 271,-25 260,-66 -6,-22 33,-60 63,-60 38,0 70,36 65,76 -3,27 -83,75 -141,86 -69,12 -90,27 -90,67 0,26 -34,70 -49,62 -36,-20 -110,-41 -146,-41 l -45,0 -2,98 c -2,141 2,225 13,238 5,7 24,14 41,16 26,4 43,-3 89,-36 31,-22 65,-56 75,-76 15,-28 26,-36 52,-38 41,-4 72,21 72,58 0,34 -17,50 -54,50 -29,0 -106,44 -106,61 0,5 17,13 38,18 39,11 56,22 85,57 17,20 17,25 3,58 -12,30 -22,37 -60,47 -33,8 -46,17 -50,34 -10,38 2,52 72,85 98,46 99,47 107,158 4,53 14,121 22,152 34,131 25,321 -18,379 -39,53 -174,80 -271,55 z m 57,-1464 c -3,-5 -11,-10 -16,-10 -6,0 -7,5 -4,10 3,6 11,10 16,10 6,0 7,-4 4,-10 z"
       id="path10"
       inkscape:connector-curvature="0" />
    <path
       d="m 7964,2216 c -47,-21 -109,-114 -124,-185 -15,-70 -17,-71 -160,-91 -129,-18 -137,-23 -145,-81 -4,-27 -11,-51 -16,-55 -5,-3 -9,-12 -9,-21 0,-9 -8,-25 -17,-35 -14,-16 -15,-21 -4,-28 11,-6 12,-22 8,-63 -9,-72 -71,-325 -101,-407 -29,-79 -44,-127 -50,-160 -2,-14 -9,-45 -15,-70 -5,-25 -12,-56 -14,-70 -13,-71 -18,-98 -22,-134 -2,-21 -14,-56 -25,-78 -11,-21 -20,-50 -20,-63 0,-22 4,-25 35,-25 19,0 45,5 59,11 24,12 25,12 9,51 -18,44 -19,37 52,343 19,83 39,170 44,195 6,25 31,117 56,204 25,87 45,162 45,167 0,6 7,25 14,44 11,25 19,33 30,29 9,-3 16,-12 16,-18 0,-23 47,-57 86,-63 21,-3 44,-10 50,-14 7,-6 13,-117 18,-326 4,-174 9,-319 11,-322 3,-2 17,1 31,8 l 27,12 -6,207 c -4,114 -8,230 -11,257 -3,28 -8,79 -12,115 l -6,65 28,-25 c 16,-14 33,-30 39,-36 5,-7 27,-17 49,-24 52,-17 115,-75 138,-130 11,-24 23,-47 28,-50 21,-13 42,-211 44,-425 2,-135 8,-247 16,-289 13,-62 12,-69 -3,-78 -11,-5 -17,-21 -17,-42 0,-29 4,-34 29,-39 16,-3 45,-4 64,0 31,5 36,10 42,40 4,24 1,42 -9,58 -10,16 -17,64 -22,155 -5,96 -11,133 -21,137 -7,3 -12,19 -12,37 l 1,31 8,-30 c 7,-27 8,-26 8,15 1,68 -25,391 -27,345 -2,-32 -4,-36 -11,-20 -13,31 -12,98 1,89 13,-8 9,81 -11,235 -6,46 -9,90 -6,96 6,16 60,45 104,55 27,7 34,5 43,-11 19,-37 70,-204 85,-284 9,-44 26,-114 39,-155 14,-41 29,-93 34,-115 5,-22 26,-94 46,-160 32,-104 39,-137 44,-214 1,-9 9,-11 29,-7 80,20 101,47 64,83 -10,10 -29,56 -41,103 -12,47 -40,132 -61,190 -21,58 -50,143 -63,190 -13,47 -47,146 -74,220 -27,74 -55,155 -63,180 -24,84 -69,196 -98,245 -10,17 -26,50 -36,75 -50,129 -154,196 -242,156 z m 166,-295 c 0,-11 -316,-9 -326,2 -4,4 68,7 159,7 95,0 167,-4 167,-9 z m -319,-158 c 0,-10 3,-30 5,-44 4,-25 1,-27 -46,-33 -63,-8 -80,1 -96,53 l -12,41 74,0 c 63,0 74,-2 75,-17 z m 229,-3 c 0,-16 -66,-60 -89,-60 -24,0 -27,4 -29,35 l -3,34 61,-2 c 33,-1 60,-4 60,-7 z m 28,-295 -3,-60 -14,40 c -15,46 -64,96 -122,125 -21,11 -39,25 -39,30 0,6 32,10 74,10 49,0 78,4 83,13 11,17 24,-84 21,-158 z m -271,-82 c -3,-10 -5,-2 -5,17 0,19 2,27 5,18 2,-10 2,-26 0,-35 z m 380,-185 c -3,-8 -6,-5 -6,6 -1,11 2,17 5,13 3,-3 4,-12 1,-19 z m 369,-114 c 9,-30 13,-58 11,-61 -3,-3 -11,15 -17,38 -6,24 -13,52 -16,62 -3,9 -3,17 0,17 3,0 13,-25 22,-56 z m -359,14 c -3,-8 -6,-5 -6,6 -1,11 2,17 5,13 3,-3 4,-12 1,-19 z m 410,-180 c -3,-8 -6,-5 -6,6 -1,11 2,17 5,13 3,-3 4,-12 1,-19 z M 7347,828 c -3,-8 -6,-5 -6,6 -1,11 2,17 5,13 3,-3 4,-12 1,-19 z m 867,-167 c -12,-12 -18,45 -14,124 2,26 5,13 10,-40 5,-44 6,-82 4,-84 z m 3,-43 c 2,-27 0,-29 -7,-13 -11,26 -12,45 -2,45 4,0 8,-15 9,-32 z"
       id="path12"
       inkscape:connector-curvature="0" />
    <path
       d="m 2173,2198 c -6,-7 -16,-38 -23,-68 -28.0666,-153.4529 -57.9204,-121.5055 -146,-207 -71,-70 -83,-88 -118,-171 -91,-221 -143,-431 -131,-531 l 6,-57 -74,0 c -140,-2 -187,-55 -195,-215 -4,-81 -2,-87 23,-118 15,-17 44,-40 64,-51 36,-18 131,-46 181,-52 14,-2 30,-6 35,-10 18,-11 235,-49 324,-57 65,-6 95,-4 121,6 88,35 139,63 166,93 32,34 119,100 133,100 12,0 34,37 55,94 13,34 18,73 17,134 -1,82 34,499 45,535 3,9 5,57 5,106 0,68 -4,99 -20,134 -19,43 -71,97 -92,97 -6,0 -7,5 -3,12 22,35 -5,202 -35,217 -9,5 -86,11 -172,15 -123,6 -158,4 -166,-6 z m -93,-667 c 0,-2 -8,-13 -17,-23 -15,-17 -15,-20 -3,-28 9,-6 10,-10 3,-10 -6,0 -14,-24 -18,-52 -8,-57 -29,-108 -45,-108 -6,0 -10,8 -10,18 0,15 -2,15 -10,2 -8,-11 -9,-2 -5,30 8,67 31,135 45,132 8,-2 10,3 6,13 -3,9 -2,13 4,10 6,-3 10,1 10,9 0,9 8,14 20,13 11,-1 20,-3 20,-6 z m 41,-24 c -10,-9 -11,-8 -5,6 3,10 9,15 12,12 3,-3 0,-11 -7,-18 z m 36,-29 c -3,-7 -5,-2 -5,12 0,14 2,19 5,13 2,-7 2,-19 0,-25 z m 88,-1 c 17,6 17,2 1,-87 -4,-19 -8,-42 -10,-50 -2,-8 -7,-28 -11,-44 -8,-29 -8,-29 -17,-7 -7,19 -11,21 -23,11 -15,-12 -16,-11 -18,23 -2,30 14,109 30,146 15,35 19,38 25,21 5,-13 13,-18 23,-13 z m -115,-12 c 15,9 22,-14 10,-32 -9,-14 -10,-14 -7,-2 3,9 -1,16 -9,16 -8,0 -13,-6 -10,-13 3,-8 1,-16 -4,-19 -12,-7 -12,1 -3,46 4,21 9,27 11,16 2,-9 7,-15 12,-12 z m 181,-37 c -3,-21 -6,-26 -9,-15 -3,17 3,47 11,47 2,0 1,-15 -2,-32 z m -494,-60 c -3,-8 -6,-5 -6,6 -1,11 2,17 5,13 3,-3 4,-12 1,-19 z m 488,-22 c 3,-23 -1,-36 -10,-40 -11,-4 -14,2 -11,27 2,18 4,38 5,46 2,25 13,3 16,-33 z m -604,-247 c 11,-11 27,-18 35,-15 25,10 15,-2 -22,-23 -19,-12 -45,-21 -57,-21 -18,0 -19,-2 -7,-10 20,-13 10,-12 -29,1 -24,9 -29,14 -19,20 10,6 10,9 1,9 -23,0 -13,29 15,44 37,21 58,20 83,-5 z m 137,-45 c 12,-4 22,-11 22,-16 0,-6 -8,-7 -17,-3 -28,10 -31,11 -32,1 -1,-6 11,-12 26,-14 16,-2 48,-10 72,-18 42,-14 81,-11 81,6 0,4 11,7 24,6 13,0 22,-5 19,-9 -2,-4 8,-5 23,-1 19,5 25,4 20,-5 -5,-7 1,-11 14,-11 14,0 19,4 14,13 -4,6 -4,9 1,5 4,-4 16,-3 26,3 28,15 23,2 -13,-33 -42,-41 -89,-45 -213,-19 -54,12 -108,21 -120,21 -11,0 -38,5 -60,11 l -39,11 39,24 c 42,25 60,30 50,14 -3,-5 -1,-10 4,-10 6,0 11,7 11,15 0,16 12,18 48,9 z m 467,-52 30,-9 -25,-13 c -14,-7 -38,-24 -53,-36 -29,-24 -81,-31 -120,-16 -16,7 -14,10 12,30 22,16 39,20 63,17 33,-5 33,-5 5,6 -15,6 -25,14 -23,17 6,11 78,13 111,4 z m -620,-52 c 14,-5 88,-19 163,-31 75,-11 142,-25 147,-30 7,-7 5,-8 -5,-5 -8,3 -40,7 -70,10 -30,3 -69,9 -87,12 -34,7 -32,14 -46,-111 -2,-16 -5,4 -6,45 l -1,75 -77,22 c -43,11 -70,21 -61,22 9,1 28,-3 43,-9 z"
       id="path14"
       inkscape:connector-curvature="0"
       sodipodi:nodetypes="cccccccccccccccscccscsccccscsscssccccsscsccsccsccccscccccccsccsccccsccsccccccccccsccsccsscscscccssccccscccccsccccsscccccccccccccscscccccsc" />
    <path
       d="m 1888,983 c 6,-2 18,-2 25,0 6,3 1,5 -13,5 -14,0 -19,-2 -12,-5 z"
       id="path16"
       inkscape:connector-curvature="0" />
    <path
       d="m 1938,973 c 7,-3 16,-2 19,1 4,3 -2,6 -13,5 -11,0 -14,-3 -6,-6 z"
       id="path18"
       inkscape:connector-curvature="0" />
    <path
       d="m 1980,970 c 0,-5 5,-10 10,-10 6,0 10,5 10,10 0,6 -4,10 -10,10 -5,0 -10,-4 -10,-10 z"
       id="path20"
       inkscape:connector-curvature="0" />
    <path
       d="m 6978,2184 c -62,-33 -87,-110 -48,-152 l 20,-22 -29,6 c -27,6 -91,-20 -91,-36 0,-3 -19,-25 -41,-50 -22,-25 -48,-58 -56,-75 -9,-16 -30,-49 -47,-73 -30,-41 -32,-43 -76,-38 -49,5 -152,-15 -176,-34 -19,-16 -18,-26 6,-50 17,-17 30,-19 79,-15 l 60,4 -14,-32 c -12,-28 -20,-33 -72,-44 -32,-7 -80,-14 -108,-16 -58,-5 -174,-58 -238,-110 -23,-19 -53,-40 -67,-47 -41,-21 -162,-102 -204,-137 -51,-43 -96,-111 -96,-146 0,-39 81,-119 157,-155 51,-23 69,-27 149,-26 80,1 97,5 140,29 27,16 58,36 69,45 11,10 43,30 70,45 28,15 81,46 118,68 69,41 86,43 68,10 -5,-10 -12,-25 -15,-33 -20,-51 -85,-135 -111,-143 -17,-6 -50,-24 -75,-41 -25,-17 -48,-31 -53,-31 -14,0 -107,-96 -123,-127 -9,-18 -14,-42 -10,-59 6,-32 88,-143 113,-154 37,-16 212,-32 319,-30 145,4 211,25 311,99 35,26 44,39 53,82 31,144 0,238 -97,293 -15,8 -16,13 -6,28 38,56 110,179 151,258 29,54 34,123 13,149 -7,9 -28,21 -47,28 -43,15 -43,24 -1,33 17,4 39,13 47,20 8,8 44,27 80,43 36,16 71,36 78,45 15,18 8,37 -12,37 -40,0 -48,76 -25,232 6,43 8,86 4,95 -5,10 -8,21 -7,24 1,3 -10,12 -23,19 l -23,13 20,43 21,43 -27,41 c -25,38 -61,61 -89,59 -7,-1 -24,-8 -39,-15 z m 84,-51 c 20,-18 23,-45 7,-75 -9,-17 -17,-19 -56,-13 -62,9 -73,14 -73,35 0,22 57,70 84,70 11,0 28,-7 38,-17 z m -92,-173 c 3,-4 22,-10 43,-14 21,-4 37,-10 35,-14 -20,-45 -59,-110 -70,-119 -7,-6 -34,-8 -63,-4 l -50,6 -3,65 c -3,57 0,67 19,83 16,13 31,16 53,11 17,-4 33,-10 36,-14 z m 134,-85 c -3,-14 -7,-44 -9,-68 -3,-54 -3,-53 -17,-39 -7,7 -20,12 -30,12 -10,0 -18,4 -18,9 0,23 32,81 52,95 29,21 30,20 22,-9 z m -299,-42 c -7,-30 -140,-169 -148,-156 -3,5 10,29 30,53 19,25 54,70 76,100 40,53 55,54 42,3 z m 181,-112 c 8,-25 8,-46 -1,-80 -10,-41 -16,-48 -56,-63 -55,-21 -100,-21 -164,0 -50,17 -50,17 -46,56 4,48 24,77 71,105 28,17 49,21 110,18 l 75,-2 11,-34 z m 99,7 c -7,-43 -32,-101 -49,-110 -16,-9 -17,-5 -11,39 11,81 13,84 57,92 3,0 5,-9 3,-21 z m -360,-176 c 28,-10 59,-22 69,-26 12,-4 16,-10 10,-16 -6,-6 -30,-4 -64,4 -99,25 -112,27 -106,18 3,-5 25,-13 48,-17 24,-5 45,-9 48,-10 3,0 20,-5 39,-9 51,-12 24,-29 -104,-67 -143,-41 -227,-58 -295,-58 -101,-1 -128,20 -90,71 11,15 20,32 20,37 0,21 116,43 228,42 37,0 74,4 82,9 8,5 11,10 6,10 -5,0 1,11 14,25 15,16 27,22 34,16 6,-5 34,-18 61,-29 z m 192,-78 c -7,-7 -37,7 -37,17 0,6 9,5 21,-1 11,-7 19,-14 16,-16 z m -689,-57 c -11,-35 -10,-39 16,-66 28,-29 30,-30 114,-25 81,5 134,15 262,50 75,21 224,53 228,49 3,-3 -137,-49 -243,-80 -88,-25 -247,-90 -330,-135 -81,-43 -161,-96 -170,-111 -4,-5 -15,-9 -25,-9 -10,0 -26,-7 -34,-15 -13,-14 -19,-14 -43,-2 -15,8 -46,20 -68,27 -22,7 -52,21 -67,30 l -28,17 34,43 c 19,24 58,61 88,82 87,62 158,108 167,108 5,0 31,18 57,39 27,22 50,38 51,37 1,-1 -3,-19 -9,-39 z m 662,-183 c 0,-13 -25,-51 -55,-85 -18,-20 -49,-61 -68,-90 -19,-30 -47,-67 -62,-84 -15,-16 -34,-42 -43,-57 -9,-16 -20,-28 -23,-28 -15,0 9,58 44,107 19,27 43,65 52,83 10,19 33,50 51,70 18,19 44,47 58,63 23,25 46,36 46,21 z m 22,-78 c -28,-58 -70,-113 -164,-213 -47,-50 -55,-39 -11,15 22,26 50,63 63,82 13,19 36,49 53,67 30,32 48,59 67,102 6,13 13,21 17,18 3,-4 -8,-36 -25,-71 z m -251,11 c -6,-6 -11,-20 -11,-30 0,-11 -11,-41 -25,-69 -14,-27 -25,-56 -25,-64 0,-8 -4,-14 -10,-14 -5,0 -10,-6 -10,-12 0,-7 -12,-26 -25,-41 -21,-23 -28,-26 -45,-17 -11,6 -20,16 -20,22 0,16 57,106 106,166 24,30 44,60 44,67 0,16 23,26 29,13 2,-6 -2,-15 -8,-21 z m 179,-227 c 0,-5 -4,-10 -9,-10 -5,0 -18,-3 -28,-7 -16,-6 -16,-5 -4,10 15,19 41,23 41,7 z m 59,-49 c 32,-44 28,-61 -15,-61 -66,0 -188,-39 -297,-95 -99,-51 -113,-55 -180,-57 l -72,-1 55,-7 55,-7 -55,-1 c -63,-2 -140,16 -121,28 9,5 5,9 -13,14 -44,11 -33,45 37,113 86,84 111,96 171,78 25,-8 54,-18 64,-24 16,-9 16,-10 -1,-16 -9,-4 -27,-5 -39,-1 -15,3 -30,-2 -45,-16 -25,-23 -44,-18 -23,7 13,16 7,45 -9,45 -13,0 -55,-39 -68,-64 -17,-31 -4,-53 44,-71 42,-16 46,-16 55,-1 5,9 14,14 19,10 5,-3 34,17 64,44 52,47 57,50 97,45 53,-7 55,-9 35,-31 -27,-30 -6,-35 24,-6 25,24 29,25 43,11 15,-14 19,-13 48,14 18,16 38,29 45,29 7,0 20,11 30,25 23,31 27,31 52,-4 z m 13,-136 c 3,-3 1,-24 -5,-46 -7,-28 -22,-50 -52,-74 -23,-19 -47,-35 -52,-35 -5,0 -24,-7 -42,-16 -49,-24 -154,-34 -266,-24 -141,12 -187,20 -212,36 -35,22 -29,38 10,29 44,-10 192,-7 220,5 12,6 45,24 72,42 95,59 174,86 251,87 39,1 73,-1 76,-4 z m -427,-85 c -3,-5 -12,-10 -18,-10 -7,0 -6,4 3,10 19,12 23,12 15,0 z"
       id="path22"
       inkscape:connector-curvature="0" />
    <path
       d="m 6546,794 c -21,-25 -35,-48 -31,-52 7,-7 85,74 85,89 0,18 -16,7 -54,-37 z"
       id="path24"
       inkscape:connector-curvature="0" />
    <path
       d="m 6308,683 c 7,-3 16,-2 19,1 4,3 -2,6 -13,5 -11,0 -14,-3 -6,-6 z"
       id="path26"
       inkscape:connector-curvature="0" />
    <path
       d="m 6601,641 c -35,-35 -24,-62 27,-69 27,-3 75,41 70,66 -5,27 -71,29 -97,3 z"
       id="path28"
       inkscape:connector-curvature="0" />
    <path
       d="m 8732,2125 c -14,-17 -19,-41 -20,-84 0,-33 -7,-69 -14,-80 -12,-20 -81,-41 -135,-41 -47,0 -91,-22 -96,-47 -3,-18 8,-36 50,-79 40,-41 54,-61 50,-76 -7,-25 25,-58 50,-52 14,4 37,-14 86,-69 37,-41 82,-90 100,-109 39,-41 80,-88 132,-153 22,-28 70,-85 107,-128 37,-42 68,-83 68,-90 0,-29 47,-59 91,-59 57,1 61,-3 44,-43 -7,-19 -12,-45 -9,-57 3,-13 7,-79 10,-147 5,-149 12,-165 62,-157 20,4 75,10 122,15 79,9 341,54 384,67 16,5 17,12 12,48 -73.4377,217.1556 -87.8795,241.7968 -17.9681,337.9737 98.311,105.8383 42.7142,231.1385 46.9681,266.0263 3,30 26,133 50,227 46,175 46,216 5,260 -33,35 -55,36 -92,4 -39,-33 -51,-34 -138,-14 -36,8 -132,31 -215,50 -82,19 -158,35 -167,35 -9,0 -70,16 -135,35 -65,20 -158,47 -208,61 -118,34 -146,45 -140,54 8,12 -26,50 -45,50 -10,0 -27,-11 -38,-25 z m 393,-213 c 55,-17 141,-43 190,-57 192,-58 342,-107 382,-126 35,-17 42,-25 38,-42 -3,-12 -14,-67 -25,-122 -17,-81 -35,-147 -45,-162 -5,-9 -181,-32 -199,-27 -11,4 -46,23 -76,43 -30,20 -64,42 -75,48 -11,7 -43,26 -72,43 -28,17 -73,49 -100,70 -26,22 -78,56 -115,76 -38,19 -88,52 -113,72 -24,20 -65,53 -91,72 -80,60 -110,90 -98,98 11,7 30,78 25,96 -8,33 12,32 141,-10 73,-23 178,-56 233,-72 z m -228,112 c -3,-3 -12,-4 -19,-1 -8,3 -5,6 6,6 11,1 17,-2 13,-5 z m 53,-14 c 18,-12 2,-12 -25,0 -13,6 -15,9 -5,9 8,0 22,-4 30,-9 z m 47,-16 c -3,-3 -12,-4 -19,-1 -8,3 -5,6 6,6 11,1 17,-2 13,-5 z m 63,-14 c 11,-8 7,-9 -15,-4 -37,8 -45,14 -19,14 10,0 26,-5 34,-10 z m 115,-36 c 33,-9 110,-27 170,-40 196,-42 415,-102 415,-114 0,-19 -133,9 -330,70 -69,21 -170,50 -225,65 -55,15 -107,31 -115,36 -12,8 -10,9 5,5 11,-3 47,-13 80,-22 z m -482,-106 c 34,-23 64,-44 67,-48 3,-3 28,-21 55,-40 28,-18 67,-48 87,-66 21,-19 68,-49 105,-68 38,-19 98,-58 135,-88 38,-29 102,-72 143,-93 42,-22 87,-49 102,-61 l 25,-20 -81,-13 c -90,-15 -88,-13 -82,-108 2,-30 0,-33 -25,-33 -14,0 -45,-5 -67,-12 -33,-10 -41,-10 -51,3 -24,33 -84,105 -134,163 -29,34 -58,68 -65,76 -20,24 -159,184 -176,202 -9,9 -33,36 -53,60 -20,24 -59,69 -87,101 -28,31 -51,61 -51,66 0,6 15,12 33,14 17,2 38,5 45,5 7,1 41,-17 75,-40 z m 647,-591 c 0,-2 -9,-12 -20,-22 -17,-16 -20,-16 -20,-2 0,8 8,18 18,20 9,3 18,5 20,6 1,0 2,-1 2,-2 z m 310,-527 c 0,-5 -8,-10 -17,-10 -15,0 -16,2 -3,10 19,12 20,12 20,0 z m -50,-10 c -8,-5 -22,-9 -30,-9 -10,0 -8,3 5,9 27,12 43,12 25,0 z"
       id="path30"
       inkscape:connector-curvature="0"
       sodipodi:nodetypes="cccsccccccccscccccccccccccccsccssccccccccsccccccccccccccccscccccccscscscsccssccccccscccscccccscsccsscsccssscscscc" />
    <path
       d="m 3613,2058 c -6,-7 -20,-35 -31,-61 -12,-26 -32,-62 -44,-80 -29,-40 -88,-138 -88,-145 0,-3 -18,-34 -41,-68 -37,-57 -44,-63 -68,-58 -37,8 -57,-16 -39,-46 11,-18 10,-27 -14,-69 -34,-62 -84,-138 -153,-231 -31,-41 -58,-82 -61,-92 -8,-24 -30,-26 -109,-12 -38,8 -94,16 -122,20 -52,7 -53,6 -53,-19 0,-23 7,-28 48,-41 27,-7 74,-19 105,-26 31,-6 57,-16 57,-21 0,-7 -104,-163 -234,-353 -13,-19 0,-46 23,-46 11,0 26,9 33,19 14,19 15,19 88,0 41,-11 79,-24 85,-28 13,-11 178,-70 233,-85 31,-8 44,-17 48,-33 3,-12 14,-29 24,-38 16,-15 22,-8 102,112 47,70 109,169 138,219 l 53,91 46,-4 c 81,-8 298,-51 351,-71 8,-3 24,-7 34,-9 11,-2 24,-7 30,-12 14,-11 124,-11 154,0 18,7 23,15 20,36 -3,24 -9,29 -48,36 -44,8 -45,9 -71,75 -15,37 -57,160 -95,274 l -67,208 29,57 c 16,32 77,139 137,237 59,99 106,185 103,192 -3,9 -42,13 -137,13 -72,1 -136,4 -142,8 -10,6 -116,29 -202,44 -27,4 -64,11 -81,14 -20,5 -34,2 -41,-7 z m 97,-50 c -1,-65 -152,-416 -237,-551 -13,-21 -23,-41 -20,-43 14,-14 168,287 221,432 32,87 54,124 32,54 -43,-141 -171,-405 -243,-502 -37,-51 -55,-66 -27,-23 9,14 14,28 11,31 -3,3 -17,-15 -32,-40 -15,-25 -30,-46 -34,-46 -3,0 -12,-10 -20,-22 -13,-22 -13,-23 6,-5 11,9 23,17 27,17 13,0 -4,-18 -37,-42 -26,-18 -29,-19 -17,-3 14,17 13,18 -3,12 -10,-4 2,18 30,53 26,32 78,112 114,177 112,199 164,321 190,451 8,37 18,62 26,62 7,0 13,-6 13,-12 z m 120,-18 c 0,-5 -7,-7 -15,-4 -8,4 -15,8 -15,10 0,2 7,4 15,4 8,0 15,-4 15,-10 z m -46,-112 c -9,-35 -17,-71 -17,-80 -1,-10 -5,-18 -9,-18 -4,0 -7,-3 -6,-7 2,-10 -15,-48 -70,-158 -55,-110 -79,-150 -147,-240 -90,-121 -273,-282 -290,-255 -3,5 2,13 10,17 38,22 144,111 174,148 93,113 237,361 290,500 13,33 27,69 31,80 5,11 14,38 21,60 27,92 40,50 13,-47 z m 123,55 c -12,-97 -101,-328 -131,-339 -8,-3 -12,-12 -9,-20 3,-8 -3,-25 -14,-37 -11,-12 -32,-43 -47,-69 -15,-25 -34,-52 -43,-60 -9,-7 -3,7 13,32 17,25 45,81 63,125 18,44 40,94 49,111 54,96 83,165 98,230 10,41 20,74 22,74 3,0 2,-21 -1,-47 z m -85,-5 c -8,-8 -9,-4 -5,13 4,13 8,18 11,10 2,-7 -1,-18 -6,-23 z m 232,7 c -4,-8 -8,-15 -10,-15 -2,0 -4,7 -4,15 0,8 4,15 10,15 5,0 7,-7 4,-15 z m -104,-81 c -38,-151 -107,-297 -221,-466 -56,-84 -190,-229 -243,-265 -22,-15 -47,-34 -53,-42 -7,-8 -16,-12 -19,-8 -4,3 18,27 47,53 111,98 199,197 274,310 43,64 83,130 89,148 6,18 18,43 27,56 13,20 80,204 105,289 3,8 7,12 9,9 3,-3 -4,-40 -15,-84 z m -337,39 c -3,-21 -11,-49 -18,-63 -7,-14 -27,-59 -45,-100 -17,-41 -52,-110 -78,-153 l -46,-78 -18,35 c -18,35 -18,36 4,80 49,96 187,316 200,316 4,0 4,-17 1,-37 z m 403,15 c -18,-88 -29,-128 -33,-124 -4,4 11,94 23,134 6,21 15,13 10,-10 z m -148,-25 c -5,-21 -14,-42 -19,-48 -5,-5 -5,6 2,25 6,19 12,41 15,48 2,6 5,12 8,12 2,0 0,-17 -6,-37 z m -37,-100 c -12,-20 -14,-14 -5,12 4,9 9,14 11,11 3,-2 0,-13 -6,-23 z m 131,-75 c -7,-7 -12,-8 -12,-2 0,14 12,26 19,19 2,-3 -1,-11 -7,-17 z m -254,-185 c -20,-46 -82,-136 -86,-125 -3,9 87,152 95,152 1,0 -3,-12 -9,-27 z m -336,-106 c -25,-52 -105,-139 -154,-167 -64,-36 -87,-40 -67,-10 8,11 47,68 88,127 41,60 83,118 95,131 l 21,23 13,-41 c 11,-31 11,-48 4,-63 z m 460,33 c -12,-16 -22,-31 -22,-34 0,-23 -117,-191 -160,-232 -96,-89 -130,-117 -138,-109 -4,3 4,16 18,26 74,58 119,101 117,111 -1,7 5,12 13,13 16,0 41,34 127,172 31,51 59,90 62,87 2,-2 -5,-18 -17,-34 z m 164,-259 c 30,-90 52,-166 50,-168 -2,-3 -13,0 -23,6 -11,5 -74,19 -140,30 -114,19 -193,42 -193,57 0,13 63,109 76,117 8,5 11,13 8,19 -4,7 -2,8 4,4 10,-6 34,25 38,49 0,6 2,16 2,23 1,6 8,12 15,12 8,0 27,23 42,52 l 28,52 19,-44 c 11,-25 44,-119 74,-209 z m -399,161 c -25,-27 -21,-38 5,-16 l 22,19 -21,-30 c -12,-16 -36,-43 -55,-60 -18,-16 -27,-23 -20,-15 25,29 11,33 -20,4 l -33,-29 30,35 c 17,19 31,36 32,38 1,3 10,5 43,11 3,1 -1,5 -9,10 -11,7 -9,13 8,30 26,26 41,28 18,3 z m -359,-158 c -44,-38 -95,-64 -123,-64 -30,0 -14,16 33,32 27,10 64,28 83,42 52,37 56,31 7,-10 z m 408,-55 c -15,-17 -33,-44 -41,-59 -11,-21 -20,-27 -36,-23 -19,5 -15,12 37,64 61,61 86,73 40,18 z m -387,-103 c 9,-8 46,-16 86,-18 39,-3 94,-11 123,-19 43,-11 52,-17 48,-32 -8,-31 -89,-167 -123,-207 -18,-21 -36,-52 -39,-68 -4,-20 -11,-29 -20,-25 -7,3 -33,6 -56,7 -53,4 -166,34 -193,52 -11,8 -26,14 -33,14 -22,0 -171,74 -171,85 0,6 29,51 64,100 35,50 77,108 92,131 l 28,40 89,-23 c 50,-13 97,-30 105,-37 z"
       id="path34"
       inkscape:connector-curvature="0" />
    <path
       d="m 3796,1665 c -9,-26 -7,-32 5,-12 6,10 9,21 6,23 -2,3 -7,-2 -11,-11 z"
       id="path36"
       inkscape:connector-curvature="0" />
  </g>
</svg>
