<?xml version="1.0" standalone="no"?>
<!DOCTYPE svg PUBLIC "-//W3C//DTD SVG 20010904//EN"
 "http://www.w3.org/TR/2001/REC-SVG-20010904/DTD/svg10.dtd">
<svg version="1.0" xmlns="http://www.w3.org/2000/svg"
 width="1600.000000pt" height="1200.000000pt" viewBox="0 0 1600.000000 1200.000000"
 preserveAspectRatio="xMidYMid meet">
<metadata>
Created by potrace 1.11, written by Peter Selinger 2001-2013
</metadata>
<g transform="translate(0.000000,1200.000000) scale(0.100000,-0.100000)"
fill="#000000" stroke="none">
<path d="M865 8260 c3 -5 3 -10 -2 -10 -4 0 -8 -11 -8 -24 0 -19 3 -22 13 -14
10 9 10 5 1 -18 -8 -19 -13 -112 -14 -266 -2 -130 -6 -242 -10 -248 -4 -6 -1
-17 5 -25 10 -12 10 -18 0 -30 -7 -9 -8 -15 -2 -15 10 0 10 -339 0 -356 -3 -5
-4 -55 -3 -111 1 -72 -1 -100 -9 -96 -6 3 -6 0 1 -7 9 -9 9 -18 1 -33 -7 -13
-7 -22 0 -26 13 -8 11 -81 -1 -81 -5 0 -5 -6 1 -13 7 -8 7 -18 2 -27 -5 -8 -5
-22 1 -32 6 -10 7 -24 3 -30 -9 -15 -9 -151 0 -166 4 -7 3 -12 -3 -12 -6 0 -9
-17 -7 -39 2 -22 0 -45 -4 -51 -4 -7 -4 -28 1 -48 5 -22 4 -43 -3 -56 -7 -12
-7 -21 -1 -23 11 -4 4 -73 -8 -73 -5 0 -6 -6 -3 -13 7 -19 10 -167 3 -167 -8
0 -4 -54 5 -68 4 -7 4 -18 -1 -24 -4 -7 -9 -130 -10 -273 -1 -143 -5 -336 -8
-430 -4 -93 -6 -174 -6 -180 0 -5 3 -57 6 -115 3 -58 7 -117 9 -132 2 -16 1
-28 -2 -28 -4 0 -6 -60 -5 -133 1 -72 2 -145 2 -162 -1 -16 -2 -103 -2 -192
-1 -90 -5 -163 -9 -163 -5 0 -5 -8 0 -17 5 -10 8 -35 7 -55 -1 -21 1 -38 6
-38 4 0 5 -12 2 -27 -3 -16 -6 -36 -7 -45 0 -10 -4 -18 -9 -18 -5 0 -7 -9 -4
-20 3 -11 2 -18 -1 -16 -4 2 -7 -29 -8 -70 0 -41 3 -74 8 -74 4 0 8 -7 8 -15
0 -31 60 -55 130 -53 64 1 169 -7 265 -22 27 -4 55 -6 62 -3 24 9 36 86 33
208 -1 66 -3 407 -3 757 0 406 -3 635 -9 632 -6 -4 -5 2 1 13 5 11 10 28 10
39 1 26 -1 182 -3 342 0 72 1 132 5 132 3 0 3 24 -1 53 -8 61 -5 241 4 256 4
5 2 12 -4 16 -5 3 -8 26 -6 50 3 25 2 44 -2 44 -19 -3 -22 2 -9 16 13 12 19
45 17 100 0 8 0 23 0 33 1 171 -1 275 -5 282 -3 5 -1 11 4 14 5 3 8 97 8 209
0 112 2 207 4 212 6 10 3 140 -4 185 -2 14 0 35 5 48 4 12 4 22 0 22 -4 0 -7
15 -7 34 0 19 3 32 6 31 5 -4 9 64 12 191 0 22 -2 45 -5 50 -3 5 -4 18 -1 29
2 11 3 70 3 130 -1 122 0 274 3 320 l2 30 -147 0 c-80 0 -144 3 -141 8 2 4
-35 7 -82 7 -55 0 -84 -4 -80 -10z m39 -16 c6 -16 8 -15 25 0 17 15 18 15 16
-6 -2 -28 -25 -36 -41 -13 -7 9 -17 14 -23 10 -12 -7 -15 8 -4 18 11 11 21 8
27 -9z m239 -41 c-3 -7 -9 -13 -15 -13 -5 0 -7 4 -4 9 4 5 0 12 -6 14 -10 4
-9 8 2 16 17 12 31 -4 23 -26z m-5 -73 c0 -16 -4 -30 -9 -30 -5 0 -9 14 -9 30
0 17 4 30 8 30 5 0 9 -13 10 -30z m2 -80 c0 -5 -7 -10 -15 -10 -8 0 -15 5 -15
10 0 6 7 10 15 10 8 0 15 -4 15 -10z m5 -679 c-9 -16 -25 -3 -18 15 4 10 9 12
15 6 6 -6 7 -15 3 -21z m3 -181 c-1 -31 -18 -32 -18 -1 0 15 8 31 16 31 1 0 2
-13 2 -30z m-13 -160 c3 -5 -1 -10 -10 -10 -9 0 -13 5 -10 10 3 6 8 10 10 10
2 0 7 -4 10 -10z m5 -50 c0 -11 -4 -20 -10 -20 -5 0 -10 9 -10 20 0 11 5 20
10 20 6 0 10 -9 10 -20z m5 -119 c-2 -9 -4 -20 -4 -24 -1 -5 -6 -5 -12 -2 -6
4 -8 13 -5 21 3 7 0 16 -6 20 -7 4 -6 9 3 15 16 9 28 -6 24 -30z m-165 -41 c0
-5 -7 -10 -16 -10 -8 0 -12 5 -9 10 3 6 10 10 16 10 5 0 9 -4 9 -10z m-3 -71
c-3 -43 -20 -58 -25 -20 -5 32 7 73 18 66 5 -3 8 -24 7 -46z m1 -170 c-2 -19
-7 -33 -13 -32 -14 3 -18 29 -10 60 9 37 27 14 23 -28z m157 -29 c-3 -5 -11
-10 -16 -10 -6 0 -7 5 -4 10 3 6 11 10 16 10 6 0 7 -4 4 -10z m-158 -110 c-3
-11 -2 -20 2 -20 3 0 5 -26 4 -57 -8 -168 -6 -227 5 -231 9 -3 8 -9 -3 -25
-11 -16 -12 -24 -2 -36 8 -10 8 -13 0 -8 -8 5 -10 -12 -7 -64 3 -40 5 -75 6
-78 1 -3 -2 -14 -7 -24 -4 -10 -3 -28 2 -39 5 -13 6 -43 2 -71 -5 -28 -6 -55
-2 -60 12 -19 13 -100 2 -113 -8 -10 -9 -18 0 -27 6 -8 7 -17 3 -21 -4 -4 -7
-37 -8 -74 0 -42 -4 -67 -12 -70 -7 -2 -14 2 -16 10 -2 7 -9 30 -15 51 -14 41
-14 237 -1 237 7 0 4 96 -4 108 -3 6 -2 13 4 17 6 4 8 10 5 15 -4 6 -15 122
-16 175 -2 39 12 306 16 330 8 42 12 68 14 83 0 6 8 12 17 12 11 0 15 -6 11
-20z m161 -2 c-6 -16 -48 -18 -48 -1 0 7 11 13 26 13 15 0 24 -5 22 -12z m2
-128 c0 -13 -7 -20 -20 -20 -22 0 -23 1 -14 24 9 23 34 20 34 -4z m-5 -139 c9
-16 -9 -20 -23 -5 -10 12 -10 14 2 14 8 0 17 -4 21 -9z m3 -103 c-5 -15 -23
-11 -26 6 -2 11 2 14 13 10 9 -4 14 -11 13 -16z m12 -38 c-16 -11 -40 -13 -40
-5 0 8 44 24 50 18 2 -2 -2 -8 -10 -13z m-20 -159 c0 -6 -4 -13 -10 -16 -5 -3
-10 1 -10 9 0 9 5 16 10 16 6 0 10 -4 10 -9z m-164 -533 c-1 -23 -6 -43 -14
-46 -8 -2 -11 4 -8 20 3 12 5 33 5 46 1 12 5 22 10 22 4 0 8 -19 7 -42z m11
-165 c5 -13 -25 -26 -38 -17 -6 3 -5 11 2 20 13 16 31 14 36 -3z m-17 -81 c0
-15 -2 -15 -10 -2 -13 20 -13 33 0 25 6 -3 10 -14 10 -23z m300 -82 c-8 -5
-19 -10 -25 -10 -5 0 -3 5 5 10 8 5 20 10 25 10 6 0 3 -5 -5 -10z m-293 -6
c-3 -3 -12 -4 -19 -1 -8 3 -5 6 6 6 11 1 17 -2 13 -5z m-6 -47 c-13 -13 -26
-3 -16 12 3 6 11 8 17 5 6 -4 6 -10 -1 -17z m-10 -54 c6 -34 5 -54 -3 -59 -15
-10 -20 3 -9 24 7 13 7 22 -1 30 -9 9 -9 12 0 12 7 0 13 -3 13 -7z m9 -145 c0
-5 -4 -8 -10 -8 -5 0 -10 10 -10 23 0 18 2 19 10 7 5 -8 10 -18 10 -22z m-8
-105 c-2 -7 -8 -13 -12 -13 -14 0 -17 34 -6 53 10 16 11 16 17 -5 3 -13 4 -29
1 -35z m2 -61 c2 -4 1 -14 -4 -22 -7 -11 -12 -12 -21 -3 -6 6 -8 16 -5 22 8
13 23 14 30 3z m1 -104 c9 -22 12 -60 9 -113 -4 -87 -17 -112 -40 -81 -14 19
-17 51 -15 131 2 38 18 95 28 95 2 0 10 -15 18 -32z"/>
<path d="M1853 8233 c16 -4 16 -7 -5 -36 -12 -17 -17 -28 -11 -24 6 4 13 0 16
-7 3 -8 1 -17 -6 -19 -9 -3 -9 -8 1 -18 15 -16 16 -33 1 -23 -7 4 -10 1 -7 -7
3 -8 -2 -34 -11 -59 -11 -29 -15 -55 -10 -72 4 -15 5 -29 2 -31 -2 -3 -6 -22
-8 -43 -5 -49 -15 -95 -21 -106 -3 -4 0 -8 6 -8 8 0 9 -10 5 -30 -4 -19 -2
-36 5 -45 8 -10 9 -15 2 -15 -6 0 -10 -13 -9 -29 1 -16 6 -27 11 -24 4 3 5 -3
2 -13 -7 -24 -16 -103 -9 -86 2 6 9 12 13 12 5 0 3 -18 -5 -41 -10 -28 -12
-46 -5 -59 10 -18 8 -59 -3 -90 -3 -8 -5 -31 -4 -50 0 -20 -3 -48 -7 -64 -4
-15 -3 -25 2 -22 4 2 8 -13 7 -34 -1 -25 3 -36 11 -33 6 2 9 15 6 31 -5 23 -3
25 10 14 13 -10 17 -9 22 10 4 15 0 27 -11 36 -9 6 -13 12 -7 12 17 0 33 -15
43 -41 9 -24 10 -61 10 -289 0 -41 1 -121 2 -178 2 -92 0 -104 -19 -122 -16
-15 -22 -17 -31 -6 -6 7 -9 21 -7 32 11 54 9 92 -5 112 l-16 22 -13 -25 c-7
-13 -12 -39 -11 -57 5 -67 4 -94 -4 -122 -6 -22 -4 -32 8 -41 12 -9 14 -14 5
-23 -7 -7 -9 -12 -5 -12 4 0 3 -10 -4 -21 -9 -17 -8 -23 2 -30 9 -6 10 -9 2
-9 -7 0 -10 -10 -7 -26 3 -19 1 -24 -8 -18 -7 4 -6 -1 3 -12 16 -19 22 -54 9
-54 -4 0 -7 -36 -5 -80 1 -54 -2 -77 -9 -73 -6 4 -5 -1 3 -10 7 -9 10 -17 6
-17 -5 0 0 -9 9 -19 16 -18 16 -20 1 -28 -13 -8 -14 -15 -6 -36 7 -19 7 -27 0
-27 -6 0 -7 -5 -4 -10 4 -6 1 -17 -5 -25 -6 -8 -9 -19 -5 -26 4 -6 1 -15 -6
-20 -8 -5 -9 -9 -4 -9 9 0 14 -53 17 -170 1 -42 -11 -191 -17 -200 -3 -5 -2
-10 3 -10 11 0 9 -131 -2 -148 -3 -6 -3 -13 1 -15 5 -3 8 -44 7 -90 -2 -70 1
-85 12 -80 18 7 18 -11 1 -29 -8 -7 -12 -19 -9 -27 3 -8 0 -11 -7 -7 -14 9
-12 -93 2 -111 6 -9 6 -13 -1 -13 -6 0 -10 -13 -10 -30 1 -16 5 -27 11 -23 5
3 5 -2 -1 -13 -5 -11 -8 -34 -6 -51 2 -18 -1 -33 -6 -33 -6 0 -10 -5 -10 -11
0 -6 7 -9 14 -6 10 4 13 1 9 -9 -3 -7 -9 -14 -15 -14 -5 0 -7 -4 -4 -8 11 -18
16 -74 8 -90 -5 -9 -6 -28 -2 -42 4 -15 1 -36 -7 -52 -8 -17 -9 -29 -3 -33 6
-4 7 -11 3 -18 -6 -11 -12 -164 -19 -505 -2 -95 -8 -181 -14 -192 -12 -22 -4
-64 17 -96 10 -16 21 -20 41 -17 41 7 151 -2 182 -14 24 -10 211 -12 235 -3
12 4 22 14 22 22 1 7 7 38 15 68 10 41 12 97 8 223 -3 93 -2 171 2 173 4 3 5
39 3 82 -3 42 -5 93 -6 112 -1 19 0 56 4 83 3 26 2 47 -3 47 -5 0 -7 9 -5 19
10 51 7 161 -4 175 -7 9 -8 17 -2 20 10 7 10 24 -2 42 -3 6 -3 14 1 18 4 4 8
49 9 99 1 51 3 102 3 115 0 21 0 29 0 81 0 13 -4 29 -10 36 -5 6 -7 14 -4 18
3 3 8 45 11 94 7 108 7 126 -1 183 -9 66 -7 112 6 127 8 10 7 13 -3 13 -10 0
-10 3 -1 12 7 7 12 23 11 37 l-1 26 -9 -25 c-8 -23 -8 -22 -4 5 10 56 11 106
3 111 -9 6 -6 114 3 114 3 0 4 15 3 33 -5 58 -7 200 -5 302 1 28 0 57 -1 80 0
6 2 30 5 54 4 24 2 52 -3 62 -6 10 -7 20 -3 22 5 3 8 55 7 116 0 71 4 111 10
111 7 0 6 3 -1 8 -7 4 -10 21 -7 37 2 17 3 64 3 105 -1 41 -1 82 0 90 0 8 3
92 5 185 3 94 6 184 7 200 1 17 0 57 -1 90 -2 33 0 70 4 82 4 12 2 24 -4 28
-6 3 -8 10 -6 14 3 4 8 79 11 167 3 87 8 190 10 228 2 38 1 74 -3 80 -3 6 -7
31 -8 56 -1 25 -3 45 -4 45 -1 0 -3 21 -4 47 -1 26 -4 49 -6 51 -3 2 -97 7
-210 10 -113 3 -197 3 -187 0z m295 -18 c-8 -8 -77 -9 -85 -2 -3 4 15 7 42 7
27 0 46 -2 43 -5z m100 -400 c-3 -3 -9 2 -12 12 -6 14 -5 15 5 6 7 -7 10 -15
7 -18z m-386 -447 c-8 -8 -9 -4 -5 13 4 13 8 18 11 10 2 -7 -1 -18 -6 -23z m5
-40 c-3 -8 -6 -5 -6 6 -1 11 2 17 5 13 3 -3 4 -12 1 -19z m3 -39 c0 -11 -4
-17 -10 -14 -5 3 -10 13 -10 21 0 8 5 14 10 14 6 0 10 -9 10 -21z m174 -254
c3 -8 1 -15 -4 -15 -6 0 -10 7 -10 15 0 8 2 15 4 15 2 0 6 -7 10 -15z m7 -87
c3 -77 -4 -114 -26 -138 -23 -25 -25 -54 -6 -73 6 -6 6 -18 0 -34 -6 -15 -5
-31 1 -42 5 -10 7 -20 5 -23 -6 -5 -7 -106 -1 -140 2 -16 1 -28 -3 -28 -4 0
-6 -17 -4 -37 1 -20 -2 -42 -7 -48 -5 -6 -9 -97 -9 -206 2 -283 2 -279 -19
-279 -16 0 -18 9 -17 73 0 39 3 77 6 82 6 11 3 55 -7 103 -3 18 -2 38 2 45 8
10 9 71 4 172 -3 52 3 141 10 154 4 8 3 27 -2 43 -6 15 -7 36 -3 46 4 9 8 85
9 167 2 145 8 181 26 170 5 -3 11 -1 15 5 11 18 25 11 26 -12z m-206 -567 c3
-5 1 -12 -5 -16 -5 -3 -10 1 -10 9 0 18 6 21 15 7z m5 -65 c0 -3 -4 -8 -10
-11 -5 -3 -10 -1 -10 4 0 6 5 11 10 11 6 0 10 -2 10 -4z m140 -1062 c0 -13 -4
-24 -10 -24 -5 0 -10 14 -10 31 0 17 4 28 10 24 6 -3 10 -17 10 -31z m-1 -440
c-3 -61 -18 -67 -33 -14 -7 25 -7 35 2 38 7 2 12 13 12 23 0 12 5 17 10 14 6
-4 10 -31 9 -61z"/>
<path d="M9134 8211 c-5 -3 -8 -94 -6 -203 3 -158 6 -197 17 -202 8 -3 17 -1
20 4 4 6 -1 10 -10 10 -9 0 -13 5 -10 11 5 7 13 5 25 -6 18 -17 76 -18 97 -2
9 6 15 3 19 -9 4 -11 16 -27 26 -37 10 -10 16 -22 13 -27 -3 -5 -1 -12 5 -15
8 -5 6 -14 -4 -30 -13 -20 -13 -25 -1 -35 14 -11 19 -7 16 13 0 4 3 7 9 7 16
0 12 -32 -6 -45 -15 -10 -15 -13 0 -27 11 -11 16 -32 15 -65 -1 -26 -4 -38 -6
-25 -4 19 -7 21 -19 11 -12 -10 -13 -9 -8 5 3 9 2 16 -2 17 -5 0 -19 2 -31 5
-13 2 -23 -1 -23 -6 0 -6 5 -10 10 -10 6 0 10 -7 10 -16 0 -9 5 -12 13 -8 6 4
9 4 5 -1 -4 -4 2 -22 15 -39 25 -36 33 -63 12 -46 -9 8 -17 7 -29 -5 -22 -22
-20 -24 11 -19 15 3 24 2 21 -2 -4 -4 -3 -15 3 -25 13 -26 -5 -24 -22 1 -14
20 -14 20 -41 -3 -17 -15 -28 -37 -32 -62 -5 -38 -5 -38 6 -12 13 29 32 39 21
10 -5 -12 -2 -15 13 -11 10 3 25 7 33 9 8 2 17 -4 19 -13 3 -15 -2 -17 -28
-14 -29 3 -30 2 -14 -15 15 -17 14 -17 -7 -12 -15 4 -20 3 -15 -5 9 -15 -6
-16 -20 -2 -8 8 -11 2 -12 -20 0 -16 4 -30 9 -30 5 0 9 -7 9 -16 0 -9 -5 -12
-12 -8 -8 5 -7 0 2 -11 9 -11 10 -16 3 -11 -10 5 -13 -3 -13 -28 0 -36 -28
-64 -50 -51 -6 3 -20 -1 -32 -9 -12 -9 -17 -16 -10 -16 6 0 12 -7 12 -16 0 -8
-5 -12 -10 -9 -7 4 -10 -82 -10 -264 1 -158 5 -273 11 -276 5 -4 9 -11 9 -16
0 -6 -5 -7 -11 -3 -7 4 -10 1 -7 -7 3 -8 12 -13 22 -11 9 2 16 -4 16 -12 0 -8
5 -18 10 -21 17 -10 50 5 50 23 0 14 2 15 15 1 20 -20 34 -116 41 -291 l6
-148 -33 -1 c-19 -1 -52 -2 -74 -3 l-40 -1 -3 -64 -3 -63 38 7 c21 4 62 7 91
6 32 -1 52 3 52 10 0 8 4 8 13 1 21 -18 455 -13 473 5 34 34 1 113 -46 113
-14 0 -112 -2 -219 -5 l-193 -4 7 32 c4 18 8 102 9 187 2 190 5 201 53 198 39
-3 72 27 74 66 0 11 2 113 3 226 2 113 6 221 10 241 6 26 4 40 -8 51 -8 9 -18
27 -21 41 -7 27 -29 37 -86 37 -34 0 -37 2 -43 38 -3 20 -6 54 -6 75 0 28 -3
36 -12 31 -10 -6 -10 -5 -1 7 6 8 14 55 17 104 3 50 8 115 11 145 3 30 7 92 9
137 3 69 1 80 -12 76 -10 -4 -13 -1 -10 8 3 8 11 13 17 11 10 -2 16 40 12 76
-1 6 7 12 18 12 11 0 21 5 23 11 3 8 14 8 41 1 36 -10 54 2 22 14 -8 4 -12 10
-9 15 3 5 9 7 13 5 4 -3 25 -6 45 -8 21 -1 40 -6 43 -12 4 -5 1 -6 -7 -1 -9 5
-11 4 -6 -3 5 -9 13 -9 28 -1 13 7 18 7 14 1 -3 -6 -2 -13 4 -17 5 -3 10 -1
10 6 0 8 4 8 15 -1 13 -11 18 -10 29 6 12 16 16 16 30 5 16 -13 66 -11 131 5
14 3 25 2 24 -2 -4 -21 2 -23 24 -9 21 13 28 13 66 -2 42 -16 44 -16 57 2 13
17 19 14 15 -7 0 -5 4 -8 10 -8 16 0 41 -28 28 -32 -6 -2 -3 -12 8 -24 19 -22
45 -22 37 0 -3 7 3 20 13 29 18 15 19 15 18 -7 -2 -32 -25 -56 -55 -56 -5 0
-10 -4 -10 -8 0 -5 10 -8 23 -8 25 1 26 -12 13 -96 -5 -30 -5 -48 2 -48 8 0
22 69 28 145 1 11 3 22 4 25 1 3 4 22 6 44 3 39 25 65 57 66 9 0 17 -7 17 -17
0 -15 2 -15 19 1 21 19 67 18 64 -1 -2 -7 4 -10 13 -6 11 4 12 8 4 13 -7 4 -1
8 14 8 23 0 25 -3 14 -17 -10 -12 -8 -12 8 2 12 10 34 17 50 16 43 -2 145 8
151 15 10 10 19 7 41 -13 12 -10 18 -22 14 -26 -4 -5 -1 -5 6 -1 6 4 12 15 12
24 1 16 2 16 14 0 16 -22 26 -23 26 -3 0 17 35 21 45 5 4 -7 16 -5 33 6 33 19
88 4 78 -21 -3 -8 -1 -14 5 -12 6 1 16 -7 22 -18 7 -11 15 -22 18 -25 9 -7 6
-69 -3 -63 -5 2 -8 -1 -8 -6 0 -6 8 -11 18 -11 13 0 14 -2 3 -9 -8 -5 -10 -14
-6 -21 5 -8 4 -11 -2 -7 -6 4 -10 -4 -10 -18 0 -14 3 -22 8 -20 16 11 20 -16
4 -32 -16 -15 -16 -18 -1 -28 9 -7 16 -18 16 -26 0 -8 -4 -7 -13 5 -12 16 -14
16 -26 2 -10 -12 -11 -16 -1 -16 9 0 10 -3 1 -14 -6 -7 -8 -27 -5 -45 4 -20 3
-31 -5 -31 -6 0 -11 -12 -11 -26 0 -16 4 -23 11 -18 7 4 7 -1 -1 -16 -6 -12
-9 -28 -6 -37 4 -8 2 -32 -3 -52 -6 -20 -11 -69 -12 -109 -1 -40 -4 -70 -7
-67 -3 2 -10 -2 -16 -11 -15 -20 -125 -32 -136 -14 -4 7 -16 9 -27 6 -21 -7
-46 -50 -35 -61 4 -3 8 -37 9 -73 1 -37 4 -90 6 -119 2 -31 -1 -49 -7 -46 -8
6 -6 -30 8 -139 2 -15 -1 -25 -6 -22 -5 3 -6 -5 -3 -18 3 -13 7 -47 8 -75 1
-28 5 -49 8 -47 4 2 9 -3 13 -11 3 -8 13 -15 21 -15 9 0 13 -5 9 -11 -4 -7 8
-10 37 -9 65 3 69 2 69 -19 0 -11 4 -21 9 -23 13 -4 16 -38 7 -70 -6 -19 -4
-32 7 -43 22 -22 30 -19 25 10 -3 13 -1 22 4 19 5 -3 8 -21 6 -39 -2 -29 -4
-32 -20 -24 -15 8 -18 6 -18 -11 0 -17 4 -20 20 -15 15 5 20 2 20 -14 0 -11
-5 -23 -12 -27 -7 -5 -8 -3 -3 6 6 9 4 11 -4 6 -7 -5 -10 -15 -7 -23 4 -9 2
-21 -2 -27 -5 -6 -9 -18 -9 -26 -1 -8 -4 -23 -8 -32 -5 -12 -3 -18 6 -18 34 0
-39 -34 -80 -37 -139 -10 -325 -11 -372 -2 -30 5 -63 9 -74 8 -65 -6 -139 2
-152 15 -3 3 -7 85 -8 183 -2 98 -8 190 -14 205 -13 34 -8 38 75 43 36 2 71 9
78 14 6 5 27 11 46 13 45 5 61 34 49 86 -5 20 -6 109 -3 198 6 165 2 204 -20
204 -9 0 -12 9 -8 26 3 19 1 25 -6 20 -8 -5 -10 -2 -6 8 3 9 2 16 -2 17 -5 1
-47 3 -94 4 -47 2 -89 4 -93 4 -5 1 -7 80 -5 176 3 173 3 174 -20 186 -12 7
-19 15 -15 18 5 3 9 14 11 24 2 12 -4 17 -19 17 -16 0 -20 -5 -16 -19 2 -10 0
-25 -4 -34 -13 -22 0 -49 19 -42 9 3 13 3 9 -1 -4 -4 -2 -13 4 -20 8 -9 5 -11
-10 -7 -24 6 -26 0 -11 -28 8 -14 7 -19 -1 -19 -7 0 -9 -3 -6 -6 10 -10 -13
-45 -24 -38 -7 4 -7 0 0 -14 6 -11 8 -35 4 -52 -4 -22 -2 -35 8 -41 10 -6 10
-9 2 -9 -7 0 -10 -7 -6 -17 4 -10 2 -14 -5 -9 -12 7 -25 -10 -27 -36 -2 -28
-10 -31 -78 -35 -84 -4 -127 -12 -127 -23 0 -6 4 -10 10 -10 5 0 0 -18 -11
-40 -11 -21 -17 -45 -13 -51 13 -21 10 -83 -4 -98 -11 -11 -11 -15 0 -22 10
-7 10 -11 0 -21 -16 -16 -16 -61 1 -53 6 4 5 1 -4 -7 -11 -10 -15 -30 -14 -78
1 -36 -3 -71 -9 -79 -9 -12 -8 -13 3 -6 11 6 12 1 7 -28 -6 -31 -3 -38 17 -52
31 -20 74 -28 167 -29 52 -1 78 -5 84 -15 7 -11 10 -11 16 -1 5 7 7 -2 5 -21
-1 -19 1 -36 5 -39 5 -3 12 -18 16 -34 6 -25 5 -28 -11 -22 -16 6 -17 5 -1
-18 9 -14 12 -27 7 -31 -5 -3 -12 1 -14 7 -4 9 -6 10 -6 1 -1 -19 19 -26 35
-12 14 11 16 9 14 -16 -1 -17 -1 -32 0 -35 8 -21 7 -46 -1 -56 -5 -7 -9 -16
-8 -20 3 -20 -1 -35 -9 -30 -5 3 -9 -1 -9 -9 0 -8 4 -15 9 -15 4 0 8 -7 8 -16
0 -14 -3 -14 -15 -4 -12 10 -15 10 -15 -3 0 -8 6 -18 13 -20 9 -4 9 -7 0 -14
-7 -5 -14 -19 -16 -31 -2 -12 -9 -28 -15 -34 -14 -14 -16 -38 -3 -38 4 0 7
-11 6 -24 -2 -14 6 -34 18 -46 18 -21 26 -22 86 -15 36 4 130 8 208 8 79 1
143 5 143 10 0 4 10 7 23 7 18 0 19 -2 7 -10 -12 -8 -11 -10 5 -10 12 0 26 5
32 11 9 9 16 8 27 -4 15 -15 55 -11 86 8 6 4 9 1 8 -7 -2 -9 7 -12 32 -11 19
2 106 4 192 5 86 2 159 6 163 9 3 4 8 26 11 50 3 23 6 45 7 48 4 18 -17 51
-33 51 -10 0 -20 4 -22 9 -4 12 -48 24 -48 13 0 -4 -34 -9 -75 -10 -59 -2 -75
1 -75 12 0 8 -3 16 -7 19 -5 2 -3 3 3 1 15 -3 24 64 19 141 -2 33 -4 75 -4 93
-1 18 -4 31 -8 29 -5 -3 -8 18 -8 46 0 52 0 52 35 57 19 3 40 2 46 -2 6 -5 24
-4 40 2 15 6 33 9 40 6 7 -3 15 0 18 7 3 9 5 8 5 -1 1 -10 6 -10 22 -1 15 8
19 8 15 0 -12 -18 8 -12 25 7 20 23 32 149 15 156 -8 3 -8 5 0 5 9 1 11 43 8
149 -3 135 2 188 21 234 4 11 0 18 -14 23 -12 3 -21 13 -21 20 0 19 -14 26
-62 30 -23 2 -44 9 -48 15 -12 20 -19 272 -9 350 10 81 19 222 12 177 -4 -24
-6 -25 -19 -13 -16 17 -18 42 -4 51 6 4 7 12 3 18 -4 7 0 6 10 -2 15 -11 17
-11 17 2 0 8 -7 17 -15 21 -8 3 -15 13 -15 23 0 15 1 15 14 -2 12 -17 13 -15
9 23 -3 22 0 56 6 74 11 32 13 33 73 35 34 2 66 -1 72 -6 6 -4 22 -6 36 -4 48
9 165 10 189 1 13 -5 27 -5 30 -1 3 5 40 8 81 8 41 0 92 3 112 6 23 4 47 1 63
-7 18 -9 27 -10 32 -1 10 16 24 -42 17 -70 -4 -12 -1 -36 5 -53 6 -18 6 -28 1
-25 -6 4 -10 -1 -10 -9 0 -9 5 -16 11 -16 7 0 5 -10 -5 -25 -19 -29 -20 -39
-4 -29 8 5 9 0 5 -17 -4 -13 -7 -32 -7 -42 0 -12 -5 -16 -12 -11 -10 6 -10 4
0 -7 15 -16 16 -33 1 -23 -8 4 -8 1 -2 -12 10 -21 9 -182 -2 -231 -4 -18 -11
-33 -16 -33 -5 0 -9 -5 -9 -11 0 -5 4 -8 9 -4 15 9 23 -32 11 -55 -6 -11 -8
-24 -5 -29 8 -14 -4 -39 -23 -46 -37 -15 -62 -15 -62 -1 0 8 -7 17 -16 20 -26
10 -29 7 -8 -10 18 -15 17 -15 -8 0 l-26 15 -6 -47 c-4 -26 -8 -65 -10 -87 -2
-22 -5 -42 -6 -45 -1 -3 -4 -27 -6 -55 -2 -27 -4 -54 -4 -60 -1 -5 1 -36 3
-68 3 -31 1 -60 -4 -63 -5 -3 -7 -9 -4 -14 3 -5 1 -18 -5 -29 -7 -13 -7 -22 0
-26 7 -4 6 -13 -1 -26 -7 -14 -7 -29 0 -50 6 -16 8 -36 5 -44 -7 -18 43 -32
114 -31 28 1 52 -2 52 -6 0 -4 6 -5 14 -2 7 3 21 -7 31 -22 14 -22 15 -31 6
-47 -8 -11 -8 -16 -2 -12 14 8 15 -34 1 -69 -6 -16 -6 -27 1 -31 8 -6 8 -46
-2 -191 -1 -19 -8 -20 -123 -24 -66 -1 -133 -3 -147 -4 -18 -1 -25 -5 -21 -15
3 -9 1 -12 -6 -7 -7 4 -12 1 -12 -8 0 -9 -4 -16 -8 -16 -10 0 -3 -61 9 -76 6
-8 44 -10 112 -8 56 2 183 6 283 7 99 2 186 7 194 12 9 5 11 4 6 -4 -6 -9 21
-10 111 -6 133 6 143 7 161 18 7 5 12 3 12 -4 0 -8 17 -10 58 -7 31 3 70 1 86
-3 19 -6 34 -5 43 2 7 6 13 8 13 3 0 -5 39 -6 87 -3 49 3 141 5 206 5 72 -1
117 3 117 9 0 6 4 4 9 -4 5 -7 14 -10 20 -6 6 3 71 8 144 9 73 1 139 6 145 10
7 4 12 2 12 -3 0 -6 5 -11 11 -11 5 0 7 6 3 13 -6 9 -4 9 7 1 14 -12 69 -11
88 1 6 3 11 2 11 -2 0 -5 15 -9 34 -9 20 0 32 4 29 10 -3 5 -1 6 5 2 7 -4 21
0 33 8 12 8 26 13 33 12 6 -2 8 -1 5 1 -4 2 -4 23 -2 47 4 29 1 46 -7 51 -9 6
-11 4 -5 -5 5 -8 3 -11 -6 -8 -8 3 -14 10 -14 15 0 6 -3 15 -7 19 -5 4 -8 16
-8 26 0 11 -5 16 -10 13 -15 -9 -41 15 -33 29 4 6 -2 4 -12 -4 -17 -14 -18
-13 -12 3 4 11 3 16 -3 12 -6 -3 -10 1 -10 10 0 11 5 15 14 12 8 -3 17 1 20 9
5 12 1 14 -17 8 -29 -9 -38 -24 -26 -45 20 -38 -1 -54 -80 -63 -24 -3 -48 -11
-53 -18 -6 -10 -8 -10 -8 0 0 14 -27 16 -32 2 -2 -8 -98 -13 -178 -9 -8 0 -42
-4 -75 -9 -33 -5 -100 -7 -150 -5 l-90 5 3 64 c2 35 0 64 -5 64 -12 0 -10 53
2 62 6 5 6 8 -2 8 -6 0 -9 9 -5 22 3 14 2 19 -6 14 -7 -4 -12 -1 -12 9 0 9 4
14 9 10 6 -3 11 12 13 32 l3 38 87 1 c83 1 88 2 123 32 20 18 42 32 50 32 11
0 15 13 15 51 0 27 -3 48 -7 46 -5 -3 -6 20 -5 50 3 35 0 53 -6 49 -6 -4 -8 3
-4 16 5 21 4 22 -13 8 -17 -14 -18 -13 -12 3 4 10 7 23 7 28 0 6 5 7 11 4 10
-7 4 139 -7 157 -3 4 0 8 5 8 6 0 11 9 11 20 0 11 -5 20 -11 20 -5 0 -7 -5 -3
-12 4 -6 3 -8 -4 -5 -5 4 -8 16 -5 27 3 11 9 17 14 14 5 -3 9 0 9 5 0 6 -5 11
-11 11 -7 0 -9 11 -5 30 3 17 2 30 -2 30 -5 0 -18 9 -30 20 -29 27 -72 43 -86
31 -11 -9 -49 -14 -97 -12 -19 1 -26 6 -25 19 0 9 5 20 11 24 6 5 5 12 -3 20
-13 13 -17 32 -4 24 5 -3 9 42 9 99 1 73 -2 105 -10 105 -7 0 -6 4 3 10 8 5
15 21 17 37 9 86 8 92 -4 82 -8 -7 -11 -6 -9 3 3 14 16 47 24 62 3 5 0 6 -6 2
-7 -4 -12 -15 -12 -24 0 -15 -2 -15 -10 -2 -8 13 -10 12 -10 -2 0 -10 -4 -18
-10 -18 -15 0 -12 16 5 34 8 8 15 27 15 43 0 15 7 41 15 57 9 17 15 55 15 95
0 62 2 68 28 83 20 12 52 16 130 15 56 0 102 -5 102 -10 0 -5 5 -5 13 1 6 5
45 9 85 7 39 -1 72 2 72 6 0 5 10 5 23 0 12 -4 28 -6 36 -3 8 3 11 0 7 -7 -4
-6 -2 -9 6 -6 31 10 84 13 97 6 8 -6 12 -18 8 -31 -7 -27 17 -38 40 -19 14 12
16 12 11 -2 -5 -12 0 -14 22 -11 15 2 31 -1 35 -7 5 -8 -1 -10 -18 -6 -26 7
-40 -5 -42 -37 -1 -13 2 -15 17 -7 10 5 18 14 18 19 0 6 3 9 8 9 21 -4 30 3
34 26 3 13 2 22 -3 20 -4 -3 -2 6 4 20 7 14 17 23 24 21 6 -3 27 -1 45 4 35
11 72 4 63 -11 -4 -5 -2 -9 3 -9 6 0 12 7 15 14 5 12 13 13 36 6 19 -5 31 -5
31 1 0 12 51 8 69 -5 11 -8 13 -8 7 2 -6 10 7 11 61 7 133 -11 173 -11 178 -1
3 7 7 7 11 -1 3 -7 12 -13 19 -13 16 0 41 -38 37 -57 -1 -6 5 -14 15 -16 14
-4 13 -5 -5 -6 -36 -2 -47 -56 -23 -114 6 -16 11 -48 11 -72 0 -24 5 -47 10
-50 6 -4 8 -11 5 -16 -11 -17 -32 -109 -25 -109 6 0 4 -57 -4 -115 -1 -11 2
-26 7 -32 6 -8 6 -13 -1 -13 -11 0 -11 -18 0 -36 10 -16 2 -52 -17 -70 -16
-16 -60 -16 -97 1 -13 5 -18 3 -18 -8 0 -9 -7 -23 -15 -31 -14 -14 -14 -18 1
-41 9 -14 14 -34 11 -47 -4 -14 0 -30 11 -42 9 -11 12 -17 6 -13 -12 7 -12
-78 0 -132 6 -23 5 -31 -2 -27 -11 6 -8 -31 2 -42 3 -2 0 -14 -5 -25 -8 -13
-8 -22 -1 -26 6 -3 12 -20 14 -36 8 -64 58 -107 130 -111 104 -6 96 12 94
-201 0 -104 -5 -194 -10 -202 -6 -10 -6 -12 2 -7 16 10 15 -9 0 -22 -22 -17
-79 -24 -233 -25 -164 -2 -163 -2 -144 -71 8 -31 49 -80 49 -60 0 5 46 10 103
11 56 1 236 4 400 7 164 2 301 7 304 10 10 10 25 7 18 -4 -3 -5 0 -7 9 -4 22
8 42 62 27 77 -6 6 -11 22 -11 35 0 40 -56 56 -172 48 -53 -4 -107 -9 -120
-12 -34 -7 -128 -12 -128 -7 0 2 7 11 15 19 8 8 17 31 21 50 5 28 2 39 -15 55
-26 24 -26 27 -1 59 24 30 25 41 5 34 -8 -4 -15 -1 -15 6 0 6 -4 9 -10 5 -5
-3 -7 -13 -4 -23 4 -13 2 -12 -7 3 -14 22 -18 76 -5 68 4 -3 12 1 17 8 7 11 9
10 9 -4 0 -10 4 -16 9 -13 5 3 7 20 6 38 -4 43 -3 42 -19 29 -10 -8 -16 -9
-21 -1 -3 5 1 13 9 16 10 4 16 18 16 39 0 31 2 33 31 31 21 -2 33 4 40 16 6
10 14 16 20 13 15 -10 10 -25 -8 -25 -12 0 -14 -3 -6 -11 16 -16 35 -1 31 24
-2 15 4 25 20 32 12 5 22 13 22 18 0 4 5 5 11 1 7 -4 7 1 -1 16 -7 12 -8 20
-2 16 5 -3 12 1 15 9 4 10 1 12 -11 8 -14 -5 -15 -3 -4 8 14 16 16 59 2 59 -5
0 -10 7 -10 16 0 8 5 12 10 9 6 -4 10 17 10 55 0 43 -3 59 -11 54 -9 -5 -10 1
-5 21 5 19 3 31 -6 37 -11 6 -10 10 1 17 8 5 11 16 8 25 -4 9 -2 16 3 16 6 0
10 5 10 11 0 5 -5 7 -10 4 -7 -4 -10 7 -9 33 3 44 -14 74 -37 65 -9 -3 -14 0
-12 8 2 11 -12 14 -65 13 -54 -1 -67 2 -63 12 3 8 -1 14 -10 14 -8 0 -12 5 -9
10 3 6 0 10 -7 10 -9 0 -9 3 -2 8 6 4 13 17 16 29 4 15 0 23 -13 26 -22 6 -21
43 1 57 19 12 4 40 -22 40 l-22 0 22 15 c18 13 20 19 10 35 -9 14 -9 22 2 34
11 14 10 16 -6 10 -18 -5 -18 -5 0 6 14 10 20 9 28 -1 6 -10 7 -6 2 11 -3 14
-13 33 -22 43 -8 9 -11 17 -6 17 4 0 -4 10 -18 21 -26 21 -26 22 -7 42 14 16
16 23 7 29 -7 4 -9 8 -4 8 6 0 2 6 -9 13 -17 13 -13 43 4 32 5 -2 6 7 3 20 -2
14 -11 25 -21 25 -12 0 -13 2 -3 9 20 12 23 61 4 54 -10 -4 -9 0 4 15 20 24
29 29 18 10 -5 -9 -2 -8 9 1 10 8 15 21 12 32 -3 9 -1 20 4 23 6 4 8 13 4 21
-6 18 -3 18 31 5 16 -6 27 -6 31 1 4 5 12 6 18 2 19 -12 291 -10 299 2 5 6 8
3 8 -7 0 -11 7 -18 18 -18 14 0 15 2 2 10 -11 7 -4 10 27 10 23 0 45 -5 48
-11 4 -6 13 -8 21 -5 8 3 14 1 14 -5 0 -6 5 -7 12 -3 8 5 9 0 6 -14 -4 -14 -2
-20 4 -16 11 7 58 -14 70 -31 5 -6 8 -2 8 8 0 9 -6 17 -12 17 -10 0 -9 3 1 9
11 7 11 9 0 13 -9 3 -3 10 16 20 17 8 36 13 43 11 7 -3 19 0 26 6 11 9 15 9
19 -1 4 -10 7 -10 15 1 6 7 12 9 15 3 4 -5 31 -9 61 -9 33 0 53 4 50 9 -4 6 1
6 12 0 11 -5 24 -7 31 -5 6 2 14 -1 17 -6 5 -7 15 -7 32 -1 18 7 23 7 18 -1
-4 -8 1 -9 15 -4 29 9 84 -13 77 -31 -3 -8 -2 -13 2 -13 19 3 23 -2 12 -16 -7
-8 -9 -15 -4 -15 4 0 -1 -6 -11 -14 -15 -11 -17 -17 -8 -27 10 -13 17 -42 14
-64 -1 -5 -5 -4 -10 4 -7 10 -9 7 -8 -11 1 -13 13 -36 26 -49 21 -21 23 -22
17 -4 -6 19 -5 19 8 2 13 -17 14 -16 19 3 3 13 0 20 -9 20 -16 0 -30 27 -29
55 1 11 -2 25 -6 30 -4 6 -2 21 3 35 7 19 11 21 17 11 7 -11 11 -9 21 8 6 13
9 29 6 36 -6 16 47 38 85 36 23 -2 27 2 25 22 0 14 -4 23 -8 21 -4 -3 -5 14
-3 36 2 22 0 38 -5 35 -9 -6 -7 21 3 31 4 4 4 16 2 28 -3 12 -7 37 -9 56 -3
19 -6 37 -7 40 -1 3 -2 18 -3 35 l-1 29 -82 3 c-45 1 -85 -2 -88 -8 -4 -5 -12
-6 -18 -2 -20 12 -107 16 -107 4 0 -6 -5 -11 -11 -11 -5 0 -7 6 -3 13 6 10 4
10 -7 0 -7 -7 -18 -13 -24 -13 -5 0 -3 5 5 10 10 7 -27 10 -115 10 -71 0 -320
2 -553 4 -259 3 -420 1 -417 -5 4 -5 2 -9 -4 -9 -5 0 -11 4 -13 9 -3 10 -307
16 -345 7 -13 -2 -23 -1 -23 4 0 5 -56 10 -125 12 -69 2 -125 0 -125 -4 0 -5
7 -8 16 -8 8 0 13 -4 10 -9 -3 -5 -15 -7 -26 -4 -12 3 -20 0 -20 -8 0 -7 -3
-9 -6 -6 -4 4 -1 14 7 23 13 16 12 17 -9 12 -12 -4 -20 -3 -17 2 3 4 -38 8
-90 9 -76 1 -93 -1 -89 -12 3 -8 -2 -14 -11 -14 -8 0 -15 7 -15 15 0 10 -6 12
-22 7 -13 -3 -43 -8 -68 -10 -38 -3 -40 -3 -15 4 29 8 29 9 5 10 -15 0 -31 -4
-37 -10 -7 -7 -58 -13 -123 -14 -100 -3 -110 -2 -98 12 12 15 10 15 -12 3 -14
-8 -35 -13 -47 -13 -39 2 -39 5 -3 13 28 6 22 8 -35 9 -49 0 -66 -2 -55 -9 24
-16 -7 -31 -38 -19 -14 5 -27 7 -29 5 -10 -9 9 -26 30 -27 16 -1 13 -4 -12
-12 -26 -8 -36 -8 -39 1 -2 7 -11 8 -25 3 -12 -4 -48 -8 -79 -9 -55 -1 -57 0
-60 26 l-3 27 -23 -23 c-12 -12 -27 -20 -32 -17 -4 3 -10 2 -13 -2 -2 -5 -3
-3 -1 3 1 6 -1 17 -6 24 -6 9 -10 7 -14 -8 -6 -17 -14 -20 -54 -19 -40 2 -47
5 -50 25 -3 18 1 22 24 22 15 0 25 2 22 5 -4 5 -45 6 -99 4 -9 0 -15 -9 -15
-21 1 -12 -5 -23 -12 -25 -7 -3 -10 1 -7 10 5 10 -2 13 -25 12 -30 -2 -41 9
-17 18 6 3 0 6 -14 6 -23 1 -26 -2 -23 -26 l4 -28 -13 28 c-7 15 -16 24 -20
21 -4 -4 -7 -2 -7 4 0 8 -19 12 -50 12 -27 0 -50 -3 -50 -6 0 -20 24 -44 45
-44 26 0 33 -14 14 -26 -6 -3 -15 -2 -21 4 -6 6 -25 8 -43 5 -40 -7 -52 10
-26 36 13 13 16 23 10 27 -6 3 -17 -2 -25 -12 -14 -17 -15 -17 -10 -1 4 12 0
17 -15 17 -16 0 -19 -4 -14 -20 6 -18 3 -20 -19 -14 -21 5 -26 3 -26 -12 0
-20 -13 -11 -16 11 -1 9 6 15 16 15 10 0 21 4 24 8 3 5 -10 9 -29 9 -20 0 -32
-4 -28 -10 4 -7 -1 -8 -13 -3 -32 13 -49 14 -56 2 -14 -20 -8 -26 16 -16 19 7
28 4 43 -12 18 -21 18 -21 -14 -15 -18 4 -35 2 -38 -3 -9 -15 -29 -2 -42 28
-9 18 -21 27 -38 28 -19 2 -23 -1 -16 -10 7 -8 4 -16 -10 -24 -11 -7 -17 -17
-14 -22 3 -6 -1 -10 -10 -10 -20 0 -31 28 -16 43 19 19 13 22 -56 25 -46 2
-69 -1 -75 -10 -6 -9 -10 -10 -15 -2 -12 17 -276 18 -267 1 5 -9 3 -9 -7 1 -8
8 -47 12 -114 12 -67 0 -106 -4 -114 -12 -11 -10 -13 -10 -7 0 6 9 -18 12
-105 12 -88 0 -110 -3 -101 -12 7 -7 12 -18 12 -25 0 -15 -36 -18 -45 -3 -3 6
1 10 9 10 10 0 13 6 10 15 -5 13 -35 15 -179 15 -171 0 -173 0 -179 -22 -5
-19 -8 -20 -15 -8 -5 8 -7 18 -5 22 3 4 4 8 2 9 -2 0 -187 2 -413 5 -225 2
-456 6 -511 8 -56 2 -105 1 -110 -3z m2251 -51 c-16 -16 -36 -30 -44 -29 -10
0 -6 4 8 10 14 6 21 15 18 23 -4 10 2 16 16 19 12 2 24 5 26 6 3 0 -8 -12 -24
-29z m-1355 0 c-11 -21 -40 -28 -40 -10 0 8 27 25 48 29 1 1 -2 -8 -8 -19z
m603 7 c18 11 40 13 52 4 20 -16 59 -20 74 -9 13 10 14 10 4 -1 -6 -7 -9 -21
-6 -30 3 -11 2 -12 -4 -4 -5 7 -21 10 -36 8 -15 -3 -26 -2 -25 2 3 8 -5 13
-22 13 -5 0 -7 -7 -4 -15 5 -11 -1 -15 -24 -15 -24 0 -34 7 -45 30 -15 29 -15
29 4 19 11 -5 25 -6 32 -2z m427 2 c0 6 9 11 20 11 23 0 25 -10 8 -29 -11 -11
-10 -13 3 -8 20 7 44 -7 35 -21 -4 -7 -15 -8 -29 -3 -12 5 -37 6 -54 4 -30 -5
-33 -3 -33 20 0 28 18 40 38 24 8 -6 12 -6 12 2z m142 -13 c4 -20 0 -26 -20
-31 -33 -8 -47 7 -33 34 16 29 47 27 53 -3z m148 20 c0 -11 -19 -15 -25 -6 -3
5 1 10 9 10 9 0 16 -2 16 -4z m724 -11 c-4 -8 -10 -15 -15 -15 -5 0 -9 7 -9
15 0 8 7 15 15 15 9 0 12 -6 9 -15z m-1914 1 c0 -11 -19 -15 -25 -6 -3 5 1 10
9 10 9 0 16 -2 16 -4z m279 -18 c-8 -14 -14 -18 -17 -10 -2 6 -8 10 -13 6 -5
-3 -9 -3 -9 1 0 4 32 21 48 24 1 1 -3 -9 -9 -21z m46 12 c4 -6 10 -8 15 -5 5
3 11 1 15 -5 3 -5 1 -10 -5 -10 -6 0 -9 -4 -6 -8 3 -5 -8 -9 -24 -10 -31 -1
-35 5 -24 32 7 18 20 21 29 6z m332 -1 c-14 -8 -22 -8 -30 0 -8 8 -3 11 19 11
25 -1 27 -2 11 -11z m143 -9 c6 -11 0 -18 -22 -27 -34 -15 -41 -12 -43 17 -1
16 1 17 19 8 18 -10 19 -9 9 4 -11 12 -9 14 8 13 11 -1 24 -8 29 -15z m560 4
c0 -8 -4 -12 -10 -9 -5 3 -7 0 -4 -8 3 -8 -2 -17 -10 -20 -23 -9 -21 29 2 42
22 13 22 14 22 -5z m-2312 -19 c0 -14 -4 -25 -9 -25 -10 0 -11 12 -3 34 9 22
12 20 12 -9z m1068 8 c7 -10 14 -22 14 -27 0 -6 -7 -1 -15 10 -9 12 -14 14
-15 5 0 -7 -6 -11 -15 -7 -8 3 -15 0 -15 -6 0 -6 -3 -8 -7 -5 -5 6 24 45 36
46 2 1 10 -7 17 -16z m113 -17 c0 -7 -2 -6 -6 2 -2 6 -11 12 -19 12 -9 0 -12
-5 -8 -12 4 -7 3 -8 -5 -4 -9 6 -9 11 0 22 9 11 15 11 25 3 8 -6 14 -17 13
-23z m470 -7 c-32 -20 -58 -4 -32 21 16 14 20 15 32 2 12 -12 12 -15 0 -23z
m863 19 c-6 -6 -15 -8 -19 -4 -4 4 -1 11 7 16 19 12 27 3 12 -12z m-1631 -2
c5 3 9 0 9 -5 0 -6 -3 -11 -7 -12 -5 0 -23 -2 -41 -5 -24 -3 -32 0 -29 8 2 7
11 12 20 10 8 -1 19 3 23 10 6 9 9 9 12 0 2 -7 8 -10 13 -6z m3119 -2 c0 -2
-7 -4 -15 -4 -8 0 -15 4 -15 10 0 5 7 7 15 4 8 -4 15 -8 15 -10z m43 9 c-7 -2
-19 -2 -25 0 -7 3 -2 5 12 5 14 0 19 -2 13 -5z m250 -7 c4 -10 0 -12 -15 -8
-15 4 -17 7 -6 13 17 11 15 11 21 -5z m-2713 0 c0 -3 -4 -8 -10 -11 -5 -3 -10
-1 -10 4 0 6 5 11 10 11 6 0 10 -2 10 -4z m2567 -2 c-3 -3 -12 -4 -19 -1 -8 3
-5 6 6 6 11 1 17 -2 13 -5z m100 0 c-3 -3 -12 -4 -19 -1 -8 3 -5 6 6 6 11 1
17 -2 13 -5z m-3318 -25 c-16 -10 -23 -4 -14 10 3 6 11 8 17 5 6 -4 5 -9 -3
-15z m-109 -36 c-1 -21 -13 -53 -21 -53 -10 0 -12 43 -2 53 9 9 23 9 23 0z
m337 -7 c-4 -10 -1 -13 9 -9 7 3 14 0 14 -6 0 -6 7 -8 15 -5 9 4 15 0 15 -9 0
-15 -34 -30 -44 -19 -3 3 -18 7 -32 8 -37 4 -52 20 -35 37 12 10 13 8 7 -8 -7
-18 -5 -18 14 3 23 25 45 30 37 8z m-177 -6 c0 -5 -4 -10 -10 -10 -5 0 -10 5
-10 10 0 6 5 10 10 10 6 0 10 -4 10 -10z m102 -18 c4 -12 -1 -18 -13 -18 -12
0 -19 7 -19 18 0 10 6 18 14 18 7 0 16 -8 18 -18z m4313 -4 c0 -10 -3 -18 -7
-18 -5 0 -33 0 -64 0 -37 0 -53 4 -49 11 20 32 120 37 120 7z m-4355 -3 c0 -8
-4 -15 -10 -15 -5 0 -10 7 -10 15 0 8 5 15 10 15 6 0 10 -7 10 -15z m2815 -5
c3 -5 1 -10 -4 -10 -6 0 -11 5 -11 10 0 6 2 10 4 10 3 0 8 -4 11 -10z m-138
-46 c-3 -3 -12 -4 -19 -1 -8 3 -5 6 6 6 11 1 17 -2 13 -5z m444 -37 c-16 -16
-26 0 -10 19 9 11 15 12 17 4 2 -6 -1 -17 -7 -23z m356 -16 c0 -11 -4 -18 -7
-16 -4 2 -23 5 -43 7 -20 1 -33 6 -31 10 3 4 18 6 34 3 16 -3 32 -1 35 5 9 15
14 12 12 -9z m1508 -2 c4 -11 4 -23 1 -26 -3 -3 -39 -7 -80 -9 -42 -2 -79 -4
-83 -5 -5 -1 -15 -1 -23 0 -12 1 -11 4 3 12 9 6 16 13 13 17 -2 4 19 6 48 5
28 -1 63 4 76 11 34 19 38 19 45 -5z m-2115 1 c0 -5 -7 -10 -15 -10 -8 0 -15
5 -15 10 0 6 7 10 15 10 8 0 15 -4 15 -10z m180 -6 c0 -2 -12 -4 -27 -4 -21 0
-24 3 -14 9 13 8 41 5 41 -5z m130 6 c0 -5 9 -10 20 -10 11 0 20 -4 20 -10 0
-14 -22 -12 -42 4 -20 15 -23 26 -8 26 6 0 10 -4 10 -10z m480 -10 c0 -18 -21
-21 -41 -6 -19 13 -20 14 -2 18 22 5 43 -1 43 -12z m189 11 c9 -6 10 -10 2
-16 -16 -9 -44 2 -36 15 8 12 16 12 34 1z m71 -11 c-8 -5 -17 -7 -19 -4 -3 3
1 9 9 14 8 5 17 7 19 4 3 -3 -1 -9 -9 -14z m105 10 c3 -5 1 -10 -4 -10 -6 0
-11 5 -11 10 0 6 2 10 4 10 3 0 8 -4 11 -10z m-1285 -4 c0 -2 -9 -6 -20 -9
-11 -3 -20 -1 -20 4 0 5 9 9 20 9 11 0 20 -2 20 -4z m190 -6 c0 -5 -4 -10 -10
-10 -5 0 -10 5 -10 10 0 6 5 10 10 10 6 0 10 -4 10 -10z m443 3 c-7 -2 -21 -2
-30 0 -10 3 -4 5 12 5 17 0 24 -2 18 -5z m337 -3 c0 -5 -2 -10 -4 -10 -3 0 -8
5 -11 10 -3 6 -1 10 4 10 6 0 11 -4 11 -10z m410 0 c0 -5 -5 -10 -11 -10 -5 0
-7 5 -4 10 3 6 8 10 11 10 2 0 4 -4 4 -10z m-101 -16 c2 -2 -12 -4 -32 -4 -20
0 -37 4 -37 10 0 8 58 3 69 -6z m714 -30 c-5 -13 -8 -13 -23 1 -9 8 -20 12
-23 8 -4 -3 -7 -1 -7 6 0 8 7 11 15 7 8 -3 15 0 15 6 0 7 5 7 14 -2 8 -6 12
-18 9 -26z m-3729 11 c-4 -8 -8 -15 -10 -15 -2 0 -4 7 -4 15 0 8 4 15 10 15 5
0 7 -7 4 -15z m563 -21 c-9 -9 -28 6 -21 18 4 6 10 6 17 -1 6 -6 8 -13 4 -17z
m940 0 c-3 -3 -12 -4 -19 -1 -8 3 -5 6 6 6 11 1 17 -2 13 -5z m-489 -19 c15 2
32 -1 39 -6 7 -7 14 -6 18 1 3 5 13 10 21 10 9 0 12 -5 8 -11 -5 -8 -1 -8 13
0 27 14 105 10 122 -7 10 -9 17 -10 24 -3 15 15 27 14 27 -4 0 -8 5 -15 11
-15 7 0 8 -11 4 -32 -6 -26 -5 -30 9 -25 10 4 16 1 16 -9 0 -11 6 -13 21 -9
13 5 19 3 15 -3 -3 -5 1 -15 9 -22 17 -14 3 -33 -31 -42 -17 -4 -20 -2 -17 12
3 9 -1 17 -9 17 -10 0 -13 -24 -14 -96 0 -53 1 -90 4 -83 7 22 50 63 56 54 3
-5 -6 -24 -19 -42 -17 -23 -21 -36 -14 -41 8 -5 8 -8 0 -13 -6 -4 -9 -12 -6
-17 4 -5 1 -9 -5 -9 -7 0 -9 -8 -5 -19 3 -11 2 -22 -3 -24 -12 -8 -14 53 -2
68 7 9 8 15 1 20 -14 8 -21 -26 -24 -118 -2 -62 1 -77 13 -78 12 -1 12 -2 -1
-6 -13 -3 -16 -21 -17 -96 -1 -100 -13 -123 -56 -108 -26 9 -58 3 -51 -10 8
-13 1 -11 -37 7 -25 12 -39 13 -61 5 -25 -10 -27 -15 -27 -66 0 -34 4 -55 11
-55 8 0 8 -4 2 -12 -12 -15 -5 -140 7 -133 4 2 1 -21 -6 -52 -13 -57 -8 -227
7 -218 4 3 5 -4 2 -16 -4 -14 2 -28 21 -45 15 -15 26 -36 26 -51 0 -22 4 -25
25 -21 14 3 22 1 18 -5 -3 -5 11 -7 36 -4 22 2 41 0 41 -5 0 -5 4 -7 9 -4 5 4
7 -3 4 -14 -7 -27 5 -70 18 -67 7 1 14 -4 16 -12 4 -9 0 -11 -14 -7 -16 5 -19
1 -21 -26 -1 -18 2 -46 6 -63 7 -23 5 -33 -7 -42 -14 -10 -14 -16 -2 -48 7
-20 11 -39 8 -42 -6 -5 -136 -7 -432 -5 -93 0 -185 0 -202 0 -18 -1 -35 1 -39
4 -5 5 -15 205 -17 328 0 39 2 45 26 51 14 4 41 6 59 5 18 -2 44 1 57 6 19 7
22 13 16 36 -4 15 -3 24 0 20 4 -4 13 -2 19 5 14 14 29 50 18 43 -4 -2 -6 32
-4 75 2 49 -1 85 -8 94 -8 10 -8 14 1 17 9 3 9 9 1 25 -6 11 -9 33 -6 48 3 15
6 33 7 39 1 6 -4 10 -10 9 -7 -2 -13 1 -13 5 0 4 6 14 13 21 10 11 10 14 0 18
-7 3 -13 12 -13 21 0 15 2 15 11 2 8 -11 9 -5 6 25 -3 22 -7 49 -10 60 -3 11
-6 23 -6 28 -1 4 -4 6 -8 5 -5 -1 -40 4 -78 11 -39 7 -83 10 -98 7 -31 -5 -30
-6 -17 29 5 14 6 24 1 21 -5 -3 -11 1 -15 9 -3 8 0 14 6 12 6 -1 13 4 16 12 3
8 0 11 -6 7 -7 -4 -14 4 -18 21 -5 17 -3 28 4 31 7 2 12 11 12 20 0 13 -2 14
-9 4 -7 -11 -10 -10 -15 3 -3 9 -3 22 1 27 3 7 1 8 -5 4 -8 -5 -12 0 -12 13 0
11 9 22 20 26 15 5 20 15 20 41 0 29 -4 34 -22 34 -19 0 -20 2 -8 10 12 8 10
10 -10 11 -17 0 -20 2 -10 7 18 8 19 19 2 50 -7 12 -9 22 -5 22 4 0 -1 7 -11
15 -16 12 -17 15 -4 15 20 0 33 47 17 66 -14 17 2 19 18 3 12 -12 33 -4 33 13
0 7 -5 6 -15 -2 -12 -10 -13 -6 -8 24 4 24 2 36 -6 36 -8 0 -8 5 1 19 9 15 9
23 -3 37 -9 11 -9 15 -1 10 7 -4 12 -2 12 4 0 6 4 9 9 6 4 -3 7 -18 5 -33 -4
-29 1 -20 16 30 7 21 6 26 -3 20 -20 -12 -36 -12 -47 2 -12 15 3 31 19 20 5
-3 12 -1 16 5 4 6 11 8 16 5 5 -3 6 2 2 11 -4 11 -3 15 5 10 6 -3 16 2 22 13
10 19 20 20 150 18 87 -1 140 -5 140 -12 0 -5 4 -4 9 4 5 7 13 11 18 8 5 -3
15 -2 22 2 7 5 29 5 48 1 19 -5 46 -7 61 -5z m2682 5 c0 -5 -5 -10 -11 -10 -5
0 -7 5 -4 10 3 6 8 10 11 10 2 0 4 -4 4 -10z m-2355 -58 c-3 -3 -11 0 -18 7
-9 10 -8 11 6 5 10 -3 15 -9 12 -12z m-3228 -14 c-3 -8 -6 -5 -6 6 -1 11 2 17
5 13 3 -3 4 -12 1 -19z m1580 -15 c-3 -10 -5 -4 -5 12 0 17 2 24 5 18 2 -7 2
-21 0 -30z m1720 -5 c-3 -8 -6 -5 -6 6 -1 11 2 17 5 13 3 -3 4 -12 1 -19z m0
-80 c-3 -7 -5 -2 -5 12 0 14 2 19 5 13 2 -7 2 -19 0 -25z m-937 -13 c0 -8 -2
-15 -4 -15 -2 0 -6 7 -10 15 -3 8 -1 15 4 15 6 0 10 -7 10 -15z m886 -43 c-15
-15 -16 -15 -17 3 0 17 -1 17 -10 -3 -5 -13 -7 -28 -3 -33 3 -5 1 -16 -4 -25
-6 -11 -11 -13 -16 -5 -4 6 -3 11 2 11 6 0 8 9 5 19 -7 26 14 62 32 55 9 -4
15 0 16 7 0 12 1 12 6 1 3 -8 -2 -21 -11 -30z m-3246 8 c0 -5 -4 -10 -10 -10
-5 0 -10 5 -10 10 0 6 5 10 10 10 6 0 10 -4 10 -10z m4740 -52 c0 -4 -7 -8
-15 -8 -8 0 -15 4 -15 8 0 5 7 9 15 9 8 0 15 -4 15 -9z m-50 -2 c0 -2 -7 -6
-15 -10 -8 -3 -15 -1 -15 4 0 6 7 10 15 10 8 0 15 -2 15 -4z m-3119 -73 c-12
-20 -14 -14 -5 12 4 9 9 14 11 11 3 -2 0 -13 -6 -23z m-1591 -13 c0 -5 -2 -10
-4 -10 -3 0 -8 5 -11 10 -3 6 -1 10 4 10 6 0 11 -4 11 -10z m1503 -5 c-3 -9
-8 -14 -10 -11 -3 3 -2 9 2 15 9 16 15 13 8 -4z m74 -41 c-3 -3 -12 -4 -19 -1
-8 3 -5 6 6 6 11 1 17 -2 13 -5z m3228 -4 c-3 -5 -10 -10 -16 -10 -5 0 -9 5
-9 10 0 6 7 10 16 10 8 0 12 -4 9 -10z m-3228 -42 c-3 -8 -6 -5 -6 6 -1 11 2
17 5 13 3 -3 4 -12 1 -19z m839 -33 c10 -24 -6 -38 -22 -18 -7 10 -14 21 -14
26 0 13 31 7 36 -8z m-1686 -39 c0 -33 -23 -56 -35 -36 -4 6 -1 10 5 10 6 0
10 6 9 13 -3 26 1 47 11 47 6 0 10 -15 10 -34z m852 -5 c3 -31 1 -37 -9 -29
-7 5 -11 20 -9 32 3 11 5 24 5 29 2 20 9 2 13 -32z m1648 17 c0 -13 -23 -5
-28 10 -2 7 2 10 12 6 9 -3 16 -11 16 -16z m60 2 c-11 -7 -31 -7 -50 0 -3 1 6
5 20 9 28 9 48 2 30 -9z m7 -42 c-3 -7 -5 -2 -5 12 0 14 2 19 5 13 2 -7 2 -19
0 -25z m-17 18 c0 -2 -7 -7 -16 -10 -8 -3 -12 -2 -9 4 6 10 25 14 25 6z
m-2552 -92 c-3 -14 -5 -12 -10 9 -3 19 -2 25 4 19 6 -6 8 -18 6 -28z m2498 12
c19 -20 18 -25 -6 -19 -11 3 -20 12 -20 19 0 18 8 18 26 0z m-3238 -61 c-9 -9
-30 14 -23 25 6 9 10 8 17 -4 6 -10 8 -19 6 -21z m1599 -27 c-3 -8 -6 -5 -6 6
-1 11 2 17 5 13 3 -3 4 -12 1 -19z m-1596 -25 c13 -17 13 -17 -6 -3 -11 8 -22
16 -24 17 -2 2 0 3 6 3 6 0 17 -8 24 -17z m3396 -59 c-3 -3 -12 -4 -19 -1 -8
3 -5 6 6 6 11 1 17 -2 13 -5z m16 -62 c8 -12 -4 -62 -15 -62 -6 0 -8 7 -5 15
4 8 2 17 -3 20 -15 9 -12 35 4 35 8 0 17 -3 19 -8z m-2504 -11 c7 -5 11 -14 7
-19 -9 -15 -36 -4 -36 14 0 16 9 18 29 5z m1738 -13 c-3 -8 -6 -5 -6 6 -1 11
2 17 5 13 3 -3 4 -12 1 -19z m-1077 2 c-19 -13 -30 -13 -30 0 0 6 10 10 23 10
18 0 19 -2 7 -10z m-1600 -35 c0 -18 -4 -23 -15 -19 -8 4 -15 15 -15 25 0 10
7 19 15 19 9 0 15 -9 15 -25z m5067 -152 c-3 -10 -5 -4 -5 12 0 17 2 24 5 18
2 -7 2 -21 0 -30z m-1487 -38 c0 -5 -5 -3 -10 5 -5 8 -10 20 -10 25 0 6 5 3
10 -5 5 -8 10 -19 10 -25z m-543 -91 c-3 -3 -12 -4 -19 -1 -8 3 -5 6 6 6 11 1
17 -2 13 -5z m430 -156 c-3 -8 -6 -5 -6 6 -1 11 2 17 5 13 3 -3 4 -12 1 -19z
m1415 -20 c-7 -7 -12 -8 -12 -2 0 14 12 26 19 19 2 -3 -1 -11 -7 -17z m-1639
-143 c-3 -9 -8 -14 -10 -11 -3 3 -2 9 2 15 9 16 15 13 8 -4z m-3196 -41 c-3
-3 -12 -4 -19 -1 -8 3 -5 6 6 6 11 1 17 -2 13 -5z m4828 -16 c-12 -7 -21 -6
-28 2 -9 10 -9 11 0 6 6 -3 14 -2 18 4 4 6 11 7 17 4 7 -4 4 -10 -7 -16z
m-4870 -18 c3 -5 1 -10 -4 -10 -6 0 -11 5 -11 10 0 6 2 10 4 10 3 0 8 -4 11
-10z m3232 4 c-3 -3 -12 -4 -19 -1 -8 3 -5 6 6 6 11 1 17 -2 13 -5z m-747 -23
c0 -5 -8 -11 -18 -13 -11 -3 -19 0 -19 8 0 8 9 14 19 14 10 0 18 -4 18 -9z
m-2477 -30 c2 -10 1 -25 -4 -32 -6 -10 -9 -4 -9 19 0 36 5 42 13 13z m4914
-13 c-3 -8 -6 -5 -6 6 -1 11 2 17 5 13 3 -3 4 -12 1 -19z m-4877 -28 c0 -5 -7
-7 -15 -4 -8 4 -15 8 -15 10 0 2 7 4 15 4 8 0 15 -4 15 -10z m5262 -182 c-7
-7 -12 -8 -12 -2 0 14 12 26 19 19 2 -3 -1 -11 -7 -17z m-3807 -108 c3 -5 -1
-10 -10 -10 -9 0 -13 5 -10 10 3 6 8 10 10 10 2 0 7 -4 10 -10z"/>
<path d="M12550 7731 c0 -6 5 -13 10 -16 6 -3 10 1 10 9 0 9 -4 16 -10 16 -5
0 -10 -4 -10 -9z"/>
<path d="M11771 7654 c0 -11 3 -14 6 -6 3 7 2 16 -1 19 -3 4 -6 -2 -5 -13z"/>
<path d="M11757 7540 c-9 -11 -15 -20 -13 -20 3 0 10 -2 18 -5 8 -3 13 3 14
20 2 30 3 30 -19 5z"/>
<path d="M11772 7440 c0 -19 2 -27 5 -17 2 9 2 25 0 35 -3 9 -5 1 -5 -18z"/>
<path d="M2780 8200 l35 -7 -33 -2 c-19 0 -31 -5 -27 -11 3 -5 2 -10 -4 -10
-5 0 -11 5 -13 11 -2 6 -4 -11 -5 -38 -1 -34 1 -42 7 -28 8 18 9 17 9 -6 1
-15 -7 -33 -16 -40 -15 -12 -16 -12 -8 1 6 11 5 12 -4 4 -7 -6 -13 -43 -14
-86 -1 -43 -6 -71 -10 -64 -10 13 -4 -38 8 -69 6 -17 5 -18 -5 -5 -10 13 -11
12 -5 -5 4 -11 7 -28 7 -37 0 -10 3 -18 7 -18 4 0 6 -27 5 -60 -2 -33 2 -60 7
-60 5 0 9 -4 9 -10 0 -5 -7 -10 -15 -10 -8 0 -15 -5 -15 -11 0 -5 4 -8 8 -5 4
2 8 -21 8 -52 -1 -31 3 -66 9 -77 7 -17 7 -18 -7 -8 -16 14 -28 8 -28 -13 0
-8 6 -11 13 -8 10 3 12 -5 9 -32 -3 -25 -7 -32 -13 -23 -6 9 -9 10 -9 2 0 -6
5 -15 11 -19 6 -3 9 -15 6 -25 -3 -11 -1 -17 4 -13 16 10 9 -8 -8 -23 -17 -13
-17 -13 2 -11 14 2 20 -3 20 -17 1 -27 -17 -55 -30 -47 -5 3 -4 -1 2 -10 7 -8
10 -18 6 -21 -3 -4 -2 -7 3 -7 5 0 9 -19 10 -41 1 -40 1 -41 -13 -18 -11 19
-13 20 -9 4 3 -11 8 -35 11 -54 7 -43 12 -51 31 -51 21 0 17 -17 -6 -23 -11
-3 -20 -13 -20 -24 0 -15 -2 -16 -11 -3 -8 11 -9 7 -5 -17 4 -22 1 -33 -6 -33
-7 0 -3 -7 8 -16 10 -8 13 -13 7 -9 -15 7 -18 -11 -3 -20 6 -4 7 -12 3 -18 -4
-7 -6 -23 -5 -37 1 -23 1 -23 -7 -5 -7 15 -9 6 -9 -35 1 -47 2 -50 7 -20 l7
35 6 -31 c4 -16 3 -47 -1 -67 -5 -20 -6 -39 -3 -42 4 -3 0 -10 -8 -16 -12 -7
-12 -11 -2 -17 14 -9 5 -45 -9 -36 -5 3 -9 4 -9 2 0 -2 7 -41 14 -88 8 -47 12
-88 10 -91 -2 -4 -7 -37 -10 -74 -5 -55 -4 -66 7 -60 11 6 12 5 2 -6 -15 -15
-17 -33 -4 -25 11 7 20 -14 13 -33 -4 -11 -6 -11 -13 0 -7 11 -9 10 -9 -3 0
-10 5 -18 11 -18 6 0 3 -7 -6 -16 -15 -15 -15 -18 1 -35 16 -17 16 -19 1 -19
-14 0 -15 -5 -7 -26 14 -36 12 -76 -5 -98 -9 -11 -11 -25 -6 -35 7 -14 6 -105
-1 -156 -2 -13 2 -19 11 -17 10 2 12 -4 7 -20 -3 -13 -6 -27 -7 -33 0 -5 -5 1
-9 15 -8 24 -8 23 -9 -8 -1 -18 3 -31 8 -28 5 4 7 -4 3 -16 -4 -16 -2 -19 9
-14 8 4 6 1 -5 -8 -21 -17 -25 -94 -6 -106 9 -5 9 -9 1 -14 -14 -9 -15 -126
-1 -126 13 0 13 -36 0 -61 -8 -14 -7 -21 3 -25 9 -3 12 -15 9 -37 -4 -27 -6
-29 -13 -12 -7 19 -8 19 -8 1 -1 -10 6 -24 15 -30 14 -11 14 -16 1 -48 -23
-55 -32 -139 -16 -149 12 -8 12 -10 1 -18 -12 -7 -12 -12 0 -30 11 -18 11 -23
0 -30 -17 -10 -18 -97 -2 -116 10 -12 10 -15 0 -15 -9 0 -10 -10 -6 -35 5 -25
3 -35 -6 -35 -9 0 -9 -3 2 -10 11 -7 12 -10 2 -10 -8 0 -11 -7 -7 -19 3 -10 6
-43 7 -72 1 -30 7 -57 12 -61 7 -5 6 -11 -4 -18 -12 -7 -15 -32 -15 -115 0
-58 -3 -105 -6 -105 -3 0 -6 -83 -7 -185 0 -101 -4 -200 -7 -219 -4 -19 -3
-55 3 -80 5 -25 6 -46 2 -46 -5 0 -8 -16 -7 -35 1 -19 4 -35 7 -35 4 0 12 -11
18 -26 l12 -25 238 3 c130 2 244 5 252 8 8 3 19 19 23 35 9 31 11 304 3 312
-3 3 -1 15 4 28 5 13 6 25 3 28 -3 3 -4 41 -3 84 1 43 1 116 0 163 -2 107 -2
142 0 205 1 28 1 73 1 100 -1 28 1 93 4 146 2 52 1 118 -4 146 -6 42 -5 55 8
69 9 9 10 14 4 10 -7 -4 -13 -4 -14 1 0 4 -1 25 -3 45 -2 21 0 35 5 33 4 -3
10 2 13 11 3 8 2 12 -4 9 -14 -9 -12 9 2 23 8 8 9 12 1 12 -6 0 -9 9 -6 19 3
10 -1 29 -7 41 -10 18 -9 21 1 15 9 -6 11 -2 7 13 -4 12 -2 25 4 28 6 4 7 9 0
13 -12 8 -26 52 -15 49 9 -3 13 5 13 27 0 9 -6 12 -15 9 -20 -8 -19 -2 5 41
21 38 27 124 10 141 -7 7 -6 21 1 44 9 25 9 37 0 53 -9 14 -10 22 -2 30 12 12
15 67 4 67 -7 0 -8 73 -3 90 1 3 1 20 0 38 -1 17 2 32 7 32 4 0 9 11 9 25 1
14 -2 25 -7 25 -6 0 -6 7 -1 18 5 9 6 26 1 37 -11 28 -11 37 1 30 12 -8 12 -8
1 32 -5 18 -6 35 -3 37 6 4 7 305 1 448 -1 29 4 55 12 65 11 13 11 17 2 20 -7
3 -13 20 -13 39 0 20 5 34 13 34 7 0 8 3 2 8 -5 4 -9 21 -8 37 2 17 4 62 6
101 2 39 7 76 11 82 4 7 2 12 -3 12 -14 0 -14 37 -1 45 6 4 7 12 1 23 -5 9 -5
26 0 39 5 13 5 23 1 23 -4 0 -7 53 -6 118 8 383 10 442 15 442 3 0 5 28 3 61
-2 51 1 62 15 66 13 3 18 15 18 44 0 21 -3 39 -6 39 -3 0 -5 31 -4 70 1 76 -6
119 -17 101 -9 -16 -40 -3 -41 18 0 9 -6 0 -13 -19 -7 -20 -21 -36 -32 -39
-10 -2 -16 0 -12 4 4 4 1 20 -7 36 -10 18 -11 30 -5 34 18 11 1 24 -25 19 -13
-2 -27 0 -30 6 -4 6 14 11 47 11 46 2 43 3 -27 9 -44 5 -81 7 -83 5 -2 -2 1
-12 7 -22 9 -17 7 -19 -20 -15 -16 2 -32 9 -35 14 -3 5 1 8 9 6 9 -2 17 2 19
7 2 6 -44 11 -122 12 -79 1 -112 -2 -90 -7z m70 -10 c0 -5 -7 -7 -15 -4 -8 4
-15 8 -15 10 0 2 7 4 15 4 8 0 15 -4 15 -10z m53 -1 c-8 -8 -16 -8 -30 0 -16
9 -14 10 12 11 21 0 26 -3 18 -11z m157 -18 c0 -6 -4 -13 -10 -16 -5 -3 -10 1
-10 9 0 9 5 16 10 16 6 0 10 -4 10 -9z m-53 -25 c0 -8 -6 -12 -14 -9 -7 3 -10
9 -7 14 8 14 21 11 21 -5z m80 -2 c-3 -3 -12 -4 -19 -1 -8 3 -5 6 6 6 11 1 17
-2 13 -5z m-122 -44 c3 -5 -1 -10 -10 -10 -9 0 -13 5 -10 10 3 6 8 10 10 10 2
0 7 -4 10 -10z m-165 -666 c0 -8 -5 -12 -10 -9 -6 4 -8 11 -5 16 9 14 15 11
15 -7z m2 -164 c-4 -45 -6 -50 -23 -45 -12 4 -19 2 -19 -6 0 -7 -3 -10 -6 -6
-3 3 1 20 10 38 9 18 16 42 16 55 0 15 5 22 13 19 8 -4 11 -22 9 -55z m-2
-104 c0 -8 -4 -18 -10 -21 -5 -3 -10 3 -10 14 0 12 5 21 10 21 6 0 10 -6 10
-14z m226 -33 c-11 -11 -17 4 -9 23 7 18 8 18 11 1 2 -10 1 -21 -2 -24z m-251
-23 c-3 -5 -11 -10 -16 -10 -6 0 -7 5 -4 10 3 6 11 10 16 10 6 0 7 -4 4 -10z
m135 -124 c0 -2 -7 -7 -16 -10 -8 -3 -12 -2 -9 4 6 10 25 14 25 6z m-156 -181
c-4 -8 -10 -12 -15 -9 -11 6 -2 24 11 24 5 0 7 -7 4 -15z m160 -98 c0 -16 -8
-33 -16 -38 -13 -7 -17 -2 -20 26 -4 32 2 42 27 42 6 0 10 -14 9 -30z m-22
-99 c-7 -7 -12 -8 -12 -2 0 14 12 26 19 19 2 -3 -1 -11 -7 -17z m9 -160 c1 -7
2 -26 2 -43 0 -16 5 -33 11 -37 7 -5 7 -8 -2 -8 -9 0 -12 -17 -11 -60 1 -40 6
-57 13 -53 6 3 5 0 -1 -8 -7 -7 -13 -35 -13 -61 0 -36 -4 -48 -15 -48 -8 0
-15 7 -15 15 0 8 -4 15 -9 15 -5 0 -7 9 -4 20 3 11 12 20 20 20 8 0 11 5 8 11
-4 6 -13 8 -21 5 -10 -4 -14 3 -14 24 0 16 4 31 9 34 16 10 19 57 5 63 -16 6
-19 49 -4 58 6 4 8 11 5 16 -10 15 5 49 21 49 8 0 15 -6 15 -12z m-95 -196
c-11 -10 -15 4 -8 28 l7 25 3 -23 c2 -13 1 -26 -2 -30z m-2 -77 c-4 -8 -10
-13 -15 -10 -4 3 -6 12 -3 20 4 8 10 13 15 10 4 -3 6 -12 3 -20z m84 -127 c-6
-18 -28 -21 -28 -4 0 9 7 16 16 16 9 0 14 -5 12 -12z m8 -108 c0 -31 -4 -51
-12 -54 -17 -7 -34 16 -29 39 2 11 4 32 4 47 1 20 5 25 19 22 13 -4 17 -16 18
-54z m-206 10 c-5 -22 -8 -27 -9 -13 -1 21 9 56 14 51 2 -2 0 -19 -5 -38z
m110 -30 c0 -5 -5 -10 -11 -10 -5 0 -7 5 -4 10 3 6 8 10 11 10 2 0 4 -4 4 -10z
m7 -91 c-2 -22 0 -42 5 -45 4 -3 3 -14 -2 -25 -10 -18 -12 -18 -27 -3 -13 12
-13 18 -4 24 9 5 10 10 2 14 -7 5 -7 15 -1 32 6 14 8 30 4 35 -3 5 2 9 10 9
12 0 15 -9 13 -41z m227 5 c5 -12 2 -15 -10 -10 -8 3 -18 6 -20 6 -3 0 -2 5 1
10 9 15 22 12 29 -6z m16 -65 c0 -23 -28 -45 -41 -32 -8 8 -6 21 6 43 13 25
19 30 26 19 5 -8 9 -21 9 -30z m-160 3 c0 -33 -16 -53 -36 -45 -11 4 -12 9 -3
19 6 8 8 14 5 14 -4 0 -2 9 4 20 15 29 30 25 30 -8z m-90 -57 c0 -8 -4 -15
-10 -15 -5 0 -10 7 -10 15 0 8 5 15 10 15 6 0 10 -7 10 -15z m248 -11 c8 -14
4 -60 -12 -131 -3 -13 -2 -24 2 -27 6 -4 7 -23 3 -104 -1 -13 -6 -22 -12 -20
-22 7 -28 110 -9 133 8 9 7 17 -2 26 -14 15 -17 106 -4 127 10 17 23 15 34 -4z
m-146 -82 c0 -38 -10 -52 -40 -52 -21 0 -28 5 -29 21 -1 14 3 19 12 16 22 -9
25 4 10 39 -13 31 -12 35 8 49 21 15 22 14 30 -17 5 -18 9 -43 9 -56z m1 -81
c3 -11 2 -22 -1 -26 -3 -3 -4 -38 -3 -78 4 -81 1 -586 -3 -632 -7 -77 -4 -71
-20 -50 -9 12 -11 26 -6 35 5 9 5 22 0 30 -5 8 -6 18 -3 22 2 5 -1 15 -7 23
-7 8 -10 24 -7 35 3 11 1 20 -4 20 -9 0 -3 75 7 92 3 5 2 13 -2 19 -3 6 -8 33
-10 59 -3 37 0 49 12 54 14 5 14 9 2 29 -7 12 -13 44 -12 72 1 28 -3 56 -9 63
-6 8 -6 12 2 12 12 0 11 56 -2 77 -4 6 0 29 7 51 8 22 13 53 11 69 -1 15 -1
31 2 36 9 15 41 6 46 -12z m123 -146 c-3 -8 -2 -15 2 -15 4 0 9 -29 10 -65 1
-39 -2 -65 -8 -65 -11 0 -12 4 -12 78 0 28 -5 55 -10 58 -6 4 -5 10 3 15 19
12 22 11 15 -6z m-296 -99 c0 -2 -7 -7 -16 -10 -8 -3 -12 -2 -9 4 6 10 25 14
25 6z m312 -92 c-2 -20 -8 -32 -12 -27 -10 9 -1 63 9 63 4 0 5 -16 3 -36z
m-188 -39 c3 -8 1 -15 -4 -15 -6 0 -10 7 -10 15 0 8 2 15 4 15 2 0 6 -7 10
-15z m179 -36 c-9 -9 -12 -7 -10 9 1 14 5 18 11 12 7 -7 6 -14 -1 -21z m4
-131 c-3 -8 -6 -5 -6 6 -1 11 2 17 5 13 3 -3 4 -12 1 -19z m-1 -55 c-11 -11
-19 6 -11 24 8 17 8 17 12 0 3 -10 2 -21 -1 -24z m-260 -144 c10 -16 5 -232
-5 -242 -9 -9 -24 22 -20 39 1 5 -3 22 -10 39 -8 20 -9 31 -2 33 16 5 13 23
-5 44 -13 14 -14 21 -5 32 6 8 11 18 10 22 -3 13 12 44 21 44 5 0 12 -5 16
-11z m264 -289 c9 -18 8 -20 -15 -20 -27 0 -28 1 -19 24 8 22 21 20 34 -4z
m-270 -125 c0 -8 -4 -15 -10 -15 -5 0 -10 7 -10 15 0 8 5 15 10 15 6 0 10 -7
10 -15z m140 -5 c0 -5 -5 -10 -11 -10 -5 0 -7 5 -4 10 3 6 8 10 11 10 2 0 4
-4 4 -10z m94 -483 c3 4 6 2 6 -4 0 -5 -20 -11 -45 -11 -43 -2 -45 -1 -35 18
10 19 13 19 39 5 16 -8 31 -11 35 -8z"/>
<path d="M3195 8190 c3 -5 17 -10 31 -10 13 0 24 5 24 10 0 6 -14 10 -31 10
-17 0 -28 -4 -24 -10z"/>
<path d="M12163 8183 c9 -2 23 -2 30 0 6 3 -1 5 -18 5 -16 0 -22 -2 -12 -5z"/>
<path d="M12223 8183 c9 -2 25 -2 35 0 9 3 1 5 -18 5 -19 0 -27 -2 -17 -5z"/>
<path d="M12298 8183 c12 -2 32 -2 45 0 12 2 2 4 -23 4 -25 0 -35 -2 -22 -4z"/>
<path d="M12413 8183 c9 -2 25 -2 35 0 9 3 1 5 -18 5 -19 0 -27 -2 -17 -5z"/>
<path d="M12768 8183 c6 -2 18 -2 25 0 6 3 1 5 -13 5 -14 0 -19 -2 -12 -5z"/>
<path d="M12833 8183 c15 -2 37 -2 50 0 12 2 0 4 -28 4 -27 0 -38 -2 -22 -4z"/>
<path d="M3921 8158 c0 -13 3 -17 6 -10 9 23 22 12 19 -15 -5 -39 -5 -40 -16
-23 -9 14 -7 -107 4 -313 2 -31 0 -60 -5 -63 -12 -7 -12 -44 0 -44 16 0 20
-54 5 -71 -17 -19 -18 -82 -3 -111 8 -15 8 -19 0 -14 -14 9 -12 -153 2 -172 7
-9 6 -11 -7 -6 -23 9 -20 -9 4 -24 17 -10 18 -15 8 -26 -7 -8 -16 -12 -20 -9
-9 5 -10 -29 -2 -51 3 -9 10 -14 14 -11 5 3 6 -4 3 -15 -3 -11 -9 -20 -14 -20
-5 0 -8 -11 -7 -24 1 -15 7 -22 15 -19 7 3 13 1 13 -5 0 -5 -6 -12 -13 -15 -9
-3 -13 -34 -14 -108 -1 -57 1 -99 4 -92 3 8 11 5 24 -8 26 -26 34 -19 32 28
-1 21 -1 65 -2 98 0 33 0 80 0 105 -1 25 -1 61 0 80 4 167 4 170 -10 170 -11
0 -11 3 -1 16 8 8 15 26 16 39 2 23 1 24 -20 10 -20 -13 -22 -13 -22 4 0 11 6
17 13 14 7 -3 13 -1 14 3 0 5 2 18 5 29 13 65 20 126 16 142 -4 20 -4 26 3
107 4 59 10 75 21 63 12 -11 22 -80 16 -101 -8 -24 -7 -188 1 -253 3 -24 2
-43 -1 -43 -6 0 -7 -14 -3 -102 1 -20 5 -26 16 -21 13 5 14 2 4 -21 -9 -19
-15 -23 -21 -14 -11 18 -11 -8 1 -49 6 -20 6 -35 0 -38 -12 -8 -9 -216 4 -232
6 -9 5 -14 -5 -18 -12 -5 -17 -49 -8 -65 1 -3 4 -15 5 -26 1 -12 5 -33 9 -48
4 -18 3 -25 -4 -21 -12 7 -11 13 -17 -185 -2 -85 -4 -162 -4 -170 -1 -8 -1
-44 0 -80 0 -104 0 -116 -6 -102 -4 10 -8 10 -19 1 -11 -9 -14 -8 -14 5 0 9
-8 16 -17 16 -14 0 -15 2 -5 9 7 4 14 18 15 29 1 12 4 22 8 22 3 0 5 20 4 44
0 25 3 43 7 40 10 -6 11 20 1 30 -14 14 -20 109 -8 144 3 12 -1 26 -10 35 -8
9 -10 17 -5 19 6 2 12 23 13 48 2 25 6 51 11 58 4 6 2 12 -3 12 -6 0 -11 17
-11 38 0 73 -5 105 -17 110 -7 2 -13 -5 -14 -15 0 -16 -1 -16 -9 2 -6 13 -8
-6 -8 -57 0 -42 -3 -82 -7 -87 -3 -6 -1 -20 5 -31 8 -14 8 -26 -1 -41 -9 -17
-8 -20 2 -14 8 6 10 4 4 -5 -4 -7 -9 -45 -11 -84 -1 -47 1 -62 6 -46 l8 25 1
-27 c1 -14 -5 -29 -11 -31 -10 -4 -10 -8 1 -15 8 -6 9 -11 3 -13 -7 -3 -12
-67 -14 -182 -2 -144 -1 -174 10 -160 16 23 16 3 -1 -22 -10 -15 -14 -69 -15
-210 -1 -104 -5 -205 -8 -224 -6 -27 -4 -32 6 -26 9 6 11 4 5 -5 -12 -20 -15
-81 -3 -74 6 4 5 -3 -2 -15 -13 -24 -11 -329 2 -308 5 8 8 7 8 -5 0 -10 -6
-18 -14 -18 -12 0 -15 -36 -15 -217 0 -120 -3 -244 -6 -275 -4 -47 -2 -58 10
-58 8 0 15 -5 15 -11 0 -5 -4 -7 -10 -4 -13 8 -12 26 -24 -285 -13 -355 -14
-415 -5 -432 6 -10 6 -18 1 -18 -11 0 -33 -93 -24 -101 4 -4 104 -9 222 -10
l215 -4 -2 70 c-5 132 -1 351 8 475 1 8 1 65 1 125 -1 61 -1 121 0 135 0 14
-2 44 -6 68 -3 24 -3 41 1 39 7 -5 15 331 12 533 -2 120 -2 118 0 185 2 33 -1
80 -5 104 -5 32 -4 42 4 37 7 -4 12 -1 12 8 0 9 -5 16 -11 16 -7 0 -9 10 -5
25 4 14 9 69 12 122 4 83 3 95 -11 90 -18 -8 -19 -5 -1 37 8 19 10 38 6 42 -5
5 -5 27 0 49 6 27 5 42 -2 46 -9 6 -8 12 2 24 9 10 10 19 3 26 -6 6 -7 29 -2
57 4 29 3 52 -4 60 -7 9 -7 16 0 23 12 12 5 61 -8 53 -12 -7 -11 0 2 29 8 18
8 30 -1 48 -10 17 -10 24 -1 27 6 2 9 8 5 13 -3 5 0 9 6 9 7 0 8 6 2 16 -5 8
-6 35 -2 59 5 31 3 42 -4 38 -7 -4 -7 -2 1 8 11 13 18 53 13 74 -1 6 -3 15 -5
20 -1 6 -3 20 -3 33 -3 30 -22 28 -22 -3 0 -14 -4 -25 -10 -25 -5 0 -9 24 -8
53 1 44 2 48 11 30 15 -35 24 -28 24 20 0 23 3 50 8 61 7 15 5 17 -13 12 -24
-8 -34 4 -21 24 7 12 9 11 9 -4 0 -20 0 -20 15 0 17 22 20 95 4 111 -8 8 -8
17 0 31 14 26 14 35 1 27 -15 -9 -12 30 4 70 8 18 10 35 6 37 -6 2 -5 32 1 72
11 77 6 169 -10 174 -5 2 -7 10 -4 18 3 7 8 12 12 10 4 -3 8 31 10 74 1 44 -2
81 -8 84 -5 4 -7 19 -4 34 4 15 7 57 7 94 1 38 5 68 9 68 5 0 6 33 2 73 -3 39
-5 77 -5 82 0 6 2 39 3 75 2 36 -1 73 -6 84 -6 13 -6 16 2 11 16 -10 12 72 -6
107 -7 15 -15 37 -16 50 -4 21 -10 23 -75 26 -59 2 -71 0 -66 -12 3 -7 1 -17
-5 -21 -6 -3 -9 0 -5 8 3 8 1 18 -5 22 -9 5 -17 -54 -12 -87 2 -15 -19 -8 -40
13 -12 12 -19 29 -16 40 3 11 0 19 -6 19 -8 0 -7 3 1 9 18 11 -4 16 -75 20
-50 2 -53 1 -52 -21z m344 -37 c-6 -5 -25 10 -25 20 0 5 6 4 14 -3 8 -7 12
-15 11 -17z m-155 -168 c0 -5 -5 -15 -10 -23 -9 -13 -11 -13 -19 0 -5 8 -7 18
-5 22 6 10 34 11 34 1z m90 -293 c0 -5 -5 -10 -11 -10 -5 0 -7 5 -4 10 3 6 8
10 11 10 2 0 4 -4 4 -10z m-86 -46 c3 -8 2 -12 -4 -9 -6 3 -10 10 -10 16 0 14
7 11 14 -7z m-177 -86 c-3 -7 -5 -2 -5 12 0 14 2 19 5 13 2 -7 2 -19 0 -25z
m279 -3 c-3 -8 -1 -15 5 -15 6 0 7 -5 3 -11 -4 -8 -9 -7 -14 2 -8 12 -3 39 7
39 3 0 3 -7 -1 -15z m74 -132 c0 -26 -16 -12 -18 15 -1 21 0 23 8 12 5 -8 10
-21 10 -27z m-46 -38 c-4 -8 -11 -15 -16 -15 -6 0 -5 6 2 15 7 8 14 15 16 15
2 0 1 -7 -2 -15z m31 -175 c-3 -5 -10 -10 -16 -10 -5 0 -9 5 -9 10 0 6 7 10
16 10 8 0 12 -4 9 -10z m-341 -215 c3 -8 1 -15 -4 -15 -6 0 -10 7 -10 15 0 8
2 15 4 15 2 0 6 -7 10 -15z m126 -21 c0 -8 -4 -14 -10 -14 -5 0 -10 9 -10 21
0 11 5 17 10 14 6 -3 10 -13 10 -21z m200 -89 c0 -8 -4 -15 -9 -15 -13 0 -22
16 -14 24 11 11 23 6 23 -9z m17 -62 c-3 -10 -5 -4 -5 12 0 17 2 24 5 18 2 -7
2 -21 0 -30z m-350 -70 c-3 -10 -5 -4 -5 12 0 17 2 24 5 18 2 -7 2 -21 0 -30z
m333 -22 c0 -5 -7 -11 -15 -15 -15 -5 -20 5 -8 17 9 10 23 9 23 -2z m11 -154
c-10 -9 -11 -8 -5 6 3 10 9 15 12 12 3 -3 0 -11 -7 -18z m-31 -7 c0 -5 -5 -10
-11 -10 -5 0 -7 5 -4 10 3 6 8 10 11 10 2 0 4 -4 4 -10z m27 -55 c-14 -10 -15
-18 -8 -38 6 -15 6 -29 1 -32 -12 -8 -21 10 -14 29 3 9 1 16 -5 16 -6 0 -11 9
-11 21 0 16 4 19 20 14 13 -4 20 -2 20 6 0 7 3 9 7 5 5 -4 0 -13 -10 -21z
m-341 -140 c1 -8 -2 -15 -6 -15 -5 0 -8 9 -7 20 1 21 10 18 13 -5z m59 -179
c12 -17 14 -38 9 -87 -11 -112 -11 -134 -1 -147 7 -9 6 -18 -6 -29 -14 -14
-17 -14 -33 1 -14 14 -15 22 -5 42 6 14 8 30 5 36 -4 6 -1 14 6 18 16 10 21
60 8 77 -5 7 -7 22 -3 34 6 16 4 20 -6 13 -11 -6 -11 -4 0 10 11 13 11 20 3
28 -15 15 -15 28 -2 28 5 0 16 -11 25 -24z m275 -315 c0 -5 -7 -11 -15 -15
-15 -5 -20 5 -8 17 9 10 23 9 23 -2z m-273 -37 c3 -9 2 -24 -4 -33 -7 -10 -7
-25 -1 -41 5 -14 8 -44 5 -67 -4 -35 -1 -43 12 -43 13 -1 11 -5 -6 -19 -13
-11 -23 -29 -23 -40 0 -12 -5 -21 -11 -21 -5 0 -7 4 -4 10 3 5 0 19 -8 31 -11
14 -12 30 -6 57 4 20 4 41 0 47 -10 12 4 55 18 55 14 0 1 32 -18 47 -14 11
-14 14 -1 23 22 14 40 12 47 -6z m203 -172 c0 -4 -9 -8 -19 -8 -11 0 -17 4
-15 8 3 4 12 8 20 8 8 0 14 -4 14 -8z m-280 -6 c0 -3 -4 -8 -10 -11 -5 -3 -10
-1 -10 4 0 6 5 11 10 11 6 0 10 -2 10 -4z m70 -100 c0 -3 -4 -8 -10 -11 -5 -3
-10 -1 -10 4 0 6 5 11 10 11 6 0 10 -2 10 -4z m19 -35 c3 -1 -3 -7 -14 -14
-10 -8 -15 -19 -11 -25 4 -7 -2 -10 -14 -9 -12 1 -19 6 -16 14 3 7 1 13 -4 13
-5 0 -7 6 -4 14 5 13 17 14 63 7z m-70 -74 c21 -1 21 -2 5 -14 -28 -21 -44
-16 -44 15 0 18 3 23 9 14 4 -7 18 -14 30 -15z m321 -188 c0 -5 -2 -9 -4 -9
-2 0 -11 -3 -19 -6 -12 -4 -14 0 -10 15 5 19 33 19 33 0z m-290 -3 c0 -3 -4
-8 -10 -11 -5 -3 -10 -1 -10 4 0 6 5 11 10 11 6 0 10 -2 10 -4z m-30 -16 c0
-5 -4 -10 -9 -10 -6 0 -13 5 -16 10 -3 6 1 10 9 10 9 0 16 -4 16 -10z m37 -57
c-2 -16 -11 -29 -20 -31 -12 -2 -15 1 -11 12 3 9 10 16 15 16 5 0 8 3 8 8 -2
12 1 22 6 22 3 0 4 -12 2 -27z m-72 -33 c3 -5 1 -10 -4 -10 -6 0 -11 5 -11 10
0 6 2 10 4 10 3 0 8 -4 11 -10z m265 -120 c0 -5 -5 -10 -11 -10 -5 0 -7 5 -4
10 3 6 8 10 11 10 2 0 4 -4 4 -10z m80 -100 c0 -5 -4 -10 -10 -10 -5 0 -10 5
-10 10 0 6 5 10 10 10 6 0 10 -4 10 -10z"/>
<path d="M12305 8160 c-3 -5 -3 -11 2 -11 47 -7 63 -6 63 1 0 5 7 7 15 4 8 -4
15 -1 15 5 0 14 -52 10 -62 -4 -5 -6 -8 -5 -8 3 0 14 -16 16 -25 2z"/>
<path d="M9530 7830 c-9 -6 -10 -10 -3 -10 6 0 15 5 18 10 8 12 4 12 -15 0z"/>
<path d="M13235 7830 c-13 -6 -15 -9 -5 -9 8 0 22 4 30 9 18 12 2 12 -25 0z"/>
<path d="M10550 7826 c0 -2 7 -6 15 -10 8 -3 15 -1 15 4 0 6 -7 10 -15 10 -8
0 -15 -2 -15 -4z"/>
<path d="M9798 7813 c7 -3 16 -2 19 1 4 3 -2 6 -13 5 -11 0 -14 -3 -6 -6z"/>
<path d="M13290 7748 c0 -13 5 -30 10 -38 7 -11 10 -5 10 23 0 20 -4 37 -10
37 -5 0 -10 -10 -10 -22z"/>
<path d="M14730 7752 c0 -13 -2 -14 -9 -4 -7 11 -9 11 -14 -1 -8 -22 2 -27 29
-15 28 13 31 23 9 32 -10 3 -15 -1 -15 -12z"/>
<path d="M13392 7700 c0 -19 2 -27 5 -17 2 9 2 25 0 35 -3 9 -5 1 -5 -18z"/>
<path d="M14734 7718 c-5 -7 -9 -43 -9 -79 1 -50 -3 -65 -12 -62 -7 3 -14 -2
-14 -11 -1 -9 -2 -26 -3 -38 -1 -13 4 -29 11 -36 7 -8 10 -19 6 -25 -9 -14
-11 -217 -2 -211 4 2 14 -5 23 -15 16 -17 16 -19 -4 -24 -21 -5 -27 -31 -10
-42 19 -12 10 -33 -19 -48 -24 -12 -33 -12 -61 -1 -51 22 -59 2 -54 -126 2
-58 5 -169 7 -246 2 -92 7 -147 15 -156 6 -8 9 -17 6 -21 -6 -5 59 -27 83 -27
16 0 47 -46 39 -58 -11 -18 -15 -102 -5 -102 6 0 8 -4 5 -9 -4 -5 -2 -11 3
-13 5 -1 12 -18 16 -37 5 -23 4 -31 -3 -27 -11 7 -9 -25 3 -44 4 -6 1 -18 -7
-27 -10 -13 -10 -17 0 -20 6 -3 10 -8 7 -13 -2 -4 -6 -59 -9 -123 -2 -64 -6
-120 -9 -124 -2 -4 -4 -22 -3 -40 1 -26 -3 -32 -19 -31 -11 0 -42 -3 -70 -8
-27 -5 -149 -7 -270 -5 -121 2 -237 4 -257 4 -21 0 -38 3 -38 6 0 3 -52 5
-116 3 -88 -2 -119 -6 -131 -18 -8 -8 -13 -17 -10 -20 3 -3 -3 -14 -14 -25
-25 -25 -24 -61 1 -84 11 -10 20 -15 20 -10 0 4 6 2 14 -4 9 -7 53 -11 122 -9
60 1 159 1 219 1 176 -2 458 5 485 12 14 3 144 8 290 11 146 2 279 6 295 9 17
2 83 4 149 5 149 2 158 9 151 102 -3 35 -10 65 -15 66 -6 2 -7 8 -4 14 4 6 -5
8 -25 4 -17 -3 -45 -9 -61 -12 -18 -3 -28 -10 -23 -17 4 -7 0 -8 -13 -2 -10 5
-37 8 -59 7 -22 -1 -98 -2 -170 -2 -71 -1 -172 -6 -223 -11 -103 -10 -156 -4
-130 15 17 12 19 71 4 95 -5 7 -4 16 1 20 5 3 10 17 10 31 0 14 3 32 6 40 6
12 3 61 -3 80 -1 3 -1 16 0 29 1 13 -2 21 -8 17 -6 -3 -14 -1 -18 5 -4 8 -3 9
4 5 9 -5 12 13 12 63 0 50 -4 71 -12 71 -10 0 -9 3 1 9 10 6 10 10 1 16 -9 6
-9 9 0 15 7 4 12 33 13 68 1 33 5 56 8 50 4 -6 8 -5 11 3 3 8 20 14 44 14 48
1 106 25 99 42 -2 7 1 12 8 10 7 -1 11 9 10 27 -2 27 -1 28 13 10 15 -18 15
-18 8 1 -4 11 -9 32 -12 48 -2 15 -8 27 -13 27 -5 0 -9 10 -8 23 0 21 1 21 9
2 7 -17 9 -15 9 11 1 21 -5 34 -15 38 -13 5 -14 9 -5 20 8 9 8 16 2 20 -7 5
-7 15 -1 32 7 18 7 23 -1 19 -11 -7 -6 106 6 125 3 5 0 12 -6 16 -8 4 -9 3 -5
-4 4 -7 2 -12 -4 -12 -8 0 -10 9 -6 25 5 18 2 27 -8 31 -8 3 -12 12 -9 20 3 8
-1 14 -8 15 -8 0 -25 3 -39 6 -14 3 -49 6 -78 7 -52 0 -53 1 -47 27 4 15 1 30
-4 34 -6 3 -11 1 -11 -6 0 -8 -4 -8 -15 1 -19 15 -19 30 -2 30 8 0 14 7 14 15
0 8 -5 11 -10 8 -5 -3 -7 0 -5 8 3 8 11 13 17 12 15 -4 14 24 -1 29 -6 2 -12
15 -13 28 -2 22 -1 22 13 4 14 -18 14 -18 8 -1 -3 10 -6 25 -6 32 0 8 -9 17
-20 20 -11 3 -20 10 -20 15 0 5 8 7 18 3 14 -5 15 -3 5 8 -18 18 -16 30 2 23
10 -4 14 -1 11 7 -13 42 -16 70 -6 64 12 -7 8 31 -5 42 -4 5 -5 3 -2 -3 4 -7
0 -14 -8 -17 -10 -4 -12 -1 -8 10 4 10 2 14 -5 9 -15 -9 -27 13 -13 27 8 8 11
8 11 -1 0 -7 4 -12 9 -12 15 0 18 73 5 122 -6 26 -9 50 -5 54 3 4 0 4 -6 0 -7
-4 -13 -2 -13 3 0 6 5 11 10 11 6 0 10 5 10 10 0 14 -16 12 -26 -2z m19 -97
c2 -10 1 -25 -4 -32 -6 -10 -9 -4 -9 19 0 36 5 42 13 13z m17 -371 c0 -5 -7
-7 -15 -4 -8 4 -15 8 -15 10 0 2 7 4 15 4 8 0 15 -4 15 -10z m15 -860 c3 -6
-1 -7 -9 -4 -18 7 -21 14 -7 14 6 0 13 -4 16 -10z m682 -626 c-3 -3 -12 -4
-19 -1 -8 3 -5 6 6 6 11 1 17 -2 13 -5z"/>
<path d="M14694 7700 c0 -13 4 -16 10 -10 7 7 7 13 0 20 -6 6 -10 3 -10 -10z"/>
<path d="M2691 7694 c0 -11 3 -14 6 -6 3 7 2 16 -1 19 -3 4 -6 -2 -5 -13z"/>
<path d="M9279 7680 c-2 -56 2 -73 19 -87 22 -16 37 -17 25 0 -6 6 -8 24 -6
40 2 18 -1 29 -12 33 -8 3 -13 9 -11 13 3 4 1 13 -5 21 -6 11 -9 5 -10 -20z"/>
<path d="M13359 7698 c-17 -14 -35 -53 -20 -43 21 13 40 -26 40 -81 -1 -30 2
-58 5 -61 8 -8 6 100 -2 155 -6 38 -9 41 -23 30z"/>
<path d="M14140 7689 c0 -5 5 -7 10 -4 6 3 10 8 10 11 0 2 -4 4 -10 4 -5 0
-10 -5 -10 -11z"/>
<path d="M15264 7650 c0 -11 4 -20 8 -20 4 0 8 9 8 20 0 11 -4 20 -8 20 -4 0
-8 -9 -8 -20z"/>
<path d="M10021 7633 c-1 -14 9 -29 24 -39 30 -20 36 -16 28 14 -6 26 -23 30
-23 5 0 -21 -16 -6 -23 22 -4 18 -5 18 -6 -2z"/>
<path d="M12671 7634 c0 -11 3 -14 6 -6 3 7 2 16 -1 19 -3 4 -6 -2 -5 -13z"/>
<path d="M13350 7628 c0 -11 -5 -15 -15 -12 -14 6 -21 -12 -16 -40 1 -5 -5 -6
-13 -3 -22 9 -40 -17 -22 -32 10 -9 16 -8 26 4 19 23 29 18 17 -10 -7 -14 -18
-25 -24 -25 -11 0 -17 -26 -16 -67 1 -7 -3 -13 -7 -13 -13 0 -5 -40 10 -50 8
-5 11 -13 6 -17 -5 -4 -11 -2 -13 5 -3 6 -9 9 -14 6 -6 -3 -5 -11 2 -20 6 -8
7 -14 2 -14 -14 0 -8 -52 8 -64 9 -6 18 -20 22 -31 7 -20 7 -20 -8 -1 -16 21
-18 17 -15 -27 1 -15 -4 -35 -10 -43 -10 -11 -9 -14 3 -14 10 0 13 -6 10 -20
-3 -11 -9 -17 -14 -14 -5 3 -9 -2 -9 -10 0 -13 -13 -16 -67 -15 -50 0 -63 3
-48 10 15 6 11 7 -15 3 -38 -7 -48 -17 -45 -42 5 -39 18 -81 24 -78 9 6 12
-82 7 -196 -1 -32 1 -58 4 -58 4 0 1 -33 -5 -74 -9 -59 -9 -81 1 -105 17 -39
67 -64 126 -62 35 1 49 -3 57 -16 6 -11 11 -13 11 -5 0 7 5 10 10 7 6 -4 8
-10 5 -15 -10 -17 40 4 58 23 14 17 32 21 90 23 91 2 89 2 82 14 -4 7 3 7 19
0 25 -9 30 -6 27 13 -1 5 3 6 8 2 19 -11 31 30 15 53 -14 20 -13 21 2 15 15
-6 16 -1 11 35 -5 25 -3 42 4 44 16 5 24 204 9 223 -9 10 -9 15 -1 15 6 0 11
5 11 11 0 5 -4 7 -10 4 -16 -10 -12 7 7 27 9 10 11 18 5 18 -7 0 -9 7 -5 17 5
11 3 14 -6 8 -10 -6 -11 -2 -6 15 5 15 4 20 -4 16 -6 -4 -11 -2 -11 4 0 7 -7
9 -17 6 -10 -4 -14 -4 -10 0 12 12 -64 33 -125 35 -46 2 -58 5 -58 18 0 9 -12
25 -27 35 -16 9 -20 15 -10 12 17 -5 23 5 10 17 -11 11 -11 61 0 75 7 9 7 16
0 20 -14 10 -22 61 -15 97 l6 30 7 -25 c5 -16 7 -2 5 37 -1 35 -6 66 -9 70 -4
3 -7 1 -7 -6 0 -8 -5 -7 -16 4 -13 12 -14 19 -4 30 10 12 10 15 0 15 -8 0 -10
8 -6 23 15 49 16 69 7 85 -10 16 -10 16 -11 0z m-1 -175 c1 -8 -6 -7 -18 5
-20 18 -22 33 -6 44 9 7 22 -19 24 -49z m31 -28 c0 -8 -4 -15 -8 -15 -5 0 -9
7 -9 15 0 8 4 15 9 15 4 0 8 -7 8 -15z m-80 -120 c0 -8 -4 -15 -10 -15 -5 0
-10 7 -10 15 0 8 5 15 10 15 6 0 10 -7 10 -15z m10 -116 c0 -5 -4 -9 -10 -9
-5 0 -10 7 -10 16 0 8 5 12 10 9 6 -3 10 -10 10 -16z m340 -304 c0 -8 -4 -15
-10 -15 -5 0 -7 7 -4 15 4 8 8 15 10 15 2 0 4 -7 4 -15z m-524 -283 c-17 -16
-18 -16 -5 5 7 12 15 20 18 17 3 -2 -3 -12 -13 -22z"/>
<path d="M2688 7582 c-3 -9 -2 -26 2 -37 6 -15 8 -10 8 18 0 40 -3 47 -10 19z"/>
<path d="M9341 7574 c0 -11 3 -14 6 -6 3 7 2 16 -1 19 -3 4 -6 -2 -5 -13z"/>
<path d="M15285 7550 c3 -5 8 -10 11 -10 2 0 4 5 4 10 0 6 -5 10 -11 10 -5 0
-7 -4 -4 -10z"/>
<path d="M10092 7525 c0 -16 2 -22 5 -12 2 9 2 23 0 30 -3 6 -5 -1 -5 -18z"/>
<path d="M15222 7538 c-11 -15 10 -42 24 -30 5 4 3 0 -3 -8 -6 -8 -9 -23 -8
-32 2 -10 -1 -18 -6 -18 -6 0 -8 -27 -7 -60 3 -63 5 -65 65 -63 7 1 10 -4 7
-9 -3 -5 -12 -7 -20 -4 -32 12 -41 -4 -39 -70 2 -35 8 -70 15 -78 9 -12 5 -16
-27 -22 -21 -5 -41 -7 -45 -6 -25 7 -32 -94 -8 -123 8 -10 8 -19 1 -33 -6 -11
-8 -22 -5 -25 3 -3 7 -38 9 -77 2 -39 8 -76 13 -83 6 -7 7 -18 3 -25 -4 -7 -6
-38 -4 -70 2 -31 5 -73 6 -92 2 -28 9 -38 35 -51 56 -29 57 -31 57 -132 0 -54
4 -93 9 -89 5 3 5 -1 0 -9 -5 -8 -7 -21 -6 -31 2 -9 -2 -19 -7 -23 -12 -7 6
-45 27 -58 10 -7 8 -14 -10 -31 -20 -20 -38 -24 -123 -30 -55 -4 -101 -11
-103 -16 -2 -6 -9 -10 -16 -10 -30 0 -66 -41 -66 -75 0 -58 33 -68 170 -54 68
7 256 19 363 23 15 0 18 9 16 56 -3 87 -10 98 -61 96 -90 -5 -99 -6 -94 -14 3
-5 -1 -9 -9 -9 -8 0 -12 4 -9 8 2 4 -5 10 -16 14 -14 5 -20 15 -20 38 0 18 -2
56 -5 85 -4 44 -3 52 11 52 14 0 14 3 4 15 -10 12 -16 13 -26 4 -11 -9 -14 -5
-14 25 0 20 5 36 11 36 6 0 9 6 6 13 -3 8 -1 20 4 28 6 10 9 2 7 -23 -1 -21 1
-40 5 -44 4 -4 7 14 7 39 0 26 -4 47 -9 47 -5 0 -7 9 -4 19 7 28 64 52 103 45
22 -5 35 -3 41 7 8 12 11 12 19 -1 9 -14 6 154 -4 205 -2 11 -7 65 -10 120 -4
55 -9 122 -12 148 -3 27 -7 62 -8 78 -3 37 -13 46 -36 31 -12 -7 -28 -9 -42
-3 -13 4 -28 6 -35 4 -18 -6 -25 14 -13 37 8 14 8 20 0 20 -6 0 -8 5 -5 10 3
6 1 10 -6 10 -10 0 -10 3 -1 12 7 7 12 17 12 23 0 5 -5 3 -10 -5 -14 -22 -13
5 1 32 8 15 8 19 0 14 -7 -4 -11 1 -11 12 0 11 -6 25 -14 31 -18 15 -3 88 22
108 16 12 16 13 -1 7 -10 -4 -17 -3 -16 2 1 5 1 18 0 29 -1 17 -3 18 -12 5 -8
-12 -9 -10 -4 8 9 33 -23 58 -42 33 -12 -15 -13 -15 -7 2 7 20 1 22 -14 5z
m58 -80 c0 -4 -4 -8 -9 -8 -6 0 -12 4 -15 8 -3 5 1 9 9 9 8 0 15 -4 15 -9z"/>
<path d="M10040 7530 c-13 -8 -13 -10 2 -10 9 0 20 5 23 10 8 13 -5 13 -25 0z"/>
<path d="M10091 7454 c0 -11 3 -14 6 -6 3 7 2 16 -1 19 -3 4 -6 -2 -5 -13z"/>
<path d="M9257 7418 c-4 -12 -4 -24 -2 -27 3 -2 5 1 5 8 0 7 5 9 10 6 6 -3 10
1 10 9 0 25 -17 27 -23 4z"/>
<path d="M13391 7324 c0 -11 3 -14 6 -6 3 7 2 16 -1 19 -3 4 -6 -2 -5 -13z"/>
<path d="M9992 7185 c0 -16 2 -22 5 -12 2 9 2 23 0 30 -3 6 -5 -1 -5 -18z"/>
<path d="M1814 7132 c-15 -11 -26 -132 -11 -132 4 0 3 -9 -3 -19 -15 -29 -13
-51 5 -45 17 7 21 -11 5 -21 -5 -3 -10 -21 -10 -39 0 -17 -5 -37 -12 -44 -15
-15 1 -34 33 -39 20 -3 21 0 17 42 -3 25 -2 45 3 45 5 0 9 7 9 15 0 8 -4 15
-10 15 -6 0 -6 9 0 26 6 15 6 32 1 42 -4 9 -6 23 -4 30 3 6 0 12 -6 12 -15 0
-14 27 1 36 7 5 8 2 3 -7 -5 -8 -1 -7 10 3 14 13 16 20 7 31 -7 8 -9 17 -5 20
3 4 1 7 -6 7 -7 0 -10 4 -6 9 7 12 -8 22 -21 13z"/>
<path d="M11475 7070 c3 -5 8 -10 11 -10 2 0 4 5 4 10 0 6 -5 10 -11 10 -5 0
-7 -4 -4 -10z"/>
<path d="M12890 7004 c0 -8 5 -12 10 -9 6 4 8 11 5 16 -9 14 -15 11 -15 -7z"/>
<path d="M10361 6894 c0 -11 3 -14 6 -6 3 7 2 16 -1 19 -3 4 -6 -2 -5 -13z"/>
<path d="M6770 6701 c0 -12 -5 -21 -11 -21 -5 0 -7 5 -4 10 9 14 -19 12 -33
-2 -7 -7 -12 -28 -12 -47 0 -28 3 -33 11 -21 9 12 10 10 6 -9 -4 -17 -1 -25
14 -28 11 -3 18 -11 15 -19 -11 -28 18 -70 72 -104 30 -19 75 -48 101 -65 25
-16 59 -36 74 -44 15 -8 27 -20 27 -28 0 -14 -4 -13 -355 4 -264 13 -765 8
-850 -9 -27 -5 -79 -11 -115 -13 -121 -7 -205 -15 -263 -26 -72 -13 -107 -17
-177 -24 -75 -8 -233 -49 -223 -58 4 -5 -1 -5 -11 -1 -13 5 -17 2 -14 -12 2
-13 -2 -18 -14 -16 -15 2 -18 -5 -18 -36 0 -47 6 -55 34 -40 17 9 19 8 9 -3
-22 -23 -14 -28 17 -12 18 9 27 19 23 26 -4 7 1 6 10 -2 14 -11 20 -11 32 -1
8 7 15 9 15 6 0 -4 10 -2 21 5 15 8 19 8 15 0 -4 -7 1 -11 13 -11 12 0 21 5
21 11 0 8 4 8 14 0 10 -8 21 -9 42 -1 16 6 30 11 32 11 1 -1 3 -1 5 0 1 0 18
2 37 4 128 10 187 17 204 22 57 17 347 26 801 25 215 -1 446 -2 515 -2 115 0
170 -10 170 -30 0 -8 -113 -97 -210 -166 -126 -89 -151 -114 -146 -146 5 -32
20 -54 48 -69 14 -8 26 -5 48 11 17 12 27 26 24 32 -5 7 -2 8 6 3 7 -5 20 2
34 16 11 13 34 31 49 39 16 8 33 22 38 32 5 10 14 18 19 18 15 0 140 82 140
92 0 5 4 7 8 4 4 -2 29 15 54 39 25 23 56 46 69 50 12 4 31 15 41 25 11 10 32
20 48 24 16 3 34 14 40 25 8 17 8 19 -4 15 -13 -5 -13 -2 -3 20 7 14 14 21 15
16 5 -14 22 -2 22 16 0 8 -4 12 -10 9 -6 -3 -7 1 -4 10 9 23 -16 75 -36 75
-21 0 -112 42 -158 73 -130 87 -322 257 -322 284 0 10 -6 12 -20 8 -13 -4 -20
-2 -18 5 2 7 -3 15 -9 17 -8 3 -13 -4 -13 -16z m-33 -43 c-3 -8 -6 -5 -6 6 -1
11 2 17 5 13 3 -3 4 -12 1 -19z"/>
<path d="M13383 6445 c0 -22 2 -30 4 -17 2 12 2 30 0 40 -3 9 -5 -1 -4 -23z"/>
<path d="M13328 6453 c-27 -4 -35 -13 -22 -25 3 -3 18 1 35 9 27 13 39 25 22
22 -5 -1 -20 -4 -35 -6z"/>
<path d="M13305 6383 c0 -33 12 -49 35 -49 16 0 18 9 11 51 -1 6 -9 1 -17 -10
-15 -20 -16 -20 -12 4 2 13 -2 26 -7 28 -6 2 -11 -9 -10 -24z"/>
<path d="M13310 6314 c0 -4 8 -13 18 -20 16 -13 16 -13 0 -14 -11 0 -18 -8
-18 -20 0 -25 12 -25 34 -1 16 18 12 56 -5 45 -5 -3 -9 0 -9 5 0 6 -4 11 -10
11 -5 0 -10 -3 -10 -6z"/>
<path d="M13380 6279 c0 -11 4 -18 10 -14 5 3 7 12 3 20 -7 21 -13 19 -13 -6z"/>
<path d="M13380 6220 c6 -11 13 -20 16 -20 2 0 0 9 -6 20 -6 11 -13 20 -16 20
-2 0 0 -9 6 -20z"/>
<path d="M10050 6184 c0 -8 5 -12 10 -9 6 4 8 11 5 16 -9 14 -15 11 -15 -7z"/>
<path d="M13200 5844 c-53 -13 -135 -15 -464 -15 -95 1 -154 -3 -163 -10 -8
-7 -13 -8 -13 -1 0 6 -153 10 -437 10 -241 1 -649 3 -907 5 -341 3 -473 1
-481 -7 -6 -6 -16 -27 -22 -48 -10 -34 -9 -37 21 -60 31 -23 32 -23 291 -21
143 1 285 2 315 3 40 0 51 3 40 10 -19 12 -8 13 24 0 17 -6 35 -6 52 0 14 6
23 6 20 1 -3 -4 45 -9 107 -9 61 0 158 -3 213 -7 70 -5 104 -4 108 4 4 6 12
11 17 11 6 0 7 -5 4 -10 -4 -7 10 -10 42 -9 26 1 84 1 128 1 69 -2 144 1 208
6 10 1 15 7 12 12 -9 15 4 12 21 -5 19 -19 59 -21 48 -2 -5 8 -2 8 9 -2 11 -8
17 -9 17 -2 0 7 8 7 27 -2 21 -9 27 -9 31 1 2 8 9 9 22 2 22 -12 53 -2 43 14
-5 8 -3 8 8 0 21 -17 59 -24 91 -17 21 4 26 8 16 14 -9 6 -9 9 -1 9 6 0 15 -5
18 -10 4 -6 10 -8 15 -5 5 3 11 1 14 -4 8 -13 209 -2 219 12 6 9 10 9 14 0 3
-8 23 -13 52 -13 26 0 53 6 60 13 11 10 13 10 7 0 -9 -16 60 -18 69 -3 4 6 10
8 14 5 25 -15 168 -3 186 16 19 20 31 89 15 89 -6 0 -23 9 -37 20 -14 11 -28
20 -32 19 -3 -1 -31 -7 -61 -15z"/>
<path d="M9298 5812 l-148 -3 0 -84 c0 -71 3 -84 18 -88 9 -3 94 -4 187 -3 94
2 174 1 180 -2 5 -3 48 -6 95 -7 47 -1 91 -4 97 -8 18 -11 205 23 225 41 20
17 15 61 -9 75 -7 4 -13 18 -13 31 0 48 -17 51 -259 51 -124 0 -292 -1 -373
-3z"/>
<path d="M13765 5619 c-4 -5 -12 -8 -18 -7 -7 1 -28 -3 -47 -10 -19 -6 -55
-14 -80 -17 -25 -2 -54 -6 -65 -8 -21 -5 -145 -12 -395 -24 -167 -7 -152 -8
-252 2 -60 6 -81 5 -94 -6 -13 -10 -18 -11 -21 -2 -2 7 -11 9 -19 6 -7 -3 -11
-10 -7 -17 4 -6 -1 -4 -11 4 -18 14 -81 15 -234 5 -30 -2 -62 1 -71 7 -14 8
-24 7 -44 -7 -26 -17 -39 -44 -14 -29 9 6 9 5 0 -7 -13 -16 -7 -59 9 -59 5 0
7 -13 3 -30 -8 -34 3 -60 16 -39 4 7 11 10 15 6 4 -3 1 -14 -6 -22 -11 -13
-10 -18 6 -29 10 -8 23 -12 29 -9 5 3 4 0 -3 -8 -11 -12 -17 -10 -38 14 -13
15 -24 24 -24 18 0 -17 54 -61 75 -61 14 0 16 3 7 8 -9 6 -6 11 11 19 18 9 28
8 37 0 10 -9 11 -9 6 1 -5 8 0 12 16 12 19 0 20 -2 8 -11 -12 -8 -11 -9 5 -5
11 2 40 8 65 12 36 5 41 8 25 15 -19 7 -19 8 3 8 12 1 22 -4 22 -10 0 -6 9 -8
23 -3 12 4 33 7 47 6 19 -1 21 0 10 8 -9 6 6 7 44 4 39 -3 62 -1 66 7 6 8 13
8 28 0 28 -15 53 -15 32 0 -12 8 -9 9 10 4 46 -12 70 -13 70 -4 0 12 90 1 104
-12 15 -14 26 -11 27 9 0 10 3 12 6 5 2 -7 12 -13 21 -13 15 0 15 2 2 10 -13
8 -13 10 2 10 9 0 19 -4 22 -9 8 -12 77 -10 94 2 8 6 12 6 12 -2 0 -6 12 -11
28 -10 15 0 68 -2 117 -5 59 -4 85 -2 75 4 -12 8 -11 10 8 10 12 0 22 -5 22
-11 0 -8 12 -10 34 -6 22 4 36 1 39 -6 3 -9 8 -9 18 1 15 14 33 16 24 3 -3 -6
10 -7 32 -4 21 3 39 10 41 14 2 4 10 5 18 2 7 -3 11 -10 7 -17 -4 -7 -1 -7 9
1 8 7 19 9 23 5 5 -4 5 -1 1 6 -7 11 6 16 41 15 14 -1 26 56 15 71 -9 13 -8
31 3 69 4 16 3 32 -4 41 -6 7 -8 16 -4 19 3 4 -1 7 -10 7 -8 0 -17 10 -19 21
-3 24 -43 45 -53 28z m-170 -259 c3 -5 1 -10 -4 -10 -6 0 -11 5 -11 10 0 6 2
10 4 10 3 0 8 -4 11 -10z m-965 -15 c0 -10 -10 -15 -27 -15 -26 0 -26 1 -7 15
25 19 34 19 34 0z"/>
<path d="M15449 5566 c-2 -2 -137 -7 -299 -10 -162 -4 -333 -9 -380 -12 -72
-4 -621 -16 -686 -14 -17 0 -20 -6 -19 -27 4 -75 83 -129 163 -112 17 3 32 3
32 -2 0 -5 14 -9 30 -9 17 0 30 5 30 13 0 8 3 8 9 -2 8 -12 12 -12 25 -2 9 8
16 10 16 5 0 -5 32 -10 70 -11 39 -1 68 2 66 6 -3 4 11 5 30 3 21 -3 34 0 34
7 0 6 10 11 23 11 16 0 19 -3 8 -9 -9 -6 4 -8 34 -6 26 2 50 7 54 12 5 6 174
13 334 13 10 0 15 5 12 10 -3 6 -1 10 4 10 6 0 11 -4 11 -10 0 -12 188 -11
196 1 3 5 10 7 15 3 9 -5 82 -7 257 -5 51 1 70 14 35 25 -10 3 -6 4 9 2 27 -3
27 -3 21 48 -3 28 -7 54 -10 59 -4 7 -116 10 -124 3z"/>
<path d="M10866 5512 c-2 -1 -151 -3 -332 -3 -185 0 -336 -5 -346 -10 -11 -6
-18 -6 -18 0 0 7 -268 7 -520 -1 -14 -1 -61 0 -105 1 -158 5 -217 2 -209 -10
5 -9 -1 -10 -22 -4 -16 4 -47 7 -69 6 -22 -1 -52 -2 -66 -3 -26 0 -27 -2 -23
-52 3 -28 5 -67 5 -87 -1 -36 0 -36 47 -42 96 -11 364 -8 378 4 9 7 14 8 14 1
0 -7 58 -11 168 -12 182 -2 173 -2 412 5 91 3 296 8 455 11 587 10 906 19
1080 29 75 4 198 34 216 52 7 7 14 30 16 52 8 64 3 65 -407 64 -195 0 -384 -1
-420 -2 -36 -1 -107 -1 -158 1 -52 2 -95 2 -96 0z m-696 -82 c0 -5 -5 -10 -11
-10 -5 0 -7 5 -4 10 3 6 8 10 11 10 2 0 4 -4 4 -10z m527 -96 c-3 -3 -12 -4
-19 -1 -8 3 -5 6 6 6 11 1 17 -2 13 -5z"/>
<path d="M15433 5229 c-29 -4 -211 -6 -405 -4 -229 2 -360 -1 -373 -8 -27 -14
-44 -38 -45 -63 0 -23 33 -67 44 -57 3 3 6 1 6 -6 0 -9 12 -10 43 -6 23 3 157
8 297 9 408 6 392 5 384 17 -3 6 5 4 19 -6 18 -12 27 -13 32 -4 5 7 10 8 14 1
4 -7 20 -8 46 -2 22 5 58 10 80 12 l39 4 -3 54 c-3 64 -11 76 -39 61 -25 -13
-43 -14 -22 -1 16 10 -28 9 -117 -1z"/>
<path d="M12374 5200 c-3 -3 -45 -8 -92 -13 -223 -19 -444 -26 -802 -24 -135
1 -302 1 -372 2 -71 0 -128 3 -128 7 0 3 -9 4 -20 1 -11 -3 -20 -9 -20 -14 0
-5 -5 -9 -11 -9 -5 0 -7 5 -3 12 5 8 -3 9 -32 4 -61 -12 -265 -22 -271 -13 -2
4 -9 7 -14 7 -6 0 -7 -4 -4 -10 3 -5 -2 -10 -11 -10 -10 0 -14 -3 -11 -7 4 -3
2 -12 -4 -20 -12 -14 6 -51 42 -86 10 -9 16 -24 13 -32 -4 -9 1 -17 12 -21 11
-3 30 -11 44 -17 14 -6 30 -9 35 -7 17 5 86 10 218 14 71 3 131 7 134 10 4 3
12 1 20 -5 14 -12 75 -14 278 -9 62 1 122 -3 138 -9 15 -6 42 -11 60 -11 18 1
52 -2 77 -5 25 -3 79 -7 120 -9 41 -2 80 -4 85 -6 19 -5 36 0 31 9 -3 5 1 11
9 14 8 4 12 1 9 -6 -3 -8 16 -13 63 -15 48 -1 64 1 53 8 -9 6 -10 10 -3 10 6
0 15 -5 18 -11 9 -14 262 -5 357 13 50 9 70 17 74 30 3 10 9 16 14 13 12 -8
24 34 22 77 -1 43 -18 79 -34 75 -6 -1 -13 5 -15 13 -4 13 -3 13 6 0 8 -11 11
-11 11 -2 0 7 -14 18 -31 24 -16 6 -28 16 -26 22 5 12 -29 17 -39 6z"/>
<path d="M13977 5204 c-10 -10 -205 -16 -597 -19 -685 -4 -621 -2 -627 -25 -3
-11 -12 -20 -19 -20 -19 0 -18 -29 2 -37 9 -3 15 -16 14 -32 -3 -45 -1 -51 21
-51 15 0 19 -5 15 -15 -6 -16 19 -22 28 -6 3 4 17 6 31 3 14 -2 31 0 38 5 6 6
36 11 66 12 29 1 58 4 62 7 5 3 9 0 9 -5 0 -15 19 -14 50 2 21 11 27 11 35 -1
13 -17 46 -5 38 14 -7 18 2 18 21 -2 22 -22 257 -39 319 -23 15 4 25 4 22 -1
-3 -5 21 -9 52 -9 32 -1 72 -3 88 -5 17 -2 73 -5 125 -7 52 -1 107 -5 123 -10
16 -4 39 -4 51 1 13 4 29 4 36 0 9 -5 20 -4 27 2 9 7 13 7 13 -2 0 -10 3 -10
15 0 9 7 15 29 15 53 0 22 7 48 15 57 12 13 13 22 3 48 -7 18 -16 32 -20 32
-4 0 -8 9 -8 19 0 15 -7 19 -30 19 -16 -1 -31 -2 -33 -4z m-757 -168 c0 -2 -7
-7 -16 -10 -8 -3 -12 -2 -9 4 6 10 25 14 25 6z m124 -4 c2 -4 -4 -8 -14 -8
-10 0 -16 4 -14 8 3 4 9 8 14 8 5 0 11 -4 14 -8z m163 2 c-3 -3 -12 -4 -19 -1
-8 3 -5 6 6 6 11 1 17 -2 13 -5z"/>
<path d="M9694 5169 c-67 -4 -127 -10 -133 -13 -16 -10 -290 -15 -322 -6 -17
5 -31 4 -38 -3 -8 -8 -11 -6 -11 6 0 11 -5 14 -15 10 -13 -4 -15 -20 -13 -76
l3 -71 55 -2 c87 -2 155 -2 310 2 375 8 657 10 680 4 30 -7 72 10 65 27 -2 7
0 15 6 19 7 4 5 12 -3 22 -8 10 -22 33 -32 52 l-18 35 -206 0 c-114 0 -262 -3
-328 -6z m71 -19 c-3 -5 -10 -10 -16 -10 -5 0 -9 5 -9 10 0 6 7 10 16 10 8 0
12 -4 9 -10z m330 -8 c-3 -3 -11 0 -18 7 -9 10 -8 11 6 5 10 -3 15 -9 12 -12z"/>
<path d="M14967 4894 c-11 -11 -312 -19 -1072 -29 -230 -3 -393 -9 -399 -15
-5 -5 -11 -27 -13 -49 -4 -39 14 -60 39 -44 6 3 8 1 4 -5 -8 -13 28 -25 53
-17 15 5 23 -2 36 -29 10 -20 14 -44 10 -55 -3 -12 -2 -21 3 -21 5 0 9 -12 10
-27 0 -16 0 -39 1 -52 l1 -23 25 23 c16 16 24 34 24 54 0 17 -3 24 -6 18 -2
-7 -8 -13 -12 -13 -9 0 -8 46 2 56 4 4 7 12 7 18 0 6 -5 4 -11 -4 -8 -12 -9
-10 -7 10 4 32 40 50 102 50 36 0 47 3 43 13 -5 13 4 14 48 7 6 -1 2 -4 -7 -8
-10 -4 60 -5 155 -3 115 2 174 7 179 15 5 7 8 7 8 0 0 -14 79 -17 96 -3 11 9
14 9 14 0 0 -8 8 -10 21 -6 11 4 41 7 67 7 26 0 51 3 57 6 17 11 35 11 28 -1
-4 -6 0 -8 10 -4 26 10 66 -10 79 -38 9 -19 14 -22 25 -14 19 16 16 30 -4 22
-11 -4 -7 3 8 15 24 20 38 21 293 23 265 2 374 11 388 33 6 8 8 8 8 -1 0 -6
15 -15 33 -18 53 -12 73 -43 76 -117 1 -10 6 -15 15 -12 14 6 13 52 -3 83 -14
25 9 67 35 63 65 -10 197 -11 184 -2 -13 9 -7 14 13 11 4 0 7 17 7 39 0 48
-12 55 -73 43 -23 -6 -52 -6 -62 -3 -11 4 -34 2 -51 -5 -17 -7 -36 -10 -42 -6
-5 3 -48 5 -94 4 -45 -2 -87 -2 -93 -2 -5 1 -59 3 -118 4 -59 2 -114 5 -121 8
-8 3 -16 3 -19 1z m-1287 -314 c0 -5 -4 -10 -10 -10 -5 0 -10 5 -10 10 0 6 5
10 10 10 6 0 10 -4 10 -10z"/>
<path d="M11129 4878 c-1 -7 -1 -16 0 -20 0 -4 -5 -5 -12 -2 -9 3 -13 -3 -12
-18 1 -13 0 -27 -4 -33 -11 -20 -9 -40 7 -67 16 -27 20 -28 97 -30 44 -1 92
-2 107 -1 19 1 29 -5 33 -18 4 -11 11 -17 16 -14 11 8 11 3 -1 -29 -8 -21 -7
-26 6 -26 8 0 23 -7 31 -16 14 -14 14 -17 1 -31 -11 -10 -18 -11 -22 -4 -4 6
-2 11 3 11 16 0 13 17 -2 23 -10 4 -14 -5 -15 -29 -1 -19 2 -34 6 -34 7 0 10
-60 11 -175 0 -27 6 -61 13 -74 10 -19 10 -25 1 -28 -8 -3 -13 -22 -13 -44 l0
-40 -87 1 c-49 1 -90 1 -93 0 -3 0 -77 -2 -165 -4 -145 -3 -274 9 -292 27 -10
10 -31 150 -25 166 4 10 1 13 -11 8 -9 -3 -17 -2 -17 3 0 6 5 10 11 10 7 0 9
10 4 28 -7 26 -11 66 -20 166 -2 27 -6 65 -10 85 l-6 36 82 0 c65 0 85 3 103
18 30 27 28 57 -5 87 -26 22 -37 25 -107 24 -42 -1 -166 -2 -274 -3 -145 -2
-198 -5 -198 -14 0 -8 -3 -8 -9 1 -5 8 -17 11 -34 7 -31 -8 -146 -12 -142 -5
2 3 -181 5 -406 5 -225 0 -409 -4 -409 -8 0 -4 -10 -3 -21 4 -12 6 -19 7 -15
1 3 -5 -1 -13 -10 -16 -8 -3 -12 -2 -9 4 8 12 -15 13 -34 1 -15 -9 -20 -95 -7
-109 4 -4 45 -7 91 -7 l83 0 6 -29 c3 -15 3 -32 0 -37 -3 -5 -1 -9 4 -9 10 0
31 -78 36 -135 2 -22 6 -51 9 -65 3 -14 9 -71 12 -127 l6 -103 -24 0 c-13 0
-27 -3 -31 -7 -4 -4 -49 -8 -99 -8 l-92 0 0 -120 c0 -66 1 -149 3 -185 l4 -65
181 2 c100 1 247 4 327 7 80 3 162 5 183 6 l37 0 0 85 c0 82 -1 85 -25 91 -29
7 -28 29 1 29 17 0 19 8 19 84 0 45 -3 87 -6 92 -3 6 -15 6 -31 0 -14 -5 -28
-8 -30 -5 -3 2 -77 4 -165 5 l-160 0 -7 83 c-8 112 -16 147 -30 139 -6 -4 -5
1 2 10 15 17 3 79 -37 201 -10 31 -16 58 -14 60 4 4 135 7 386 10 33 1 46 5
42 14 -2 6 3 12 11 12 9 0 12 -5 8 -12 -5 -8 0 -9 14 -6 12 4 22 3 22 0 0 -6
165 -7 290 -2 19 1 114 1 212 0 172 -1 176 -2 182 -23 3 -12 6 -34 6 -48 0
-14 6 -34 14 -45 10 -13 13 -35 10 -72 -3 -31 -1 -52 4 -48 5 3 9 -1 9 -9 0
-8 -4 -12 -8 -10 -4 3 -3 -10 1 -29 4 -19 5 -47 2 -62 -3 -17 -1 -25 5 -21 6
4 9 -4 6 -21 -2 -15 -4 -48 -4 -74 l1 -46 -95 1 c-58 1 -98 -2 -105 -9 -15
-15 11 -278 30 -314 5 -9 4 -23 -1 -33 -12 -20 -21 -19 156 -22 73 -1 135 2
142 7 7 6 21 7 30 3 10 -5 45 -9 78 -10 33 -1 107 -4 165 -8 267 -19 929 -34
918 -22 -4 4 -37 9 -75 12 -37 2 -84 6 -103 8 -19 2 -38 4 -42 4 -5 1 -8 4 -8
9 0 4 28 6 62 5 35 -1 70 1 78 4 24 9 50 10 44 1 -3 -4 4 -8 16 -8 22 0 22 1
14 158 -4 86 -7 165 -6 176 1 18 -9 18 -216 14 -119 -2 -224 -2 -233 0 -15 3
-18 26 -24 158 -7 154 -7 154 -31 154 -13 0 -24 5 -24 11 0 6 -7 9 -15 5 -20
-7 -19 4 3 21 9 8 11 11 3 7 -9 -5 -12 -3 -7 4 8 14 41 0 49 -20 3 -7 6 24 6
69 1 56 -3 83 -11 86 -9 3 -10 8 -3 15 12 13 54 15 143 8 36 -3 62 -1 62 4 0
6 4 10 10 10 5 0 7 -6 4 -14 -4 -11 0 -13 18 -9 13 4 27 11 31 17 6 8 10 7 14
-1 2 -7 19 -13 36 -12 28 0 29 2 12 10 -17 8 -16 8 5 3 43 -12 134 -12 149 0
12 9 13 8 7 -2 -6 -10 -3 -13 10 -11 11 2 25 0 32 -4 6 -5 18 -5 24 -1 19 12
49 13 92 4 48 -10 108 -2 99 14 -5 8 -3 8 8 0 18 -14 61 -25 54 -14 -3 4 2 10
10 13 9 4 12 1 8 -9 -3 -9 1 -14 12 -14 12 0 15 5 11 16 -5 12 -2 15 10 10 8
-3 19 -6 22 -6 4 0 0 -5 -8 -10 -11 -8 -7 -9 15 -4 17 4 33 11 36 17 4 6 9 5
13 -1 6 -11 43 -5 63 10 7 5 12 5 15 -2 2 -8 11 -8 30 -1 14 5 29 7 33 3 4 -4
17 -7 28 -7 17 0 22 -6 23 -25 1 -25 13 -126 19 -165 2 -11 4 -41 4 -67 1 -40
3 -46 20 -41 12 3 17 11 14 19 -4 10 0 12 10 8 9 -3 18 -15 20 -27 4 -19 3 28
-7 258 0 17 -5 34 -11 38 -5 5 14 5 44 1 31 -3 51 -2 48 3 -3 5 16 7 41 6 111
-7 197 0 257 22 17 6 18 5 5 -5 -13 -10 -12 -11 5 -5 11 4 41 9 68 11 55 3 67
9 67 32 0 15 2 15 11 2 8 -12 9 -12 7 5 -1 11 1 25 5 32 4 6 3 14 -3 18 -5 3
-10 1 -10 -5 0 -6 -5 -8 -10 -5 -6 4 -8 10 -5 15 7 11 -5 41 -15 35 -4 -3 -11
2 -14 10 -3 10 -16 15 -36 13 -16 -1 -30 -5 -30 -8 0 -3 -33 -5 -74 -5 -41 0
-72 -3 -69 -7 5 -10 20 -9 -187 -14 -536 -13 -804 -12 -854 3 -48 15 -266 20
-532 13 -93 -2 -160 3 -206 16 -11 3 -19 0 -19 -8z m-1694 -138 c3 -5 1 -10
-4 -10 -6 0 -11 5 -11 10 0 6 2 10 4 10 3 0 8 -4 11 -10z m362 -16 c-3 -3 -12
-4 -19 -1 -8 3 -5 6 6 6 11 1 17 -2 13 -5z m391 -1 c-10 -2 -28 -2 -40 0 -13
2 -5 4 17 4 22 1 32 -1 23 -4z m2440 -88 c6 -14 8 -25 4 -25 -13 0 -28 15 -35
33 -10 27 18 20 31 -8z m9 -57 c2 -16 0 -19 -6 -9 -5 7 -14 10 -20 6 -8 -5 -9
-11 -2 -19 6 -7 8 -16 4 -19 -3 -4 1 -7 10 -7 20 0 23 -16 5 -24 -10 -3 -8 -9
5 -19 23 -19 22 -22 -7 -22 -22 0 -24 3 -21 43 1 23 -1 45 -6 48 -12 7 8 44
24 44 7 0 14 -10 14 -22z m-1927 -304 c0 -8 -4 -12 -10 -9 -5 3 -10 10 -10 16
0 5 5 9 10 9 6 0 10 -7 10 -16z m-86 -183 c3 -5 -4 -11 -17 -15 -35 -9 -47 -7
-47 9 0 16 55 22 64 6z m1084 -263 c1 -5 0 -8 -3 -8 -81 0 -107 3 -85 9 32 9
84 8 88 -1z"/>
<path d="M14585 4690 c-3 -5 -1 -10 4 -10 6 0 11 5 11 10 0 6 -2 10 -4 10 -3
0 -8 -4 -11 -10z"/>
<path d="M15405 4640 c-3 -5 -1 -10 4 -10 6 0 11 5 11 10 0 6 -2 10 -4 10 -3
0 -8 -4 -11 -10z"/>
<path d="M14585 4602 c-3 -11 -2 -27 1 -37 5 -13 4 -16 -4 -11 -7 4 -12 2 -12
-3 0 -6 3 -11 8 -11 15 0 11 -58 -5 -64 -14 -6 -13 -9 2 -32 14 -22 15 -28 4
-35 -15 -9 -15 -11 -17 -76 -2 -33 -6 -43 -23 -48 -25 -8 -256 -8 -268 0 -5 2
-14 -2 -21 -10 -13 -16 -15 -78 -4 -185 4 -36 8 -81 9 -100 1 -19 5 -42 8 -50
3 -8 5 -26 4 -40 -2 -24 0 -25 68 -26 39 -1 80 3 93 9 17 8 28 8 43 -2 14 -8
39 -10 72 -6 29 3 81 7 117 10 170 11 248 17 285 21 22 2 110 11 195 19 510
51 495 49 492 68 -3 17 16 23 61 19 17 -2 18 4 13 55 -15 157 -20 209 -18 216
1 4 -3 17 -8 28 -10 17 -21 20 -88 19 -42 0 -84 1 -93 3 -28 5 -47 27 -42 46
2 9 -3 24 -13 32 -16 13 -17 12 -12 -13 3 -16 1 -28 -4 -28 -5 0 -8 -6 -5 -12
2 -7 11 -12 18 -10 8 2 5 -5 -7 -16 -17 -17 -41 -21 -145 -26 -68 -4 -144 -9
-169 -12 -56 -7 -480 -12 -497 -6 -7 2 -13 12 -13 21 0 10 -3 21 -7 24 -9 9
-11 70 -2 82 3 6 3 46 -1 90 -4 44 -3 85 2 92 5 7 5 14 -1 17 -5 4 -12 -2 -16
-12z m5 -242 c0 -5 -4 -10 -10 -10 -5 0 -10 5 -10 10 0 6 5 10 10 10 6 0 10
-4 10 -10z m750 -160 c0 -5 -9 -10 -19 -10 -11 0 -23 5 -26 10 -4 6 5 10 19
10 14 0 26 -4 26 -10z m-135 -100 c0 -9 -7 -14 -20 -12 -26 5 -29 8 -20 22 10
16 40 8 40 -10z m-545 0 c0 -5 -9 -10 -20 -10 -11 0 -20 5 -20 10 0 6 9 10 20
10 11 0 20 -4 20 -10z m240 -11 c0 -5 -4 -9 -10 -9 -5 0 -10 7 -10 16 0 8 5
12 10 9 6 -3 10 -10 10 -16z m-355 -119 c3 -5 -1 -10 -10 -10 -9 0 -13 5 -10
10 3 6 8 10 10 10 2 0 7 -4 10 -10z m217 4 c15 -4 17 -9 7 -20 -11 -13 -22
-13 -109 1 -14 2 -29 4 -35 4 -5 1 -4 5 3 10 16 10 108 14 134 5z m88 -8 c0
-17 -18 -25 -42 -18 -30 8 -21 32 12 32 19 0 30 -5 30 -14z"/>
<path d="M15410 4585 c-7 -8 -8 -15 -3 -15 5 0 7 -14 5 -31 -3 -21 -1 -30 6
-25 6 3 13 -2 15 -11 2 -10 2 0 -1 22 -2 22 -5 48 -5 58 -1 21 -1 21 -17 2z"/>
<path d="M13640 4473 c0 -31 2 -33 15 -19 8 8 15 23 15 34 0 10 -7 19 -15 19
-10 0 -15 -11 -15 -34z"/>
<path d="M13681 4494 c0 -11 3 -14 6 -6 3 7 2 16 -1 19 -3 4 -6 -2 -5 -13z"/>
<path d="M15420 4450 c6 -11 13 -20 16 -20 2 0 0 9 -6 20 -6 11 -13 20 -16 20
-2 0 0 -9 6 -20z"/>
<path d="M13646 4404 c-8 -21 -8 -24 3 -24 5 0 11 9 14 20 6 24 -8 27 -17 4z"/>
<path d="M13680 4401 c0 -25 6 -27 13 -6 4 8 2 17 -3 20 -6 4 -10 -3 -10 -14z"/>
<path d="M12612 4385 c-12 -14 -18 -47 -21 -126 l-1 -36 -72 -10 c-40 -6 -91
-11 -113 -11 -55 -1 -115 -9 -122 -16 -3 -3 2 -63 11 -133 22 -162 21 -153 36
-188 7 -16 13 -39 14 -50 1 -19 8 -20 181 -20 173 1 534 10 775 20 329 14 390
18 395 25 3 4 -2 10 -10 14 -8 3 -15 1 -15 -4 0 -6 -9 -10 -20 -10 -11 0 -19
5 -17 12 1 6 -6 13 -16 14 -12 1 -13 0 -2 -3 22 -6 8 -23 -19 -23 -34 0 -38
10 -14 36 17 17 27 20 40 13 26 -14 23 6 -4 26 -14 10 -17 16 -8 14 30 -3 41
1 34 14 -5 7 0 6 11 -3 14 -11 19 -12 22 -2 3 6 11 12 19 12 8 0 14 7 14 15 0
9 6 12 17 8 12 -5 14 -3 8 8 -5 8 2 5 14 -5 12 -11 21 -29 19 -40 -1 -12 3
-31 10 -42 6 -12 8 -24 4 -28 -3 -4 2 -4 12 0 10 4 13 9 7 13 -6 4 -7 12 -1
21 9 13 10 13 11 0 0 -8 5 -4 10 10 6 20 8 15 6 -22 -1 -27 2 -48 7 -48 16 0
-7 397 -24 414 -7 7 -10 7 -10 0 0 -6 -11 -16 -25 -22 -21 -10 -28 -9 -45 8
-11 11 -29 20 -40 20 -13 0 -18 5 -14 15 5 11 2 13 -10 9 -9 -3 -16 -1 -16 6
0 6 -4 9 -9 6 -5 -3 -7 -15 -4 -27 6 -20 4 -21 -135 -15 -91 4 -200 0 -313
-10 -199 -17 -407 -25 -461 -17 -24 3 -38 11 -38 20 0 8 -4 12 -8 9 -5 -3 -8
10 -7 29 0 19 -3 35 -8 35 -4 0 -5 5 -2 10 3 6 -4 10 -17 10 l-23 1 23 12 c25
14 20 29 -6 20 -11 -5 -14 -2 -9 10 8 21 -3 21 -21 2z m44 -97 c4 -6 3 -8 -4
-4 -5 3 -13 0 -15 -6 -3 -8 -6 -6 -6 5 -1 19 14 23 25 5z m889 -328 c3 -5 1
-10 -4 -10 -6 0 -11 5 -11 10 0 6 2 10 4 10 3 0 8 -4 11 -10z m-317 -50 c-4
-18 -59 -21 -65 -4 -2 7 3 19 12 28 13 13 20 13 36 3 11 -6 18 -19 17 -27z
m-808 14 c0 -8 -4 -12 -10 -9 -5 3 -10 10 -10 16 0 5 5 9 10 9 6 0 10 -7 10
-16z m868 -29 c-23 -7 -35 -7 -40 0 -14 19 -8 27 17 23 14 -3 25 -1 25 5 0 5
7 4 16 -4 13 -11 11 -14 -18 -24z m156 26 c8 -13 -3 -19 -24 -14 -11 3 -17 9
-14 14 7 11 31 12 38 0z m109 -11 c3 -11 1 -23 -5 -26 -14 -9 -78 5 -78 17 0
15 33 24 38 11 5 -17 22 -15 22 3 0 22 17 18 23 -5z m-100 -56 c-4 -12 -33
-21 -33 -10 0 17 14 34 25 30 8 -3 11 -12 8 -20z m-113 -8 c0 -16 -135 -22
-145 -6 -6 10 3 12 77 14 20 1 40 5 44 9 9 9 24 -1 24 -17z m-242 -2 c25 -8 4
-19 -35 -18 -97 3 -113 5 -113 13 0 16 101 20 148 5z m-333 -4 c3 -5 -1 -10
-10 -10 -9 0 -13 5 -10 10 3 6 8 10 10 10 2 0 7 -4 10 -10z m65 0 c0 -5 -5
-10 -11 -10 -5 0 -7 5 -4 10 3 6 8 10 11 10 2 0 4 -4 4 -10z"/>
<path d="M13258 3903 c7 -3 16 -2 19 1 4 3 -2 6 -13 5 -11 0 -14 -3 -6 -6z"/>
<path d="M13688 4314 c-4 -5 0 -18 8 -29 15 -20 17 -12 5 19 -4 11 -10 15 -13
10z"/>
<path d="M13706 3895 c5 -11 -1 -15 -22 -15 -24 -1 -26 -2 -12 -10 12 -8 25
-5 48 9 25 15 28 20 15 25 -26 10 -35 7 -29 -9z"/>
<path d="M13727 3851 c-4 -17 -1 -21 21 -21 19 0 23 3 13 9 -7 5 -17 14 -21
21 -5 8 -9 5 -13 -9z"/>
</g>
</svg>
