<?xml version="1.0" standalone="no"?>
<!DOCTYPE svg PUBLIC "-//W3C//DTD SVG 20010904//EN"
 "http://www.w3.org/TR/2001/REC-SVG-20010904/DTD/svg10.dtd">
<svg version="1.0" xmlns="http://www.w3.org/2000/svg"
 width="697.000000pt" height="179.000000pt" viewBox="0 0 697.000000 179.000000"
 preserveAspectRatio="xMidYMid meet">
<metadata>
Created by potrace 1.11, written by Peter Selinger 2001-2013
</metadata>
<g transform="translate(0.000000,179.000000) scale(0.100000,-0.100000)"
fill="#000000" stroke="none">
<path d="M1142 1690 c6 -40 -6 -46 -33 -19 -17 17 -19 23 -8 31 11 8 11 9 -1
5 -10 -3 -14 -15 -13 -38 l1 -34 -19 38 c-11 21 -24 35 -28 32 -10 -6 -3 -43
10 -51 16 -10 9 -24 -11 -24 -11 0 -20 5 -20 10 0 6 -5 10 -11 10 -5 0 -8 -4
-4 -9 3 -5 0 -13 -6 -16 -5 -4 -8 -13 -5 -20 2 -7 -2 -16 -9 -19 -8 -3 -12
-12 -9 -19 3 -8 7 -34 8 -58 2 -24 6 -53 9 -64 3 -11 13 -54 22 -95 9 -41 22
-87 30 -102 13 -27 13 -28 -16 -28 -17 0 -28 -4 -25 -9 4 -5 -3 -7 -14 -4 -27
7 -25 -5 3 -17 15 -6 17 -9 5 -9 -10 -1 -15 -7 -11 -19 3 -14 -9 -25 -47 -46
-32 -17 -49 -33 -46 -41 2 -7 -2 -16 -10 -19 -25 -10 -34 -7 -34 9 0 8 -3 14
-8 13 -4 -2 -25 16 -46 39 -21 24 -42 40 -47 38 -4 -3 -20 13 -35 36 -26 41
-26 42 -8 75 16 30 17 39 6 81 -7 27 -24 59 -38 74 -27 28 -32 74 -8 83 8 3
12 10 9 16 -3 5 1 10 10 10 21 0 11 35 -18 68 -17 18 -31 22 -83 22 -52 0 -64
3 -68 18 -4 10 -19 31 -35 46 -24 23 -32 25 -54 17 -15 -6 -27 -15 -27 -20 0
-19 -44 -51 -69 -51 -21 0 -23 -2 -11 -10 9 -6 10 -10 3 -10 -6 0 -19 -3 -29
-7 -13 -5 -15 -3 -9 7 6 10 4 12 -9 7 -10 -4 -21 -7 -24 -7 -4 0 -7 -15 -6
-34 2 -36 31 -85 51 -86 25 0 28 -80 3 -80 -5 0 -7 -7 -3 -16 4 -10 -1 -17
-16 -21 -21 -5 -31 -43 -11 -43 6 0 10 7 10 15 0 8 4 15 10 15 11 0 1 -32 -14
-42 -7 -5 -3 -8 8 -8 18 0 18 -2 -4 -22 -13 -13 -29 -23 -35 -23 -6 0 -19 -7
-28 -15 -9 -8 -34 -28 -56 -45 -22 -16 -40 -38 -41 -47 0 -11 -5 -15 -15 -12
-10 4 -15 0 -15 -14 0 -25 -11 -34 -29 -23 -7 4 -23 6 -37 3 l-24 -4 0 -423
c0 -407 1 -423 20 -440 13 -12 28 -16 47 -12 21 4 35 -1 55 -21 l28 -26 87 13
c121 18 745 26 1018 12 121 -6 362 -20 535 -31 173 -11 366 -20 428 -20 89 0
120 -4 143 -17 26 -16 29 -16 47 0 10 9 21 14 24 11 4 -3 298 -8 655 -11 356
-3 695 -7 753 -8 58 -2 355 -8 660 -13 652 -13 719 -16 1315 -73 72 -7 225
-14 340 -15 116 -1 284 -6 375 -12 211 -14 285 -11 335 14 46 22 86 88 79 132
-7 47 -4 203 7 322 5 63 12 316 16 562 l6 447 -38 3 c-33 3 -39 7 -49 38 -9
26 -17 35 -33 34 -12 0 -20 3 -17 8 3 4 -1 8 -9 8 -17 0 -37 -22 -42 -47 -2
-10 -4 -20 -5 -23 -1 -3 -2 -9 -1 -14 1 -4 -13 -6 -31 -2 -70 13 -78 14 -72 5
3 -5 0 -9 -6 -9 -6 0 -9 -4 -6 -9 4 -5 0 -11 -6 -14 -23 -8 -1 -19 54 -27 29
-4 46 -9 38 -10 -8 -1 -19 -2 -24 -1 -17 3 -54 -49 -60 -86 -4 -21 -12 -50
-17 -65 -8 -20 -8 -36 0 -59 10 -29 8 -34 -32 -75 -50 -51 -111 -160 -94 -168
7 -2 5 -5 -4 -5 -19 -1 -59 -82 -59 -121 0 -27 -3 -30 -30 -30 -35 0 -36 3
-12 38 33 48 73 139 74 168 1 54 -2 73 -14 86 -40 42 -40 43 3 87 41 41 42 42
23 62 -15 17 -27 20 -57 16 -21 -3 -47 -13 -57 -22 -18 -17 -19 -16 -18 6 2
51 -2 59 -27 59 -14 0 -30 -9 -37 -20 -17 -27 -28 -25 -28 4 0 14 -4 28 -10
31 -5 3 -10 1 -10 -5 0 -6 -8 -9 -18 -6 -14 5 -22 -1 -31 -20 -9 -21 -14 -24
-26 -14 -21 17 -28 -6 -23 -72 3 -49 1 -55 -29 -81 -18 -16 -42 -44 -53 -62
-23 -38 -101 -93 -142 -102 -16 -3 -28 -9 -28 -14 0 -5 -7 -9 -16 -9 -21 0
-14 -30 11 -44 11 -6 31 -19 44 -29 13 -9 34 -17 46 -17 16 0 28 -13 48 -53
15 -29 27 -57 27 -64 0 -6 -16 -18 -35 -27 -78 -37 -146 -119 -180 -215 l-12
-36 -21 65 c-11 36 -23 77 -26 91 -3 15 -21 49 -40 76 -18 27 -43 68 -55 92
-22 43 -22 43 -3 62 31 28 46 87 47 181 0 49 3 88 7 88 4 0 19 -18 32 -39 14
-22 36 -43 48 -47 42 -14 118 -7 138 11 22 20 35 73 27 108 -7 25 -54 57 -85
57 -11 0 -46 16 -78 35 -59 36 -79 42 -88 26 -15 -23 -78 -22 -142 4 -36 14
-73 25 -82 23 -18 -3 -31 -58 -13 -58 5 0 13 -9 16 -20 9 -27 54 -80 68 -80 7
0 18 4 26 9 12 8 12 13 -3 35 -9 14 -12 26 -7 26 12 0 27 -21 33 -46 5 -18 0
-23 -24 -28 -16 -3 -44 -17 -63 -32 -34 -26 -67 -25 -45 1 21 25 -7 25 -59 0
-28 -14 -57 -25 -63 -25 -7 -1 -24 -7 -37 -14 -31 -17 -51 -10 -51 18 0 32
-19 46 -62 46 -22 0 -38 5 -38 12 0 6 -10 25 -22 42 -13 17 -34 53 -48 79 -18
35 -36 53 -65 66 -53 25 -95 34 -95 21 0 -5 9 -10 20 -10 11 0 20 -4 20 -10 0
-6 -9 -6 -26 1 -15 5 -29 8 -31 5 -3 -2 -20 2 -38 10 -19 8 -55 14 -80 14 -49
0 -125 -20 -125 -33 0 -5 -8 -6 -17 -3 -10 3 -31 -1 -47 -9 -15 -8 -37 -15
-48 -15 -11 0 -16 -5 -13 -10 9 -15 -45 -63 -89 -78 -34 -13 -41 -12 -84 9
-44 22 -45 24 -20 27 37 5 42 27 11 52 -36 28 -52 25 -100 -18 -45 -40 -51
-58 -39 -112 17 -77 13 -73 75 -67 49 5 58 4 69 -13 17 -28 50 -25 62 4 9 26
30 44 30 27 0 -6 -4 -11 -9 -11 -14 0 -22 -76 -11 -104 8 -22 7 -26 -10 -26
-32 0 -126 -39 -146 -61 -10 -11 -33 -27 -51 -34 -17 -7 -42 -26 -55 -40 -13
-15 -35 -33 -49 -41 -15 -7 -51 -38 -81 -69 l-55 -56 -29 38 c-16 21 -37 45
-48 54 -23 18 -14 39 16 39 29 0 96 33 136 68 34 29 57 102 33 102 -6 0 -11 8
-11 18 0 10 -4 22 -10 28 -6 6 -2 25 13 53 24 45 25 91 2 91 -18 0 -26 37 -14
67 14 37 11 53 -11 53 -11 0 -20 7 -20 15 0 8 -4 15 -10 15 -5 0 -10 -6 -10
-13 0 -8 -9 -22 -19 -31 -19 -18 -20 -17 -23 30 -2 29 -8 49 -17 52 -8 3 -11
0 -7 -7 4 -6 2 -11 -3 -11 -6 0 -11 10 -11 23 -1 20 -2 21 -14 5 -7 -10 -21
-18 -30 -18 -9 0 -17 -6 -17 -12 -1 -7 -4 1 -8 17 -5 24 -12 29 -29 28 -14 -2
-21 1 -17 7 3 6 -2 10 -11 10 -10 0 -15 -3 -11 -6 8 -8 -16 -33 -26 -27 -4 2
-6 1 -5 -4 1 -4 -12 -28 -30 -52 -29 -39 -32 -41 -33 -20 -2 57 -17 98 -26 72
-7 -19 -21 -16 -26 5 -3 15 -5 15 -12 -3 -4 -11 -13 -34 -21 -52 -8 -17 -14
-37 -14 -45 -1 -7 -8 0 -17 17 -14 26 -17 28 -23 11 -6 -18 -7 -18 -23 5 -9
13 -18 20 -18 16 -1 -4 -3 -11 -4 -17 -1 -5 -3 -40 -4 -77 l-2 -68 -17 28
c-10 16 -23 25 -31 22 -7 -3 -20 0 -27 6 -21 17 -29 -15 -17 -68 l11 -44 -27
25 c-14 13 -38 28 -53 31 -43 11 -36 -19 20 -84 71 -82 75 -91 46 -114 -13
-10 -24 -26 -24 -36 0 -24 28 -61 47 -61 12 0 14 7 9 35 -4 22 -3 35 4 35 5 0
10 -8 10 -18 0 -10 7 -28 16 -41 16 -23 16 -25 -7 -42 -17 -13 -20 -19 -9 -20
8 0 -14 -11 -50 -23 -37 -12 -64 -27 -62 -34 1 -7 -4 -12 -12 -12 -8 0 -22 -7
-30 -16 -13 -12 -17 -13 -20 -2 -39 134 -103 264 -157 323 l-40 43 33 45 c28
37 40 46 76 52 57 9 133 72 108 91 -11 8 -14 20 -10 41 4 20 1 33 -10 42 -9 8
-16 10 -16 5 0 -5 -4 -3 -9 5 -8 12 -12 12 -24 2 -9 -7 -34 -11 -59 -9 l-43 3
35 12 35 11 -41 1 c-53 1 -64 13 -53 59 6 28 4 43 -8 61 -8 13 -19 35 -22 49
-8 28 -45 40 -67 21 -11 -9 -18 -8 -29 1 -10 9 -15 9 -15 1 0 -6 -8 -11 -17
-11 -13 0 -14 3 -5 8 7 5 -4 8 -27 6 -21 -1 -45 -5 -52 -10 -7 -4 -14 -3 -17
4 -2 7 -8 12 -13 12 -4 0 -5 -8 -2 -17 5 -12 2 -15 -9 -11 -9 4 -20 2 -26 -4
-8 -8 -17 -4 -31 13 -17 19 -22 21 -30 10 -5 -8 -16 -11 -24 -8 -10 4 -18 -1
-22 -13 -5 -17 -9 -16 -35 13 -23 25 -29 28 -30 15 0 -21 -11 -23 -28 -6 -24
24 -25 -4 -3 -73 12 -39 21 -72 19 -73 -19 -17 -46 -24 -56 -14 -14 14 -107
-7 -139 -32 -14 -11 -33 -20 -42 -20 -13 0 -13 -2 -2 -9 9 -6 10 -11 2 -15
-17 -11 -13 -58 7 -82 25 -32 55 -44 104 -43 36 0 39 2 21 9 -13 5 -23 14 -23
19 0 6 -14 23 -30 38 -20 19 -29 35 -25 45 12 30 135 65 135 39 0 -26 -15 -41
-40 -41 -35 0 -43 -12 -35 -50 6 -25 11 -30 32 -28 23 3 27 -3 40 -46 8 -26
12 -53 10 -60 -3 -6 -29 -20 -58 -30 -47 -17 -104 -49 -119 -67 -3 -3 -16 -12
-30 -19 -50 -25 -120 -74 -120 -82 0 -10 7 -7 66 33 99 67 188 112 244 124 53
11 26 -10 -44 -33 -32 -11 -67 -27 -77 -36 -11 -9 -23 -16 -28 -16 -5 0 -23
-13 -41 -30 -18 -16 -37 -30 -42 -30 -11 0 -81 -52 -113 -85 -44 -43 -95 -123
-89 -139 4 -11 1 -16 -11 -16 -14 0 -16 6 -10 27 5 22 4 25 -8 14 -12 -10 -17
-6 -26 20 -6 18 -22 47 -36 65 -30 40 -31 46 -4 62 11 7 19 18 17 24 -3 7 4
20 14 30 19 19 24 48 9 48 -15 0 -6 32 14 46 10 8 14 14 8 14 -8 0 -8 7 0 25
7 14 18 25 25 25 16 0 15 30 -3 54 -8 11 -15 31 -15 46 0 14 -7 35 -15 47 -17
24 -17 24 55 39 l34 7 -29 23 c-17 13 -41 24 -54 24 -16 0 -21 4 -17 15 3 9 0
15 -9 15 -9 0 -15 10 -16 23 0 21 -3 36 -14 103 -3 18 -12 38 -20 44 -18 15
-59 16 -88 2 -12 -6 -30 -13 -39 -16 -10 -3 -18 -10 -18 -16 0 -6 6 -8 13 -4
6 4 0 -6 -15 -23 -16 -16 -28 -35 -28 -41 0 -7 -8 -12 -17 -10 -12 2 -19 -8
-28 -41 -12 -51 -42 -67 -132 -70 -13 -1 -23 -7 -23 -16 0 -8 -9 -15 -20 -15
-26 0 -26 -27 -1 -35 11 -3 38 -7 60 -8 39 -1 57 -20 29 -29 -7 -3 -13 -13
-13 -23 0 -10 -8 -19 -19 -21 -10 -1 -22 -6 -25 -11 -3 -4 -19 -15 -36 -23
-43 -22 -46 -67 -6 -107 16 -17 36 -45 44 -64 13 -32 61 -81 104 -109 13 -8
14 -13 6 -16 -7 -3 -13 -14 -13 -24 0 -20 -57 -80 -76 -80 -6 0 -15 -7 -18
-16 -7 -18 -19 -9 -49 39 -10 15 -26 31 -35 34 -33 11 -102 44 -102 47 0 2 13
18 29 34 29 32 58 118 62 182 2 34 -29 112 -68 173 -15 24 -16 30 -4 49 58 94
131 276 131 327 -1 22 -2 24 -13 11 -13 -17 -51 -15 -41 2 4 6 0 14 -7 19 -10
6 -11 9 -1 9 6 0 12 4 12 10 0 22 -29 -4 -35 -31 -5 -21 -12 -29 -23 -27 -19
4 -23 26 -9 46 7 8 5 12 -6 12 -8 0 -17 -14 -22 -32 -4 -18 -9 -27 -12 -20 -7
18 -21 15 -28 -8 -7 -22 -21 -27 -23 -7 -5 59 -42 96 -42 42 0 -14 -5 -25 -11
-25 -6 0 -9 7 -5 15 3 8 1 15 -5 15 -6 0 -7 5 -4 10 4 6 -5 10 -19 10 -25 0
-32 -12 -27 -49 2 -7 -2 -10 -7 -7 -6 3 -12 1 -14 -6 -3 -8 -7 -6 -11 5 -3 9
-3 17 2 17 4 0 6 11 3 25 -6 32 -16 32 -30 1 -8 -19 -8 -26 1 -30 7 -2 4 -5
-5 -5 -10 -1 -18 -8 -18 -16 0 -18 -21 -20 -38 -3 -17 17 -15 28 6 28 14 0 15
2 2 10 -11 7 -19 5 -29 -10 -20 -30 -30 -25 -51 25 -22 52 -34 58 -28 15z
m862 -170 c-10 -4 -21 -6 -24 -3 -8 7 24 22 34 16 5 -4 1 -10 -10 -13z m1086
-6 c0 -8 -5 -12 -10 -9 -6 4 -8 11 -5 16 9 14 15 11 15 -7z m-1123 -30 c-3 -3
-12 -4 -19 -1 -8 3 -5 6 6 6 11 1 17 -2 13 -5z m-1327 -14 c0 -5 -8 -10 -17
-10 -15 0 -16 2 -3 10 19 12 20 12 20 0z m462 -71 c5 -3 8 -10 7 -15 -1 -5 1
-17 5 -26 10 -21 4 -50 -10 -55 -12 -4 -35 92 -33 141 l1 31 11 -35 c6 -19 15
-38 19 -41z m1832 44 c4 -5 27 -8 50 -8 75 -1 176 -94 176 -163 0 -37 -45 -86
-109 -119 -66 -35 -136 -47 -97 -18 18 14 18 15 2 15 -21 0 -44 21 -39 36 3 8
-14 11 -49 10 -50 -1 -53 -3 -53 -26 0 -21 -6 -26 -35 -28 -19 -2 -40 -8 -46
-13 -17 -14 -54 102 -54 169 0 46 4 58 29 83 20 19 40 29 60 29 17 0 31 5 31
11 0 7 12 9 34 5 25 -5 35 -3 40 9 6 15 47 21 60 8z m-2409 -23 c9 -14 -4 -70
-16 -70 -5 0 -7 11 -3 24 3 13 1 27 -5 30 -6 4 -11 11 -11 17 0 12 27 12 35
-1z m-55 -6 c0 -4 -5 -24 -12 -46 -8 -26 -14 -35 -20 -26 -12 19 -10 52 4 66
13 13 28 16 28 6z m4358 -61 c-10 -2 -26 -2 -35 0 -10 3 -2 5 17 5 19 0 27 -2
18 -5z m1948 -16 c8 3 14 -1 14 -11 0 -9 -4 -16 -8 -16 -12 0 -32 22 -31 35 0
5 3 5 5 -2 3 -7 12 -9 20 -6z m-1721 -7 c8 -13 -5 -13 -25 0 -13 8 -13 10 2
10 9 0 20 -4 23 -10z m-1215 -67 c-30 -110 -31 -113 -51 -113 -23 0 -23 -5 0
61 20 58 52 119 63 119 3 0 -2 -30 -12 -67z m-551 48 c10 -7 5 -11 -17 -16
-32 -7 -52 -1 -52 16 0 11 50 12 69 0z m1609 -73 c30 -29 64 -61 74 -71 17
-16 19 -27 13 -80 -8 -68 -15 -82 -60 -119 -68 -56 -185 -65 -273 -21 -85 43
-105 67 -99 114 12 91 106 192 200 215 80 19 85 18 145 -38z m-3573 32 c3 -5
12 -7 19 -4 7 3 16 -2 19 -10 7 -18 47 -21 65 -6 6 6 10 7 7 4 -11 -16 17 -44
45 -44 25 0 30 -4 30 -25 0 -14 5 -25 11 -25 7 0 9 -10 7 -25 -3 -14 -2 -25 2
-25 30 0 11 -87 -29 -132 -24 -27 -34 -31 -100 -36 l-73 -5 16 29 c9 16 29 49
45 74 34 56 52 106 45 125 -8 19 -24 19 -24 1 0 -21 -21 -31 -31 -15 -15 24
-10 39 14 39 22 1 22 1 2 16 -18 13 -21 13 -32 -3 -7 -9 -13 -28 -13 -42 0
-14 -5 -33 -10 -41 -9 -13 -12 -13 -21 3 -7 11 -17 16 -29 12 -11 -3 -20 0
-24 10 -8 21 -23 19 -29 -5 -6 -25 -23 -26 -31 -3 -5 11 -1 22 10 30 20 15 12
28 -11 20 -19 -8 -20 -57 -1 -82 12 -16 18 -18 40 -7 l26 11 -2 -73 c0 -40 2
-78 6 -85 12 -18 -46 -13 -70 7 -40 32 -57 68 -44 92 10 20 10 21 -8 16 -24
-8 -32 10 -30 64 1 43 12 67 50 103 24 24 33 26 68 21 31 -5 41 -3 46 10 7 18
29 22 39 6z m2625 -15 c-26 -69 -54 -119 -58 -103 -4 19 47 128 59 128 5 0 4
-11 -1 -25z m-1902 -12 c91 -45 43 -186 -82 -238 -32 -14 -36 -14 -36 0 0 20
-19 19 -42 -2 -15 -14 -24 -14 -58 -4 -48 14 -60 34 -60 100 0 56 8 84 21 75
5 -3 6 -10 3 -16 -4 -6 10 -26 31 -45 35 -32 38 -33 56 -17 11 9 19 22 19 27
0 18 -42 57 -61 57 -31 0 -29 28 4 53 18 14 41 27 52 30 33 10 115 -1 153 -20z
m2323 -52 c-12 -12 -26 -21 -32 -21 -17 0 -4 24 19 36 12 6 20 13 19 16 -2 3
0 2 6 -2 5 -5 0 -17 -12 -29z m1351 -1 c-2 -16 -8 -27 -13 -24 -13 8 -11 42 4
47 6 3 12 6 13 6 0 1 -1 -12 -4 -29z m-658 -5 c3 -9 0 -15 -9 -15 -8 0 -15 7
-15 15 0 8 4 15 9 15 5 0 11 -7 15 -15z m-4444 -9 c0 -3 -4 -8 -10 -11 -5 -3
-10 -1 -10 4 0 6 5 11 10 11 6 0 10 -2 10 -4z m1207 -21 c0 -8 -4 -15 -9 -15
-4 0 -8 7 -8 15 0 8 4 15 8 15 5 0 9 -7 9 -15z m49 -25 c0 -11 -4 -20 -8 -20
-4 0 -8 9 -8 20 0 11 4 20 8 20 4 0 8 -9 8 -20z m3754 -10 c0 -6 -7 -13 -15
-16 -8 -4 -15 -12 -15 -20 0 -8 -4 -14 -10 -14 -5 0 -10 -4 -10 -10 0 -12 -32
-50 -42 -50 -5 0 -8 7 -8 15 0 27 21 60 53 82 36 25 47 28 47 13z m-4567 -47
l14 -48 -33 -3 c-19 -2 -34 -8 -34 -13 0 -15 -42 0 -64 24 -20 20 -19 20 20
53 57 49 80 45 97 -13z m5237 36 c0 -7 9 -9 24 -5 17 4 26 1 30 -10 21 -56
-21 -86 -80 -58 -34 16 -36 16 -59 -6 -14 -13 -25 -26 -25 -29 1 -19 33 -43
55 -43 19 0 25 -6 25 -23 0 -12 7 -28 15 -35 13 -11 13 -15 3 -21 -43 -27 -82
3 -123 96 l-26 60 32 27 c57 48 129 74 129 47z m390 -9 c-14 -10 -27 -16 -30
-13 -6 6 30 33 44 33 6 0 0 -9 -14 -20z m75 10 c-3 -5 -14 -10 -23 -10 -15 0
-15 2 -2 10 20 13 33 13 25 0z m-6555 -7 c0 -4 -10 -17 -22 -30 -19 -20 -20
-25 -8 -33 13 -9 7 -14 -12 -11 -4 0 -5 -6 -2 -14 6 -14 -21 -33 -32 -22 -7 7
23 77 43 99 16 18 33 24 33 11z m90 -18 c-7 -8 -16 -15 -21 -15 -5 0 -9 7 -9
15 0 9 9 15 21 15 18 0 19 -2 9 -15z m1007 -7 c-3 -8 -6 -5 -6 6 -1 11 2 17 5
13 3 -3 4 -12 1 -19z m4381 -32 c17 -58 10 -88 -22 -106 -22 -11 -29 -11 -51
4 -14 9 -25 24 -25 33 0 25 61 124 73 120 7 -2 18 -25 25 -51z m-5168 34 c0
-5 -4 -10 -10 -10 -5 0 -10 5 -10 10 0 6 5 10 10 10 6 0 10 -4 10 -10z m2214
-54 c-9 -24 -33 -19 -46 9 -10 21 -8 27 8 39 17 13 20 12 31 -9 7 -13 10 -31
7 -39z m-1964 13 c0 -5 -16 -9 -35 -9 -32 0 -43 8 -30 22 8 8 65 -3 65 -13z
m3070 -69 c0 -25 -14 -26 -38 -2 -26 26 -42 16 -42 -24 0 -19 -4 -34 -10 -34
-5 0 -10 3 -10 8 -1 4 -10 18 -21 31 -16 20 -22 22 -32 11 -9 -10 -9 -14 0
-17 24 -9 1 -33 -31 -32 -17 0 -25 3 -18 6 10 4 10 8 2 18 -26 32 50 101 99
90 22 -5 30 -2 35 12 7 16 11 14 37 -15 16 -18 29 -41 29 -52z m104 -19 l-8
-36 -6 50 c-3 28 -1 59 5 70 9 18 10 16 13 -14 2 -19 0 -51 -4 -70z m-1874 80
c0 -5 -8 -11 -17 -14 -10 -2 -27 -8 -38 -12 -16 -6 -15 -3 5 14 26 21 50 27
50 12z m4553 -6 c-3 -9 -8 -14 -10 -11 -3 3 -2 9 2 15 9 16 15 13 8 -4z
m-3472 -41 c33 -31 54 -77 45 -99 -13 -36 -109 46 -99 84 4 16 -3 22 -34 30
-21 6 -45 11 -53 12 -10 0 -9 3 5 8 31 13 107 -7 136 -35z m3647 21 c-6 -13
-15 -22 -19 -19 -11 6 8 44 21 44 6 0 5 -10 -2 -25z m-6148 0 c7 -9 8 -15 2
-15 -5 0 -12 7 -16 15 -3 8 -4 15 -2 15 2 0 9 -7 16 -15z m97 -1 c-3 -3 -12
-4 -19 -1 -8 3 -5 6 6 6 11 1 17 -2 13 -5z m4766 -36 c6 -3 12 -30 14 -58 3
-60 -10 -80 -56 -80 -17 0 -31 -4 -31 -10 0 -5 7 -10 16 -10 8 0 12 -5 9 -10
-4 -6 -15 -8 -25 -5 -15 5 -23 -2 -34 -28 -8 -19 -19 -38 -25 -41 -6 -4 -33
11 -59 33 -27 23 -53 41 -59 41 -6 0 -13 3 -15 8 -4 9 -126 82 -138 82 -5 0
-12 5 -15 11 -5 7 9 10 41 9 68 -2 67 -3 108 25 33 22 42 24 74 15 33 -9 44
-6 102 24 58 30 66 32 74 17 5 -9 14 -19 19 -23z m-4388 -19 l29 -41 -23 -19
c-32 -26 -38 -24 -46 14 -4 17 -13 42 -21 54 -12 19 -12 23 3 32 22 12 24 11
58 -40z m881 34 c-16 -3 -35 -11 -43 -19 -16 -15 -33 -19 -33 -6 0 12 43 30
75 29 l30 0 -29 -4z m2058 -2 c17 -7 16 -10 -13 -30 -37 -27 -45 -24 -35 13 6
27 15 30 48 17z m-3784 -26 c-7 -8 -17 -15 -23 -15 -5 0 -2 9 8 20 21 23 35
19 15 -5z m590 4 c0 -5 -4 -9 -10 -9 -5 0 -10 7 -10 16 0 8 5 12 10 9 6 -3 10
-10 10 -16z m5543 6 c-3 -9 -8 -14 -10 -11 -3 3 -2 9 2 15 9 16 15 13 8 -4z
m-4333 -4 c0 -6 -4 -13 -10 -16 -5 -3 -10 1 -10 9 0 9 5 16 10 16 6 0 10 -4
10 -9z m-1064 -56 c7 -22 13 -60 13 -85 -1 -43 -1 -43 -9 -13 -7 30 -35 83
-45 83 -2 0 -15 -4 -29 -10 -20 -7 -24 -6 -20 5 3 8 -7 26 -22 40 l-28 26 63
-3 63 -3 14 -40z m4007 18 c-27 -10 23 -103 55 -103 6 0 13 -8 16 -18 4 -10
22 -24 41 -31 49 -18 87 -68 130 -177 20 -52 68 -146 105 -208 71 -118 99
-195 66 -183 -10 4 -40 7 -67 7 -40 0 -54 5 -81 30 -23 21 -28 29 -17 30 9 0
22 -7 29 -15 16 -19 69 -20 76 -1 10 25 -15 56 -44 56 -20 0 -35 9 -50 30 -26
35 -52 39 -59 10 -3 -11 -9 -17 -14 -14 -5 3 -7 10 -4 15 8 12 -44 99 -60 99
-7 0 -16 -11 -19 -25 -4 -16 -13 -25 -26 -25 -25 0 -52 -42 -74 -114 l-18 -59
-121 7 c-66 3 -198 6 -293 6 l-172 0 -7 42 c-5 28 -4 43 4 46 6 2 18 11 26 19
14 13 13 18 -5 43 -11 16 -33 31 -49 35 -16 3 -33 16 -39 30 -7 15 -20 25 -32
25 -12 0 -19 -4 -15 -9 3 -5 -3 -11 -12 -13 -10 -2 -18 -12 -18 -22 0 -11 -6
-21 -12 -23 -7 -3 -13 2 -13 10 0 16 -26 31 -34 19 -4 -8 -9 -50 -7 -69 1 -7
10 -13 21 -13 11 0 20 -3 20 -7 0 -13 -55 -123 -62 -123 -4 0 -10 17 -13 38
-12 65 -47 216 -60 253 -16 45 -10 53 40 57 47 3 78 33 96 92 10 32 9 43 -3
62 -14 21 -12 24 34 61 27 21 53 35 56 31 4 -3 1 -9 -5 -11 -16 -6 -17 -73 -1
-73 6 0 19 6 27 14 22 19 61 30 61 17 0 -6 15 -19 34 -28 19 -9 37 -24 39 -34
3 -10 18 -24 33 -30 25 -9 31 -7 46 11 28 34 19 114 -11 96 -6 -4 -11 0 -11
10 0 12 -6 15 -24 12 -18 -4 -23 -1 -18 10 4 12 0 14 -21 8 -15 -3 -27 -3 -27
2 0 4 -12 13 -27 19 l-28 10 28 11 c20 9 34 9 53 0 22 -10 28 -10 39 5 9 13
19 15 41 8 16 -4 34 -6 41 -4 21 7 53 -17 53 -40 1 -37 33 -92 56 -95 27 -4
47 21 47 57 0 28 3 29 61 36 70 7 133 36 172 77 15 15 30 25 33 22 3 -4 0 -9
-6 -11z m-4343 -3 c0 -5 -5 -10 -11 -10 -5 0 -7 5 -4 10 3 6 8 10 11 10 2 0 4
-4 4 -10z m-70 -14 c0 -3 -4 -8 -10 -11 -5 -3 -10 -1 -10 4 0 6 5 11 10 11 6
0 10 -2 10 -4z m5020 -33 c0 -7 -39 17 -46 28 -3 6 5 3 20 -6 14 -10 26 -19
26 -22z m-2575 -3 c16 0 17 -10 7 -47 l-7 -23 -35 21 c-30 19 -32 23 -17 28
17 6 17 8 3 20 -25 21 -19 35 9 17 13 -9 31 -16 40 -16z m-2530 0 c0 -7 -6
-15 -12 -17 -8 -3 -13 4 -13 17 0 13 5 20 13 18 6 -3 12 -11 12 -18z m5665
-52 c0 -21 -19 -3 -39 35 l-23 42 31 -35 c17 -19 31 -38 31 -42z m-5319 49
c-1 -4 -1 -18 -1 -32 0 -14 -4 -25 -10 -25 -5 0 -10 16 -10 36 0 21 4 34 11
32 6 -2 10 -7 10 -11z m274 -22 c-17 -13 -32 -21 -35 -18 -3 2 4 11 15 18 11
8 25 18 30 23 6 6 12 8 15 5 2 -2 -9 -15 -25 -28z m1308 20 c4 -8 2 -17 -4
-20 -5 -4 -7 -10 -4 -14 2 -5 -2 -17 -10 -27 -13 -17 -14 -15 -15 29 0 34 4
47 14 47 8 0 16 -7 19 -15z m-940 -12 c-7 -2 -19 -2 -25 0 -7 3 -2 5 12 5 14
0 19 -2 13 -5z m1612 -17 c18 -9 22 -16 13 -20 -10 -5 -10 -7 0 -12 13 -6 17
-34 3 -34 -16 0 -71 22 -71 28 1 19 13 52 20 52 4 0 20 -6 35 -14z m-2855 0
c0 -3 -4 -8 -10 -11 -5 -3 -10 -1 -10 4 0 6 5 11 10 11 6 0 10 -2 10 -4z m983
-17 c-6 -6 -24 -12 -39 -14 -16 -1 -38 -6 -49 -10 -18 -8 -18 -7 -7 8 12 14
28 18 92 25 10 2 11 -1 3 -9z m82 1 c3 -5 -1 -10 -10 -10 -9 0 -13 5 -10 10 3
6 8 10 10 10 2 0 7 -4 10 -10z m1885 6 c0 -11 -19 -15 -25 -6 -3 5 1 10 9 10
9 0 16 -2 16 -4z m2420 -31 l25 -25 -40 20 c-21 11 -47 20 -57 20 -10 0 -18 5
-18 11 0 19 63 1 90 -26z m-2815 5 c-10 -11 -22 -17 -28 -13 -6 4 -3 12 8 20
28 20 41 16 20 -7z m159 -21 c-15 -6 -12 -8 14 -8 18 -1 31 -5 27 -10 -3 -5
-1 -12 5 -16 17 -11 0 -25 -30 -25 -17 0 -38 -9 -50 -22 -16 -17 -23 -19 -32
-10 -9 9 -9 12 2 12 9 0 8 5 -6 15 -17 13 -17 14 -1 15 17 0 25 20 8 20 -5 0
-1 15 8 33 16 32 17 33 45 18 27 -13 28 -15 10 -22z m-2114 11 c0 -5 -7 -10
-16 -10 -8 0 -12 5 -9 10 3 6 10 10 16 10 5 0 9 -4 9 -10z m1750 -10 c0 -5 15
-26 33 -47 17 -20 27 -34 20 -30 -13 8 -37 -28 -28 -43 13 -21 -17 -19 -40 4
-19 19 -25 35 -25 70 0 40 7 53 33 55 4 1 7 -3 7 -9z m640 -21 c0 -10 -7 -19
-15 -19 -15 0 -21 31 -9 43 11 10 24 -3 24 -24z m470 5 c47 -14 93 -28 103
-31 11 -3 17 0 17 9 0 25 45 10 77 -25 47 -50 110 -159 132 -227 12 -35 19
-65 17 -67 -4 -5 -46 84 -46 97 0 11 -92 144 -102 148 -4 2 -8 9 -8 15 0 15
-31 47 -47 47 -7 0 -13 -9 -13 -20 0 -22 -1 -23 -24 -14 -9 3 -16 12 -16 20 0
9 -11 14 -27 14 -22 0 -25 -2 -13 -10 12 -8 11 -10 -7 -10 -13 0 -23 5 -23 10
0 6 -9 10 -21 10 -11 0 -17 5 -14 10 4 6 -16 10 -54 10 -45 0 -62 -4 -69 -16
-7 -13 -14 -14 -27 -7 -10 6 -26 8 -36 6 -17 -5 -19 -17 -20 -94 -1 -49 -3
-93 -4 -99 -1 -5 -3 -22 -4 -36 l-1 -25 -40 28 c-49 35 -112 163 -80 163 6 0
15 -11 20 -25 10 -26 32 -30 80 -15 l25 8 -25 2 c-14 1 -30 2 -36 1 -20 -2
-25 31 -9 49 9 10 43 32 76 50 50 26 67 30 107 26 26 -3 39 -3 30 0 -18 5 -26
24 -10 24 4 0 45 -12 92 -26z m-3430 2 c0 -3 -4 -8 -10 -11 -5 -3 -10 -1 -10
4 0 6 5 11 10 11 6 0 10 -2 10 -4z m460 -27 c0 -26 -2 -30 -15 -19 -11 9 -12
16 -2 31 16 25 17 24 17 -12z m1085 21 c-3 -5 -11 -10 -16 -10 -6 0 -7 5 -4
10 3 6 11 10 16 10 6 0 7 -4 4 -10z m4614 -57 c28 -128 40 -214 24 -175 -2 7
-14 17 -25 23 -15 8 -22 7 -32 -7 -12 -15 -14 -12 -20 28 -5 31 -17 56 -37 77
-16 17 -30 31 -32 31 -1 0 -29 5 -62 10 -87 15 -131 -1 -198 -70 -113 -116
-139 -164 -174 -323 -11 -53 -27 -51 -31 3 -1 25 -7 57 -12 73 -8 23 -6 27 11
27 12 0 24 11 31 28 56 134 92 183 163 219 16 9 42 28 57 44 19 20 37 29 60
30 18 0 49 6 68 13 19 8 72 14 117 15 l81 1 11 -47z m-3946 -40 c5 -7 5 -17 2
-23 -11 -18 -31 -10 -54 21 l-23 31 24 25 23 25 10 -34 c6 -18 14 -39 18 -45z
m-2159 52 c4 -10 -1 -15 -15 -15 -17 0 -18 2 -7 15 16 18 15 18 22 0z m806 5
c0 -5 -4 -10 -8 -10 -5 0 -22 -11 -38 -25 -44 -38 -55 -32 -31 18 9 21 19 27
45 27 17 0 32 -4 32 -10z m1994 -17 c-4 -16 -15 -37 -25 -48 -19 -19 -19 -19
-19 3 0 12 9 30 19 39 11 9 18 20 15 25 -3 4 0 8 6 8 6 0 8 -11 4 -27z m3386
11 c0 -8 -5 -12 -10 -9 -6 4 -8 11 -5 16 9 14 15 11 15 -7z m-4676 -5 c-3 -6
-1 -15 6 -19 9 -6 9 -12 0 -29 -6 -12 -13 -30 -15 -39 -7 -39 -11 -47 -22 -60
-7 -7 -13 -22 -13 -32 0 -16 -25 -31 -58 -34 -7 -1 -17 -8 -22 -16 -27 -43 4
38 52 135 16 33 39 70 50 83 23 24 34 29 22 11z m348 -28 c-7 -20 -9 -21 -21
-7 -11 13 -11 19 -1 31 18 21 33 4 22 -24z m-573 13 c11 -9 -21 -55 -37 -53
-9 1 -51 0 -92 -1 -54 -1 -68 -4 -50 -10 l25 -8 -25 -2 c-14 -1 -43 -4 -66 -6
-23 -3 -54 2 -75 10 -31 14 -32 15 -9 16 20 0 22 2 10 10 -8 5 -52 7 -97 5
-46 -3 -83 -1 -83 4 0 36 108 49 340 43 85 -3 157 -6 159 -8z m1211 -28 c-14
-44 -30 -47 -30 -6 0 17 7 33 17 39 25 13 27 8 13 -33z m170 39 c0 -3 -12 -18
-26 -33 -15 -15 -23 -21 -19 -13 6 11 4 13 -9 8 -10 -4 -15 -3 -11 3 3 6 13
10 20 10 9 0 12 6 9 15 -4 10 0 15 15 15 12 0 21 -2 21 -5z m28 -30 c0 -30 -3
-35 -24 -35 l-24 0 18 35 c22 44 30 44 30 0z m-1238 21 c0 -3 -4 -8 -10 -11
-5 -3 -10 -1 -10 4 0 6 5 11 10 11 6 0 10 -2 10 -4z m3597 -18 c-3 -8 -6 -5
-6 6 -1 11 2 17 5 13 3 -3 4 -12 1 -19z m1459 -5 c-10 -10 -19 5 -10 18 6 11
8 11 12 0 2 -7 1 -15 -2 -18z m-6556 3 c0 -2 -7 -7 -16 -10 -8 -3 -12 -2 -9 4
6 10 25 14 25 6z m2440 -15 c0 -20 -24 -51 -40 -51 -4 0 -3 16 3 35 11 37 37
48 37 16z m2847 13 c-3 -3 -12 -4 -19 -1 -8 3 -5 6 6 6 11 1 17 -2 13 -5z
m1084 -31 c-10 -17 -10 -16 -11 3 0 23 13 41 18 25 2 -6 -1 -18 -7 -28z
m-3987 12 c-4 -8 -8 -15 -10 -15 -2 0 -4 7 -4 15 0 8 4 15 10 15 5 0 7 -7 4
-15z m2661 -31 c9 -19 14 -38 12 -41 -5 -5 -47 69 -47 82 0 15 19 -8 35 -41z
m-4385 32 c0 -3 -4 -8 -10 -11 -5 -3 -10 -1 -10 4 0 6 5 11 10 11 6 0 10 -2
10 -4z m2290 -56 c13 -34 21 -63 18 -65 -3 -3 -10 12 -16 34 -7 21 -19 44 -27
51 -16 14 -20 40 -6 40 5 0 19 -27 31 -60z m2497 -19 c19 -65 20 -72 5 -66 -9
4 -27 10 -40 12 -12 3 -24 9 -27 13 -9 14 18 121 29 117 6 -2 21 -36 33 -76z
m-3603 12 c9 -25 14 -48 12 -51 -6 -5 -32 47 -40 81 -11 45 10 23 28 -30z
m286 9 c0 -6 7 -13 15 -16 12 -4 13 -10 6 -23 -22 -41 -37 -54 -54 -47 -20 7
-24 73 -7 105 10 17 13 18 25 5 8 -8 15 -19 15 -24z m-1590 18 c0 -5 -4 -10
-10 -10 -5 0 -10 5 -10 10 0 6 5 10 10 10 6 0 10 -4 10 -10z m285 0 c3 -5 -3
-10 -14 -10 -12 0 -21 5 -21 10 0 6 6 10 14 10 8 0 18 -4 21 -10z m-555 -21
c0 -5 -4 -8 -9 -5 -5 3 -11 -4 -15 -17 -5 -18 -8 -20 -16 -7 -14 21 -12 28 8
33 29 8 32 7 32 -4z m70 -4 c-7 -8 -19 -15 -27 -15 -8 0 -11 -4 -8 -10 3 -5
-3 -10 -14 -10 -20 0 -20 1 -3 18 9 10 23 17 30 14 6 -2 12 1 12 7 0 6 5 11
11 11 8 0 8 -5 -1 -15z m5520 -4 c-16 -31 -12 -76 11 -105 25 -31 38 -33 69
-6 23 20 24 20 34 3 5 -10 28 -38 50 -61 54 -58 55 -61 47 -107 -8 -49 -7
-124 4 -147 6 -16 1 -18 -41 -19 -105 -2 -183 0 -275 7 l-97 7 16 36 c9 20 24
65 33 101 l18 65 -5 -70 c-6 -63 -4 -72 16 -90 21 -19 22 -19 36 0 8 10 14 30
14 44 0 14 5 43 11 64 7 27 7 59 -1 109 -12 79 -3 126 33 166 25 27 41 29 27
3z m-5663 3 c-3 -3 -12 -4 -19 -1 -8 3 -5 6 6 6 11 1 17 -2 13 -5z m2528 -10
c14 -3 32 -21 43 -42 39 -77 56 -98 92 -114 20 -10 41 -18 47 -18 6 0 14 -12
18 -27 3 -16 15 -35 26 -43 17 -13 18 -19 7 -47 -11 -30 -13 -30 -35 -16 -13
9 -40 45 -60 82 -74 135 -97 149 -134 86 -17 -28 -23 -32 -34 -22 -7 7 -12 16
-12 20 1 5 -9 16 -23 25 -16 11 -21 12 -16 4 7 -12 4 -12 -14 -2 -13 7 -19 15
-14 19 5 3 10 13 12 21 2 8 15 26 28 39 15 13 23 29 20 38 -5 11 -2 13 10 9 9
-3 26 -9 39 -12z m903 -22 c13 -18 21 -32 16 -32 -5 0 -22 16 -38 36 -16 20
-23 35 -16 32 7 -2 24 -18 38 -36z m1586 32 c9 -3 16 -15 16 -25 0 -10 4 -19
10 -19 5 0 7 -6 4 -14 -3 -7 2 -16 10 -19 18 -7 11 -33 -10 -41 -10 -4 -26 13
-49 49 -41 63 -40 62 -17 68 9 3 18 5 19 6 1 0 8 -2 17 -5z m-3205 -116 c-20
-17 -20 -18 -3 -19 13 0 11 -4 -8 -11 -16 -5 -28 -14 -28 -19 0 -17 -19 -9
-25 10 -3 12 7 45 27 86 l33 66 12 -48 c12 -45 11 -49 -8 -65z m1540 69 c11
-17 11 -21 -2 -29 -11 -6 -13 -15 -8 -36 6 -20 1 -42 -20 -87 -15 -33 -35 -81
-44 -107 -20 -56 -40 -66 -22 -10 13 40 14 72 3 116 -5 19 -2 34 7 45 7 9 19
30 26 47 11 27 10 37 -3 62 -9 17 -16 33 -16 36 0 12 68 -19 79 -37z m2372 16
c-8 -15 -10 -15 -11 -2 0 17 10 32 18 25 2 -3 -1 -13 -7 -23z m-5381 -15 c0
-5 -4 -8 -10 -8 -5 0 -10 10 -10 23 0 18 2 19 10 7 5 -8 10 -18 10 -22z m2328
-5 c6 -20 10 -38 8 -40 -8 -8 -56 41 -56 58 0 36 36 22 48 -18z m3166 17 c7 0
18 -16 25 -35 6 -19 23 -43 37 -54 24 -19 32 -45 16 -55 -5 -3 -24 11 -43 30
-19 19 -48 44 -66 55 -29 18 -31 22 -21 45 7 15 17 23 26 19 7 -3 19 -5 26 -5z
m226 0 c0 -5 -4 -10 -10 -10 -5 0 -10 5 -10 10 0 6 5 10 10 10 6 0 10 -4 10
-10z m-6050 -10 c0 -5 -2 -10 -4 -10 -2 0 -12 -3 -22 -7 -11 -4 -15 -3 -11 5
4 6 -1 13 -10 15 -10 3 -3 5 15 6 17 0 32 -3 32 -9z m1333 -34 c-10 -13 -20
-20 -21 -15 -5 12 17 39 30 39 5 0 1 -11 -9 -24z m757 -7 c0 -5 -10 -9 -21 -9
-18 0 -19 2 -9 15 12 15 30 12 30 -6z m980 6 c0 -8 -4 -15 -10 -15 -5 0 -10 7
-10 15 0 8 5 15 10 15 6 0 10 -7 10 -15z m-2385 -17 c155 -15 238 -16 323 -5
l62 9 0 -37 c0 -29 -3 -35 -12 -28 -7 6 -51 13 -98 17 -47 3 -98 8 -115 10
-16 3 -88 7 -160 11 -183 8 -219 13 -205 30 7 8 24 12 43 9 18 -2 91 -9 162
-16z m-775 2 c0 -5 -5 -10 -11 -10 -5 0 -7 5 -4 10 3 6 8 10 11 10 2 0 4 -4 4
-10z m2390 0 c0 -24 -58 -100 -76 -100 -19 0 -64 -26 -57 -33 3 -4 1 -7 -5 -7
-7 0 -12 5 -12 11 0 17 43 48 68 49 13 0 20 4 17 10 -3 6 -1 10 4 10 6 0 11 4
11 9 0 12 -54 -14 -70 -34 -19 -23 -36 -18 -58 18 l-19 34 81 21 c94 24 116
26 116 12z m3226 -11 c0 -19 -51 -67 -61 -57 -5 5 46 78 54 78 4 0 7 -9 7 -21z
m-2759 -11 c-3 -8 -6 -5 -6 6 -1 11 2 17 5 13 3 -3 4 -12 1 -19z m358 -8 c8
-13 -5 -13 -25 0 -13 8 -13 10 2 10 9 0 20 -4 23 -10z m-2375 -20 c25 0 31 -3
23 -11 -7 -7 -31 -9 -65 -5 -29 3 -60 5 -68 6 -86 2 -129 -1 -135 -10 -8 -13
-52 -13 -60 0 -17 27 10 32 139 26 72 -4 147 -6 166 -6z m449 -17 c-6 -16 -14
-53 -18 -83 -3 -32 -10 -53 -16 -50 -15 8 -5 80 16 123 23 43 33 49 18 10z
m5074 -31 c-9 -23 -28 -6 -31 28 l-4 34 20 -24 c11 -13 17 -30 15 -38z m-3696
33 c0 -8 -4 -15 -9 -15 -4 0 -8 7 -8 15 0 8 4 15 8 15 5 0 9 -7 9 -15z m531
-25 c44 -28 45 -30 19 -30 -22 0 -30 -6 -38 -30 -6 -16 -14 -30 -17 -30 -12 0
-37 74 -34 98 4 29 13 28 70 -8z m262 20 c0 -5 -5 -10 -11 -10 -5 0 -7 5 -4
10 3 6 8 10 11 10 2 0 4 -4 4 -10z m-1300 -10 c8 -5 12 -10 10 -12 -38 -24
-94 -48 -115 -48 -23 0 -25 2 -15 21 12 21 62 48 90 48 8 1 22 -3 30 -9z
m2926 -35 c8 -7 10 -23 6 -49 -9 -53 -27 -31 -36 44 -6 46 -5 52 5 35 7 -11
18 -24 25 -30z m-2731 -46 c-24 -27 -35 -48 -32 -60 5 -17 -1 -19 -69 -19 -41
0 -74 4 -74 10 0 10 113 90 127 90 5 0 24 13 43 29 32 27 35 28 38 10 2 -12
-11 -36 -33 -60z m-975 61 c0 -5 -5 -10 -11 -10 -5 0 -7 5 -4 10 3 6 8 10 11
10 2 0 4 -4 4 -10z m310 0 c0 -5 -2 -10 -4 -10 -3 0 -8 5 -11 10 -3 6 -1 10 4
10 6 0 11 -4 11 -10z m1400 -60 c16 -33 30 -50 42 -50 12 0 18 -7 18 -21 0
-40 -33 -14 -72 56 -21 39 -38 74 -38 79 0 19 28 -16 50 -64z m3020 -4 c10
-36 35 -96 54 -133 20 -37 34 -68 32 -70 -11 -11 -76 11 -81 27 -3 10 -12 21
-20 24 -10 4 -12 18 -8 58 4 46 1 58 -22 92 l-27 40 23 17 c13 10 25 16 27 15
1 -2 11 -33 22 -70z m-6418 26 c1 -18 6 -32 10 -32 9 0 11 13 8 50 -1 17 2 22
8 15 18 -17 21 -103 5 -110 -37 -14 -43 -6 -43 57 0 63 8 76 12 20z m2818 28
c0 -5 -5 -10 -11 -10 -5 0 -7 5 -4 10 3 6 8 10 11 10 2 0 4 -4 4 -10z m-597
-43 c7 -47 4 -83 -6 -79 -4 1 -23 2 -42 2 -35 0 -35 0 -35 45 0 38 4 46 28 59
41 23 49 20 55 -27z m-1397 18 c-19 -14 -18 -15 5 -24 22 -9 22 -10 3 -10 -11
-1 -25 -6 -32 -13 -9 -9 -12 -7 -12 9 0 24 24 53 43 53 7 0 3 -7 -7 -15z m886
-67 c-2 -5 -14 -8 -28 -8 -30 0 -30 6 -2 50 l22 35 6 -35 c3 -19 4 -38 2 -42z
m156 60 c7 -7 12 -20 12 -29 0 -16 -4 -17 -30 -7 -36 12 -47 27 -29 39 19 12
33 11 47 -3z m1732 -3 c15 -18 13 -20 -19 -30 -20 -6 -23 -4 -18 10 4 9 7 21
7 26 0 14 16 11 30 -6z m298 -18 c22 -20 22 -20 36 -1 14 18 16 17 35 -26 28
-62 27 -70 -13 -70 -77 0 -90 8 -108 64 -10 29 -18 56 -18 60 0 12 44 -5 68
-27z m-2533 13 c11 -5 14 -9 8 -9 -7 -1 -13 -5 -13 -10 0 -12 76 4 96 20 14
11 18 10 30 -6 8 -10 14 -24 14 -31 0 -16 -59 -21 -130 -11 -30 4 -108 9 -173
11 -109 4 -138 9 -126 20 3 3 39 6 81 7 42 1 94 5 115 9 51 10 74 10 98 0z
m1619 -7 c3 -10 15 -33 26 -50 21 -35 20 -35 -32 -37 -25 -2 -28 2 -28 29 0
62 20 96 34 58z m260 1 c9 -22 8 -24 -9 -24 -8 0 -15 9 -15 20 0 24 15 27 24
4z m-714 -7 c-14 -8 -27 -12 -30 -10 -7 6 23 23 40 23 8 0 4 -6 -10 -13z
m1257 -39 c12 -41 8 -68 -9 -68 -5 0 -6 5 -3 10 3 6 -3 10 -14 10 -25 0 -24
-2 -10 56 13 51 19 50 36 -8z m2717 37 c3 -8 1 -15 -3 -15 -5 0 -11 7 -15 15
-3 8 -1 15 3 15 5 0 11 -7 15 -15z m-5784 -15 c0 -5 -7 -10 -15 -10 -8 0 -15
5 -15 10 0 6 7 10 15 10 8 0 15 -4 15 -10z m4960 -94 l32 -58 -71 4 c-38 2
-72 6 -75 9 -8 8 22 120 36 137 14 17 31 -3 78 -92z m-2370 85 c0 -5 -7 -11
-14 -14 -10 -4 -13 -1 -9 9 6 15 23 19 23 5z m-1294 -11 c26 0 32 -3 27 -16
-9 -23 -87 -15 -91 10 -3 14 0 17 13 12 9 -3 32 -6 51 -6z m849 -23 c-8 -19
-45 -30 -45 -13 0 7 10 18 23 23 26 12 29 11 22 -10z m2615 13 c0 -5 -4 -10
-10 -10 -5 0 -10 5 -10 10 0 6 5 10 10 10 6 0 10 -4 10 -10z m1240 -5 c0 -8
-2 -15 -4 -15 -2 0 -6 7 -10 15 -3 8 -1 15 4 15 6 0 10 -7 10 -15z m-1651 -32
l22 -33 -30 0 c-24 0 -31 4 -31 19 0 19 11 55 14 49 2 -2 13 -18 25 -35z
m1629 0 c16 -4 22 -13 22 -33 0 -15 3 -42 6 -59 l7 -31 -70 0 c-70 0 -93 10
-93 41 0 12 6 15 26 11 43 -8 57 30 25 65 -25 27 -18 34 22 21 18 -5 42 -12
55 -15z m-3358 7 c0 -5 -6 -10 -14 -10 -8 0 -18 5 -21 10 -3 6 3 10 14 10 12
0 21 -4 21 -10z"/>
<path d="M2820 1321 c0 -43 16 -56 43 -36 23 16 21 37 -3 58 -31 26 -40 21
-40 -22z"/>
<path d="M3017 1353 c-13 -12 -7 -60 8 -73 12 -10 18 -10 30 0 20 16 19 35 -2
60 -19 21 -26 24 -36 13z"/>
<path d="M4710 1240 c0 -5 4 -10 8 -10 4 0 8 -12 7 -27 0 -32 22 -38 38 -11 9
13 7 22 -7 37 -20 22 -46 28 -46 11z"/>
<path d="M4834 1218 c8 -40 18 -51 39 -42 22 8 22 28 0 54 -28 32 -47 26 -39
-12z"/>
<path d="M4738 1147 c-55 -42 -73 -79 -61 -121 8 -27 13 -31 42 -29 18 0 40 8
50 17 10 9 23 16 29 16 7 0 12 5 12 10 0 9 -14 14 -33 11 -13 -2 13 40 29 46
19 7 18 30 -5 59 l-19 24 -44 -33z"/>
<path d="M1937 1193 c-13 -12 -7 -71 8 -83 12 -10 21 -10 38 -2 12 6 31 12 42
14 20 3 35 38 16 38 -6 0 -11 -8 -11 -17 0 -13 -3 -14 -12 -5 -10 10 -10 17 0
32 15 25 -6 40 -23 16 -11 -14 -13 -15 -19 -1 -6 15 -27 20 -39 8z m36 -48
c-7 -21 -13 -19 -13 6 0 11 4 18 10 14 5 -3 7 -12 3 -20z"/>
<path d="M1867 1053 c-14 -13 -6 -23 19 -23 22 0 25 2 14 15 -14 16 -23 19
-33 8z"/>
<path d="M968 1023 c7 -3 16 -2 19 1 4 3 -2 6 -13 5 -11 0 -14 -3 -6 -6z"/>
<path d="M4902 773 c-20 -53 -24 -75 -18 -109 7 -36 34 -58 61 -48 19 8 55 79
55 111 0 66 -77 102 -98 46z"/>
<path d="M4661 681 c-24 -33 -26 -62 -8 -94 37 -67 65 -74 96 -23 28 45 27 97
-2 124 -32 30 -62 28 -86 -7z"/>
<path d="M4298 658 c-24 -20 -28 -55 -11 -96 19 -46 28 -52 63 -42 52 15 69
30 76 67 6 32 3 40 -20 60 -30 25 -83 31 -108 11z"/>
<path d="M5034 565 c-21 -32 -21 -68 0 -100 21 -31 27 -31 66 2 31 25 33 26
59 10 21 -12 31 -13 39 -5 16 16 15 26 -9 59 -15 21 -29 29 -51 29 -21 0 -29
4 -25 13 4 10 -5 14 -29 15 -26 1 -38 -4 -50 -23z"/>
<path d="M4563 553 c-15 -5 -17 -39 -4 -48 10 -5 41 21 41 35 0 11 -22 18 -37
13z"/>
<path d="M4195 527 c1 -12 9 -23 18 -25 23 -5 22 25 -1 37 -16 8 -18 6 -17
-12z"/>
<path d="M4778 449 c-21 -12 -24 -52 -5 -67 14 -12 79 -2 84 14 5 14 -35 64
-50 64 -7 0 -20 -5 -29 -11z"/>
<path d="M4556 423 c-4 -4 -15 -8 -24 -8 -10 0 -18 -9 -20 -22 -4 -27 38 -73
66 -73 35 0 44 66 14 93 -21 19 -25 20 -36 10z"/>
<path d="M4845 311 c-7 -13 55 -71 76 -71 26 0 30 26 8 54 -21 26 -72 36 -84
17z"/>
<path d="M2980 748 c0 -4 4 -8 9 -8 6 0 12 4 15 8 3 5 -1 9 -9 9 -8 0 -15 -4
-15 -9z"/>
<path d="M1806 607 c-51 -93 -56 -109 -26 -82 11 10 20 24 20 32 0 7 5 13 11
13 5 0 7 5 4 11 -4 6 3 21 16 35 12 13 19 24 14 24 -4 0 0 9 9 19 11 12 13 21
7 25 -5 4 -30 -31 -55 -77z"/>
<path d="M1370 640 c0 -5 11 -10 25 -10 14 0 25 5 25 10 0 6 -11 10 -25 10
-14 0 -25 -4 -25 -10z"/>
<path d="M1388 333 c7 -3 16 -2 19 1 4 3 -2 6 -13 5 -11 0 -14 -3 -6 -6z"/>
<path d="M1370 1710 c0 -5 7 -10 15 -10 8 0 15 5 15 10 0 6 -7 10 -15 10 -8 0
-15 -4 -15 -10z"/>
<path d="M2216 1356 c21 -15 30 -14 19 3 -3 6 -14 11 -23 11 -13 0 -13 -2 4
-14z"/>
<path d="M4728 1363 c7 -3 16 -2 19 1 4 3 -2 6 -13 5 -11 0 -14 -3 -6 -6z"/>
<path d="M930 1180 c-13 -8 -13 -10 2 -10 9 0 20 5 23 10 8 13 -5 13 -25 0z"/>
<path d="M5763 992 c4 -67 11 -82 38 -82 22 0 59 34 59 55 0 19 -66 85 -86 85
-12 0 -14 -12 -11 -58z"/>
<path d="M2241 889 c-12 -13 -21 -28 -21 -33 0 -6 12 2 26 17 14 16 24 31 21
33 -3 3 -14 -5 -26 -17z"/>
</g>
</svg>
