<?xml version="1.0" standalone="no"?>
<!DOCTYPE svg PUBLIC "-//W3C//DTD SVG 20010904//EN"
 "http://www.w3.org/TR/2001/REC-SVG-20010904/DTD/svg10.dtd">
<svg version="1.0" xmlns="http://www.w3.org/2000/svg"
 width="2048.000000pt" height="759.000000pt" viewBox="0 0 2048.000000 759.000000"
 preserveAspectRatio="xMidYMid meet">
<metadata>
Created by potrace 1.11, written by Peter Selinger 2001-2013
</metadata>
<g transform="translate(0.000000,759.000000) scale(0.100000,-0.100000)"
fill="#000000" stroke="none">
<path d="M18801 7494 l-31 -26 20 -28 c11 -15 20 -37 20 -48 0 -11 24 -46 53
-78 28 -32 66 -74 82 -93 17 -19 59 -66 95 -105 36 -39 77 -87 90 -106 14 -19
30 -42 37 -50 37 -46 130 -182 156 -230 17 -30 38 -66 48 -80 10 -15 48 -82
84 -150 37 -69 86 -150 109 -180 23 -30 78 -107 121 -170 43 -63 107 -147 142
-187 35 -39 100 -118 144 -175 44 -57 86 -110 92 -118 7 -8 23 -31 37 -50 35
-49 43 -59 155 -189 55 -64 113 -134 129 -156 17 -22 45 -57 63 -78 l34 -38
-3 510 -3 509 -78 113 c-43 63 -95 136 -115 163 -20 26 -103 137 -184 245
-237 318 -376 441 -683 606 -132 71 -138 74 -198 100 -285 124 -357 139 -416
89z"/>
<path d="M15026 7330 c-36 -11 -60 -33 -105 -95 -45 -62 -56 -85 -77 -159 -18
-64 -15 -206 5 -259 6 -15 9 -27 6 -27 -9 0 77 -222 124 -320 134 -278 208
-386 420 -609 75 -79 144 -158 155 -175 10 -17 22 -32 27 -34 5 -2 9 -9 9 -16
0 -6 16 -35 35 -65 19 -29 35 -56 35 -59 0 -4 18 -34 40 -67 22 -33 40 -64 40
-68 0 -5 13 -27 28 -50 16 -23 47 -70 70 -104 23 -34 42 -66 42 -72 0 -5 4
-11 9 -13 5 -1 34 -46 65 -98 30 -52 60 -100 65 -106 5 -7 35 -61 67 -120 31
-60 62 -115 68 -123 6 -7 24 -41 41 -75 17 -33 52 -99 77 -146 25 -47 77 -146
115 -220 58 -112 171 -301 192 -320 9 -8 59 -104 60 -115 3 -25 16 -52 41 -85
43 -53 119 -202 138 -267 16 -52 58 -135 128 -248 13 -22 27 -47 31 -55 3 -8
22 -53 41 -100 19 -47 40 -92 47 -100 17 -19 70 -130 86 -178 7 -20 22 -53 34
-72 12 -20 36 -60 52 -90 17 -30 50 -91 74 -135 23 -44 66 -114 94 -156 28
-41 61 -96 73 -122 12 -26 27 -47 32 -47 6 0 20 -16 32 -35 20 -35 21 -36 82
-34 33 1 79 -3 101 -9 105 -29 355 28 363 83 3 24 -40 127 -72 170 -30 41
-132 213 -154 261 -9 21 -29 57 -43 79 -14 22 -29 52 -33 67 -3 15 -17 44 -31
64 -14 20 -25 41 -25 46 0 5 -14 30 -31 55 -17 24 -50 86 -74 136 -66 142 -85
181 -95 197 -5 8 -27 44 -47 80 -61 105 -67 115 -98 164 -16 26 -72 111 -123
189 -52 78 -114 181 -138 229 -24 49 -61 116 -82 150 -33 55 -106 225 -127
298 -4 14 -15 36 -25 50 -9 14 -20 33 -23 43 -8 20 -70 109 -166 237 -35 47
-66 92 -69 100 -3 8 -8 17 -11 20 -8 6 -105 169 -115 190 -7 17 -22 41 -81
129 -22 33 -67 103 -100 156 -33 54 -70 109 -81 124 -12 14 -31 46 -44 71 -12
24 -31 56 -40 70 -86 124 -165 259 -263 450 -63 124 -136 266 -162 315 -26 50
-94 182 -151 295 -57 113 -122 239 -145 280 -22 41 -59 110 -82 153 -23 43
-46 86 -52 95 -5 10 -31 53 -57 97 -25 44 -56 86 -68 93 -29 17 -116 24 -154
12z"/>
<path d="M16287 7080 c-82 -14 -152 -55 -207 -121 -58 -70 -85 -127 -105 -223
-8 -39 -19 -72 -23 -74 -9 -3 0 -95 17 -162 18 -69 23 -94 26 -110 3 -28 32
-85 54 -107 11 -12 21 -29 21 -36 0 -21 142 -127 234 -176 43 -23 90 -49 105
-59 40 -26 104 -56 306 -142 170 -72 315 -159 315 -187 0 -9 35 -53 78 -100
93 -101 171 -195 172 -207 0 -4 22 -38 49 -75 26 -37 65 -101 85 -142 20 -40
41 -81 46 -89 4 -8 20 -38 34 -67 14 -28 58 -100 98 -160 40 -60 82 -124 92
-143 10 -19 32 -54 48 -78 15 -24 28 -45 28 -48 0 -3 41 -71 90 -153 50 -81
90 -151 90 -154 0 -3 23 -40 50 -81 28 -42 50 -79 50 -83 0 -5 11 -20 24 -34
25 -27 64 -85 180 -264 36 -55 73 -111 84 -125 11 -14 31 -47 46 -75 25 -48
59 -100 126 -193 17 -23 40 -61 50 -85 11 -23 35 -61 53 -84 69 -90 101 -138
112 -170 6 -18 21 -43 32 -55 11 -13 43 -56 69 -97 49 -74 59 -88 122 -171 17
-24 32 -48 32 -55 0 -7 9 -20 20 -30 29 -26 83 -123 75 -135 -3 -5 -1 -10 6
-10 7 0 10 -3 6 -6 -6 -6 31 -49 131 -154 24 -24 46 -57 49 -72 9 -43 64 -58
223 -59 82 -1 129 5 215 26 61 15 118 31 128 36 19 11 23 49 6 66 -6 6 -16 20
-23 31 -23 41 -101 148 -128 177 -15 17 -28 33 -28 37 0 4 -53 79 -118 165
-65 87 -137 185 -159 218 -23 33 -52 71 -65 85 -13 14 -45 52 -71 85 -26 33
-90 112 -142 175 -52 63 -134 165 -180 225 -47 61 -106 135 -131 165 -25 30
-54 71 -64 90 -10 20 -37 60 -60 90 -23 30 -59 84 -81 120 -82 135 -142 226
-159 242 -10 10 -31 34 -47 55 -15 21 -49 61 -74 90 -56 63 -213 271 -287 380
-96 141 -120 177 -174 253 -29 41 -75 109 -103 152 -51 76 -72 104 -150 196
-23 27 -52 66 -65 88 -13 21 -31 48 -41 59 -10 11 -38 61 -63 112 -46 94 -49
115 -17 140 12 9 13 14 4 24 -16 16 11 71 46 92 51 30 170 154 176 183 4 16
11 41 17 56 9 25 8 59 -6 123 -9 45 -30 83 -117 206 -166 235 -375 403 -577
463 -29 8 -115 37 -190 64 -236 85 -338 103 -465 82z m691 -285 c155 -97 228
-176 302 -328 84 -173 112 -284 86 -335 -13 -26 -20 -29 -53 -27 -21 2 -51 4
-67 4 -54 2 -185 164 -225 279 -13 34 -29 75 -37 90 -8 15 -14 33 -14 41 0 7
-11 50 -24 95 -13 44 -28 104 -34 131 -5 28 -13 60 -17 73 -4 12 -3 22 2 22 5
0 41 -20 81 -45z"/>
<path d="M6195 7055 c-22 -8 -41 -15 -42 -15 -9 0 -31 -63 -69 -193 -25 -84
-53 -174 -64 -202 -27 -74 -86 -277 -110 -380 -11 -49 -36 -148 -54 -219 -19
-72 -33 -133 -31 -137 3 -3 -11 -60 -31 -125 -36 -123 -77 -286 -114 -459 -11
-55 -31 -129 -42 -165 -12 -35 -27 -89 -34 -120 -11 -50 -68 -221 -99 -295
-12 -29 -18 -52 -50 -180 -8 -33 -22 -81 -31 -107 -9 -26 -29 -98 -44 -160
-85 -338 -144 -512 -254 -741 -29 -62 -59 -134 -66 -162 -6 -27 -18 -70 -25
-95 -8 -25 -16 -61 -19 -80 -8 -55 -34 -171 -50 -223 -8 -26 -15 -51 -16 -55
-1 -12 -40 -146 -49 -167 -5 -11 -16 -45 -26 -75 -10 -30 -31 -80 -47 -110
-15 -30 -28 -62 -28 -71 0 -9 -16 -46 -35 -83 -50 -93 -86 -199 -95 -277 -4
-40 -16 -81 -28 -101 -12 -19 -33 -75 -47 -124 -14 -49 -28 -96 -32 -104 -3
-8 -8 -23 -10 -34 -2 -10 -10 -33 -19 -51 -13 -29 -13 -37 -1 -66 17 -42 37
-59 68 -58 13 0 134 1 269 2 248 2 294 7 304 33 3 8 10 14 16 14 16 0 35 20
55 60 27 53 55 141 48 153 -3 6 -1 7 5 3 7 -4 12 -1 12 8 0 8 7 22 16 31 9 8
17 37 19 63 2 26 9 83 15 127 6 44 12 88 13 97 1 9 5 14 9 12 4 -3 10 8 13 23
4 15 9 39 12 53 3 14 7 48 8 75 3 47 59 218 91 277 8 14 12 32 9 40 -3 7 4 49
15 92 11 44 20 94 20 112 0 18 5 36 10 39 6 4 8 9 6 13 -2 4 0 30 5 57 5 28
11 68 15 89 3 22 15 59 25 84 11 24 19 58 19 76 0 29 8 64 42 181 6 22 14 45
18 50 10 16 59 198 64 238 4 29 25 103 38 136 6 14 12 64 14 111 1 69 10 108
43 210 23 69 62 202 87 295 24 94 51 193 58 222 8 29 17 65 20 80 2 15 9 42
15 58 6 17 22 71 35 120 75 272 140 481 210 680 38 108 52 134 79 155 54 41
102 95 121 135 20 42 72 242 110 421 45 215 22 397 -65 525 -40 59 -149 170
-177 180 -43 16 -109 18 -147 4z m-560 -3207 c-3 -12 -10 -26 -16 -32 -9 -8
-10 -6 -5 7 3 10 6 25 6 33 0 8 4 14 9 14 6 0 8 -10 6 -22z"/>
<path d="M14076 7022 c-3 -3 -6 -14 -6 -24 0 -23 -8 -23 -61 2 -57 25 -117 25
-149 0 -22 -18 -23 -22 -10 -33 24 -19 58 -79 63 -112 2 -16 12 -48 22 -70 9
-22 18 -47 20 -55 9 -43 28 -111 45 -156 10 -29 17 -54 14 -57 -10 -9 49 -111
91 -159 51 -57 117 -166 106 -173 -20 -12 -68 18 -92 58 -56 88 -182 350 -195
404 -4 15 -27 65 -51 111 -24 45 -43 89 -43 96 0 7 -6 19 -14 25 -8 7 -20 35
-26 64 -7 29 -19 58 -28 65 -25 19 -96 15 -116 -7 -17 -19 -17 -21 4 -43 12
-13 30 -41 41 -63 11 -22 33 -64 49 -94 16 -30 27 -58 24 -62 -2 -4 0 -11 6
-14 14 -9 58 -108 71 -160 12 -50 13 -54 27 -88 7 -15 15 -40 18 -55 4 -15 11
-32 16 -39 11 -13 30 -88 21 -79 -3 3 -12 -2 -18 -11 -11 -15 -16 -10 -44 38
-17 30 -40 79 -51 109 -25 68 -38 98 -57 130 -37 64 -74 148 -79 180 -5 33
-13 54 -44 122 -7 14 -12 38 -12 52 0 20 -8 28 -33 36 -33 11 -54 7 -93 -18
-20 -13 -21 -17 -9 -31 32 -38 77 -136 84 -181 4 -35 13 -63 23 -75 5 -7 19
-37 29 -67 10 -30 26 -69 35 -86 9 -17 19 -48 22 -69 3 -21 12 -51 19 -68 26
-60 28 -67 41 -150 3 -21 12 -48 19 -60 7 -11 16 -34 20 -52 7 -35 53 -135 65
-143 4 -3 21 -31 36 -64 28 -55 33 -60 119 -106 258 -136 292 -156 343 -207
30 -29 51 -53 48 -53 -4 0 12 -25 34 -55 22 -30 40 -60 40 -68 0 -8 10 -27 22
-43 13 -15 16 -24 9 -19 -16 9 -13 2 32 -63 16 -24 26 -46 23 -49 -3 -3 6 -19
19 -35 13 -16 27 -45 31 -66 4 -20 19 -61 35 -90 16 -29 29 -68 30 -85 0 -18
3 -25 6 -18 3 9 12 -9 20 -40 8 -29 18 -55 23 -57 6 -2 10 -9 10 -16 0 -6 9
-30 20 -51 11 -22 27 -60 34 -85 16 -50 41 -102 47 -96 2 2 5 -9 6 -24 1 -16
12 -48 24 -72 12 -24 21 -44 20 -46 -3 -4 27 -101 36 -115 4 -6 8 -14 9 -17 2
-15 36 -128 43 -145 5 -11 9 -36 10 -55 1 -19 8 -45 16 -57 8 -12 15 -33 15
-46 0 -13 3 -27 7 -31 4 -3 8 -12 9 -19 1 -7 24 -60 52 -117 61 -129 76 -164
92 -215 7 -22 21 -51 31 -64 11 -13 19 -30 19 -37 0 -8 4 -14 8 -14 4 0 16
-22 27 -49 10 -28 22 -48 25 -46 6 4 6 0 13 -65 1 -19 7 -42 12 -50 6 -8 15
-24 22 -35 15 -25 143 -284 171 -345 11 -25 44 -94 72 -155 29 -60 77 -166
107 -235 30 -69 60 -138 68 -155 7 -16 23 -61 36 -100 12 -38 35 -100 51 -136
27 -60 34 -69 81 -91 91 -44 124 -51 214 -45 106 8 150 35 193 121 34 66 36
91 15 143 -8 20 -13 38 -11 41 3 2 -5 19 -18 36 -12 17 -29 47 -36 66 -7 19
-19 42 -27 51 -7 8 -13 19 -13 23 0 4 -13 26 -29 49 -30 45 -111 206 -111 222
0 6 -16 34 -35 62 -19 29 -35 55 -35 58 0 4 -29 50 -64 103 -71 109 -146 239
-166 292 -8 19 -37 73 -65 120 -28 47 -75 130 -104 185 -30 55 -59 107 -65
115 -7 8 -20 35 -30 60 -10 25 -34 79 -53 120 -19 41 -44 98 -55 125 -11 28
-39 91 -63 140 -55 115 -98 210 -115 255 -18 50 -60 140 -160 345 -49 99 -104
218 -123 265 -20 47 -61 138 -91 202 -31 64 -56 123 -56 130 0 7 -9 27 -20 43
-11 17 -20 38 -20 48 0 10 -11 33 -23 50 -32 43 -67 129 -67 164 0 16 9 46 20
68 11 22 20 45 20 52 0 25 34 82 51 86 11 3 20 15 21 29 0 12 2 30 2 38 1 8
-8 31 -20 50 -11 19 -43 76 -69 125 -146 274 -342 611 -381 655 -7 9 -38 68
-69 133 -48 99 -61 118 -83 122 -15 3 -39 9 -54 14 -15 5 -29 6 -32 3z m79
-188 c14 -26 29 -52 33 -58 5 -6 14 -27 22 -46 27 -74 53 -126 100 -194 26
-39 69 -116 95 -171 26 -55 51 -108 57 -118 13 -26 5 -31 -35 -23 -64 12 -97
45 -127 122 -15 40 -31 89 -35 110 -4 22 -10 44 -15 49 -4 6 -18 38 -30 72
-12 35 -29 68 -36 74 -8 6 -14 17 -14 23 0 9 -10 33 -52 118 -4 10 -8 25 -8
33 0 8 -9 24 -20 35 -11 11 -20 28 -20 38 0 10 -5 23 -11 29 -7 7 -9 19 -5 29
5 13 13 8 41 -29 19 -25 46 -67 60 -93z"/>
<path d="M11079 6943 c-42 -5 -43 -13 -4 -98 19 -43 37 -103 36 -120 0 -2 9
-24 19 -47 11 -24 20 -54 20 -68 0 -14 13 -59 28 -101 16 -41 37 -109 47 -150
9 -41 21 -83 26 -94 4 -11 11 -42 14 -69 l7 -49 -29 7 c-15 4 -41 15 -58 25
-31 18 -39 43 -65 201 -6 36 -19 85 -29 110 -11 25 -21 59 -22 75 -2 17 -9 38
-17 47 -8 9 -16 40 -18 67 -2 28 -12 87 -23 133 -11 45 -18 85 -15 89 16 26
-106 39 -178 18 -43 -11 -50 -35 -18 -64 11 -10 20 -31 20 -46 0 -16 10 -68
21 -116 12 -48 22 -95 23 -103 1 -8 12 -46 23 -85 12 -38 37 -135 56 -215 19
-80 36 -151 38 -159 5 -20 -26 -25 -59 -12 -39 16 -61 70 -117 286 -38 144
-44 175 -45 222 0 23 -4 45 -10 48 -5 3 -10 31 -10 61 0 31 -6 64 -15 77 -8
12 -12 36 -10 54 3 28 0 33 -27 42 -35 12 -128 15 -128 4 0 -5 9 -39 20 -78
11 -38 20 -84 20 -102 0 -18 9 -74 19 -125 26 -127 41 -219 41 -256 0 -17 9
-69 21 -117 27 -117 24 -126 -28 -84 -58 48 -82 101 -100 226 -8 60 -23 124
-33 143 -9 19 -22 58 -28 85 -24 105 -44 236 -39 248 10 28 -11 41 -65 42
l-53 0 1 -40 c1 -34 25 -242 40 -355 2 -19 7 -75 9 -125 6 -104 23 -274 29
-283 5 -9 24 -169 32 -267 3 -44 10 -84 15 -89 5 -5 36 -13 69 -17 116 -13
315 -130 403 -236 36 -44 72 -109 69 -125 -1 -4 7 -35 18 -70 57 -186 140
-546 140 -607 0 -19 4 -48 9 -65 13 -42 30 -148 37 -226 3 -35 8 -68 11 -73 3
-5 6 -27 8 -50 3 -43 14 -141 21 -189 2 -15 6 -49 9 -75 7 -74 15 -137 35
-288 11 -77 24 -185 30 -240 6 -55 18 -143 27 -195 8 -52 17 -119 18 -147 2
-29 6 -61 9 -70 5 -17 15 -106 22 -183 12 -155 17 -191 27 -207 5 -7 4 -13 -1
-13 -8 0 12 -158 22 -168 3 -2 1 -14 -5 -25 -7 -13 -7 -17 -1 -13 7 4 10 -10
10 -36 0 -24 2 -59 5 -78 5 -34 11 -103 23 -280 12 -165 10 -162 77 -190 82
-36 196 -52 291 -41 75 9 155 32 181 53 47 38 56 47 55 52 0 4 6 19 14 35 12
21 13 37 6 62 -13 47 -32 81 -53 99 -9 8 -19 24 -21 35 -2 11 -9 33 -15 48 -6
15 -10 31 -9 35 1 4 -6 32 -15 62 -9 30 -19 70 -22 89 -3 18 -12 49 -20 67 -8
19 -12 34 -10 34 2 0 -1 15 -6 33 -5 17 -12 43 -14 57 -6 34 -55 231 -62 250
-3 8 -7 22 -8 30 -1 8 -8 35 -14 60 -7 25 -13 52 -15 60 -3 19 -14 63 -27 114
-17 63 -21 80 -22 101 -1 11 -5 22 -9 25 -4 3 -10 21 -13 40 -3 19 -8 43 -11
53 -3 11 -8 29 -9 40 -5 27 -13 62 -15 62 -1 0 -3 7 -5 15 -14 63 -38 164 -50
210 -49 195 -74 291 -79 299 -3 5 -8 26 -11 47 -4 22 -15 71 -25 109 -11 39
-22 93 -26 120 -3 28 -8 54 -11 58 -3 5 -6 18 -8 30 -3 25 -35 170 -66 302
-49 208 -79 344 -83 380 -3 17 -10 53 -16 80 -6 28 -13 59 -14 70 -1 12 -6 26
-10 33 -4 7 -5 12 -2 12 2 0 0 15 -5 33 -5 17 -11 43 -14 57 -8 44 -13 63 -33
150 -36 150 -36 141 -1 183 23 28 65 55 152 98 133 65 183 96 193 119 10 24
13 60 5 60 -8 0 -22 44 -65 205 -13 50 -40 130 -60 179 -20 49 -38 98 -40 110
-4 21 -61 157 -97 233 -59 122 -195 334 -213 331 -6 -1 -27 -3 -47 -5z"/>
<path d="M7463 6795 c-61 -17 -155 -62 -233 -113 -59 -38 -184 -143 -213 -180
-10 -12 -24 -28 -31 -35 -21 -21 -116 -160 -116 -169 0 -5 -11 -26 -25 -46
-14 -20 -25 -43 -25 -50 0 -8 -7 -28 -14 -45 -30 -65 -56 -152 -56 -187 1 -97
115 -222 270 -296 19 -9 67 -32 107 -51 72 -34 143 -101 143 -135 0 -8 3 -18
7 -22 17 -17 32 -111 40 -246 13 -229 12 -231 -37 -595 -14 -105 -18 -140 -30
-255 -14 -136 -18 -177 -29 -280 -5 -47 -10 -109 -10 -138 -1 -53 -28 -269
-55 -442 -9 -52 -20 -138 -26 -190 -5 -52 -17 -131 -25 -175 -8 -44 -17 -129
-20 -190 -7 -147 -14 -223 -25 -265 -5 -19 -12 -60 -15 -90 -12 -120 -17 -157
-30 -210 -55 -219 -88 -375 -93 -435 -2 -38 -9 -79 -15 -90 -22 -41 -19 -72
10 -99 32 -29 120 -51 167 -41 17 3 45 9 61 12 54 9 119 48 147 89 23 34 29
58 44 184 9 80 18 231 20 335 2 113 11 253 23 345 11 85 23 184 26 220 3 36 9
110 15 165 5 55 12 172 15 260 3 88 12 234 20 325 15 173 20 253 30 485 4 76
8 142 10 145 4 6 13 167 20 330 3 69 7 145 10 170 4 42 7 89 20 340 14 257 23
329 51 372 33 51 115 114 159 122 20 4 63 24 95 44 33 20 99 61 147 91 111 69
172 119 208 171 26 38 28 47 30 153 3 161 -9 259 -43 362 -27 80 -37 95 -84
138 -29 26 -66 54 -83 63 -65 34 -272 126 -315 140 -70 22 -187 26 -247 9z
m477 -175 c12 -8 11 -10 -7 -10 -13 0 -23 5 -23 10 0 13 11 13 30 0z m-534
-405 c9 -36 -13 -81 -60 -127 -49 -47 -150 -105 -191 -110 -29 -3 -30 -2 -27
32 2 19 11 48 19 65 32 65 172 165 230 165 16 0 24 -7 29 -25z m240 -271 c-3
-8 -1 -14 4 -14 6 0 10 -8 10 -17 0 -15 -3 -15 -21 4 -22 21 -20 61 2 48 6 -4
8 -13 5 -21z"/>
<path d="M5313 6752 c-22 -17 -25 -27 -68 -227 -12 -54 -37 -151 -96 -365 -11
-41 -27 -106 -36 -145 -8 -38 -16 -72 -18 -74 -2 -2 -20 7 -39 19 -42 25 -46
52 -20 140 8 30 26 100 38 155 13 55 31 122 40 148 9 26 16 53 16 60 0 13 43
135 65 182 39 86 27 115 -45 115 -48 0 -80 -20 -80 -50 0 -7 -15 -59 -34 -114
-39 -115 -51 -159 -76 -271 -23 -107 -65 -264 -92 -347 -22 -66 -49 -91 -72
-68 -11 11 27 175 51 223 8 16 19 56 24 89 5 33 16 73 24 88 8 15 14 44 13 66
0 21 5 59 12 82 6 24 13 72 16 107 2 35 13 84 24 110 11 26 20 48 20 50 0 2
-13 8 -29 13 -41 14 -101 -4 -101 -30 0 -11 -4 -27 -9 -36 -5 -9 -11 -42 -14
-72 -17 -151 -37 -269 -51 -302 -9 -21 -16 -51 -16 -67 0 -29 -60 -210 -96
-286 l-18 -40 -4 39 c-2 21 1 50 7 65 5 14 15 51 21 81 7 30 18 78 25 105 14
56 26 113 54 260 35 184 43 236 38 242 -11 10 -94 15 -100 6 -3 -5 -9 -32 -13
-59 -7 -59 -147 -449 -349 -979 -43 -115 -49 -145 -24 -145 26 0 101 -67 142
-129 55 -81 75 -165 56 -233 -7 -24 -14 -50 -15 -58 -10 -60 -31 -141 -60
-235 -18 -60 -52 -182 -74 -270 -23 -88 -59 -207 -80 -265 -45 -122 -166 -452
-217 -590 -19 -52 -47 -124 -63 -160 -15 -36 -42 -105 -60 -155 -33 -96 -57
-162 -85 -235 -9 -25 -32 -91 -50 -147 -19 -56 -40 -114 -48 -130 -9 -16 -18
-45 -22 -66 -4 -20 -11 -37 -17 -37 -5 0 -7 -4 -3 -9 3 -5 1 -12 -5 -16 -5 -3
-10 -13 -10 -21 0 -8 -9 -33 -19 -57 -58 -129 -69 -156 -63 -161 3 -3 1 -6 -5
-6 -6 0 -13 -10 -16 -22 -5 -24 -51 -149 -66 -183 -5 -11 -21 -54 -36 -95 -15
-41 -31 -84 -35 -95 -5 -11 -16 -40 -24 -65 -26 -79 -84 -194 -110 -219 -15
-13 -34 -40 -43 -60 -9 -20 -26 -49 -37 -66 -12 -16 -21 -47 -22 -68 -1 -31 5
-42 29 -59 29 -21 34 -21 186 -10 222 15 234 17 264 37 19 12 27 26 27 45 0
16 6 35 13 42 36 38 54 94 52 162 -1 38 4 90 11 115 7 25 30 105 49 176 20 72
41 138 46 147 5 10 9 25 9 34 0 14 11 54 38 134 15 43 45 155 62 230 11 47 25
94 30 105 9 19 49 154 66 220 4 17 8 35 10 40 2 6 6 21 9 35 3 14 7 30 9 35 2
6 7 28 11 50 12 55 12 55 15 58 1 1 3 9 5 17 2 8 9 33 15 55 6 22 19 76 30
120 10 44 23 91 29 105 6 14 27 84 46 155 20 72 41 144 48 160 6 17 12 35 14
40 7 37 78 268 119 390 37 111 122 391 127 421 5 28 27 107 34 124 4 8 8 20 8
25 1 6 5 17 8 25 14 37 31 96 29 102 -1 4 23 82 53 174 64 197 80 218 215 291
130 71 245 141 263 161 25 27 112 391 123 512 3 30 9 69 14 85 11 36 18 111
25 259 3 60 8 113 11 117 2 4 8 27 13 51 5 24 12 51 16 60 5 13 0 20 -19 28
-14 5 -26 14 -26 20 0 14 -12 12 -37 -8z"/>
<path d="M2293 6663 c-16 -16 -34 -41 -40 -58 -6 -16 -23 -64 -38 -107 -14
-42 -39 -97 -55 -122 -46 -71 -68 -128 -65 -166 1 -19 -1 -42 -6 -51 -5 -9 -4
-20 2 -26 7 -7 0 -39 -20 -97 -35 -100 -102 -196 -138 -196 -34 0 -72 17 -98
46 -28 30 -31 22 50 154 29 47 67 119 84 160 17 41 45 101 61 132 17 32 30 72
30 92 0 19 9 50 19 68 11 18 22 49 25 68 3 19 10 36 15 38 6 2 11 16 11 32 0
22 -6 30 -31 39 -63 22 -67 19 -125 -103 -30 -63 -54 -124 -54 -136 0 -25 -27
-79 -91 -183 -27 -43 -59 -108 -71 -145 -13 -37 -48 -116 -78 -177 l-56 -110
-47 -3 -47 -3 4 45 c2 30 23 83 66 167 34 67 68 138 75 158 7 20 35 83 63 141
62 132 82 176 82 185 0 3 18 37 40 74 22 37 40 73 40 79 0 18 -114 16 -129 -2
-15 -18 -81 -148 -81 -159 0 -9 -19 -52 -80 -182 -20 -44 -56 -127 -80 -184
-24 -58 -75 -152 -112 -209 -57 -85 -72 -103 -91 -100 -14 2 -22 10 -22 23 0
11 -5 25 -12 30 -21 16 6 91 82 230 36 66 61 121 56 123 -13 4 8 60 60 162 24
47 44 87 44 90 6 22 33 82 63 141 6 13 -61 15 -97 4 -53 -18 -78 -60 -259
-435 -33 -69 -80 -154 -104 -191 -25 -36 -54 -85 -66 -110 -12 -24 -47 -71
-78 -104 -82 -87 -129 -148 -174 -226 -22 -37 -47 -75 -55 -83 -14 -14 -12
-20 21 -66 19 -27 42 -76 51 -107 58 -227 57 -220 43 -296 -8 -40 -22 -88 -31
-107 -10 -19 -29 -60 -43 -90 -14 -30 -30 -62 -35 -70 -31 -48 -91 -164 -91
-174 0 -6 -15 -34 -33 -61 -19 -28 -41 -63 -49 -80 -38 -74 -94 -176 -133
-240 -38 -63 -58 -99 -121 -215 -11 -19 -25 -40 -31 -48 -7 -7 -13 -20 -13
-28 0 -8 -3 -14 -7 -14 -9 0 -26 -28 -93 -150 -26 -47 -66 -116 -89 -153 -23
-37 -39 -72 -36 -78 4 -5 1 -8 -6 -7 -6 2 -24 -22 -40 -52 l-28 -55 0 -480 c0
-433 1 -477 15 -452 8 15 12 32 9 37 -3 5 1 12 8 17 7 4 25 35 41 68 15 33 36
78 47 101 10 23 19 49 19 58 0 9 3 16 8 16 4 0 16 20 27 45 11 25 22 45 26 45
3 0 11 18 18 40 6 22 16 40 21 40 6 0 10 5 10 11 0 6 11 34 25 61 14 27 22 54
19 59 -3 5 0 8 8 7 7 -2 12 5 12 15 -1 10 1 16 4 13 5 -6 61 88 65 109 1 6 4
12 8 15 11 10 54 85 52 91 -1 4 6 14 17 24 11 10 16 24 13 33 -4 10 -2 13 5 8
7 -4 12 -1 12 7 0 7 9 32 20 55 12 24 18 47 15 52 -4 6 1 13 10 16 9 4 14 12
11 19 -3 8 2 16 11 19 8 4 13 13 9 21 -3 8 -2 15 2 15 4 0 12 8 17 19 62 117
75 145 70 149 -2 3 3 11 13 18 13 10 13 13 3 14 -9 0 -7 6 8 19 13 11 24 27
25 36 1 9 8 20 15 24 7 5 14 20 14 34 1 14 5 23 9 21 6 -4 188 356 188 372 0
6 64 134 149 299 14 28 39 69 54 93 15 24 33 55 39 70 7 15 26 47 44 72 17 25
46 73 63 107 27 54 110 156 176 216 11 10 43 40 70 66 95 90 278 211 320 211
6 0 28 15 49 34 20 19 59 52 86 72 28 21 53 47 56 59 4 11 25 58 46 105 22 47
43 94 47 105 5 11 13 31 19 45 6 14 19 52 28 85 9 33 34 98 55 145 65 143 170
441 174 491 1 26 5 52 9 57 9 14 -23 52 -45 52 -10 0 -19 7 -19 15 0 23 -25
18 -57 -12z"/>
<path d="M18185 6638 c-105 -20 -227 -148 -253 -268 -7 -30 -12 -103 -13 -161
-1 -102 1 -108 34 -169 61 -113 137 -192 261 -269 158 -99 323 -175 576 -263
107 -38 168 -68 201 -100 8 -7 27 -22 43 -32 44 -28 287 -269 331 -329 22 -28
51 -66 65 -83 38 -48 75 -94 113 -145 35 -47 53 -69 98 -123 14 -17 67 -86
117 -154 50 -67 106 -140 123 -162 17 -21 30 -41 30 -44 -1 -4 9 -17 21 -29
25 -24 68 -79 110 -142 15 -22 48 -65 73 -95 25 -30 45 -58 45 -63 0 -4 9 -17
20 -29 10 -12 17 -26 13 -31 -3 -6 -1 -7 4 -4 6 4 13 1 16 -6 5 -12 182 -253
212 -290 8 -10 24 -34 35 -55 l20 -37 0 215 0 216 -82 113 c-169 231 -253 344
-372 499 -32 42 -69 93 -82 112 -117 177 -196 281 -354 465 -33 39 -74 90 -91
115 -18 25 -52 66 -76 92 -23 26 -43 57 -43 68 0 12 14 34 32 48 57 49 78 75
89 112 10 33 8 44 -15 93 -14 31 -26 62 -27 69 0 21 -216 328 -230 328 -5 0
-9 4 -9 9 0 10 -76 84 -192 188 -238 214 -644 378 -843 341z m803 -442 c19
-17 44 -48 57 -68 13 -20 33 -39 44 -43 40 -13 244 -316 222 -330 -9 -5 -77
42 -125 84 -31 29 -149 167 -184 218 -22 30 -72 153 -72 174 0 13 17 3 58 -35z
m-463 -183 c69 -34 124 -73 148 -105 20 -27 20 -28 2 -48 -25 -28 -97 -27
-155 3 -33 16 -50 33 -66 66 -12 24 -30 50 -40 58 -10 7 -14 13 -8 13 5 0 3 4
-4 9 -11 6 -10 11 3 25 20 19 49 14 120 -21z"/>
<path d="M12649 6493 c-13 -3 -15 -19 -13 -99 2 -52 8 -103 14 -114 6 -11 12
-51 14 -90 2 -39 6 -73 10 -77 14 -14 5 -21 -19 -15 -18 5 -35 28 -66 87 -34
66 -42 93 -46 153 -3 39 -10 72 -15 72 -4 0 -13 11 -18 25 -10 25 -22 29 -85
25 -63 -3 -79 -24 -48 -62 6 -7 14 -40 18 -73 3 -33 11 -80 16 -105 13 -54 16
-80 24 -190 9 -115 30 -201 72 -289 19 -41 36 -79 38 -85 1 -6 4 -18 7 -26 3
-8 12 -35 19 -60 20 -66 63 -115 174 -201 96 -75 235 -221 235 -246 0 -7 4
-13 10 -13 5 0 14 -18 20 -40 6 -21 14 -42 19 -44 5 -3 12 -21 15 -40 4 -19
11 -36 17 -38 5 -2 10 -17 12 -35 1 -17 6 -29 11 -26 5 3 6 0 4 -8 -3 -8 -1
-22 4 -33 6 -10 11 -28 13 -40 2 -11 14 -64 28 -116 13 -52 28 -126 33 -165 9
-73 10 -87 14 -95 1 -3 3 -16 6 -29 2 -14 10 -31 17 -40 10 -12 9 -13 -1 -7
-11 6 -10 2 1 -20 8 -16 18 -48 22 -71 4 -24 11 -43 16 -43 5 0 9 -10 9 -23 0
-13 5 -28 12 -35 13 -13 17 -31 20 -74 0 -16 5 -28 10 -28 4 0 8 -8 8 -17 0
-9 11 -45 25 -79 14 -35 26 -75 27 -91 1 -15 8 -37 14 -48 7 -11 14 -32 16
-47 2 -15 7 -30 11 -34 4 -4 7 -18 7 -31 0 -14 4 -32 9 -42 5 -9 12 -35 14
-58 3 -22 10 -50 17 -63 23 -42 40 -119 35 -152 -3 -18 -2 -29 2 -24 4 4 14
-23 22 -61 11 -60 15 -110 24 -328 1 -27 6 -53 12 -57 6 -5 6 -8 -1 -8 -8 0
-8 -12 2 -42 36 -120 85 -269 103 -316 10 -28 15 -49 10 -46 -6 3 -1 -11 10
-32 12 -21 21 -47 21 -58 0 -28 29 -134 50 -181 9 -22 21 -51 25 -65 12 -40
73 -127 103 -146 15 -9 47 -37 72 -61 73 -72 103 -83 243 -89 117 -6 124 -5
178 20 75 35 101 64 95 107 -9 77 -19 119 -27 119 -5 0 -9 6 -9 14 0 8 -16 50
-36 93 -33 70 -70 168 -77 200 -2 7 -6 16 -10 19 -4 4 -7 17 -7 30 0 12 -3 24
-7 26 -5 2 -19 35 -32 73 -13 39 -29 84 -36 100 -28 66 -48 121 -49 135 -1 9
-6 22 -11 30 -11 18 -32 70 -47 120 -5 19 -14 40 -20 47 -5 7 -7 17 -3 23 3 5
2 10 -3 10 -5 0 -13 15 -17 33 -4 17 -8 34 -9 37 -2 10 -28 75 -38 95 -5 12
-10 27 -12 35 -2 8 -6 22 -9 30 -17 45 -119 327 -121 335 -4 20 -29 91 -41
120 -21 48 -47 119 -50 135 -2 8 -22 67 -45 130 -22 63 -45 131 -49 150 -5 19
-18 59 -29 88 -11 29 -21 56 -23 60 -3 13 -7 25 -54 162 -55 160 -155 469
-158 490 -1 8 -5 20 -9 25 -3 6 -12 30 -19 55 -15 55 -13 47 -48 150 -17 47
-30 90 -30 97 -1 6 18 23 42 36 105 64 193 157 218 232 21 63 15 129 -16 176
-47 72 -245 499 -245 528 0 6 -20 52 -45 101 -25 49 -45 99 -45 109 0 11 -9
25 -19 31 -21 11 -83 13 -117 4 -20 -5 -21 -6 -3 -42 20 -40 99 -264 99 -280
0 -13 -33 -21 -65 -14 -20 3 -32 16 -47 51 -24 57 -58 156 -58 171 0 6 -12 27
-27 46 -24 29 -34 34 -69 34 -38 0 -42 -2 -48 -31 -3 -17 -2 -38 3 -47 5 -9
16 -46 25 -82 9 -36 25 -78 35 -95 18 -31 35 -85 27 -85 -19 0 -56 22 -56 34
0 8 -19 59 -41 113 -42 98 -46 110 -70 171 -6 19 -18 40 -26 48 -14 13 -77 17
-114 7z"/>
<path d="M9114 6370 c-55 -5 -91 -16 -165 -50 -52 -25 -112 -58 -135 -75 -22
-16 -58 -43 -80 -59 -49 -37 -132 -133 -162 -188 -12 -23 -26 -45 -30 -48 -25
-18 -78 -175 -94 -276 -10 -66 -10 -74 13 -118 25 -50 118 -139 184 -176 22
-12 49 -30 60 -40 11 -10 69 -41 128 -68 59 -28 117 -61 128 -74 40 -47 102
-183 113 -248 3 -19 10 -55 15 -80 5 -25 12 -130 16 -235 4 -104 9 -212 11
-240 6 -59 5 -526 -1 -535 -2 -4 -6 -175 -9 -381 -13 -927 -18 -1288 -19
-1474 l-2 -200 51 -5 c29 -3 112 -2 185 3 76 4 149 4 169 -1 40 -10 130 14
158 41 22 22 24 115 4 169 -11 28 -17 79 -18 148 -1 58 -4 125 -7 150 -4 25
-8 79 -11 120 -3 41 -12 116 -20 165 -8 50 -20 151 -26 225 -10 127 -23 198
-71 382 -22 87 -36 188 -45 323 -3 50 -17 146 -30 215 -36 186 -65 505 -55
613 6 72 6 288 -2 557 -7 261 17 311 215 444 73 49 91 69 91 101 0 14 5 25 12
25 16 0 41 59 64 150 11 41 26 98 33 125 15 53 17 208 3 260 -20 75 -87 145
-190 200 -38 21 -90 50 -115 65 -57 35 -175 78 -243 87 -29 5 -84 6 -123 3z
m513 -262 c67 -74 80 -204 38 -365 -15 -54 -31 -116 -36 -137 -5 -22 -19 -61
-30 -87 -19 -44 -22 -47 -48 -39 -81 23 -146 85 -167 157 -26 89 -14 125 91
281 51 76 98 155 106 175 15 43 19 44 46 15z"/>
<path d="M3942 6197 c-12 -13 -39 -67 -60 -121 l-38 -98 -70 -1 -69 -1 4 30
c1 16 14 58 27 94 13 36 19 69 15 73 -15 15 -85 16 -109 1 -12 -8 -21 -18 -18
-22 8 -14 -14 -95 -44 -157 -15 -33 -31 -77 -34 -97 -3 -21 -8 -54 -11 -73 -4
-26 -14 -39 -35 -50 -17 -9 -29 -19 -28 -23 6 -24 -56 -269 -73 -286 -13 -14
-64 27 -64 50 -1 18 22 80 59 165 8 20 18 51 21 70 6 32 11 45 54 127 12 23
17 42 11 42 -6 0 -1 10 10 22 11 13 23 34 26 48 4 14 21 55 40 92 29 61 31 69
18 83 -9 8 -22 15 -30 15 -8 0 -14 5 -14 11 0 5 -10 3 -22 -5 -12 -9 -30 -16
-40 -16 -12 0 -18 -8 -18 -23 0 -36 -52 -177 -95 -260 -8 -16 -15 -36 -15 -45
0 -10 -11 -34 -25 -54 -14 -20 -25 -49 -25 -65 0 -15 -20 -69 -45 -120 -25
-50 -45 -97 -45 -102 0 -17 -43 -41 -73 -41 -27 0 -27 1 -21 48 7 52 18 64 52
59 12 -3 25 -1 27 3 9 14 -24 32 -45 25 -22 -7 -24 -3 -10 23 5 9 23 57 40
105 16 48 35 98 42 110 7 12 14 29 15 37 2 8 7 42 13 75 9 57 34 118 61 151
10 12 8 17 -7 29 -10 8 -27 15 -36 15 -10 0 -18 4 -18 9 0 6 -12 3 -27 -5 -16
-7 -34 -14 -40 -14 -7 0 -13 -9 -13 -19 0 -11 -6 -32 -14 -48 -32 -67 -55
-120 -62 -143 -17 -63 -109 -225 -183 -323 -45 -60 -81 -113 -81 -118 0 -5 0
-12 1 -15 0 -4 -3 -10 -8 -13 -4 -3 -22 -26 -38 -51 -17 -25 -35 -49 -40 -55
-25 -24 -36 -45 -41 -84 -8 -54 1 -87 23 -93 16 -4 50 -91 73 -188 8 -33 -22
-120 -69 -200 -21 -36 -53 -104 -70 -153 -17 -48 -42 -108 -56 -133 -77 -138
-135 -255 -135 -272 0 -30 -22 -76 -104 -222 -42 -73 -76 -134 -76 -135 0 -2
-17 -41 -39 -87 -21 -45 -41 -103 -45 -127 -8 -49 -78 -237 -130 -346 -19 -38
-43 -90 -54 -115 -11 -25 -44 -94 -72 -155 -29 -60 -63 -137 -77 -170 -55
-132 -211 -450 -244 -497 -11 -14 -19 -31 -19 -37 0 -6 -4 -11 -8 -11 -11 0
-108 -204 -117 -245 -4 -16 -29 -74 -56 -128 -27 -54 -49 -104 -49 -112 0 -8
-8 -23 -19 -34 -10 -10 -22 -36 -26 -57 -4 -22 -11 -45 -17 -52 -6 -6 -7 -12
-3 -12 4 0 -7 -25 -24 -55 -37 -66 -38 -79 -7 -110 22 -22 29 -23 140 -20 64
1 122 7 128 13 7 6 16 10 21 10 4 0 20 3 35 6 15 3 56 8 91 11 41 3 72 11 85
22 69 60 85 77 81 83 -3 4 1 10 8 13 7 3 23 24 35 48 21 43 76 199 88 249 3
13 9 29 13 35 4 5 18 37 31 70 13 33 27 65 31 70 4 6 10 23 13 38 9 49 17 67
28 61 7 -5 8 -2 3 5 -4 7 -3 23 3 34 47 98 82 180 82 192 0 8 4 16 9 19 4 3
16 27 25 53 10 26 24 62 31 78 42 98 75 178 75 185 0 5 4 19 9 32 5 13 9 27 9
31 0 4 7 18 14 30 8 12 25 51 38 87 13 36 38 98 57 139 18 40 30 77 27 82 -3
5 -1 9 4 9 5 0 12 8 14 18 9 33 11 37 29 72 11 19 19 42 19 50 0 9 4 20 8 26
9 9 84 188 86 204 2 11 89 216 117 275 15 33 33 77 39 98 6 20 16 37 21 37 5
0 9 7 9 15 0 9 15 48 34 88 18 40 44 99 56 132 13 33 30 70 38 83 8 12 11 22
7 22 -4 0 -3 6 3 13 6 6 10 14 11 17 0 7 27 71 61 145 16 35 32 77 36 92 8 33
43 120 91 223 19 41 42 93 51 115 19 49 31 58 107 86 206 75 445 248 490 355
15 37 33 105 40 149 1 11 21 94 43 185 37 147 58 293 66 451 2 25 6 51 10 57
13 21 -10 13 -32 -11z m-152 -374 c-11 -17 -11 -17 -6 0 3 10 6 24 7 30 0 9 2
9 5 0 3 -7 0 -20 -6 -30z m-1270 -2203 c-9 -21 -16 -28 -23 -21 -7 7 -4 19 7
36 23 34 32 25 16 -15z m-582 -1290 c-16 -33 -33 -60 -38 -60 -10 0 5 37 35
87 33 54 35 37 3 -27z m-358 -473 c0 -16 -27 -54 -33 -47 -10 10 6 60 19 60 8
0 14 -6 14 -13z"/>
</g>
</svg>
