<?xml version="1.0" standalone="no"?>
<!DOCTYPE svg PUBLIC "-//W3C//DTD SVG 20010904//EN"
 "http://www.w3.org/TR/2001/REC-SVG-20010904/DTD/svg10.dtd">
<svg version="1.0" xmlns="http://www.w3.org/2000/svg"
 width="1024.000000pt" height="239.000000pt" viewBox="0 0 1024.000000 239.000000"
 preserveAspectRatio="xMidYMid meet">
<metadata>
Created by potrace 1.11, written by Peter Selinger 2001-2013
</metadata>
<g transform="translate(0.000000,239.000000) scale(0.100000,-0.100000)"
fill="#000000" stroke="none">
<path d="M6400 2195 c-19 -7 -57 -18 -85 -24 -47 -11 -100 -51 -77 -59 16 -5
-23 -40 -75 -68 -25 -13 -52 -29 -59 -35 -22 -18 -126 -79 -135 -79 -13 0
-128 -60 -134 -70 -4 -6 -13 -10 -21 -10 -8 0 -69 -33 -137 -73 -150 -89 -322
-179 -330 -171 -11 12 -77 -18 -97 -43 -27 -34 -26 -38 17 -63 29 -17 34 -24
23 -30 -8 -4 -94 -34 -190 -65 -96 -32 -181 -62 -187 -67 -7 -6 -13 -7 -13 -2
0 4 -5 3 -12 -4 -7 -7 -18 -12 -26 -12 -23 0 -277 -92 -280 -102 -2 -4 -7 -6
-12 -3 -8 5 -170 -52 -184 -65 -5 -5 -4 -28 4 -55 7 -25 10 -48 8 -51 -3 -3
-21 8 -39 23 -19 15 -28 20 -20 10 7 -9 97 -85 200 -169 168 -138 364 -308
416 -361 19 -19 19 -19 -10 1 -16 11 -48 38 -70 58 -21 20 -89 74 -150 120
-60 45 -157 121 -215 168 -58 47 -111 86 -117 86 -23 0 -13 -38 15 -59 77 -57
121 -91 189 -145 41 -32 99 -76 129 -96 30 -20 96 -75 146 -121 131 -120 456
-355 508 -368 8 -1 29 -14 47 -27 17 -13 42 -24 54 -24 22 0 253 108 409 190
19 10 91 45 160 78 69 33 149 71 179 85 47 22 56 24 69 11 17 -18 42 -2 42 27
0 10 9 24 21 32 28 20 22 58 -13 75 -24 11 -59 66 -141 225 -12 24 -25 36 -33
33 -8 -3 -14 1 -14 8 0 12 58 68 145 140 l30 24 -125 124 c-231 228 -310 298
-337 298 -13 0 -43 -11 -66 -24 -23 -13 -94 -43 -156 -66 l-115 -43 -50 57
c-40 43 -58 57 -81 57 -21 1 -24 3 -10 6 11 3 31 15 45 27 14 13 63 35 110 50
116 36 178 61 290 115 128 61 202 112 274 189 34 35 81 79 106 97 39 29 52 33
85 28 35 -4 48 1 106 39 36 25 73 47 82 51 24 9 42 58 26 68 -10 6 -10 11 0
23 33 40 -42 59 -119 31z m-130 -65 c0 -5 -5 -10 -11 -10 -5 0 -7 5 -4 10 3 6
8 10 11 10 2 0 4 -4 4 -10z m-201 -245 c-41 -43 -212 -152 -289 -184 -144 -62
-172 -72 -176 -68 -2 2 47 34 108 72 62 37 120 74 128 81 19 16 241 133 254
134 5 0 -6 -16 -25 -35z m-539 -275 c0 -5 -4 -10 -9 -10 -5 0 -18 -3 -28 -6
-16 -5 -16 -4 1 10 23 18 36 20 36 6z m-173 -195 c40 -11 68 -26 95 -52 21
-21 34 -39 28 -41 -6 -2 -63 -40 -126 -83 -63 -43 -131 -86 -150 -95 -18 -9
-34 -23 -34 -31 0 -8 46 -60 103 -116 146 -145 205 -212 244 -279 19 -33 40
-61 47 -64 23 -9 168 36 180 55 4 5 39 20 79 32 39 12 77 25 82 29 6 4 37 17
70 30 33 13 66 28 73 33 7 5 15 7 19 3 3 -3 21 5 39 19 38 29 54 32 54 9 0
-17 49 -89 107 -158 31 -37 32 -41 17 -58 -9 -9 -42 -27 -72 -38 -31 -12 -60
-24 -66 -28 -6 -4 -13 -7 -16 -7 -23 -3 -139 -52 -213 -91 -16 -8 -33 -12 -38
-8 -5 3 -9 0 -9 -6 0 -6 -6 -10 -12 -9 -7 1 -26 -3 -41 -9 -16 -7 -35 -12 -43
-12 -8 0 -14 -4 -14 -10 0 -5 -7 -10 -15 -10 -8 0 -38 -11 -67 -24 -29 -13
-86 -36 -126 -50 -113 -40 -115 -42 -107 -84 6 -32 5 -34 -9 -23 -9 8 -16 19
-16 26 0 7 -42 46 -92 86 -51 40 -95 76 -98 79 -11 12 -243 220 -341 306 -57
51 -133 114 -169 141 -36 26 -93 75 -127 107 -35 32 -81 72 -104 89 -22 16
-37 33 -32 37 14 14 343 140 538 207 105 35 212 75 239 89 59 28 51 28 123 9z
m620 -71 c48 -48 120 -114 158 -147 39 -33 79 -74 89 -90 l20 -30 -35 -31
c-75 -66 -114 -96 -125 -96 -6 0 -23 11 -38 25 -15 14 -30 25 -34 25 -4 0 -22
14 -41 30 -19 17 -36 28 -39 25 -3 -3 4 -12 16 -21 12 -8 22 -21 22 -29 0 -7
6 -15 13 -18 20 -7 -1 -22 -103 -73 -52 -26 -104 -55 -115 -64 -11 -10 -42
-30 -70 -45 -27 -15 -58 -36 -68 -46 -27 -28 -43 -23 -75 24 -16 23 -91 104
-166 179 -102 103 -133 140 -124 147 7 6 29 23 48 39 38 32 144 99 207 130 21
11 55 28 75 39 l38 19 86 -83 c47 -46 89 -83 93 -83 3 0 26 -25 49 -55 49 -62
66 -70 50 -22 -13 36 -74 113 -132 166 -22 20 -47 44 -55 54 -9 11 -25 23 -36
27 -17 7 -11 12 40 35 62 29 131 53 152 54 7 1 52 -38 100 -85z m-1422 -394
c3 -5 1 -10 -4 -10 -6 0 -11 5 -11 10 0 6 2 10 4 10 3 0 8 -4 11 -10z m1480
-40 c3 -5 -4 -14 -17 -19 -22 -10 -136 -55 -168 -68 -10 -4 -12 -3 -5 4 6 6
39 23 75 39 36 16 71 34 78 41 16 16 29 17 37 3z m-1034 -407 c13 -16 12 -17
-3 -4 -10 7 -18 15 -18 17 0 8 8 3 21 -13z m555 -259 c-41 -21 -75 -33 -85
-29 -11 5 8 16 59 35 101 39 109 36 26 -6z"/>
<path d="M762 1930 c-103 -46 -162 -128 -162 -224 0 -97 31 -101 49 -7 13 68
52 127 113 171 47 35 80 38 124 11 32 -20 64 -74 64 -110 0 -18 -3 -20 -19
-11 -29 15 -64 13 -58 -4 11 -28 100 -136 113 -136 14 0 94 141 94 166 0 14
-7 16 -39 11 -38 -5 -40 -4 -65 44 -29 53 -66 87 -103 94 -12 3 -33 7 -45 10
-13 2 -42 -5 -66 -15z"/>
<path d="M789 1511 c-13 -10 -96 -67 -184 -126 -280 -190 -515 -377 -515 -411
0 -17 12 -18 27 -3 9 9 21 7 49 -6 33 -15 54 -17 153 -11 64 4 184 9 266 12
83 3 154 9 159 14 5 5 6 16 2 26 -7 18 -35 18 -422 -2 -183 -10 -181 -4 60
178 116 88 299 211 384 259 42 23 43 23 57 5 18 -24 23 -77 30 -326 3 -113 8
-216 10 -230 2 -14 4 -39 4 -57 1 -26 18 -48 99 -130 131 -131 339 -359 369
-405 23 -34 29 -37 91 -44 122 -14 2257 -8 2327 6 27 5 30 10 33 49 3 42 1 45
-91 139 -139 144 -289 334 -342 435 -14 26 -37 96 -51 155 -36 155 -81 285
-117 340 l-32 47 -210 -5 c-603 -14 -921 -1 -1594 66 -507 50 -529 51 -562 25z
m576 -71 c395 -40 492 -49 605 -56 63 -4 133 -9 155 -11 22 -2 247 -6 500 -9
280 -3 476 -9 502 -15 37 -10 44 -17 64 -63 28 -65 100 -357 102 -415 2 -41 0
-45 -28 -53 -41 -12 -582 -15 -1070 -5 -220 5 -560 10 -755 13 -195 2 -391 6
-435 7 l-80 2 -7 40 c-4 22 -12 153 -18 290 -6 138 -13 263 -17 279 l-6 29
144 -6 c79 -4 234 -16 344 -27z m395 -673 c695 -12 1224 -15 1460 -8 l134 4
61 -65 c34 -35 87 -102 118 -149 67 -100 81 -116 128 -152 42 -31 55 -63 31
-72 -42 -16 -2143 -27 -2247 -11 -49 7 -55 12 -224 184 -208 212 -258 270
-239 277 23 7 72 12 88 8 8 -2 319 -10 690 -16z"/>
<path d="M8271 1424 c-12 -9 -40 -52 -63 -97 -52 -104 -93 -157 -122 -157 -12
0 -37 11 -55 25 -19 13 -83 45 -143 70 -60 25 -152 68 -204 95 -76 40 -104 50
-143 50 -35 0 -51 -4 -55 -15 -3 -9 -13 -113 -21 -233 -20 -284 -22 -297 -50
-330 l-24 -29 27 -25 c61 -54 126 -101 241 -173 67 -42 152 -97 189 -123 37
-27 92 -61 122 -77 30 -15 68 -38 83 -51 16 -13 41 -24 57 -24 59 0 75 15 119
107 23 48 54 103 67 121 47 61 81 44 264 -133 71 -69 135 -125 143 -125 7 0
35 -14 62 -32 l48 -32 24 30 c37 46 118 211 148 301 14 46 32 83 38 83 10 0
209 -154 397 -308 47 -38 58 -43 98 -40 27 2 48 9 53 18 5 8 24 49 44 90 37
77 113 183 186 258 l43 44 -12 69 c-7 38 -21 157 -32 264 -20 195 -29 230 -63
241 -24 8 -39 -6 -94 -90 -26 -39 -77 -102 -114 -139 -78 -80 -65 -81 -194 18
-44 34 -107 80 -140 102 -33 22 -90 66 -128 96 -77 64 -103 75 -124 54 -8 -8
-30 -60 -48 -115 -38 -112 -66 -172 -89 -191 -13 -11 -29 1 -108 76 -152 145
-355 322 -381 332 -18 7 -30 5 -46 -5z m-607 -110 c150 -60 369 -181 380 -211
8 -19 5 -433 -3 -548 l-6 -80 -38 1 c-26 1 -61 16 -115 49 -86 53 -240 161
-319 224 l-53 41 0 143 c0 168 16 370 30 398 14 25 18 25 124 -17z m845 -88
c69 -63 150 -139 180 -169 l54 -55 -2 -148 c0 -81 -5 -152 -10 -157 -5 -5 -26
0 -51 13 -40 20 -42 24 -35 53 4 18 8 39 8 47 2 13 -114 100 -133 100 -5 0
-30 -16 -56 -36 -45 -35 -50 -36 -73 -23 -14 8 -36 30 -48 48 -20 29 -23 48
-24 130 -1 110 1 164 7 170 10 10 55 -46 64 -80 12 -43 26 -57 66 -65 21 -4
37 0 57 16 15 12 27 26 27 31 0 15 -163 138 -192 145 -24 5 -28 11 -28 39 0
94 28 85 189 -59z m-255 12 c10 -38 7 -168 -5 -189 -10 -19 -12 -19 -29 -4
-16 15 -20 14 -53 -5 -43 -26 -52 -16 -42 48 16 109 110 218 129 150z m842
-46 c79 -53 301 -231 326 -261 28 -33 34 -65 47 -291 10 -173 6 -210 -23 -210
-45 0 -298 174 -368 253 -41 46 -37 57 15 45 43 -10 99 -7 128 6 11 5 39 -9
84 -39 67 -44 89 -53 99 -37 8 13 -7 28 -62 62 -58 36 -72 54 -72 100 0 34
-63 111 -113 136 -25 14 -31 14 -52 0 -13 -9 -34 -37 -46 -63 l-22 -48 -9 60
c-9 61 -4 287 7 305 9 15 16 13 61 -18z m-152 -88 c4 -14 4 -51 2 -82 -3 -32
-8 -86 -11 -122 -13 -154 -51 -391 -72 -440 -24 -60 -33 -16 -40 197 -7 217 1
271 53 390 39 89 57 103 68 57z m777 -21 c1 -16 3 -57 5 -93 6 -97 1 -111 -39
-103 -44 8 -44 9 -13 42 20 21 26 35 21 50 -6 21 -15 25 -47 22 -25 -3 -23 8
12 62 34 53 59 62 61 20z m-1468 -128 c-1 -22 -5 -88 -9 -148 l-7 -107 -38
-22 c-48 -27 -55 -45 -29 -73 11 -12 20 -28 20 -37 0 -23 -39 -68 -60 -68 -27
0 -33 41 -31 227 l1 82 37 -1 c28 -1 41 5 60 26 32 38 21 49 -39 41 l-49 -7 3
33 c2 28 12 40 52 67 27 18 59 32 70 30 18 -3 21 -9 19 -43z m1347 -116 c0 -6
-8 -24 -17 -41 -18 -29 -18 -30 6 -49 22 -18 22 -20 7 -44 -22 -34 -20 -44 10
-51 21 -5 31 0 54 27 45 53 36 15 -23 -91 -70 -127 -83 -128 -91 -8 -14 213
-12 250 9 259 29 11 45 11 45 -2z m-1232 -19 c4 0 32 -20 62 -45 30 -25 75
-52 100 -60 25 -8 59 -24 75 -36 17 -11 52 -31 78 -45 60 -31 72 -58 76 -169
2 -77 1 -85 -16 -85 -21 1 -214 141 -310 226 -85 74 -103 105 -103 173 0 44 3
52 16 47 9 -3 19 -6 22 -6z m1352 2 c0 -13 -12 -22 -22 -16 -10 6 -1 24 13 24
5 0 9 -4 9 -8z m-573 -27 c-4 -8 -17 -15 -29 -15 l-23 1 24 20 c26 21 37 19
28 -6z"/>
<path d="M7578 1198 c-6 -67 4 -88 42 -88 41 0 156 -45 192 -75 16 -14 33 -25
36 -25 16 1 32 17 33 35 5 47 -1 65 -23 69 -13 3 -48 10 -79 16 -48 9 -66 20
-115 65 -33 30 -64 55 -71 55 -6 0 -13 -22 -15 -52z"/>
<path d="M9080 1103 c0 -25 9 -35 62 -68 74 -48 95 -57 104 -44 10 17 -22 54
-79 93 -80 52 -87 54 -87 19z"/>
</g>
</svg>
